%TF.GenerationSoftware,KiCad,Pcbnew,8.0.8-8.0.8-0~ubuntu24.04.1*%
%TF.CreationDate,2025-02-12T10:46:20-05:00*%
%TF.ProjectId,Strojni_posuv,5374726f-6a6e-4695-9f70-6f7375762e6b,rev?*%
%TF.SameCoordinates,Original*%
%TF.FileFunction,Copper,L2,Bot*%
%TF.FilePolarity,Positive*%
%FSLAX46Y46*%
G04 Gerber Fmt 4.6, Leading zero omitted, Abs format (unit mm)*
G04 Created by KiCad (PCBNEW 8.0.8-8.0.8-0~ubuntu24.04.1) date 2025-02-12 10:46:20*
%MOMM*%
%LPD*%
G01*
G04 APERTURE LIST*
G04 Aperture macros list*
%AMRoundRect*
0 Rectangle with rounded corners*
0 $1 Rounding radius*
0 $2 $3 $4 $5 $6 $7 $8 $9 X,Y pos of 4 corners*
0 Add a 4 corners polygon primitive as box body*
4,1,4,$2,$3,$4,$5,$6,$7,$8,$9,$2,$3,0*
0 Add four circle primitives for the rounded corners*
1,1,$1+$1,$2,$3*
1,1,$1+$1,$4,$5*
1,1,$1+$1,$6,$7*
1,1,$1+$1,$8,$9*
0 Add four rect primitives between the rounded corners*
20,1,$1+$1,$2,$3,$4,$5,0*
20,1,$1+$1,$4,$5,$6,$7,0*
20,1,$1+$1,$6,$7,$8,$9,0*
20,1,$1+$1,$8,$9,$2,$3,0*%
G04 Aperture macros list end*
%TA.AperFunction,ComponentPad*%
%ADD10C,2.000000*%
%TD*%
%TA.AperFunction,ComponentPad*%
%ADD11C,2.600000*%
%TD*%
%TA.AperFunction,ComponentPad*%
%ADD12R,2.000000X2.000000*%
%TD*%
%TA.AperFunction,ComponentPad*%
%ADD13R,2.500000X3.000000*%
%TD*%
%TA.AperFunction,ComponentPad*%
%ADD14R,1.700000X1.700000*%
%TD*%
%TA.AperFunction,ComponentPad*%
%ADD15O,1.700000X1.700000*%
%TD*%
%TA.AperFunction,ComponentPad*%
%ADD16C,2.400000*%
%TD*%
%TA.AperFunction,ComponentPad*%
%ADD17R,1.800000X1.800000*%
%TD*%
%TA.AperFunction,ComponentPad*%
%ADD18C,1.800000*%
%TD*%
%TA.AperFunction,ComponentPad*%
%ADD19RoundRect,1.500000X1.500000X-1.500000X1.500000X1.500000X-1.500000X1.500000X-1.500000X-1.500000X0*%
%TD*%
%TA.AperFunction,ComponentPad*%
%ADD20C,6.000000*%
%TD*%
%TA.AperFunction,ComponentPad*%
%ADD21C,1.400000*%
%TD*%
%TA.AperFunction,SMDPad,CuDef*%
%ADD22R,4.200000X0.635000*%
%TD*%
%TA.AperFunction,ComponentPad*%
%ADD23R,5.516000X5.516000*%
%TD*%
%TA.AperFunction,ViaPad*%
%ADD24C,0.600000*%
%TD*%
%TA.AperFunction,ViaPad*%
%ADD25C,0.450000*%
%TD*%
%TA.AperFunction,Conductor*%
%ADD26C,1.000000*%
%TD*%
%TA.AperFunction,Conductor*%
%ADD27C,0.500000*%
%TD*%
%TA.AperFunction,Conductor*%
%ADD28C,0.300000*%
%TD*%
G04 APERTURE END LIST*
D10*
%TO.P,SW3,1,A*%
%TO.N,Net-(SW3A-A)*%
X207500000Y-84500000D03*
X214000000Y-84500000D03*
%TO.P,SW3,2,B*%
%TO.N,+3.3V*%
X207500000Y-89000000D03*
X214000000Y-89000000D03*
%TD*%
D11*
%TO.P,J9,1,Pin_1*%
%TO.N,Net-(J9-Pin_1)*%
X206350000Y-52000000D03*
%TD*%
%TO.P,J13,1,Pin_1*%
%TO.N,+3.3V*%
X190600000Y-36900000D03*
%TD*%
%TO.P,J11,1,Pin_1*%
%TO.N,Net-(J11-Pin_1)*%
X190600000Y-41800000D03*
%TD*%
D12*
%TO.P,SW5,A,A*%
%TO.N,Enc_CLK*%
X96550000Y-80500000D03*
D10*
%TO.P,SW5,B,B*%
%TO.N,Enc_DT*%
X101550000Y-80500000D03*
%TO.P,SW5,C,C*%
%TO.N,GND*%
X99050000Y-80500000D03*
D13*
%TO.P,SW5,MP*%
%TO.N,N/C*%
X94300000Y-73000000D03*
X103800000Y-73000000D03*
D10*
%TO.P,SW5,S1,S1*%
%TO.N,Net-(C10-Pad2)*%
X96550000Y-66000000D03*
%TO.P,SW5,S2,S2*%
%TO.N,+3.3V*%
X101550000Y-66000000D03*
%TD*%
D14*
%TO.P,J4,1,Pin_1*%
%TO.N,/Motor_driver/OUT2B*%
X64250000Y-101875000D03*
D15*
%TO.P,J4,2,Pin_2*%
%TO.N,/Motor_driver/OUT2A*%
X66790000Y-101875000D03*
%TD*%
D11*
%TO.P,J2,1,Pin_1*%
%TO.N,/Power/GND_48V*%
X55000000Y-42500000D03*
%TD*%
D16*
%TO.P,SW4,1,A*%
%TO.N,Net-(SW4-A)*%
X208400000Y-66000000D03*
%TO.P,SW4,2,B*%
%TO.N,+3.3V*%
X211000000Y-66000000D03*
%TO.P,SW4,3,C*%
%TO.N,Net-(SW4-C)*%
X213600000Y-66000000D03*
%TD*%
D14*
%TO.P,J1,1,Pin_1*%
%TO.N,GND*%
X130980000Y-103000000D03*
D15*
%TO.P,J1,2,Pin_2*%
%TO.N,+5V*%
X133520000Y-103000000D03*
%TO.P,J1,3,Pin_3*%
%TO.N,unconnected-(J1-Pin_3-Pad3)*%
X136060000Y-103000000D03*
%TO.P,J1,4,Pin_4*%
%TO.N,GLCD_RST*%
X138600000Y-103000000D03*
%TO.P,J1,5,Pin_5*%
%TO.N,unconnected-(J1-Pin_5-Pad5)*%
X141140000Y-103000000D03*
%TO.P,J1,6,Pin_6*%
%TO.N,GND*%
X143680000Y-103000000D03*
%TO.P,J1,7,Pin_7*%
%TO.N,unconnected-(J1-Pin_7-Pad7)*%
X146220000Y-103000000D03*
%TO.P,J1,8,Pin_8*%
%TO.N,unconnected-(J1-Pin_8-Pad8)*%
X148760000Y-103000000D03*
%TO.P,J1,9,Pin_9*%
%TO.N,unconnected-(J1-Pin_9-Pad9)*%
X151300000Y-103000000D03*
%TO.P,J1,10,Pin_10*%
%TO.N,unconnected-(J1-Pin_10-Pad10)*%
X153840000Y-103000000D03*
%TO.P,J1,11,Pin_11*%
%TO.N,unconnected-(J1-Pin_11-Pad11)*%
X156380000Y-103000000D03*
%TO.P,J1,12,Pin_12*%
%TO.N,unconnected-(J1-Pin_12-Pad12)*%
X158920000Y-103000000D03*
%TO.P,J1,13,Pin_13*%
%TO.N,unconnected-(J1-Pin_13-Pad13)*%
X161460000Y-103000000D03*
%TO.P,J1,14,Pin_14*%
%TO.N,unconnected-(J1-Pin_14-Pad14)*%
X164000000Y-103000000D03*
%TO.P,J1,15,Pin_15*%
%TO.N,GLCD_SCK*%
X166540000Y-103000000D03*
%TO.P,J1,16,Pin_16*%
%TO.N,GLCD_SID*%
X169080000Y-103000000D03*
%TO.P,J1,17,Pin_17*%
%TO.N,GLCD_CS*%
X171620000Y-103000000D03*
%TO.P,J1,18,Pin_18*%
%TO.N,unconnected-(J1-Pin_18-Pad18)*%
X174160000Y-103000000D03*
%TO.P,J1,19,Pin_19*%
%TO.N,+5V*%
X176700000Y-103000000D03*
%TO.P,J1,20,Pin_20*%
%TO.N,GND*%
X179240000Y-103000000D03*
%TD*%
D11*
%TO.P,J12,1,Pin_1*%
%TO.N,Net-(J12-Pin_1)*%
X203500000Y-40500000D03*
%TD*%
%TO.P,J14,1,Pin_1*%
%TO.N,+3.3V*%
X203500000Y-35500000D03*
%TD*%
%TO.P,J10,1,Pin_1*%
%TO.N,+3.3V*%
X211000000Y-52000000D03*
%TD*%
%TO.P,J7,1,Pin_1*%
%TO.N,Net-(J7-Pin_1)*%
X169250000Y-52000000D03*
%TD*%
D10*
%TO.P,SW2,1,A*%
%TO.N,Net-(SW2A-A)*%
X97000000Y-86500000D03*
X103500000Y-86500000D03*
%TO.P,SW2,2,B*%
%TO.N,+3.3V*%
X97000000Y-91000000D03*
X103500000Y-91000000D03*
%TD*%
D11*
%TO.P,J8,1,Pin_1*%
%TO.N,+3.3V*%
X174500000Y-52000000D03*
%TD*%
D14*
%TO.P,J3,1,Pin_1*%
%TO.N,/Motor_driver/OUT1B*%
X72250000Y-101875000D03*
D15*
%TO.P,J3,2,Pin_2*%
%TO.N,/Motor_driver/OUT1A*%
X74790000Y-101875000D03*
%TD*%
D11*
%TO.P,J6,1,Pin_1*%
%TO.N,GND*%
X59650000Y-42500000D03*
%TD*%
D17*
%TO.P,D2,1,RK*%
%TO.N,Net-(D2-RK)*%
X79182000Y-103000000D03*
D18*
%TO.P,D2,2,GK*%
%TO.N,Net-(D2-GK)*%
X81341000Y-103000000D03*
%TO.P,D2,3,BK*%
%TO.N,Net-(D2-BK)*%
X83500000Y-103000000D03*
%TO.P,D2,4,A*%
%TO.N,GND*%
X85659000Y-103000000D03*
%TD*%
D14*
%TO.P,J15,1,Pin_1*%
%TO.N,unconnected-(J15-Pin_1-Pad1)*%
X159200000Y-79700000D03*
D15*
%TO.P,J15,2,Pin_2*%
%TO.N,/NRST*%
X156660000Y-79700000D03*
%TO.P,J15,3,Pin_3*%
%TO.N,+3.3V*%
X154120000Y-79700000D03*
%TO.P,J15,4,Pin_4*%
%TO.N,GND*%
X151580000Y-79700000D03*
%TO.P,J15,5,Pin_5*%
%TO.N,/SWDIO*%
X149040000Y-79700000D03*
%TO.P,J15,6,Pin_6*%
%TO.N,/SWCLK*%
X146500000Y-79700000D03*
%TD*%
D19*
%TO.P,J5,1,Pin_1*%
%TO.N,/Power/GND_48V*%
X57500000Y-57100000D03*
D20*
%TO.P,J5,2,Pin_2*%
%TO.N,+48V*%
X57500000Y-49900000D03*
%TD*%
D21*
%TO.P,IC1,1,ALERT*%
%TO.N,Net-(IC1-ALERT)*%
X69330950Y-92070000D03*
D22*
%TO.P,IC1,2_1,SGND*%
%TO.N,GND*%
X73230950Y-91070000D03*
D21*
%TO.P,IC1,3,TQ*%
%TO.N,/Motor_driver/TQ*%
X69330950Y-90070000D03*
D22*
%TO.P,IC1,4_1,LATCH/AUTO*%
%TO.N,LTC*%
X73230950Y-89070000D03*
D21*
%TO.P,IC1,5,VREF*%
%TO.N,Net-(IC1-VREF)*%
X69330950Y-88070000D03*
D22*
%TO.P,IC1,6_1,VCC*%
%TO.N,+48V*%
X73230950Y-87070000D03*
D21*
%TO.P,IC1,7,M1*%
%TO.N,M1*%
X69330950Y-86070000D03*
D22*
%TO.P,IC1,8_1,M2*%
%TO.N,M2*%
X73230950Y-85070000D03*
D21*
%TO.P,IC1,9,M3*%
%TO.N,M3*%
X69330950Y-84070000D03*
D22*
%TO.P,IC1,10_1,OUT2B*%
%TO.N,/Motor_driver/OUT2B*%
X73230950Y-83070000D03*
D21*
%TO.P,IC1,11,NFB*%
%TO.N,Net-(IC1-NFB)*%
X69330950Y-82070000D03*
D22*
%TO.P,IC1,12_1,OUT1B*%
%TO.N,/Motor_driver/OUT1B*%
X73230950Y-81070000D03*
D21*
%TO.P,IC1,13,PGNDB*%
%TO.N,GND*%
X69330950Y-80070000D03*
D22*
%TO.P,IC1,14_1,OUT2A*%
%TO.N,/Motor_driver/OUT2A*%
X73230950Y-79070000D03*
D21*
%TO.P,IC1,15,NFA*%
%TO.N,Net-(IC1-NFA)*%
X69330950Y-78070000D03*
D22*
%TO.P,IC1,16_1,OUT1A*%
%TO.N,/Motor_driver/OUT1A*%
X73230950Y-77070000D03*
D21*
%TO.P,IC1,17,PGNDA*%
%TO.N,GND*%
X69330950Y-76070000D03*
D22*
%TO.P,IC1,18_1,ENABLE*%
%TO.N,/Motor_driver/ENB*%
X73230950Y-75070000D03*
D21*
%TO.P,IC1,19,RESET*%
%TO.N,+5V*%
X69330950Y-74070000D03*
D22*
%TO.P,IC1,20_1,VCC@1*%
%TO.N,+48V*%
X73230950Y-73070000D03*
D21*
%TO.P,IC1,21,CLK*%
%TO.N,/Motor_driver/CLK_L*%
X69330950Y-72070000D03*
D22*
%TO.P,IC1,22_1,CW/CCW*%
%TO.N,/Motor_driver/DIR_L*%
X73230950Y-71070000D03*
D21*
%TO.P,IC1,23,OSC*%
%TO.N,Net-(IC1-OSC)*%
X69330950Y-70070000D03*
D22*
%TO.P,IC1,24_1,VREG*%
%TO.N,Net-(IC1-VREG)*%
X73230950Y-69070000D03*
D21*
%TO.P,IC1,25,MO*%
%TO.N,unconnected-(IC1-MO-Pad25)*%
X69330950Y-68070000D03*
D23*
%TO.P,IC1,P$1*%
%TO.N,N/C*%
X59030950Y-92900000D03*
%TO.P,IC1,P$2*%
X59030950Y-67100000D03*
%TD*%
D24*
%TO.N,+48V*%
X76700000Y-87000000D03*
X77600000Y-74800000D03*
X77000000Y-74200000D03*
X82700000Y-48100000D03*
X81100000Y-47350000D03*
D25*
%TO.N,+5V*%
X125500000Y-42400000D03*
X125500000Y-63200000D03*
X125500000Y-47000000D03*
X69250000Y-53250000D03*
X125500000Y-58300000D03*
X135700000Y-86800000D03*
X80000000Y-60135000D03*
X125600000Y-68800000D03*
X125500000Y-52900000D03*
%TO.N,GND*%
X96500000Y-49500000D03*
X150900000Y-50700000D03*
X84300000Y-88800000D03*
X179500000Y-42900000D03*
X184700000Y-72100000D03*
X160400000Y-76700000D03*
X150000000Y-45600000D03*
X150500000Y-40100000D03*
X164100000Y-82700000D03*
X110600000Y-43800000D03*
X187300000Y-87700000D03*
X192100000Y-85800000D03*
X145600000Y-35600000D03*
X174900000Y-38600000D03*
X187200000Y-93100000D03*
X153400000Y-82800000D03*
X164300000Y-69000000D03*
X84700000Y-91500000D03*
X90300000Y-80900000D03*
X150600000Y-61700000D03*
X116000000Y-43750000D03*
X164500000Y-91900000D03*
X176000000Y-89750000D03*
X98750000Y-43750000D03*
X103250000Y-38250000D03*
X157700000Y-95000000D03*
X171500000Y-90900000D03*
X178800000Y-43800000D03*
X150500000Y-56300000D03*
%TO.N,+3.3V*%
X116000000Y-52000000D03*
X131500000Y-41200000D03*
X189750000Y-84250000D03*
X107300000Y-76900000D03*
X131500000Y-62300000D03*
X131500000Y-56900000D03*
X131625000Y-67575000D03*
X160700000Y-73500000D03*
X169900000Y-87300000D03*
X131425000Y-51675000D03*
X131500000Y-46200000D03*
X110200000Y-83000000D03*
X186800000Y-75500000D03*
%TO.N,/Motor_driver/TQ*%
X75000000Y-58000000D03*
%TO.N,/Motor_driver/ENB*%
X94300000Y-92800000D03*
%TO.N,M3*%
X128500000Y-47000000D03*
%TO.N,/Motor_driver/OUT1A*%
X81500000Y-97250000D03*
%TO.N,M2*%
X77950000Y-86550000D03*
X121900000Y-45000000D03*
X80400000Y-78200000D03*
%TO.N,LTC*%
X89500000Y-91200000D03*
X122500000Y-55000000D03*
X77250000Y-90000000D03*
%TO.N,M1*%
X126200000Y-37500000D03*
%TO.N,Net-(IC1-VREG)*%
X81500000Y-72250000D03*
%TO.N,/Motor_driver/CLK_L*%
X79000000Y-59000000D03*
X68250000Y-58000000D03*
X67250000Y-64000000D03*
%TO.N,/Motor_driver/DIR_L*%
X89300000Y-96300000D03*
X82500000Y-74500000D03*
X89300000Y-93600000D03*
%TO.N,M1_STM*%
X141900000Y-35500000D03*
X180200000Y-77600000D03*
%TO.N,M3_STM*%
X141900000Y-46500000D03*
X179100000Y-79300000D03*
%TO.N,LTC_STM*%
X142200000Y-52000000D03*
X177900000Y-82300000D03*
%TO.N,M2_STM*%
X142000000Y-41000000D03*
X179700000Y-78800000D03*
%TO.N,STEP_STM*%
X142275000Y-57525000D03*
X177625000Y-77300000D03*
%TO.N,GLCD_RST*%
X181200000Y-85100000D03*
%TO.N,CLK*%
X94000000Y-89100000D03*
X123800000Y-59000000D03*
%TO.N,Button_left_max*%
X179800000Y-85100000D03*
X182000000Y-70000000D03*
%TO.N,Button_left_fast*%
X196500000Y-80800000D03*
X188100000Y-47000000D03*
%TO.N,GLCD_CS*%
X182500000Y-85300000D03*
%TO.N,Button_gen_stop*%
X180500000Y-83400000D03*
X185500000Y-82700000D03*
%TO.N,GLCD_SCK*%
X174300000Y-82600000D03*
X167100000Y-92300000D03*
%TO.N,DIR_STM*%
X142200000Y-63000000D03*
X176700000Y-80100000D03*
%TO.N,GLCD_SID*%
X181800000Y-85400000D03*
%TO.N,/SWDIO*%
X175950000Y-73950000D03*
%TO.N,/NRST*%
X177000000Y-85700000D03*
%TO.N,Button_conf*%
X172600000Y-88800000D03*
X177086091Y-84700000D03*
%TO.N,Button_right_max*%
X197500000Y-81500000D03*
X203300000Y-57100000D03*
%TO.N,Net-(D2-RK)*%
X176400000Y-66800000D03*
%TO.N,Net-(D2-GK)*%
X178500000Y-67600000D03*
%TO.N,Net-(D2-BK)*%
X180300000Y-68400000D03*
%TO.N,Button_encoder*%
X178250000Y-85000000D03*
X166700000Y-74500000D03*
%TO.N,Enc_CLK*%
X175550000Y-77450000D03*
X170600000Y-77500000D03*
%TO.N,/SWCLK*%
X172300000Y-76200000D03*
%TD*%
D26*
%TO.N,+48V*%
X84300000Y-49700000D02*
X81950000Y-47350000D01*
X81950000Y-47350000D02*
X81100000Y-47350000D01*
X76700000Y-87000000D02*
X73300950Y-87000000D01*
X73300950Y-87000000D02*
X73230950Y-87070000D01*
D27*
%TO.N,M2*%
X77950000Y-86550000D02*
X76470000Y-85070000D01*
X76470000Y-85070000D02*
X73230950Y-85070000D01*
D26*
%TO.N,+48V*%
X77000000Y-74200000D02*
X75870000Y-73070000D01*
X78600000Y-75800000D02*
X77600000Y-74800000D01*
X84300000Y-49700000D02*
X84300000Y-75100000D01*
X83600000Y-75800000D02*
X78600000Y-75800000D01*
X84300000Y-75100000D02*
X83600000Y-75800000D01*
X75870000Y-73070000D02*
X73230950Y-73070000D01*
D27*
%TO.N,M2*%
X80400000Y-78200000D02*
X83100000Y-78200000D01*
X83100000Y-78200000D02*
X88300000Y-73000000D01*
X88300000Y-73000000D02*
X88300000Y-51400000D01*
X88300000Y-51400000D02*
X94700000Y-45000000D01*
X94700000Y-45000000D02*
X121900000Y-45000000D01*
%TO.N,/Motor_driver/OUT1B*%
X73230950Y-81070000D02*
X75570000Y-81070000D01*
X75570000Y-81070000D02*
X79500000Y-85000000D01*
X79500000Y-85000000D02*
X79500000Y-91500000D01*
X79500000Y-91500000D02*
X72250000Y-98750000D01*
X72250000Y-98750000D02*
X72250000Y-101875000D01*
%TO.N,/Motor_driver/OUT2A*%
X73230950Y-79070000D02*
X75570000Y-79070000D01*
X75570000Y-79070000D02*
X80500000Y-84000000D01*
X80500000Y-97250000D02*
X77000000Y-100750000D01*
X80500000Y-84000000D02*
X80500000Y-97250000D01*
X77000000Y-100750000D02*
X77000000Y-103000000D01*
X77000000Y-103000000D02*
X76250000Y-103750000D01*
X76250000Y-103750000D02*
X68665000Y-103750000D01*
X68665000Y-103750000D02*
X66790000Y-101875000D01*
%TO.N,/Motor_driver/OUT2B*%
X64250000Y-100475000D02*
X64250000Y-101875000D01*
%TO.N,+5V*%
X125500000Y-68700000D02*
X125600000Y-68800000D01*
X135700000Y-86800000D02*
X135700000Y-84600000D01*
X125500000Y-52900000D02*
X125500000Y-68700000D01*
X78250000Y-53250000D02*
X69250000Y-53250000D01*
X135700000Y-84600000D02*
X125600000Y-74500000D01*
X125600000Y-74500000D02*
X125600000Y-68800000D01*
X125500000Y-47700000D02*
X125500000Y-52900000D01*
X125500000Y-42400000D02*
X125500000Y-47700000D01*
X80000000Y-55000000D02*
X78250000Y-53250000D01*
X80000000Y-60135000D02*
X80000000Y-55000000D01*
D28*
%TO.N,+3.3V*%
X131500000Y-51750000D02*
X131425000Y-51675000D01*
X131500000Y-46200000D02*
X131500000Y-41200000D01*
X131625000Y-67575000D02*
X131500000Y-67450000D01*
D27*
X107300000Y-76900000D02*
X107300000Y-71750000D01*
X107300000Y-71750000D02*
X101550000Y-66000000D01*
D28*
X131425000Y-51675000D02*
X131425000Y-46275000D01*
D27*
X116000000Y-52000000D02*
X115550000Y-52000000D01*
D28*
X131500000Y-67450000D02*
X131500000Y-62300000D01*
D27*
X115550000Y-52000000D02*
X101550000Y-66000000D01*
D28*
X160320000Y-73500000D02*
X154120000Y-79700000D01*
X160700000Y-73500000D02*
X169900000Y-82700000D01*
X131425000Y-46275000D02*
X131500000Y-46200000D01*
D27*
X110200000Y-84300000D02*
X103500000Y-91000000D01*
D28*
X189750000Y-84250000D02*
X189750000Y-78450000D01*
X169900000Y-82700000D02*
X169900000Y-87300000D01*
D27*
X110200000Y-83000000D02*
X110200000Y-84300000D01*
D28*
X160700000Y-73500000D02*
X160320000Y-73500000D01*
X131500000Y-62300000D02*
X131500000Y-51750000D01*
X189750000Y-78450000D02*
X186800000Y-75500000D01*
%TO.N,/Motor_driver/TQ*%
X70500000Y-88900950D02*
X69330950Y-90070000D01*
X70500000Y-62500000D02*
X70500000Y-88900950D01*
X75000000Y-58000000D02*
X70500000Y-62500000D01*
%TO.N,/Motor_driver/ENB*%
X85225000Y-90225000D02*
X87800000Y-92800000D01*
X73230950Y-75070000D02*
X75470000Y-75070000D01*
X87800000Y-92800000D02*
X94300000Y-92800000D01*
X85225000Y-84825000D02*
X85225000Y-90225000D01*
X83100000Y-82700000D02*
X85225000Y-84825000D01*
X75470000Y-75070000D02*
X83100000Y-82700000D01*
%TO.N,M3*%
X126500000Y-45000000D02*
X126500000Y-42200000D01*
X128500000Y-47000000D02*
X126500000Y-45000000D01*
X66300000Y-81039050D02*
X69330950Y-84070000D01*
X125800000Y-41500000D02*
X78700000Y-41500000D01*
X66300000Y-53900000D02*
X66300000Y-81039050D01*
X126500000Y-42200000D02*
X125800000Y-41500000D01*
X78700000Y-41500000D02*
X66300000Y-53900000D01*
D27*
%TO.N,/Motor_driver/OUT1A*%
X81500000Y-83500000D02*
X75070000Y-77070000D01*
X75070000Y-77070000D02*
X73230950Y-77070000D01*
X81500000Y-97250000D02*
X81500000Y-83500000D01*
%TO.N,/Motor_driver/OUT2B*%
X73230950Y-83070000D02*
X75820000Y-83070000D01*
X75820000Y-83070000D02*
X78750000Y-86000000D01*
X70975000Y-93750000D02*
X64250000Y-100475000D01*
X78750000Y-86000000D02*
X78750000Y-90750000D01*
X75750000Y-93750000D02*
X70975000Y-93750000D01*
X78750000Y-90750000D02*
X75750000Y-93750000D01*
%TO.N,LTC*%
X95300000Y-83400000D02*
X102200000Y-83400000D01*
X122500000Y-63100000D02*
X122500000Y-55000000D01*
X94100000Y-87349390D02*
X94100000Y-84600000D01*
X94100000Y-84600000D02*
X95300000Y-83400000D01*
X76320000Y-89070000D02*
X73230950Y-89070000D01*
X90249390Y-91200000D02*
X94100000Y-87349390D01*
X89500000Y-91200000D02*
X90249390Y-91200000D01*
X102200000Y-83400000D02*
X122500000Y-63100000D01*
X77250000Y-90000000D02*
X76320000Y-89070000D01*
D28*
%TO.N,M1*%
X65500000Y-82239050D02*
X69330950Y-86070000D01*
X81200000Y-37500000D02*
X65500000Y-53200000D01*
X126200000Y-37500000D02*
X81200000Y-37500000D01*
X65500000Y-53200000D02*
X65500000Y-82239050D01*
D27*
%TO.N,Net-(IC1-VREG)*%
X73230950Y-69070000D02*
X78320000Y-69070000D01*
X78320000Y-69070000D02*
X81500000Y-72250000D01*
D28*
%TO.N,/Motor_driver/CLK_L*%
X68750000Y-55500000D02*
X68750000Y-57500000D01*
X68750000Y-57500000D02*
X68250000Y-58000000D01*
X69750000Y-54500000D02*
X68750000Y-55500000D01*
X77250000Y-54500000D02*
X69750000Y-54500000D01*
X67250000Y-64000000D02*
X68250000Y-63000000D01*
X68250000Y-63000000D02*
X68250000Y-58000000D01*
X79000000Y-56250000D02*
X77250000Y-54500000D01*
X79000000Y-59000000D02*
X79000000Y-56250000D01*
%TO.N,/Motor_driver/DIR_L*%
X79070000Y-71070000D02*
X73230950Y-71070000D01*
X82500000Y-74500000D02*
X79070000Y-71070000D01*
X89300000Y-93600000D02*
X89300000Y-96300000D01*
D27*
X75013450Y-71070000D02*
X73230950Y-71070000D01*
D28*
%TO.N,M1_STM*%
X180100000Y-77500000D02*
X180100000Y-73700000D01*
X180200000Y-77600000D02*
X180100000Y-77500000D01*
X180100000Y-73700000D02*
X141900000Y-35500000D01*
%TO.N,M3_STM*%
X179100000Y-79300000D02*
X178800000Y-79000000D01*
X178800000Y-79000000D02*
X178800000Y-73814212D01*
X178800000Y-73814212D02*
X151485788Y-46500000D01*
X151485788Y-46500000D02*
X141900000Y-46500000D01*
%TO.N,LTC_STM*%
X178200000Y-73921318D02*
X178200000Y-82000000D01*
X156278682Y-52000000D02*
X178200000Y-73921318D01*
X178200000Y-82000000D02*
X177900000Y-82300000D01*
X142200000Y-52000000D02*
X156278682Y-52000000D01*
%TO.N,M2_STM*%
X179400000Y-73707106D02*
X146692894Y-41000000D01*
X179400000Y-78500000D02*
X179400000Y-73707106D01*
X179700000Y-78800000D02*
X179400000Y-78500000D01*
X146692894Y-41000000D02*
X142000000Y-41000000D01*
%TO.N,STEP_STM*%
X177300000Y-76975000D02*
X177300000Y-73728424D01*
X177300000Y-73728424D02*
X161096576Y-57525000D01*
X161096576Y-57525000D02*
X142275000Y-57525000D01*
X177625000Y-77300000D02*
X177300000Y-76975000D01*
%TO.N,GLCD_RST*%
X138600000Y-101400000D02*
X139300000Y-100700000D01*
X138600000Y-103000000D02*
X138600000Y-101400000D01*
X139300000Y-100700000D02*
X167700000Y-100700000D01*
X167700000Y-100700000D02*
X181200000Y-87200000D01*
X181200000Y-87200000D02*
X181200000Y-85100000D01*
%TO.N,CLK*%
X103600000Y-84300000D02*
X105100000Y-82800000D01*
X96000000Y-84300000D02*
X97000000Y-84300000D01*
X123700000Y-59100000D02*
X123800000Y-59000000D01*
X105100000Y-82800000D02*
X123700000Y-64200000D01*
X95100000Y-85200000D02*
X96000000Y-84300000D01*
X97000000Y-84300000D02*
X103600000Y-84300000D01*
X123700000Y-64200000D02*
X123700000Y-63900000D01*
X94000000Y-89100000D02*
X95100000Y-88000000D01*
X123700000Y-63900000D02*
X123700000Y-59100000D01*
X95100000Y-88000000D02*
X95100000Y-85200000D01*
%TO.N,Button_left_max*%
X182000000Y-70000000D02*
X181500000Y-70500000D01*
X179800000Y-82600000D02*
X179800000Y-85100000D01*
X181500000Y-70500000D02*
X181500000Y-78400000D01*
X181500000Y-78400000D02*
X181500000Y-80900000D01*
X181500000Y-80900000D02*
X179800000Y-82600000D01*
%TO.N,Button_left_fast*%
X188100000Y-47000000D02*
X197800000Y-56700000D01*
X197800000Y-56700000D02*
X197800000Y-79500000D01*
X197800000Y-79500000D02*
X196500000Y-80800000D01*
%TO.N,GLCD_CS*%
X182500000Y-89600000D02*
X182500000Y-85300000D01*
X171620000Y-103000000D02*
X171620000Y-100480000D01*
X171620000Y-100480000D02*
X182500000Y-89600000D01*
%TO.N,Button_gen_stop*%
X185500000Y-82700000D02*
X181200000Y-82700000D01*
X181200000Y-82700000D02*
X180500000Y-83400000D01*
%TO.N,GLCD_SCK*%
X167100000Y-92300000D02*
X174300000Y-85100000D01*
X174300000Y-85100000D02*
X174300000Y-82600000D01*
%TO.N,DIR_STM*%
X165864470Y-63000000D02*
X142200000Y-63000000D01*
X176700000Y-73835530D02*
X165864470Y-63000000D01*
X176700000Y-80100000D02*
X176700000Y-73835530D01*
%TO.N,GLCD_SID*%
X169080000Y-103000000D02*
X169080000Y-100820000D01*
X181800000Y-88100000D02*
X181800000Y-85400000D01*
X169080000Y-100820000D02*
X181800000Y-88100000D01*
%TO.N,/SWDIO*%
X175950000Y-73950000D02*
X173800000Y-71800000D01*
X156940000Y-71800000D02*
X149040000Y-79700000D01*
X173800000Y-71800000D02*
X156940000Y-71800000D01*
%TO.N,/NRST*%
X177000000Y-85700000D02*
X176500000Y-86200000D01*
X176150000Y-88500000D02*
X168250000Y-96400000D01*
X165800000Y-96400000D02*
X156660000Y-87260000D01*
X156660000Y-87260000D02*
X156660000Y-79700000D01*
X176500000Y-88500000D02*
X176150000Y-88500000D01*
X176500000Y-86200000D02*
X176500000Y-88500000D01*
X168250000Y-96400000D02*
X165800000Y-96400000D01*
%TO.N,Button_conf*%
X177086091Y-84700000D02*
X177086091Y-84713909D01*
X173000000Y-88800000D02*
X172600000Y-88800000D01*
X177086091Y-84713909D02*
X173000000Y-88800000D01*
%TO.N,Button_right_max*%
X197500000Y-81500000D02*
X203300000Y-75700000D01*
X203300000Y-75700000D02*
X203300000Y-57100000D01*
%TO.N,Net-(D2-RK)*%
X85400000Y-107600000D02*
X93500000Y-107600000D01*
X194000000Y-76500000D02*
X184300000Y-66800000D01*
X195400000Y-102700000D02*
X195400000Y-100200000D01*
X80100000Y-107600000D02*
X85400000Y-107600000D01*
X191800000Y-106300000D02*
X195400000Y-102700000D01*
X93500000Y-107600000D02*
X190500000Y-107600000D01*
X195400000Y-100200000D02*
X195400000Y-77900000D01*
X195400000Y-77900000D02*
X194000000Y-76500000D01*
X191900000Y-106200000D02*
X191800000Y-106300000D01*
X190500000Y-107600000D02*
X191900000Y-106200000D01*
X79182000Y-106682000D02*
X80100000Y-107600000D01*
X184300000Y-66800000D02*
X176400000Y-66800000D01*
X79182000Y-103000000D02*
X79182000Y-106682000D01*
%TO.N,Net-(D2-GK)*%
X81341000Y-103000000D02*
X81341000Y-105641000D01*
X194700000Y-102400000D02*
X194700000Y-78400000D01*
X82400000Y-106700000D02*
X190400000Y-106700000D01*
X183900000Y-67600000D02*
X178500000Y-67600000D01*
X190400000Y-106700000D02*
X194700000Y-102400000D01*
X194700000Y-78400000D02*
X183900000Y-67600000D01*
X81341000Y-105641000D02*
X82400000Y-106700000D01*
%TO.N,Net-(D2-BK)*%
X83500000Y-104500000D02*
X84200000Y-105200000D01*
X84200000Y-105200000D02*
X85000000Y-106000000D01*
X83500000Y-103000000D02*
X83500000Y-104500000D01*
X189800000Y-106000000D02*
X193900000Y-101900000D01*
X193900000Y-78900000D02*
X183400000Y-68400000D01*
X85000000Y-106000000D02*
X96700000Y-106000000D01*
X193900000Y-101900000D02*
X193900000Y-78900000D01*
X183400000Y-68400000D02*
X180300000Y-68400000D01*
X96700000Y-106000000D02*
X189800000Y-106000000D01*
%TO.N,Button_encoder*%
X168500000Y-76300000D02*
X168500000Y-78700000D01*
X166700000Y-74500000D02*
X168500000Y-76300000D01*
X172350000Y-79100000D02*
X178250000Y-85000000D01*
X168500000Y-78700000D02*
X168900000Y-79100000D01*
X168900000Y-79100000D02*
X172350000Y-79100000D01*
%TO.N,Enc_CLK*%
X175550000Y-77450000D02*
X170650000Y-77450000D01*
X170650000Y-77450000D02*
X170600000Y-77500000D01*
%TO.N,/SWCLK*%
X149800000Y-81500000D02*
X150300000Y-81000000D01*
X150300000Y-79200000D02*
X157000000Y-72500000D01*
X150300000Y-81000000D02*
X150300000Y-79200000D01*
X157000000Y-72500000D02*
X168600000Y-72500000D01*
X146500000Y-79700000D02*
X148300000Y-81500000D01*
X168600000Y-72500000D02*
X172300000Y-76200000D01*
X148300000Y-81500000D02*
X149800000Y-81500000D01*
%TD*%
%TA.AperFunction,Conductor*%
%TO.N,GND*%
G36*
X168348833Y-101073626D02*
G01*
X168404767Y-101115497D01*
X168429184Y-101180961D01*
X168429500Y-101189808D01*
X168429500Y-101742278D01*
X168409815Y-101809317D01*
X168376623Y-101843853D01*
X168208597Y-101961505D01*
X168041505Y-102128597D01*
X167911575Y-102314158D01*
X167856998Y-102357783D01*
X167787500Y-102364977D01*
X167725145Y-102333454D01*
X167708425Y-102314158D01*
X167578494Y-102128597D01*
X167411402Y-101961506D01*
X167411395Y-101961501D01*
X167217834Y-101825967D01*
X167217830Y-101825965D01*
X167139148Y-101789275D01*
X167003663Y-101726097D01*
X167003659Y-101726096D01*
X167003655Y-101726094D01*
X166775413Y-101664938D01*
X166775403Y-101664936D01*
X166540001Y-101644341D01*
X166539999Y-101644341D01*
X166304596Y-101664936D01*
X166304586Y-101664938D01*
X166076344Y-101726094D01*
X166076335Y-101726098D01*
X165862171Y-101825964D01*
X165862169Y-101825965D01*
X165668597Y-101961505D01*
X165501505Y-102128597D01*
X165371575Y-102314158D01*
X165316998Y-102357783D01*
X165247500Y-102364977D01*
X165185145Y-102333454D01*
X165168425Y-102314158D01*
X165038494Y-102128597D01*
X164871402Y-101961506D01*
X164871395Y-101961501D01*
X164677834Y-101825967D01*
X164677830Y-101825965D01*
X164599148Y-101789275D01*
X164463663Y-101726097D01*
X164463659Y-101726096D01*
X164463655Y-101726094D01*
X164235413Y-101664938D01*
X164235403Y-101664936D01*
X164000001Y-101644341D01*
X163999999Y-101644341D01*
X163764596Y-101664936D01*
X163764586Y-101664938D01*
X163536344Y-101726094D01*
X163536335Y-101726098D01*
X163322171Y-101825964D01*
X163322169Y-101825965D01*
X163128597Y-101961505D01*
X162961505Y-102128597D01*
X162831575Y-102314158D01*
X162776998Y-102357783D01*
X162707500Y-102364977D01*
X162645145Y-102333454D01*
X162628425Y-102314158D01*
X162498494Y-102128597D01*
X162331402Y-101961506D01*
X162331395Y-101961501D01*
X162137834Y-101825967D01*
X162137830Y-101825965D01*
X162059148Y-101789275D01*
X161923663Y-101726097D01*
X161923659Y-101726096D01*
X161923655Y-101726094D01*
X161695413Y-101664938D01*
X161695403Y-101664936D01*
X161460001Y-101644341D01*
X161459999Y-101644341D01*
X161224596Y-101664936D01*
X161224586Y-101664938D01*
X160996344Y-101726094D01*
X160996335Y-101726098D01*
X160782171Y-101825964D01*
X160782169Y-101825965D01*
X160588597Y-101961505D01*
X160421505Y-102128597D01*
X160291575Y-102314158D01*
X160236998Y-102357783D01*
X160167500Y-102364977D01*
X160105145Y-102333454D01*
X160088425Y-102314158D01*
X159958494Y-102128597D01*
X159791402Y-101961506D01*
X159791395Y-101961501D01*
X159597834Y-101825967D01*
X159597830Y-101825965D01*
X159519148Y-101789275D01*
X159383663Y-101726097D01*
X159383659Y-101726096D01*
X159383655Y-101726094D01*
X159155413Y-101664938D01*
X159155403Y-101664936D01*
X158920001Y-101644341D01*
X158919999Y-101644341D01*
X158684596Y-101664936D01*
X158684586Y-101664938D01*
X158456344Y-101726094D01*
X158456335Y-101726098D01*
X158242171Y-101825964D01*
X158242169Y-101825965D01*
X158048597Y-101961505D01*
X157881505Y-102128597D01*
X157751575Y-102314158D01*
X157696998Y-102357783D01*
X157627500Y-102364977D01*
X157565145Y-102333454D01*
X157548425Y-102314158D01*
X157418494Y-102128597D01*
X157251402Y-101961506D01*
X157251395Y-101961501D01*
X157057834Y-101825967D01*
X157057830Y-101825965D01*
X156979148Y-101789275D01*
X156843663Y-101726097D01*
X156843659Y-101726096D01*
X156843655Y-101726094D01*
X156615413Y-101664938D01*
X156615403Y-101664936D01*
X156380001Y-101644341D01*
X156379999Y-101644341D01*
X156144596Y-101664936D01*
X156144586Y-101664938D01*
X155916344Y-101726094D01*
X155916335Y-101726098D01*
X155702171Y-101825964D01*
X155702169Y-101825965D01*
X155508597Y-101961505D01*
X155341505Y-102128597D01*
X155211575Y-102314158D01*
X155156998Y-102357783D01*
X155087500Y-102364977D01*
X155025145Y-102333454D01*
X155008425Y-102314158D01*
X154878494Y-102128597D01*
X154711402Y-101961506D01*
X154711395Y-101961501D01*
X154517834Y-101825967D01*
X154517830Y-101825965D01*
X154439148Y-101789275D01*
X154303663Y-101726097D01*
X154303659Y-101726096D01*
X154303655Y-101726094D01*
X154075413Y-101664938D01*
X154075403Y-101664936D01*
X153840001Y-101644341D01*
X153839999Y-101644341D01*
X153604596Y-101664936D01*
X153604586Y-101664938D01*
X153376344Y-101726094D01*
X153376335Y-101726098D01*
X153162171Y-101825964D01*
X153162169Y-101825965D01*
X152968597Y-101961505D01*
X152801505Y-102128597D01*
X152671575Y-102314158D01*
X152616998Y-102357783D01*
X152547500Y-102364977D01*
X152485145Y-102333454D01*
X152468425Y-102314158D01*
X152338494Y-102128597D01*
X152171402Y-101961506D01*
X152171395Y-101961501D01*
X151977834Y-101825967D01*
X151977830Y-101825965D01*
X151899148Y-101789275D01*
X151763663Y-101726097D01*
X151763659Y-101726096D01*
X151763655Y-101726094D01*
X151535413Y-101664938D01*
X151535403Y-101664936D01*
X151300001Y-101644341D01*
X151299999Y-101644341D01*
X151064596Y-101664936D01*
X151064586Y-101664938D01*
X150836344Y-101726094D01*
X150836335Y-101726098D01*
X150622171Y-101825964D01*
X150622169Y-101825965D01*
X150428597Y-101961505D01*
X150261505Y-102128597D01*
X150131575Y-102314158D01*
X150076998Y-102357783D01*
X150007500Y-102364977D01*
X149945145Y-102333454D01*
X149928425Y-102314158D01*
X149798494Y-102128597D01*
X149631402Y-101961506D01*
X149631395Y-101961501D01*
X149437834Y-101825967D01*
X149437830Y-101825965D01*
X149359148Y-101789275D01*
X149223663Y-101726097D01*
X149223659Y-101726096D01*
X149223655Y-101726094D01*
X148995413Y-101664938D01*
X148995403Y-101664936D01*
X148760001Y-101644341D01*
X148759999Y-101644341D01*
X148524596Y-101664936D01*
X148524586Y-101664938D01*
X148296344Y-101726094D01*
X148296335Y-101726098D01*
X148082171Y-101825964D01*
X148082169Y-101825965D01*
X147888597Y-101961505D01*
X147721505Y-102128597D01*
X147591575Y-102314158D01*
X147536998Y-102357783D01*
X147467500Y-102364977D01*
X147405145Y-102333454D01*
X147388425Y-102314158D01*
X147258494Y-102128597D01*
X147091402Y-101961506D01*
X147091395Y-101961501D01*
X146897834Y-101825967D01*
X146897830Y-101825965D01*
X146819148Y-101789275D01*
X146683663Y-101726097D01*
X146683659Y-101726096D01*
X146683655Y-101726094D01*
X146455413Y-101664938D01*
X146455403Y-101664936D01*
X146220001Y-101644341D01*
X146219999Y-101644341D01*
X145984596Y-101664936D01*
X145984586Y-101664938D01*
X145756344Y-101726094D01*
X145756335Y-101726098D01*
X145542171Y-101825964D01*
X145542169Y-101825965D01*
X145348597Y-101961505D01*
X145181508Y-102128594D01*
X145051269Y-102314595D01*
X144996692Y-102358219D01*
X144927193Y-102365412D01*
X144864839Y-102333890D01*
X144848119Y-102314594D01*
X144718113Y-102128926D01*
X144718108Y-102128920D01*
X144551082Y-101961894D01*
X144357578Y-101826399D01*
X144143492Y-101726570D01*
X144143486Y-101726567D01*
X143930000Y-101669364D01*
X143930000Y-102566988D01*
X143872993Y-102534075D01*
X143745826Y-102500000D01*
X143614174Y-102500000D01*
X143487007Y-102534075D01*
X143430000Y-102566988D01*
X143430000Y-101669364D01*
X143429999Y-101669364D01*
X143216513Y-101726567D01*
X143216507Y-101726570D01*
X143002422Y-101826399D01*
X143002420Y-101826400D01*
X142808926Y-101961886D01*
X142808920Y-101961891D01*
X142641891Y-102128920D01*
X142641890Y-102128922D01*
X142511880Y-102314595D01*
X142457303Y-102358219D01*
X142387804Y-102365412D01*
X142325450Y-102333890D01*
X142308730Y-102314594D01*
X142178494Y-102128597D01*
X142011402Y-101961506D01*
X142011395Y-101961501D01*
X141817834Y-101825967D01*
X141817830Y-101825965D01*
X141739148Y-101789275D01*
X141603663Y-101726097D01*
X141603659Y-101726096D01*
X141603655Y-101726094D01*
X141375413Y-101664938D01*
X141375403Y-101664936D01*
X141140001Y-101644341D01*
X141139999Y-101644341D01*
X140904596Y-101664936D01*
X140904586Y-101664938D01*
X140676344Y-101726094D01*
X140676335Y-101726098D01*
X140462171Y-101825964D01*
X140462169Y-101825965D01*
X140268597Y-101961505D01*
X140101505Y-102128597D01*
X139971575Y-102314158D01*
X139916998Y-102357783D01*
X139847500Y-102364977D01*
X139785145Y-102333454D01*
X139768425Y-102314158D01*
X139638494Y-102128597D01*
X139471402Y-101961506D01*
X139471401Y-101961505D01*
X139347858Y-101874999D01*
X139303376Y-101843852D01*
X139259751Y-101789275D01*
X139250500Y-101742277D01*
X139250500Y-101720808D01*
X139270185Y-101653769D01*
X139286819Y-101633127D01*
X139533127Y-101386819D01*
X139594450Y-101353334D01*
X139620808Y-101350500D01*
X167764071Y-101350500D01*
X167848615Y-101333682D01*
X167889744Y-101325501D01*
X168008127Y-101276465D01*
X168011069Y-101274499D01*
X168114669Y-101205277D01*
X168217820Y-101102125D01*
X168279141Y-101068642D01*
X168348833Y-101073626D01*
G37*
%TD.AperFunction*%
%TA.AperFunction,Conductor*%
G36*
X160553333Y-74289125D02*
G01*
X160597680Y-74317626D01*
X169213181Y-82933127D01*
X169246666Y-82994450D01*
X169249500Y-83020808D01*
X169249500Y-86941325D01*
X169242542Y-86982279D01*
X169188212Y-87137544D01*
X169169909Y-87299996D01*
X169169909Y-87300003D01*
X169188212Y-87462455D01*
X169188213Y-87462460D01*
X169188214Y-87462461D01*
X169189132Y-87465084D01*
X169242210Y-87616774D01*
X169278588Y-87674669D01*
X169329192Y-87755204D01*
X169444796Y-87870808D01*
X169583225Y-87957789D01*
X169737539Y-88011786D01*
X169737542Y-88011786D01*
X169737544Y-88011787D01*
X169899996Y-88030091D01*
X169900000Y-88030091D01*
X169900004Y-88030091D01*
X170062457Y-88011787D01*
X170062459Y-88011786D01*
X170062461Y-88011786D01*
X170173904Y-87972789D01*
X170243683Y-87969228D01*
X170304310Y-88003956D01*
X170336538Y-88065950D01*
X170330133Y-88135525D01*
X170302540Y-88177512D01*
X166887253Y-91592799D01*
X166840529Y-91622159D01*
X166783221Y-91642212D01*
X166644795Y-91729192D01*
X166529192Y-91844795D01*
X166442210Y-91983225D01*
X166388212Y-92137544D01*
X166369909Y-92299996D01*
X166369909Y-92300003D01*
X166388212Y-92462455D01*
X166442210Y-92616774D01*
X166442211Y-92616775D01*
X166529192Y-92755204D01*
X166644796Y-92870808D01*
X166783225Y-92957789D01*
X166937539Y-93011786D01*
X166937542Y-93011786D01*
X166937544Y-93011787D01*
X167099996Y-93030091D01*
X167100000Y-93030091D01*
X167100004Y-93030091D01*
X167262455Y-93011787D01*
X167262456Y-93011786D01*
X167262461Y-93011786D01*
X167416775Y-92957789D01*
X167555204Y-92870808D01*
X167670808Y-92755204D01*
X167757789Y-92616775D01*
X167777839Y-92559472D01*
X167807198Y-92512746D01*
X171663769Y-88656176D01*
X171725091Y-88622692D01*
X171794783Y-88627676D01*
X171850716Y-88669548D01*
X171875133Y-88735012D01*
X171874670Y-88757739D01*
X171869909Y-88800001D01*
X171869909Y-88800003D01*
X171888212Y-88962455D01*
X171942210Y-89116774D01*
X171986223Y-89186819D01*
X172029192Y-89255204D01*
X172144796Y-89370808D01*
X172283225Y-89457789D01*
X172437539Y-89511786D01*
X172437542Y-89511786D01*
X172437544Y-89511787D01*
X172599996Y-89530091D01*
X172600000Y-89530091D01*
X172600004Y-89530091D01*
X172762457Y-89511787D01*
X172762459Y-89511786D01*
X172762461Y-89511786D01*
X172916775Y-89457789D01*
X172916775Y-89457788D01*
X172917718Y-89457459D01*
X172958673Y-89450500D01*
X173064071Y-89450500D01*
X173148615Y-89433682D01*
X173189744Y-89425501D01*
X173308127Y-89376465D01*
X173316588Y-89370811D01*
X173316594Y-89370809D01*
X173316593Y-89370808D01*
X173353377Y-89346230D01*
X173414669Y-89305277D01*
X175637819Y-87082127D01*
X175699142Y-87048642D01*
X175768834Y-87053626D01*
X175824767Y-87095498D01*
X175849184Y-87160962D01*
X175849500Y-87169808D01*
X175849500Y-87852159D01*
X175829815Y-87919198D01*
X175794391Y-87955261D01*
X175735331Y-87994723D01*
X175735327Y-87994726D01*
X168016873Y-95713181D01*
X167955550Y-95746666D01*
X167929192Y-95749500D01*
X166120808Y-95749500D01*
X166053769Y-95729815D01*
X166033127Y-95713181D01*
X157346819Y-87026873D01*
X157313334Y-86965550D01*
X157310500Y-86939192D01*
X157310500Y-80957722D01*
X157330185Y-80890683D01*
X157363377Y-80856147D01*
X157435104Y-80805923D01*
X157531401Y-80738495D01*
X157653329Y-80616566D01*
X157714648Y-80583084D01*
X157784340Y-80588068D01*
X157840274Y-80629939D01*
X157857189Y-80660917D01*
X157906202Y-80792328D01*
X157906206Y-80792335D01*
X157992452Y-80907544D01*
X157992455Y-80907547D01*
X158107664Y-80993793D01*
X158107671Y-80993797D01*
X158242517Y-81044091D01*
X158242516Y-81044091D01*
X158249444Y-81044835D01*
X158302127Y-81050500D01*
X160097872Y-81050499D01*
X160157483Y-81044091D01*
X160292331Y-80993796D01*
X160407546Y-80907546D01*
X160493796Y-80792331D01*
X160544091Y-80657483D01*
X160550500Y-80597873D01*
X160550499Y-78802128D01*
X160544091Y-78742517D01*
X160542810Y-78739083D01*
X160493797Y-78607671D01*
X160493793Y-78607664D01*
X160407547Y-78492455D01*
X160407544Y-78492452D01*
X160292335Y-78406206D01*
X160292328Y-78406202D01*
X160157482Y-78355908D01*
X160157483Y-78355908D01*
X160097883Y-78349501D01*
X160097881Y-78349500D01*
X160097873Y-78349500D01*
X160097864Y-78349500D01*
X158302129Y-78349500D01*
X158302123Y-78349501D01*
X158242516Y-78355908D01*
X158107671Y-78406202D01*
X158107664Y-78406206D01*
X157992455Y-78492452D01*
X157992452Y-78492455D01*
X157906206Y-78607664D01*
X157906203Y-78607669D01*
X157857189Y-78739083D01*
X157815317Y-78795016D01*
X157749853Y-78819433D01*
X157681580Y-78804581D01*
X157653326Y-78783430D01*
X157531402Y-78661506D01*
X157531395Y-78661501D01*
X157337834Y-78525967D01*
X157337830Y-78525965D01*
X157293992Y-78505523D01*
X157123663Y-78426097D01*
X157123659Y-78426096D01*
X157123655Y-78426094D01*
X156895413Y-78364938D01*
X156895403Y-78364936D01*
X156681780Y-78346246D01*
X156616711Y-78320793D01*
X156575733Y-78264202D01*
X156571855Y-78194440D01*
X156604905Y-78135039D01*
X160422322Y-74317623D01*
X160483641Y-74284141D01*
X160553333Y-74289125D01*
G37*
%TD.AperFunction*%
%TA.AperFunction,Conductor*%
G36*
X124700370Y-42170185D02*
G01*
X124746125Y-42222989D01*
X124756069Y-42292147D01*
X124754948Y-42298692D01*
X124749500Y-42326079D01*
X124749500Y-58787075D01*
X124729815Y-58854114D01*
X124677011Y-58899869D01*
X124607853Y-58909813D01*
X124544297Y-58880788D01*
X124508458Y-58828029D01*
X124457789Y-58683225D01*
X124370807Y-58544795D01*
X124255204Y-58429192D01*
X124116774Y-58342210D01*
X123962455Y-58288212D01*
X123800004Y-58269909D01*
X123799996Y-58269909D01*
X123637544Y-58288212D01*
X123483224Y-58342210D01*
X123440472Y-58369074D01*
X123373235Y-58388074D01*
X123306400Y-58367706D01*
X123261186Y-58314438D01*
X123250500Y-58264080D01*
X123250500Y-54926079D01*
X123221659Y-54781092D01*
X123221658Y-54781088D01*
X123221658Y-54781087D01*
X123186227Y-54695549D01*
X123165087Y-54644511D01*
X123165080Y-54644498D01*
X123082951Y-54521584D01*
X123082948Y-54521580D01*
X122978419Y-54417051D01*
X122978415Y-54417048D01*
X122855501Y-54334919D01*
X122855488Y-54334912D01*
X122718917Y-54278343D01*
X122718907Y-54278340D01*
X122573920Y-54249500D01*
X122573918Y-54249500D01*
X122426082Y-54249500D01*
X122426080Y-54249500D01*
X122281092Y-54278340D01*
X122281082Y-54278343D01*
X122144511Y-54334912D01*
X122144498Y-54334919D01*
X122021584Y-54417048D01*
X122021580Y-54417051D01*
X121917051Y-54521580D01*
X121917048Y-54521584D01*
X121834919Y-54644498D01*
X121834912Y-54644511D01*
X121778343Y-54781082D01*
X121778340Y-54781092D01*
X121749500Y-54926079D01*
X121749500Y-62737770D01*
X121729815Y-62804809D01*
X121713181Y-62825451D01*
X108262181Y-76276451D01*
X108200858Y-76309936D01*
X108131166Y-76304952D01*
X108075233Y-76263080D01*
X108050816Y-76197616D01*
X108050500Y-76188770D01*
X108050500Y-71676079D01*
X108021659Y-71531092D01*
X108021658Y-71531091D01*
X108021658Y-71531087D01*
X107988947Y-71452116D01*
X107965085Y-71394507D01*
X107963756Y-71392517D01*
X107898413Y-71294724D01*
X107898413Y-71294723D01*
X107890682Y-71283154D01*
X107882952Y-71271584D01*
X103049381Y-66438013D01*
X103015896Y-66376690D01*
X103016857Y-66319890D01*
X103035106Y-66247829D01*
X103035107Y-66247824D01*
X103035108Y-66247821D01*
X103036652Y-66229192D01*
X103055643Y-66000005D01*
X103055643Y-65999994D01*
X103035109Y-65752187D01*
X103035108Y-65752184D01*
X103035108Y-65752179D01*
X103033504Y-65745845D01*
X103016857Y-65680107D01*
X103019481Y-65610287D01*
X103049379Y-65561987D01*
X115824549Y-52786819D01*
X115885872Y-52753334D01*
X115912230Y-52750500D01*
X116073920Y-52750500D01*
X116176518Y-52730091D01*
X116218913Y-52721658D01*
X116350751Y-52667049D01*
X116355488Y-52665087D01*
X116355488Y-52665086D01*
X116355495Y-52665084D01*
X116478416Y-52582951D01*
X116582951Y-52478416D01*
X116665084Y-52355495D01*
X116721658Y-52218913D01*
X116732887Y-52162461D01*
X116750500Y-52073920D01*
X116750500Y-51926079D01*
X116721659Y-51781092D01*
X116721658Y-51781091D01*
X116721658Y-51781087D01*
X116700869Y-51730897D01*
X116665087Y-51644511D01*
X116665080Y-51644498D01*
X116582951Y-51521584D01*
X116582948Y-51521580D01*
X116478419Y-51417051D01*
X116478415Y-51417048D01*
X116355501Y-51334919D01*
X116355488Y-51334912D01*
X116218917Y-51278343D01*
X116218907Y-51278340D01*
X116073920Y-51249500D01*
X116073918Y-51249500D01*
X115476082Y-51249500D01*
X115476080Y-51249500D01*
X115331092Y-51278340D01*
X115331082Y-51278343D01*
X115194509Y-51334913D01*
X115159621Y-51358225D01*
X115071582Y-51417049D01*
X115071581Y-51417050D01*
X101989247Y-64499383D01*
X101927924Y-64532868D01*
X101881157Y-64534011D01*
X101674335Y-64499500D01*
X101425665Y-64499500D01*
X101180383Y-64540429D01*
X100945197Y-64621169D01*
X100945188Y-64621172D01*
X100726493Y-64739524D01*
X100530257Y-64892261D01*
X100361833Y-65075217D01*
X100225826Y-65283393D01*
X100125936Y-65511118D01*
X100064892Y-65752175D01*
X100064890Y-65752187D01*
X100044357Y-65999994D01*
X100044357Y-66000005D01*
X100064890Y-66247812D01*
X100064892Y-66247824D01*
X100125936Y-66488881D01*
X100225826Y-66716606D01*
X100361833Y-66924782D01*
X100361836Y-66924785D01*
X100530256Y-67107738D01*
X100726491Y-67260474D01*
X100945190Y-67378828D01*
X101180386Y-67459571D01*
X101425665Y-67500500D01*
X101674335Y-67500500D01*
X101816334Y-67476805D01*
X101881158Y-67465988D01*
X101950523Y-67474370D01*
X101989248Y-67500616D01*
X105291974Y-70803342D01*
X105325459Y-70864665D01*
X105320475Y-70934357D01*
X105278603Y-70990290D01*
X105213139Y-71014707D01*
X105160966Y-71007207D01*
X105157486Y-71005909D01*
X105157483Y-71005908D01*
X105097883Y-70999501D01*
X105097881Y-70999500D01*
X105097873Y-70999500D01*
X105097864Y-70999500D01*
X102502129Y-70999500D01*
X102502123Y-70999501D01*
X102442516Y-71005908D01*
X102307671Y-71056202D01*
X102307664Y-71056206D01*
X102192455Y-71142452D01*
X102192452Y-71142455D01*
X102106206Y-71257664D01*
X102106202Y-71257671D01*
X102055908Y-71392517D01*
X102051308Y-71435308D01*
X102049501Y-71452123D01*
X102049500Y-71452135D01*
X102049500Y-74547870D01*
X102049501Y-74547876D01*
X102055908Y-74607483D01*
X102106202Y-74742328D01*
X102106206Y-74742335D01*
X102192452Y-74857544D01*
X102192455Y-74857547D01*
X102307664Y-74943793D01*
X102307671Y-74943797D01*
X102442517Y-74994091D01*
X102442516Y-74994091D01*
X102449444Y-74994835D01*
X102502127Y-75000500D01*
X105097872Y-75000499D01*
X105157483Y-74994091D01*
X105292331Y-74943796D01*
X105407546Y-74857546D01*
X105493796Y-74742331D01*
X105544091Y-74607483D01*
X105550500Y-74547873D01*
X105550499Y-71452128D01*
X105544091Y-71392517D01*
X105542794Y-71389039D01*
X105542587Y-71386151D01*
X105542308Y-71384969D01*
X105542499Y-71384923D01*
X105537810Y-71319347D01*
X105571295Y-71258024D01*
X105632618Y-71224540D01*
X105702310Y-71229524D01*
X105746657Y-71258025D01*
X106513181Y-72024549D01*
X106546666Y-72085872D01*
X106549500Y-72112230D01*
X106549500Y-76973918D01*
X106549500Y-76973920D01*
X106549499Y-76973920D01*
X106578340Y-77118907D01*
X106578343Y-77118917D01*
X106634912Y-77255488D01*
X106634919Y-77255501D01*
X106717048Y-77378415D01*
X106717051Y-77378419D01*
X106821579Y-77482947D01*
X106821582Y-77482949D01*
X106821584Y-77482951D01*
X106836283Y-77492772D01*
X106881088Y-77546383D01*
X106889797Y-77615708D01*
X106859643Y-77678736D01*
X106855074Y-77683556D01*
X101925451Y-82613181D01*
X101864128Y-82646666D01*
X101837770Y-82649500D01*
X95226080Y-82649500D01*
X95081092Y-82678340D01*
X95081082Y-82678343D01*
X94944511Y-82734912D01*
X94944498Y-82734919D01*
X94821584Y-82817048D01*
X94821580Y-82817051D01*
X93517052Y-84121578D01*
X93517051Y-84121579D01*
X93492676Y-84158059D01*
X93468943Y-84193580D01*
X93464912Y-84199613D01*
X93434916Y-84244504D01*
X93434912Y-84244511D01*
X93378343Y-84381082D01*
X93378340Y-84381092D01*
X93349500Y-84526079D01*
X93349500Y-86987160D01*
X93329815Y-87054199D01*
X93313181Y-87074841D01*
X89974841Y-90413181D01*
X89913518Y-90446666D01*
X89887160Y-90449500D01*
X89426080Y-90449500D01*
X89281092Y-90478340D01*
X89281082Y-90478343D01*
X89144511Y-90534912D01*
X89144498Y-90534919D01*
X89021584Y-90617048D01*
X89021580Y-90617051D01*
X88917051Y-90721580D01*
X88917048Y-90721584D01*
X88834919Y-90844498D01*
X88834912Y-90844511D01*
X88778343Y-90981082D01*
X88778340Y-90981092D01*
X88749500Y-91126079D01*
X88749500Y-91126082D01*
X88749500Y-91273918D01*
X88749500Y-91273920D01*
X88749499Y-91273920D01*
X88778340Y-91418907D01*
X88778343Y-91418917D01*
X88834912Y-91555488D01*
X88834919Y-91555501D01*
X88917048Y-91678415D01*
X88917051Y-91678419D01*
X89021580Y-91782948D01*
X89021584Y-91782951D01*
X89144498Y-91865080D01*
X89144507Y-91865085D01*
X89255209Y-91910939D01*
X89309612Y-91954780D01*
X89331677Y-92021074D01*
X89314398Y-92088773D01*
X89263261Y-92136384D01*
X89207756Y-92149500D01*
X88120808Y-92149500D01*
X88053769Y-92129815D01*
X88033127Y-92113181D01*
X85911819Y-89991873D01*
X85878334Y-89930550D01*
X85875500Y-89904192D01*
X85875500Y-84760928D01*
X85850502Y-84635261D01*
X85850501Y-84635260D01*
X85850501Y-84635256D01*
X85801465Y-84516873D01*
X85790194Y-84500005D01*
X85781709Y-84487305D01*
X85730275Y-84410328D01*
X85730272Y-84410325D01*
X83514669Y-82194723D01*
X80772081Y-79452135D01*
X95049500Y-79452135D01*
X95049500Y-81547870D01*
X95049501Y-81547876D01*
X95055908Y-81607483D01*
X95106202Y-81742328D01*
X95106206Y-81742335D01*
X95192452Y-81857544D01*
X95192455Y-81857547D01*
X95307664Y-81943793D01*
X95307671Y-81943797D01*
X95442517Y-81994091D01*
X95442516Y-81994091D01*
X95449444Y-81994835D01*
X95502127Y-82000500D01*
X97597872Y-82000499D01*
X97657483Y-81994091D01*
X97792331Y-81943796D01*
X97907546Y-81857546D01*
X97993796Y-81742331D01*
X97993796Y-81742329D01*
X97995461Y-81740106D01*
X98051395Y-81698235D01*
X98121087Y-81693251D01*
X98170890Y-81716564D01*
X98226762Y-81760051D01*
X98226771Y-81760057D01*
X98445385Y-81878364D01*
X98445396Y-81878369D01*
X98680506Y-81959083D01*
X98925707Y-82000000D01*
X99174293Y-82000000D01*
X99419493Y-81959083D01*
X99654603Y-81878369D01*
X99654614Y-81878364D01*
X99873230Y-81760056D01*
X99873236Y-81760051D01*
X99920055Y-81723610D01*
X99920056Y-81723609D01*
X99297488Y-81101041D01*
X99357890Y-81076022D01*
X99464351Y-81004888D01*
X99554888Y-80914351D01*
X99626022Y-80807890D01*
X99651041Y-80747487D01*
X100282628Y-81379074D01*
X100316110Y-81385244D01*
X100357122Y-81421949D01*
X100358683Y-81420735D01*
X100361830Y-81424779D01*
X100406339Y-81473128D01*
X100530256Y-81607738D01*
X100726491Y-81760474D01*
X100726493Y-81760475D01*
X100944332Y-81878364D01*
X100945190Y-81878828D01*
X101077698Y-81924318D01*
X101178964Y-81959083D01*
X101180386Y-81959571D01*
X101425665Y-82000500D01*
X101674335Y-82000500D01*
X101919614Y-81959571D01*
X102154810Y-81878828D01*
X102373509Y-81760474D01*
X102569744Y-81607738D01*
X102738164Y-81424785D01*
X102874173Y-81216607D01*
X102974063Y-80988881D01*
X103035108Y-80747821D01*
X103038705Y-80704419D01*
X103055643Y-80500002D01*
X103055643Y-80499994D01*
X103035108Y-80252178D01*
X103035107Y-80252175D01*
X102974063Y-80011118D01*
X102874173Y-79783393D01*
X102738166Y-79575217D01*
X102702544Y-79536521D01*
X102569744Y-79392262D01*
X102373509Y-79239526D01*
X102373507Y-79239525D01*
X102373506Y-79239524D01*
X102154811Y-79121172D01*
X102154802Y-79121169D01*
X101919616Y-79040429D01*
X101674335Y-78999500D01*
X101425665Y-78999500D01*
X101180383Y-79040429D01*
X100945197Y-79121169D01*
X100945188Y-79121172D01*
X100726493Y-79239524D01*
X100530257Y-79392261D01*
X100361837Y-79575213D01*
X100358690Y-79579258D01*
X100356973Y-79577922D01*
X100310771Y-79617294D01*
X100281598Y-79621954D01*
X99651041Y-80252511D01*
X99626022Y-80192110D01*
X99554888Y-80085649D01*
X99464351Y-79995112D01*
X99357890Y-79923978D01*
X99297486Y-79898957D01*
X99920055Y-79276389D01*
X99920055Y-79276388D01*
X99873236Y-79239947D01*
X99873231Y-79239944D01*
X99654614Y-79121635D01*
X99654603Y-79121630D01*
X99419493Y-79040916D01*
X99174293Y-79000000D01*
X98925707Y-79000000D01*
X98680506Y-79040916D01*
X98445396Y-79121630D01*
X98445385Y-79121635D01*
X98226768Y-79239944D01*
X98226757Y-79239951D01*
X98170890Y-79283435D01*
X98105896Y-79309078D01*
X98037356Y-79295512D01*
X97995462Y-79259893D01*
X97907547Y-79142455D01*
X97907544Y-79142452D01*
X97792335Y-79056206D01*
X97792328Y-79056202D01*
X97657482Y-79005908D01*
X97657483Y-79005908D01*
X97597883Y-78999501D01*
X97597881Y-78999500D01*
X97597873Y-78999500D01*
X97597864Y-78999500D01*
X95502129Y-78999500D01*
X95502123Y-78999501D01*
X95442516Y-79005908D01*
X95307671Y-79056202D01*
X95307664Y-79056206D01*
X95192455Y-79142452D01*
X95192452Y-79142455D01*
X95106206Y-79257664D01*
X95106202Y-79257671D01*
X95055908Y-79392517D01*
X95049501Y-79452116D01*
X95049500Y-79452135D01*
X80772081Y-79452135D01*
X80482127Y-79162181D01*
X80448642Y-79100858D01*
X80453626Y-79031166D01*
X80495498Y-78975233D01*
X80560962Y-78950816D01*
X80569808Y-78950500D01*
X83173920Y-78950500D01*
X83271462Y-78931096D01*
X83318913Y-78921658D01*
X83455495Y-78865084D01*
X83532894Y-78813368D01*
X83578416Y-78782952D01*
X88882952Y-73478415D01*
X88910205Y-73437627D01*
X88965084Y-73355495D01*
X88994148Y-73285328D01*
X89000290Y-73270501D01*
X89012069Y-73242064D01*
X89021659Y-73218912D01*
X89050500Y-73073917D01*
X89050500Y-72926082D01*
X89050500Y-71452135D01*
X92549500Y-71452135D01*
X92549500Y-74547870D01*
X92549501Y-74547876D01*
X92555908Y-74607483D01*
X92606202Y-74742328D01*
X92606206Y-74742335D01*
X92692452Y-74857544D01*
X92692455Y-74857547D01*
X92807664Y-74943793D01*
X92807671Y-74943797D01*
X92942517Y-74994091D01*
X92942516Y-74994091D01*
X92949444Y-74994835D01*
X93002127Y-75000500D01*
X95597872Y-75000499D01*
X95657483Y-74994091D01*
X95792331Y-74943796D01*
X95907546Y-74857546D01*
X95993796Y-74742331D01*
X96044091Y-74607483D01*
X96050500Y-74547873D01*
X96050499Y-71452128D01*
X96044091Y-71392517D01*
X96016800Y-71319347D01*
X95993797Y-71257671D01*
X95993793Y-71257664D01*
X95907547Y-71142455D01*
X95907544Y-71142452D01*
X95792335Y-71056206D01*
X95792328Y-71056202D01*
X95657482Y-71005908D01*
X95657483Y-71005908D01*
X95597883Y-70999501D01*
X95597881Y-70999500D01*
X95597873Y-70999500D01*
X95597864Y-70999500D01*
X93002129Y-70999500D01*
X93002123Y-70999501D01*
X92942516Y-71005908D01*
X92807671Y-71056202D01*
X92807664Y-71056206D01*
X92692455Y-71142452D01*
X92692452Y-71142455D01*
X92606206Y-71257664D01*
X92606202Y-71257671D01*
X92555908Y-71392517D01*
X92551308Y-71435308D01*
X92549501Y-71452123D01*
X92549500Y-71452135D01*
X89050500Y-71452135D01*
X89050500Y-65999994D01*
X95044357Y-65999994D01*
X95044357Y-66000005D01*
X95064890Y-66247812D01*
X95064892Y-66247824D01*
X95125936Y-66488881D01*
X95225826Y-66716606D01*
X95361833Y-66924782D01*
X95361836Y-66924785D01*
X95530256Y-67107738D01*
X95726491Y-67260474D01*
X95945190Y-67378828D01*
X96180386Y-67459571D01*
X96425665Y-67500500D01*
X96674335Y-67500500D01*
X96919614Y-67459571D01*
X97154810Y-67378828D01*
X97373509Y-67260474D01*
X97569744Y-67107738D01*
X97738164Y-66924785D01*
X97874173Y-66716607D01*
X97974063Y-66488881D01*
X98035108Y-66247821D01*
X98036652Y-66229192D01*
X98055643Y-66000005D01*
X98055643Y-65999994D01*
X98035109Y-65752187D01*
X98035107Y-65752175D01*
X97974063Y-65511118D01*
X97874173Y-65283393D01*
X97738166Y-65075217D01*
X97705183Y-65039388D01*
X97569744Y-64892262D01*
X97373509Y-64739526D01*
X97373507Y-64739525D01*
X97373506Y-64739524D01*
X97154811Y-64621172D01*
X97154802Y-64621169D01*
X96919616Y-64540429D01*
X96674335Y-64499500D01*
X96425665Y-64499500D01*
X96180383Y-64540429D01*
X95945197Y-64621169D01*
X95945188Y-64621172D01*
X95726493Y-64739524D01*
X95530257Y-64892261D01*
X95361833Y-65075217D01*
X95225826Y-65283393D01*
X95125936Y-65511118D01*
X95064892Y-65752175D01*
X95064890Y-65752187D01*
X95044357Y-65999994D01*
X89050500Y-65999994D01*
X89050500Y-51762230D01*
X89070185Y-51695191D01*
X89086819Y-51674549D01*
X94974549Y-45786819D01*
X95035872Y-45753334D01*
X95062230Y-45750500D01*
X121973920Y-45750500D01*
X122071462Y-45731096D01*
X122118913Y-45721658D01*
X122224547Y-45677902D01*
X122255488Y-45665087D01*
X122255488Y-45665086D01*
X122255495Y-45665084D01*
X122378416Y-45582951D01*
X122482951Y-45478416D01*
X122565084Y-45355495D01*
X122621658Y-45218913D01*
X122650500Y-45073918D01*
X122650500Y-44926082D01*
X122650500Y-44926079D01*
X122621659Y-44781092D01*
X122621658Y-44781091D01*
X122621658Y-44781087D01*
X122579452Y-44679192D01*
X122565087Y-44644511D01*
X122565080Y-44644498D01*
X122482951Y-44521584D01*
X122482948Y-44521580D01*
X122378419Y-44417051D01*
X122378415Y-44417048D01*
X122255501Y-44334919D01*
X122255488Y-44334912D01*
X122118917Y-44278343D01*
X122118907Y-44278340D01*
X121973920Y-44249500D01*
X121973918Y-44249500D01*
X94626082Y-44249500D01*
X94626080Y-44249500D01*
X94481092Y-44278340D01*
X94481086Y-44278342D01*
X94344508Y-44334914D01*
X94344496Y-44334921D01*
X94295269Y-44367813D01*
X94221588Y-44417044D01*
X94221580Y-44417050D01*
X87717049Y-50921581D01*
X87676079Y-50982897D01*
X87676080Y-50982898D01*
X87634914Y-51044508D01*
X87578343Y-51181082D01*
X87578340Y-51181092D01*
X87549500Y-51326079D01*
X87549500Y-72637770D01*
X87529815Y-72704809D01*
X87513181Y-72725451D01*
X85512181Y-74726451D01*
X85450858Y-74759936D01*
X85381166Y-74754952D01*
X85325233Y-74713080D01*
X85300816Y-74647616D01*
X85300500Y-74638770D01*
X85300500Y-49601456D01*
X85262052Y-49408170D01*
X85262051Y-49408169D01*
X85262051Y-49408165D01*
X85262049Y-49408160D01*
X85186635Y-49226092D01*
X85186628Y-49226079D01*
X85077139Y-49062218D01*
X85077136Y-49062214D01*
X84934686Y-48919764D01*
X84934655Y-48919735D01*
X82731479Y-46716559D01*
X82731459Y-46716537D01*
X82587785Y-46572863D01*
X82587781Y-46572860D01*
X82423920Y-46463371D01*
X82423911Y-46463366D01*
X82341406Y-46429192D01*
X82295165Y-46410038D01*
X82241836Y-46387949D01*
X82241832Y-46387948D01*
X82241828Y-46387946D01*
X82145188Y-46368724D01*
X82048544Y-46349500D01*
X82048541Y-46349500D01*
X81001459Y-46349500D01*
X81001457Y-46349500D01*
X80808170Y-46387947D01*
X80808160Y-46387950D01*
X80626092Y-46463364D01*
X80626079Y-46463371D01*
X80462218Y-46572860D01*
X80462214Y-46572863D01*
X80322863Y-46712214D01*
X80322860Y-46712218D01*
X80213371Y-46876079D01*
X80213364Y-46876092D01*
X80137950Y-47058160D01*
X80137947Y-47058170D01*
X80099500Y-47251456D01*
X80099500Y-47251459D01*
X80099500Y-47448541D01*
X80099500Y-47448543D01*
X80099499Y-47448543D01*
X80137947Y-47641829D01*
X80137950Y-47641839D01*
X80213364Y-47823907D01*
X80213371Y-47823920D01*
X80322860Y-47987781D01*
X80322863Y-47987785D01*
X80462214Y-48127136D01*
X80462218Y-48127139D01*
X80626079Y-48236628D01*
X80626092Y-48236635D01*
X80808160Y-48312049D01*
X80808165Y-48312051D01*
X80808169Y-48312051D01*
X80808170Y-48312052D01*
X81001456Y-48350500D01*
X81001459Y-48350500D01*
X81484218Y-48350500D01*
X81551257Y-48370185D01*
X81571899Y-48386819D01*
X83263181Y-50078101D01*
X83296666Y-50139424D01*
X83299500Y-50165782D01*
X83299500Y-73978343D01*
X83279815Y-74045382D01*
X83227011Y-74091137D01*
X83157853Y-74101081D01*
X83094297Y-74072056D01*
X83075410Y-74050034D01*
X83075151Y-74050242D01*
X83070807Y-74044795D01*
X82955204Y-73929192D01*
X82816777Y-73842212D01*
X82816773Y-73842210D01*
X82759471Y-73822159D01*
X82712745Y-73792799D01*
X81950066Y-73030120D01*
X81916581Y-72968797D01*
X81921565Y-72899105D01*
X81963437Y-72843172D01*
X81968811Y-72839368D01*
X81978416Y-72832951D01*
X82082951Y-72728416D01*
X82165084Y-72605494D01*
X82221658Y-72468912D01*
X82250500Y-72323917D01*
X82250500Y-72176083D01*
X82250500Y-72176080D01*
X82221659Y-72031092D01*
X82221658Y-72031091D01*
X82221658Y-72031087D01*
X82165084Y-71894506D01*
X82160736Y-71887999D01*
X82082952Y-71771585D01*
X82082946Y-71771578D01*
X78798421Y-68487052D01*
X78798414Y-68487046D01*
X78716974Y-68432630D01*
X78716875Y-68432565D01*
X78675495Y-68404916D01*
X78675494Y-68404915D01*
X78675492Y-68404914D01*
X78538917Y-68348343D01*
X78538907Y-68348340D01*
X78393920Y-68319500D01*
X78393918Y-68319500D01*
X75624599Y-68319500D01*
X75581266Y-68311682D01*
X75438432Y-68258408D01*
X75438433Y-68258408D01*
X75378833Y-68252001D01*
X75378831Y-68252000D01*
X75378823Y-68252000D01*
X75378815Y-68252000D01*
X71274500Y-68252000D01*
X71207461Y-68232315D01*
X71161706Y-68179511D01*
X71150500Y-68128000D01*
X71150500Y-62820807D01*
X71170185Y-62753768D01*
X71186814Y-62733131D01*
X75212746Y-58707198D01*
X75259472Y-58677839D01*
X75316775Y-58657789D01*
X75455204Y-58570808D01*
X75570808Y-58455204D01*
X75657789Y-58316775D01*
X75711786Y-58162461D01*
X75730091Y-58000000D01*
X75720476Y-57914669D01*
X75711787Y-57837544D01*
X75711786Y-57837542D01*
X75711786Y-57837539D01*
X75657789Y-57683225D01*
X75570808Y-57544796D01*
X75455204Y-57429192D01*
X75316777Y-57342212D01*
X75316774Y-57342210D01*
X75162455Y-57288212D01*
X75000004Y-57269909D01*
X74999996Y-57269909D01*
X74837544Y-57288212D01*
X74683225Y-57342210D01*
X74544795Y-57429192D01*
X74429192Y-57544795D01*
X74342212Y-57683221D01*
X74322159Y-57740529D01*
X74292799Y-57787253D01*
X69994724Y-62085328D01*
X69956068Y-62143181D01*
X69956069Y-62143182D01*
X69923534Y-62191874D01*
X69874499Y-62310255D01*
X69874497Y-62310261D01*
X69849500Y-62435928D01*
X69849500Y-66802432D01*
X69829815Y-66869471D01*
X69777011Y-66915226D01*
X69707853Y-66925170D01*
X69680709Y-66918060D01*
X69660890Y-66910382D01*
X69442193Y-66869500D01*
X69219707Y-66869500D01*
X69001010Y-66910382D01*
X68871354Y-66960611D01*
X68793551Y-66990752D01*
X68793545Y-66990754D01*
X68604389Y-67107874D01*
X68604387Y-67107876D01*
X68439970Y-67257761D01*
X68305893Y-67435308D01*
X68305888Y-67435316D01*
X68206727Y-67634459D01*
X68206719Y-67634476D01*
X68145835Y-67848462D01*
X68145834Y-67848464D01*
X68125307Y-68069999D01*
X68125307Y-68070000D01*
X68145834Y-68291535D01*
X68145835Y-68291537D01*
X68206719Y-68505523D01*
X68206725Y-68505538D01*
X68305888Y-68704683D01*
X68305893Y-68704691D01*
X68439968Y-68882235D01*
X68545415Y-68978363D01*
X68581696Y-69038075D01*
X68579935Y-69107922D01*
X68545415Y-69161637D01*
X68439968Y-69257764D01*
X68305893Y-69435308D01*
X68305888Y-69435316D01*
X68206725Y-69634461D01*
X68206719Y-69634476D01*
X68145835Y-69848462D01*
X68145834Y-69848464D01*
X68125307Y-70069999D01*
X68125307Y-70070000D01*
X68145834Y-70291535D01*
X68145835Y-70291537D01*
X68206719Y-70505523D01*
X68206725Y-70505538D01*
X68305888Y-70704683D01*
X68305893Y-70704691D01*
X68439968Y-70882235D01*
X68545415Y-70978363D01*
X68581696Y-71038075D01*
X68579935Y-71107922D01*
X68545415Y-71161637D01*
X68439968Y-71257764D01*
X68305893Y-71435308D01*
X68305888Y-71435316D01*
X68206725Y-71634461D01*
X68206719Y-71634476D01*
X68145835Y-71848462D01*
X68145834Y-71848464D01*
X68125307Y-72069999D01*
X68125307Y-72070000D01*
X68145834Y-72291535D01*
X68145835Y-72291537D01*
X68206719Y-72505523D01*
X68206725Y-72505538D01*
X68305888Y-72704683D01*
X68305893Y-72704691D01*
X68407569Y-72839332D01*
X68439969Y-72882236D01*
X68482575Y-72921077D01*
X68545415Y-72978363D01*
X68581696Y-73038075D01*
X68579935Y-73107922D01*
X68545415Y-73161637D01*
X68439968Y-73257764D01*
X68305893Y-73435308D01*
X68305888Y-73435316D01*
X68206725Y-73634461D01*
X68206719Y-73634476D01*
X68145835Y-73848462D01*
X68145834Y-73848464D01*
X68125307Y-74069999D01*
X68125307Y-74070000D01*
X68145834Y-74291535D01*
X68145835Y-74291537D01*
X68206719Y-74505523D01*
X68206725Y-74505538D01*
X68305888Y-74704683D01*
X68305893Y-74704691D01*
X68439970Y-74882238D01*
X68604383Y-75032120D01*
X68604385Y-75032121D01*
X68604388Y-75032124D01*
X68703074Y-75093227D01*
X68725475Y-75110971D01*
X69284504Y-75670000D01*
X69278289Y-75670000D01*
X69176556Y-75697259D01*
X69085344Y-75749920D01*
X69010870Y-75824394D01*
X68958209Y-75915606D01*
X68930950Y-76017339D01*
X68930950Y-76023553D01*
X68322088Y-75414691D01*
X68322087Y-75414691D01*
X68306319Y-75435571D01*
X68207190Y-75634649D01*
X68146328Y-75848560D01*
X68125809Y-76069999D01*
X68125809Y-76070000D01*
X68146328Y-76291439D01*
X68207190Y-76505350D01*
X68306314Y-76704419D01*
X68306316Y-76704421D01*
X68322088Y-76725306D01*
X68930950Y-76116445D01*
X68930950Y-76122661D01*
X68958209Y-76224394D01*
X69010870Y-76315606D01*
X69085344Y-76390080D01*
X69176556Y-76442741D01*
X69278289Y-76470000D01*
X69284502Y-76470000D01*
X68725477Y-77029025D01*
X68703075Y-77046770D01*
X68604388Y-77107875D01*
X68604387Y-77107876D01*
X68439970Y-77257761D01*
X68305893Y-77435308D01*
X68305888Y-77435316D01*
X68206725Y-77634461D01*
X68206719Y-77634476D01*
X68145835Y-77848462D01*
X68145834Y-77848464D01*
X68125307Y-78069999D01*
X68125307Y-78070000D01*
X68145834Y-78291535D01*
X68145835Y-78291537D01*
X68206719Y-78505523D01*
X68206725Y-78505538D01*
X68305888Y-78704683D01*
X68305893Y-78704691D01*
X68439970Y-78882238D01*
X68604383Y-79032120D01*
X68604385Y-79032121D01*
X68604388Y-79032124D01*
X68703074Y-79093227D01*
X68725475Y-79110971D01*
X69284504Y-79670000D01*
X69278289Y-79670000D01*
X69176556Y-79697259D01*
X69085344Y-79749920D01*
X69010870Y-79824394D01*
X68958209Y-79915606D01*
X68930950Y-80017339D01*
X68930950Y-80023553D01*
X68322088Y-79414691D01*
X68322087Y-79414691D01*
X68306319Y-79435571D01*
X68207190Y-79634649D01*
X68146328Y-79848560D01*
X68125809Y-80069999D01*
X68125809Y-80070000D01*
X68146328Y-80291439D01*
X68207190Y-80505350D01*
X68306314Y-80704419D01*
X68306316Y-80704421D01*
X68322088Y-80725306D01*
X68930950Y-80116445D01*
X68930950Y-80122661D01*
X68958209Y-80224394D01*
X69010870Y-80315606D01*
X69085344Y-80390080D01*
X69176556Y-80442741D01*
X69278289Y-80470000D01*
X69284502Y-80470000D01*
X68725477Y-81029025D01*
X68703075Y-81046770D01*
X68604388Y-81107875D01*
X68604387Y-81107876D01*
X68439970Y-81257761D01*
X68305893Y-81435308D01*
X68305888Y-81435316D01*
X68206725Y-81634461D01*
X68206720Y-81634474D01*
X68177779Y-81736190D01*
X68140499Y-81795283D01*
X68077189Y-81824840D01*
X68007950Y-81815478D01*
X67970832Y-81789936D01*
X66986819Y-80805923D01*
X66953334Y-80744600D01*
X66950500Y-80718242D01*
X66950500Y-64835101D01*
X66970185Y-64768062D01*
X67022989Y-64722307D01*
X67088383Y-64711881D01*
X67166120Y-64720640D01*
X67249998Y-64730091D01*
X67250000Y-64730091D01*
X67250004Y-64730091D01*
X67412455Y-64711787D01*
X67412456Y-64711786D01*
X67412461Y-64711786D01*
X67566775Y-64657789D01*
X67705204Y-64570808D01*
X67820808Y-64455204D01*
X67907789Y-64316775D01*
X67927839Y-64259472D01*
X67957198Y-64212746D01*
X68755277Y-63414669D01*
X68826466Y-63308126D01*
X68855189Y-63238779D01*
X68875501Y-63189744D01*
X68880929Y-63162455D01*
X68900500Y-63064071D01*
X68900500Y-58358674D01*
X68907458Y-58317722D01*
X68927839Y-58259473D01*
X68957196Y-58212748D01*
X69255277Y-57914669D01*
X69326465Y-57808127D01*
X69359161Y-57729192D01*
X69375501Y-57689744D01*
X69400500Y-57564069D01*
X69400500Y-55820808D01*
X69420185Y-55753769D01*
X69436819Y-55733127D01*
X69983127Y-55186819D01*
X70044450Y-55153334D01*
X70070808Y-55150500D01*
X76929192Y-55150500D01*
X76996231Y-55170185D01*
X77016873Y-55186819D01*
X78313181Y-56483127D01*
X78346666Y-56544450D01*
X78349500Y-56570808D01*
X78349500Y-58641325D01*
X78342542Y-58682279D01*
X78288212Y-58837544D01*
X78269909Y-58999996D01*
X78269909Y-59000003D01*
X78288212Y-59162455D01*
X78342210Y-59316774D01*
X78415341Y-59433161D01*
X78429192Y-59455204D01*
X78544796Y-59570808D01*
X78683225Y-59657789D01*
X78837539Y-59711786D01*
X78837542Y-59711786D01*
X78837544Y-59711787D01*
X78999996Y-59730091D01*
X79000000Y-59730091D01*
X79000003Y-59730091D01*
X79111616Y-59717515D01*
X79180438Y-59729569D01*
X79231818Y-59776918D01*
X79249500Y-59840735D01*
X79249500Y-60208918D01*
X79249500Y-60208920D01*
X79249499Y-60208920D01*
X79278340Y-60353907D01*
X79278343Y-60353917D01*
X79334912Y-60490488D01*
X79334919Y-60490501D01*
X79417048Y-60613415D01*
X79417051Y-60613419D01*
X79521580Y-60717948D01*
X79521584Y-60717951D01*
X79644498Y-60800080D01*
X79644511Y-60800087D01*
X79781082Y-60856656D01*
X79781087Y-60856658D01*
X79781091Y-60856658D01*
X79781092Y-60856659D01*
X79926079Y-60885500D01*
X79926082Y-60885500D01*
X80073920Y-60885500D01*
X80171462Y-60866096D01*
X80218913Y-60856658D01*
X80355495Y-60800084D01*
X80478416Y-60717951D01*
X80582951Y-60613416D01*
X80665084Y-60490495D01*
X80721658Y-60353913D01*
X80750500Y-60208918D01*
X80750500Y-54926082D01*
X80740239Y-54874499D01*
X80721659Y-54781088D01*
X80686197Y-54695477D01*
X80665084Y-54644505D01*
X80605189Y-54554865D01*
X80605189Y-54554864D01*
X80605187Y-54554863D01*
X80582952Y-54521584D01*
X79659845Y-53598477D01*
X78728421Y-52667052D01*
X78728414Y-52667046D01*
X78647170Y-52612761D01*
X78647071Y-52612696D01*
X78605495Y-52584916D01*
X78605494Y-52584915D01*
X78605492Y-52584914D01*
X78468917Y-52528343D01*
X78468907Y-52528340D01*
X78323920Y-52499500D01*
X78323918Y-52499500D01*
X69176082Y-52499500D01*
X69176080Y-52499500D01*
X69031092Y-52528340D01*
X69031082Y-52528343D01*
X68894511Y-52584912D01*
X68894495Y-52584921D01*
X68857976Y-52609322D01*
X68791298Y-52630199D01*
X68723919Y-52611713D01*
X68677229Y-52559734D01*
X68666054Y-52490764D01*
X68693941Y-52426700D01*
X68701395Y-52418549D01*
X78933126Y-42186819D01*
X78994449Y-42153334D01*
X79020807Y-42150500D01*
X124633331Y-42150500D01*
X124700370Y-42170185D01*
G37*
%TD.AperFunction*%
%TA.AperFunction,Conductor*%
G36*
X215002702Y-30200617D02*
G01*
X215412917Y-30218528D01*
X215423654Y-30219468D01*
X215828057Y-30272708D01*
X215838695Y-30274583D01*
X216236925Y-30362869D01*
X216247365Y-30365667D01*
X216636363Y-30488317D01*
X216646524Y-30492015D01*
X217023363Y-30648108D01*
X217033155Y-30652674D01*
X217394965Y-30841020D01*
X217404305Y-30846413D01*
X217689636Y-31028189D01*
X217748309Y-31065568D01*
X217757170Y-31071772D01*
X218080766Y-31320076D01*
X218089053Y-31327030D01*
X218389767Y-31602583D01*
X218397416Y-31610232D01*
X218672969Y-31910946D01*
X218679923Y-31919233D01*
X218928227Y-32242829D01*
X218934431Y-32251690D01*
X219153578Y-32595680D01*
X219158987Y-32605048D01*
X219347322Y-32966838D01*
X219351894Y-32976642D01*
X219507983Y-33353473D01*
X219511683Y-33363639D01*
X219634331Y-33752630D01*
X219637131Y-33763078D01*
X219725414Y-34161296D01*
X219727292Y-34171950D01*
X219780529Y-34576326D01*
X219781472Y-34587102D01*
X219799382Y-34997297D01*
X219799500Y-35002706D01*
X219799500Y-104997293D01*
X219799382Y-105002702D01*
X219781472Y-105412897D01*
X219780529Y-105423673D01*
X219727292Y-105828049D01*
X219725414Y-105838703D01*
X219637131Y-106236921D01*
X219634331Y-106247369D01*
X219511683Y-106636360D01*
X219507983Y-106646526D01*
X219351894Y-107023357D01*
X219347322Y-107033161D01*
X219158987Y-107394951D01*
X219153578Y-107404319D01*
X218934431Y-107748309D01*
X218928227Y-107757170D01*
X218679923Y-108080766D01*
X218672969Y-108089053D01*
X218397416Y-108389767D01*
X218389767Y-108397416D01*
X218089053Y-108672969D01*
X218080766Y-108679923D01*
X217757170Y-108928227D01*
X217748309Y-108934431D01*
X217404319Y-109153578D01*
X217394951Y-109158987D01*
X217033161Y-109347322D01*
X217023357Y-109351894D01*
X216646526Y-109507983D01*
X216636360Y-109511683D01*
X216247369Y-109634331D01*
X216236921Y-109637131D01*
X215838703Y-109725414D01*
X215828049Y-109727292D01*
X215423673Y-109780529D01*
X215412897Y-109781472D01*
X215002703Y-109799382D01*
X214997294Y-109799500D01*
X55002706Y-109799500D01*
X54997297Y-109799382D01*
X54587102Y-109781472D01*
X54576326Y-109780529D01*
X54171950Y-109727292D01*
X54161296Y-109725414D01*
X53763078Y-109637131D01*
X53752630Y-109634331D01*
X53363639Y-109511683D01*
X53353473Y-109507983D01*
X52976642Y-109351894D01*
X52966838Y-109347322D01*
X52847126Y-109285004D01*
X52605042Y-109158983D01*
X52595686Y-109153582D01*
X52423685Y-109044004D01*
X52251690Y-108934431D01*
X52242829Y-108928227D01*
X51919233Y-108679923D01*
X51910946Y-108672969D01*
X51610232Y-108397416D01*
X51602583Y-108389767D01*
X51327030Y-108089053D01*
X51320076Y-108080766D01*
X51071772Y-107757170D01*
X51065568Y-107748309D01*
X51012070Y-107664334D01*
X50846413Y-107404305D01*
X50841020Y-107394965D01*
X50652674Y-107033155D01*
X50648105Y-107023357D01*
X50617512Y-106949500D01*
X50492015Y-106646524D01*
X50488316Y-106636360D01*
X50417750Y-106412554D01*
X50365667Y-106247365D01*
X50362868Y-106236921D01*
X50355912Y-106205543D01*
X50274583Y-105838695D01*
X50272707Y-105828049D01*
X50268325Y-105794764D01*
X50219468Y-105423654D01*
X50218528Y-105412917D01*
X50200618Y-105002702D01*
X50200500Y-104997293D01*
X50200500Y-103000000D01*
X53794457Y-103000000D01*
X53814612Y-103358902D01*
X53814614Y-103358914D01*
X53874826Y-103713296D01*
X53874828Y-103713305D01*
X53968513Y-104038495D01*
X53974341Y-104058724D01*
X54055412Y-104254446D01*
X54108325Y-104382189D01*
X54111906Y-104390833D01*
X54125309Y-104415084D01*
X54285790Y-104705454D01*
X54493805Y-104998622D01*
X54497451Y-105002702D01*
X54733339Y-105266661D01*
X54903028Y-105418304D01*
X55001377Y-105506194D01*
X55281663Y-105705069D01*
X55294548Y-105714211D01*
X55609167Y-105888094D01*
X55941276Y-106025659D01*
X56286700Y-106125173D01*
X56641093Y-106185387D01*
X57000000Y-106205543D01*
X57358907Y-106185387D01*
X57713300Y-106125173D01*
X58058724Y-106025659D01*
X58390833Y-105888094D01*
X58705452Y-105714211D01*
X58998623Y-105506194D01*
X59266661Y-105266661D01*
X59506194Y-104998623D01*
X59714211Y-104705452D01*
X59888094Y-104390833D01*
X60025659Y-104058724D01*
X60125173Y-103713300D01*
X60185387Y-103358907D01*
X60205543Y-103000000D01*
X60185387Y-102641093D01*
X60125173Y-102286700D01*
X60025659Y-101941276D01*
X59888094Y-101609167D01*
X59714211Y-101294548D01*
X59699985Y-101274499D01*
X59506194Y-101001377D01*
X59484530Y-100977135D01*
X62899500Y-100977135D01*
X62899500Y-102772870D01*
X62899501Y-102772876D01*
X62905908Y-102832483D01*
X62956202Y-102967328D01*
X62956206Y-102967335D01*
X63042452Y-103082544D01*
X63042455Y-103082547D01*
X63157664Y-103168793D01*
X63157671Y-103168797D01*
X63292517Y-103219091D01*
X63292516Y-103219091D01*
X63299444Y-103219835D01*
X63352127Y-103225500D01*
X65147872Y-103225499D01*
X65207483Y-103219091D01*
X65342331Y-103168796D01*
X65457546Y-103082546D01*
X65543796Y-102967331D01*
X65592810Y-102835916D01*
X65634681Y-102779984D01*
X65700145Y-102755566D01*
X65768418Y-102770417D01*
X65796673Y-102791569D01*
X65918599Y-102913495D01*
X66013314Y-102979815D01*
X66112165Y-103049032D01*
X66112167Y-103049033D01*
X66112170Y-103049035D01*
X66326337Y-103148903D01*
X66554592Y-103210063D01*
X66742918Y-103226539D01*
X66789999Y-103230659D01*
X66790000Y-103230659D01*
X66790001Y-103230659D01*
X66832289Y-103226959D01*
X67003014Y-103212022D01*
X67071513Y-103225788D01*
X67101502Y-103247869D01*
X68082048Y-104228415D01*
X68082049Y-104228416D01*
X68140109Y-104286476D01*
X68186585Y-104332952D01*
X68309498Y-104415080D01*
X68309511Y-104415087D01*
X68446082Y-104471656D01*
X68446087Y-104471658D01*
X68446091Y-104471658D01*
X68446092Y-104471659D01*
X68591079Y-104500500D01*
X68591082Y-104500500D01*
X76323920Y-104500500D01*
X76421462Y-104481096D01*
X76468913Y-104471658D01*
X76605495Y-104415084D01*
X76654729Y-104382186D01*
X76728416Y-104332952D01*
X77569819Y-103491547D01*
X77631142Y-103458063D01*
X77700833Y-103463047D01*
X77756767Y-103504919D01*
X77781184Y-103570383D01*
X77781500Y-103579229D01*
X77781500Y-103947870D01*
X77781501Y-103947876D01*
X77787908Y-104007483D01*
X77838202Y-104142328D01*
X77838206Y-104142335D01*
X77924452Y-104257544D01*
X77924455Y-104257547D01*
X78039664Y-104343793D01*
X78039671Y-104343797D01*
X78059335Y-104351131D01*
X78174517Y-104394091D01*
X78234127Y-104400500D01*
X78407500Y-104400499D01*
X78474539Y-104420183D01*
X78520294Y-104472987D01*
X78531500Y-104524499D01*
X78531500Y-106746070D01*
X78535079Y-106764067D01*
X78535081Y-106764072D01*
X78542057Y-106799142D01*
X78556499Y-106871744D01*
X78605535Y-106990127D01*
X78634289Y-107033161D01*
X78676726Y-107096673D01*
X79685326Y-108105273D01*
X79685329Y-108105275D01*
X79685331Y-108105277D01*
X79791873Y-108176465D01*
X79910256Y-108225501D01*
X79910260Y-108225501D01*
X79910261Y-108225502D01*
X80035928Y-108250500D01*
X80035931Y-108250500D01*
X190564071Y-108250500D01*
X190648615Y-108233682D01*
X190689744Y-108225501D01*
X190808127Y-108176465D01*
X190914669Y-108105277D01*
X192405277Y-106614669D01*
X195905277Y-103114669D01*
X195976465Y-103008127D01*
X195979831Y-103000000D01*
X209794457Y-103000000D01*
X209814612Y-103358902D01*
X209814614Y-103358914D01*
X209874826Y-103713296D01*
X209874828Y-103713305D01*
X209968513Y-104038495D01*
X209974341Y-104058724D01*
X210055412Y-104254446D01*
X210108325Y-104382189D01*
X210111906Y-104390833D01*
X210125309Y-104415084D01*
X210285790Y-104705454D01*
X210493805Y-104998622D01*
X210497451Y-105002702D01*
X210733339Y-105266661D01*
X210903028Y-105418304D01*
X211001377Y-105506194D01*
X211281663Y-105705069D01*
X211294548Y-105714211D01*
X211609167Y-105888094D01*
X211941276Y-106025659D01*
X212286700Y-106125173D01*
X212641093Y-106185387D01*
X213000000Y-106205543D01*
X213358907Y-106185387D01*
X213713300Y-106125173D01*
X214058724Y-106025659D01*
X214390833Y-105888094D01*
X214705452Y-105714211D01*
X214998623Y-105506194D01*
X215266661Y-105266661D01*
X215506194Y-104998623D01*
X215714211Y-104705452D01*
X215888094Y-104390833D01*
X216025659Y-104058724D01*
X216125173Y-103713300D01*
X216185387Y-103358907D01*
X216205543Y-103000000D01*
X216185387Y-102641093D01*
X216125173Y-102286700D01*
X216025659Y-101941276D01*
X215888094Y-101609167D01*
X215714211Y-101294548D01*
X215699985Y-101274499D01*
X215506194Y-101001377D01*
X215431252Y-100917517D01*
X215266661Y-100733339D01*
X214998623Y-100493806D01*
X214982848Y-100482613D01*
X214705454Y-100285790D01*
X214390831Y-100111905D01*
X214240175Y-100049501D01*
X214058724Y-99974341D01*
X214058720Y-99974339D01*
X214058718Y-99974339D01*
X213713305Y-99874828D01*
X213713296Y-99874826D01*
X213358914Y-99814614D01*
X213358902Y-99814612D01*
X213000000Y-99794457D01*
X212641097Y-99814612D01*
X212641085Y-99814614D01*
X212286703Y-99874826D01*
X212286694Y-99874828D01*
X211941281Y-99974339D01*
X211609168Y-100111905D01*
X211294545Y-100285790D01*
X211001377Y-100493805D01*
X210733339Y-100733339D01*
X210493805Y-101001377D01*
X210285790Y-101294545D01*
X210111905Y-101609168D01*
X209974339Y-101941281D01*
X209874828Y-102286694D01*
X209874826Y-102286703D01*
X209814614Y-102641085D01*
X209814612Y-102641097D01*
X209794457Y-103000000D01*
X195979831Y-103000000D01*
X195993363Y-102967331D01*
X196025501Y-102889744D01*
X196036208Y-102835917D01*
X196050500Y-102764071D01*
X196050500Y-88999994D01*
X205994357Y-88999994D01*
X205994357Y-89000005D01*
X206014890Y-89247812D01*
X206014892Y-89247824D01*
X206075936Y-89488881D01*
X206175826Y-89716606D01*
X206311833Y-89924782D01*
X206311836Y-89924785D01*
X206480256Y-90107738D01*
X206676491Y-90260474D01*
X206895190Y-90378828D01*
X207130386Y-90459571D01*
X207375665Y-90500500D01*
X207624335Y-90500500D01*
X207869614Y-90459571D01*
X208104810Y-90378828D01*
X208323509Y-90260474D01*
X208519744Y-90107738D01*
X208688164Y-89924785D01*
X208824173Y-89716607D01*
X208924063Y-89488881D01*
X208985108Y-89247821D01*
X208990552Y-89182127D01*
X209005643Y-89000005D01*
X209005643Y-88999994D01*
X212494357Y-88999994D01*
X212494357Y-89000005D01*
X212514890Y-89247812D01*
X212514892Y-89247824D01*
X212575936Y-89488881D01*
X212675826Y-89716606D01*
X212811833Y-89924782D01*
X212811836Y-89924785D01*
X212980256Y-90107738D01*
X213176491Y-90260474D01*
X213395190Y-90378828D01*
X213630386Y-90459571D01*
X213875665Y-90500500D01*
X214124335Y-90500500D01*
X214369614Y-90459571D01*
X214604810Y-90378828D01*
X214823509Y-90260474D01*
X215019744Y-90107738D01*
X215188164Y-89924785D01*
X215324173Y-89716607D01*
X215424063Y-89488881D01*
X215485108Y-89247821D01*
X215490552Y-89182127D01*
X215505643Y-89000005D01*
X215505643Y-88999994D01*
X215485109Y-88752187D01*
X215485107Y-88752175D01*
X215424063Y-88511118D01*
X215324173Y-88283393D01*
X215188166Y-88075217D01*
X215131295Y-88013439D01*
X215019744Y-87892262D01*
X214823509Y-87739526D01*
X214823507Y-87739525D01*
X214823506Y-87739524D01*
X214604811Y-87621172D01*
X214604802Y-87621169D01*
X214369616Y-87540429D01*
X214124335Y-87499500D01*
X213875665Y-87499500D01*
X213630383Y-87540429D01*
X213395197Y-87621169D01*
X213395188Y-87621172D01*
X213176493Y-87739524D01*
X212980257Y-87892261D01*
X212811833Y-88075217D01*
X212675826Y-88283393D01*
X212575936Y-88511118D01*
X212514892Y-88752175D01*
X212514890Y-88752187D01*
X212494357Y-88999994D01*
X209005643Y-88999994D01*
X208985109Y-88752187D01*
X208985107Y-88752175D01*
X208924063Y-88511118D01*
X208824173Y-88283393D01*
X208688166Y-88075217D01*
X208631295Y-88013439D01*
X208519744Y-87892262D01*
X208323509Y-87739526D01*
X208323507Y-87739525D01*
X208323506Y-87739524D01*
X208104811Y-87621172D01*
X208104802Y-87621169D01*
X207869616Y-87540429D01*
X207624335Y-87499500D01*
X207375665Y-87499500D01*
X207130383Y-87540429D01*
X206895197Y-87621169D01*
X206895188Y-87621172D01*
X206676493Y-87739524D01*
X206480257Y-87892261D01*
X206311833Y-88075217D01*
X206175826Y-88283393D01*
X206075936Y-88511118D01*
X206014892Y-88752175D01*
X206014890Y-88752187D01*
X205994357Y-88999994D01*
X196050500Y-88999994D01*
X196050500Y-84499994D01*
X205994357Y-84499994D01*
X205994357Y-84500005D01*
X206014890Y-84747812D01*
X206014892Y-84747824D01*
X206075936Y-84988881D01*
X206175826Y-85216606D01*
X206311833Y-85424782D01*
X206311836Y-85424785D01*
X206480256Y-85607738D01*
X206676491Y-85760474D01*
X206895190Y-85878828D01*
X207130386Y-85959571D01*
X207375665Y-86000500D01*
X207624335Y-86000500D01*
X207869614Y-85959571D01*
X208104810Y-85878828D01*
X208323509Y-85760474D01*
X208519744Y-85607738D01*
X208688164Y-85424785D01*
X208824173Y-85216607D01*
X208924063Y-84988881D01*
X208985108Y-84747821D01*
X208985109Y-84747812D01*
X209005643Y-84500005D01*
X209005643Y-84499994D01*
X212494357Y-84499994D01*
X212494357Y-84500005D01*
X212514890Y-84747812D01*
X212514892Y-84747824D01*
X212575936Y-84988881D01*
X212675826Y-85216606D01*
X212811833Y-85424782D01*
X212811836Y-85424785D01*
X212980256Y-85607738D01*
X213176491Y-85760474D01*
X213395190Y-85878828D01*
X213630386Y-85959571D01*
X213875665Y-86000500D01*
X214124335Y-86000500D01*
X214369614Y-85959571D01*
X214604810Y-85878828D01*
X214823509Y-85760474D01*
X215019744Y-85607738D01*
X215188164Y-85424785D01*
X215324173Y-85216607D01*
X215424063Y-84988881D01*
X215485108Y-84747821D01*
X215485109Y-84747812D01*
X215505643Y-84500005D01*
X215505643Y-84499994D01*
X215485108Y-84252178D01*
X215485107Y-84252175D01*
X215424063Y-84011118D01*
X215324173Y-83783393D01*
X215188166Y-83575217D01*
X215166557Y-83551744D01*
X215019744Y-83392262D01*
X214823509Y-83239526D01*
X214823507Y-83239525D01*
X214823506Y-83239524D01*
X214604811Y-83121172D01*
X214604802Y-83121169D01*
X214369616Y-83040429D01*
X214124335Y-82999500D01*
X213875665Y-82999500D01*
X213630383Y-83040429D01*
X213395197Y-83121169D01*
X213395188Y-83121172D01*
X213176493Y-83239524D01*
X212980257Y-83392261D01*
X212811833Y-83575217D01*
X212675826Y-83783393D01*
X212575936Y-84011118D01*
X212514892Y-84252175D01*
X212514892Y-84252178D01*
X212494357Y-84499994D01*
X209005643Y-84499994D01*
X208985108Y-84252178D01*
X208985107Y-84252175D01*
X208924063Y-84011118D01*
X208824173Y-83783393D01*
X208688166Y-83575217D01*
X208666557Y-83551744D01*
X208519744Y-83392262D01*
X208323509Y-83239526D01*
X208323507Y-83239525D01*
X208323506Y-83239524D01*
X208104811Y-83121172D01*
X208104802Y-83121169D01*
X207869616Y-83040429D01*
X207624335Y-82999500D01*
X207375665Y-82999500D01*
X207130383Y-83040429D01*
X206895197Y-83121169D01*
X206895188Y-83121172D01*
X206676493Y-83239524D01*
X206480257Y-83392261D01*
X206311833Y-83575217D01*
X206175826Y-83783393D01*
X206075936Y-84011118D01*
X206014892Y-84252175D01*
X206014892Y-84252178D01*
X205994357Y-84499994D01*
X196050500Y-84499994D01*
X196050500Y-81586108D01*
X196070185Y-81519069D01*
X196122989Y-81473314D01*
X196192147Y-81463370D01*
X196215447Y-81469064D01*
X196337539Y-81511786D01*
X196337545Y-81511786D01*
X196337546Y-81511787D01*
X196499996Y-81530091D01*
X196500000Y-81530091D01*
X196500002Y-81530091D01*
X196569444Y-81522266D01*
X196646652Y-81513567D01*
X196715474Y-81525621D01*
X196766853Y-81572970D01*
X196783756Y-81622903D01*
X196788212Y-81662455D01*
X196842210Y-81816774D01*
X196909785Y-81924318D01*
X196929192Y-81955204D01*
X197044796Y-82070808D01*
X197183225Y-82157789D01*
X197337539Y-82211786D01*
X197337542Y-82211786D01*
X197337544Y-82211787D01*
X197499996Y-82230091D01*
X197500000Y-82230091D01*
X197500004Y-82230091D01*
X197662455Y-82211787D01*
X197662456Y-82211786D01*
X197662461Y-82211786D01*
X197816775Y-82157789D01*
X197955204Y-82070808D01*
X198070808Y-81955204D01*
X198157789Y-81816775D01*
X198177839Y-81759472D01*
X198207198Y-81712746D01*
X203805277Y-76114669D01*
X203876466Y-76008126D01*
X203911504Y-75923535D01*
X203925501Y-75889744D01*
X203940016Y-75816774D01*
X203950500Y-75764071D01*
X203950500Y-65999995D01*
X206694732Y-65999995D01*
X206694732Y-66000004D01*
X206713777Y-66254154D01*
X206744370Y-66388192D01*
X206770492Y-66502637D01*
X206863607Y-66739888D01*
X206991041Y-66960612D01*
X207149950Y-67159877D01*
X207336783Y-67333232D01*
X207547366Y-67476805D01*
X207547371Y-67476807D01*
X207547372Y-67476808D01*
X207547373Y-67476809D01*
X207643268Y-67522989D01*
X207776992Y-67587387D01*
X207776993Y-67587387D01*
X207776996Y-67587389D01*
X208020542Y-67662513D01*
X208272565Y-67700500D01*
X208527435Y-67700500D01*
X208779458Y-67662513D01*
X209023004Y-67587389D01*
X209252634Y-67476805D01*
X209463217Y-67333232D01*
X209615659Y-67191786D01*
X209678191Y-67160619D01*
X209747648Y-67168206D01*
X209784340Y-67191786D01*
X209936783Y-67333232D01*
X210147366Y-67476805D01*
X210147371Y-67476807D01*
X210147372Y-67476808D01*
X210147373Y-67476809D01*
X210243268Y-67522989D01*
X210376992Y-67587387D01*
X210376993Y-67587387D01*
X210376996Y-67587389D01*
X210620542Y-67662513D01*
X210872565Y-67700500D01*
X211127435Y-67700500D01*
X211379458Y-67662513D01*
X211623004Y-67587389D01*
X211852634Y-67476805D01*
X212063217Y-67333232D01*
X212215659Y-67191786D01*
X212278191Y-67160619D01*
X212347648Y-67168206D01*
X212384340Y-67191786D01*
X212536783Y-67333232D01*
X212747366Y-67476805D01*
X212747371Y-67476807D01*
X212747372Y-67476808D01*
X212747373Y-67476809D01*
X212843268Y-67522989D01*
X212976992Y-67587387D01*
X212976993Y-67587387D01*
X212976996Y-67587389D01*
X213220542Y-67662513D01*
X213472565Y-67700500D01*
X213727435Y-67700500D01*
X213979458Y-67662513D01*
X214223004Y-67587389D01*
X214452634Y-67476805D01*
X214663217Y-67333232D01*
X214850050Y-67159877D01*
X215008959Y-66960612D01*
X215136393Y-66739888D01*
X215229508Y-66502637D01*
X215286222Y-66254157D01*
X215294611Y-66142210D01*
X215305268Y-66000004D01*
X215305268Y-65999995D01*
X215286697Y-65752179D01*
X215286222Y-65745843D01*
X215229508Y-65497363D01*
X215136393Y-65260112D01*
X215008959Y-65039388D01*
X214850050Y-64840123D01*
X214663217Y-64666768D01*
X214452634Y-64523195D01*
X214452630Y-64523193D01*
X214452627Y-64523191D01*
X214452626Y-64523190D01*
X214223006Y-64412612D01*
X214223008Y-64412612D01*
X213979466Y-64337489D01*
X213979462Y-64337488D01*
X213979458Y-64337487D01*
X213858231Y-64319214D01*
X213727440Y-64299500D01*
X213727435Y-64299500D01*
X213472565Y-64299500D01*
X213472559Y-64299500D01*
X213315609Y-64323157D01*
X213220542Y-64337487D01*
X213220539Y-64337488D01*
X213220533Y-64337489D01*
X212976992Y-64412612D01*
X212747373Y-64523190D01*
X212747372Y-64523191D01*
X212536782Y-64666768D01*
X212384341Y-64808213D01*
X212321809Y-64839381D01*
X212252352Y-64831794D01*
X212215659Y-64808213D01*
X212063217Y-64666768D01*
X211996340Y-64621172D01*
X211852634Y-64523195D01*
X211852630Y-64523193D01*
X211852627Y-64523191D01*
X211852626Y-64523190D01*
X211623006Y-64412612D01*
X211623008Y-64412612D01*
X211379466Y-64337489D01*
X211379462Y-64337488D01*
X211379458Y-64337487D01*
X211258231Y-64319214D01*
X211127440Y-64299500D01*
X211127435Y-64299500D01*
X210872565Y-64299500D01*
X210872559Y-64299500D01*
X210715609Y-64323157D01*
X210620542Y-64337487D01*
X210620539Y-64337488D01*
X210620533Y-64337489D01*
X210376992Y-64412612D01*
X210147373Y-64523190D01*
X210147372Y-64523191D01*
X209936782Y-64666768D01*
X209784341Y-64808213D01*
X209721809Y-64839381D01*
X209652352Y-64831794D01*
X209615659Y-64808213D01*
X209463217Y-64666768D01*
X209396340Y-64621172D01*
X209252634Y-64523195D01*
X209252630Y-64523193D01*
X209252627Y-64523191D01*
X209252626Y-64523190D01*
X209023006Y-64412612D01*
X209023008Y-64412612D01*
X208779466Y-64337489D01*
X208779462Y-64337488D01*
X208779458Y-64337487D01*
X208658231Y-64319214D01*
X208527440Y-64299500D01*
X208527435Y-64299500D01*
X208272565Y-64299500D01*
X208272559Y-64299500D01*
X208115609Y-64323157D01*
X208020542Y-64337487D01*
X208020539Y-64337488D01*
X208020533Y-64337489D01*
X207776992Y-64412612D01*
X207547373Y-64523190D01*
X207547372Y-64523191D01*
X207336782Y-64666768D01*
X207149952Y-64840121D01*
X207149950Y-64840123D01*
X206991041Y-65039388D01*
X206863608Y-65260109D01*
X206770492Y-65497362D01*
X206770490Y-65497369D01*
X206713777Y-65745845D01*
X206694732Y-65999995D01*
X203950500Y-65999995D01*
X203950500Y-57458673D01*
X203957459Y-57417718D01*
X203983880Y-57342211D01*
X204011786Y-57262461D01*
X204011786Y-57262459D01*
X204011787Y-57262457D01*
X204030091Y-57100003D01*
X204030091Y-57099996D01*
X204011787Y-56937544D01*
X204011786Y-56937542D01*
X204011786Y-56937539D01*
X203957789Y-56783225D01*
X203870808Y-56644796D01*
X203755204Y-56529192D01*
X203725066Y-56510255D01*
X203616774Y-56442210D01*
X203462455Y-56388212D01*
X203300004Y-56369909D01*
X203299996Y-56369909D01*
X203137544Y-56388212D01*
X202983225Y-56442210D01*
X202844795Y-56529192D01*
X202729192Y-56644795D01*
X202642210Y-56783225D01*
X202588212Y-56937544D01*
X202569909Y-57099996D01*
X202569909Y-57100003D01*
X202588212Y-57262457D01*
X202642541Y-57417718D01*
X202649500Y-57458673D01*
X202649500Y-75379191D01*
X202629815Y-75446230D01*
X202613181Y-75466872D01*
X198662181Y-79417872D01*
X198600858Y-79451357D01*
X198531166Y-79446373D01*
X198475233Y-79404501D01*
X198450816Y-79339037D01*
X198450500Y-79330191D01*
X198450500Y-56635928D01*
X198425502Y-56510261D01*
X198425501Y-56510260D01*
X198425501Y-56510256D01*
X198400335Y-56449500D01*
X198397315Y-56442210D01*
X198376469Y-56391881D01*
X198376468Y-56391880D01*
X198376466Y-56391874D01*
X198374020Y-56388214D01*
X198305278Y-56285332D01*
X198305272Y-56285325D01*
X194019942Y-51999995D01*
X204544451Y-51999995D01*
X204544451Y-52000004D01*
X204564616Y-52269101D01*
X204624664Y-52532188D01*
X204624666Y-52532195D01*
X204711457Y-52753334D01*
X204723257Y-52783398D01*
X204858185Y-53017102D01*
X204984965Y-53176079D01*
X205026442Y-53228089D01*
X205164862Y-53356523D01*
X205224259Y-53411635D01*
X205447226Y-53563651D01*
X205447229Y-53563652D01*
X205447230Y-53563653D01*
X205477490Y-53578225D01*
X205690359Y-53680738D01*
X205948228Y-53760280D01*
X205948229Y-53760280D01*
X205948232Y-53760281D01*
X206215063Y-53800499D01*
X206215068Y-53800499D01*
X206215071Y-53800500D01*
X206215072Y-53800500D01*
X206484928Y-53800500D01*
X206484929Y-53800500D01*
X206484936Y-53800499D01*
X206751767Y-53760281D01*
X206751768Y-53760280D01*
X206751772Y-53760280D01*
X207009641Y-53680738D01*
X207219210Y-53579815D01*
X207252767Y-53563655D01*
X207252767Y-53563654D01*
X207252775Y-53563651D01*
X207475741Y-53411635D01*
X207667464Y-53233742D01*
X207673557Y-53228089D01*
X207673557Y-53228087D01*
X207673561Y-53228085D01*
X207841815Y-53017102D01*
X207976743Y-52783398D01*
X208075334Y-52532195D01*
X208135383Y-52269103D01*
X208143674Y-52158460D01*
X208155549Y-52000004D01*
X208155549Y-51999995D01*
X209194451Y-51999995D01*
X209194451Y-52000004D01*
X209214616Y-52269101D01*
X209274664Y-52532188D01*
X209274666Y-52532195D01*
X209361457Y-52753334D01*
X209373257Y-52783398D01*
X209508185Y-53017102D01*
X209634965Y-53176079D01*
X209676442Y-53228089D01*
X209814862Y-53356523D01*
X209874259Y-53411635D01*
X210097226Y-53563651D01*
X210097229Y-53563652D01*
X210097230Y-53563653D01*
X210127490Y-53578225D01*
X210340359Y-53680738D01*
X210598228Y-53760280D01*
X210598229Y-53760280D01*
X210598232Y-53760281D01*
X210865063Y-53800499D01*
X210865068Y-53800499D01*
X210865071Y-53800500D01*
X210865072Y-53800500D01*
X211134928Y-53800500D01*
X211134929Y-53800500D01*
X211134936Y-53800499D01*
X211401767Y-53760281D01*
X211401768Y-53760280D01*
X211401772Y-53760280D01*
X211659641Y-53680738D01*
X211869210Y-53579815D01*
X211902767Y-53563655D01*
X211902767Y-53563654D01*
X211902775Y-53563651D01*
X212125741Y-53411635D01*
X212317464Y-53233742D01*
X212323557Y-53228089D01*
X212323557Y-53228087D01*
X212323561Y-53228085D01*
X212491815Y-53017102D01*
X212626743Y-52783398D01*
X212725334Y-52532195D01*
X212785383Y-52269103D01*
X212793674Y-52158460D01*
X212805549Y-52000004D01*
X212805549Y-51999995D01*
X212785383Y-51730898D01*
X212785383Y-51730897D01*
X212725334Y-51467805D01*
X212626743Y-51216602D01*
X212491815Y-50982898D01*
X212323561Y-50771915D01*
X212323560Y-50771914D01*
X212323557Y-50771910D01*
X212125741Y-50588365D01*
X211902775Y-50436349D01*
X211902769Y-50436346D01*
X211902768Y-50436345D01*
X211902767Y-50436344D01*
X211659643Y-50319263D01*
X211659645Y-50319263D01*
X211401773Y-50239720D01*
X211401767Y-50239718D01*
X211134936Y-50199500D01*
X211134929Y-50199500D01*
X210865071Y-50199500D01*
X210865063Y-50199500D01*
X210598232Y-50239718D01*
X210598226Y-50239720D01*
X210340358Y-50319262D01*
X210097230Y-50436346D01*
X209874258Y-50588365D01*
X209676442Y-50771910D01*
X209508185Y-50982898D01*
X209373258Y-51216599D01*
X209373256Y-51216603D01*
X209274666Y-51467804D01*
X209274664Y-51467811D01*
X209214616Y-51730898D01*
X209194451Y-51999995D01*
X208155549Y-51999995D01*
X208135383Y-51730898D01*
X208135383Y-51730897D01*
X208075334Y-51467805D01*
X207976743Y-51216602D01*
X207841815Y-50982898D01*
X207673561Y-50771915D01*
X207673560Y-50771914D01*
X207673557Y-50771910D01*
X207475741Y-50588365D01*
X207252775Y-50436349D01*
X207252769Y-50436346D01*
X207252768Y-50436345D01*
X207252767Y-50436344D01*
X207009643Y-50319263D01*
X207009645Y-50319263D01*
X206751773Y-50239720D01*
X206751767Y-50239718D01*
X206484936Y-50199500D01*
X206484929Y-50199500D01*
X206215071Y-50199500D01*
X206215063Y-50199500D01*
X205948232Y-50239718D01*
X205948226Y-50239720D01*
X205690358Y-50319262D01*
X205447230Y-50436346D01*
X205224258Y-50588365D01*
X205026442Y-50771910D01*
X204858185Y-50982898D01*
X204723258Y-51216599D01*
X204723256Y-51216603D01*
X204624666Y-51467804D01*
X204624664Y-51467811D01*
X204564616Y-51730898D01*
X204544451Y-51999995D01*
X194019942Y-51999995D01*
X188807200Y-46787254D01*
X188777839Y-46740526D01*
X188767932Y-46712214D01*
X188757789Y-46683225D01*
X188757789Y-46683224D01*
X188684295Y-46566260D01*
X188670808Y-46544796D01*
X188555204Y-46429192D01*
X188489568Y-46387950D01*
X188416774Y-46342210D01*
X188262455Y-46288212D01*
X188100004Y-46269909D01*
X188099996Y-46269909D01*
X187937544Y-46288212D01*
X187783225Y-46342210D01*
X187644795Y-46429192D01*
X187529192Y-46544795D01*
X187442210Y-46683225D01*
X187388212Y-46837544D01*
X187369909Y-46999996D01*
X187369909Y-47000003D01*
X187388212Y-47162455D01*
X187442210Y-47316774D01*
X187442212Y-47316777D01*
X187529192Y-47455204D01*
X187644796Y-47570808D01*
X187696243Y-47603134D01*
X187783224Y-47657789D01*
X187840526Y-47677839D01*
X187887254Y-47707200D01*
X197113181Y-56933127D01*
X197146666Y-56994450D01*
X197149500Y-57020808D01*
X197149500Y-79179191D01*
X197129815Y-79246230D01*
X197113181Y-79266872D01*
X196287253Y-80092799D01*
X196240530Y-80122158D01*
X196215458Y-80130932D01*
X196145680Y-80134496D01*
X196085051Y-80099769D01*
X196052822Y-80037777D01*
X196050500Y-80013892D01*
X196050500Y-77835928D01*
X196025502Y-77710261D01*
X196025501Y-77710260D01*
X196025501Y-77710256D01*
X195976465Y-77591873D01*
X195953691Y-77557789D01*
X195953691Y-77557788D01*
X195905275Y-77485328D01*
X195905272Y-77485325D01*
X194414669Y-75994723D01*
X184714674Y-66294727D01*
X184714673Y-66294726D01*
X184714669Y-66294723D01*
X184608127Y-66223535D01*
X184489744Y-66174499D01*
X184489738Y-66174497D01*
X184364071Y-66149500D01*
X184364069Y-66149500D01*
X176758673Y-66149500D01*
X176717718Y-66142541D01*
X176562457Y-66088212D01*
X176400004Y-66069909D01*
X176399996Y-66069909D01*
X176237544Y-66088212D01*
X176083225Y-66142210D01*
X175944795Y-66229192D01*
X175829192Y-66344795D01*
X175742210Y-66483225D01*
X175688212Y-66637544D01*
X175669909Y-66799996D01*
X175669909Y-66800003D01*
X175688212Y-66962455D01*
X175742210Y-67116774D01*
X175769760Y-67160619D01*
X175829192Y-67255204D01*
X175944796Y-67370808D01*
X176083225Y-67457789D01*
X176237539Y-67511786D01*
X176237542Y-67511786D01*
X176237544Y-67511787D01*
X176399996Y-67530091D01*
X176400000Y-67530091D01*
X176400004Y-67530091D01*
X176562457Y-67511787D01*
X176562459Y-67511786D01*
X176562461Y-67511786D01*
X176716775Y-67457789D01*
X176716775Y-67457788D01*
X176717718Y-67457459D01*
X176758673Y-67450500D01*
X177647998Y-67450500D01*
X177715037Y-67470185D01*
X177760792Y-67522989D01*
X177771218Y-67588387D01*
X177769909Y-67600001D01*
X177769909Y-67600003D01*
X177788212Y-67762455D01*
X177842210Y-67916774D01*
X177842211Y-67916775D01*
X177929192Y-68055204D01*
X178044796Y-68170808D01*
X178183225Y-68257789D01*
X178337539Y-68311786D01*
X178337542Y-68311786D01*
X178337544Y-68311787D01*
X178499996Y-68330091D01*
X178500000Y-68330091D01*
X178500004Y-68330091D01*
X178662457Y-68311787D01*
X178662459Y-68311786D01*
X178662461Y-68311786D01*
X178816775Y-68257789D01*
X178816775Y-68257788D01*
X178817718Y-68257459D01*
X178858673Y-68250500D01*
X179447998Y-68250500D01*
X179515037Y-68270185D01*
X179560792Y-68322989D01*
X179571218Y-68388387D01*
X179569909Y-68400001D01*
X179569909Y-68400003D01*
X179588212Y-68562455D01*
X179642210Y-68716774D01*
X179729192Y-68855204D01*
X179844796Y-68970808D01*
X179983225Y-69057789D01*
X180137539Y-69111786D01*
X180137542Y-69111786D01*
X180137544Y-69111787D01*
X180299996Y-69130091D01*
X180300000Y-69130091D01*
X180300004Y-69130091D01*
X180462457Y-69111787D01*
X180462459Y-69111786D01*
X180462461Y-69111786D01*
X180616775Y-69057789D01*
X180616775Y-69057788D01*
X180617718Y-69057459D01*
X180658673Y-69050500D01*
X181787076Y-69050500D01*
X181854115Y-69070185D01*
X181899870Y-69122989D01*
X181909814Y-69192147D01*
X181880789Y-69255703D01*
X181828031Y-69291540D01*
X181771257Y-69311407D01*
X181683225Y-69342210D01*
X181544795Y-69429192D01*
X181429192Y-69544795D01*
X181342212Y-69683221D01*
X181322159Y-69740529D01*
X181292800Y-69787253D01*
X180994723Y-70085331D01*
X180946959Y-70156817D01*
X180946957Y-70156819D01*
X180923539Y-70191864D01*
X180923533Y-70191875D01*
X180874499Y-70310255D01*
X180874497Y-70310261D01*
X180849500Y-70435928D01*
X180849500Y-73242064D01*
X180829815Y-73309103D01*
X180777011Y-73354858D01*
X180707853Y-73364802D01*
X180644297Y-73335777D01*
X180622398Y-73310955D01*
X180605275Y-73285328D01*
X180605272Y-73285325D01*
X159319941Y-51999995D01*
X167444451Y-51999995D01*
X167444451Y-52000004D01*
X167464616Y-52269101D01*
X167524664Y-52532188D01*
X167524666Y-52532195D01*
X167611457Y-52753334D01*
X167623257Y-52783398D01*
X167758185Y-53017102D01*
X167884965Y-53176079D01*
X167926442Y-53228089D01*
X168064862Y-53356523D01*
X168124259Y-53411635D01*
X168347226Y-53563651D01*
X168347229Y-53563652D01*
X168347230Y-53563653D01*
X168377490Y-53578225D01*
X168590359Y-53680738D01*
X168848228Y-53760280D01*
X168848229Y-53760280D01*
X168848232Y-53760281D01*
X169115063Y-53800499D01*
X169115068Y-53800499D01*
X169115071Y-53800500D01*
X169115072Y-53800500D01*
X169384928Y-53800500D01*
X169384929Y-53800500D01*
X169384936Y-53800499D01*
X169651767Y-53760281D01*
X169651768Y-53760280D01*
X169651772Y-53760280D01*
X169909641Y-53680738D01*
X170119210Y-53579815D01*
X170152767Y-53563655D01*
X170152767Y-53563654D01*
X170152775Y-53563651D01*
X170375741Y-53411635D01*
X170567464Y-53233742D01*
X170573557Y-53228089D01*
X170573557Y-53228087D01*
X170573561Y-53228085D01*
X170741815Y-53017102D01*
X170876743Y-52783398D01*
X170975334Y-52532195D01*
X171035383Y-52269103D01*
X171043674Y-52158460D01*
X171055549Y-52000004D01*
X171055549Y-51999995D01*
X172694451Y-51999995D01*
X172694451Y-52000004D01*
X172714616Y-52269101D01*
X172774664Y-52532188D01*
X172774666Y-52532195D01*
X172861457Y-52753334D01*
X172873257Y-52783398D01*
X173008185Y-53017102D01*
X173134965Y-53176079D01*
X173176442Y-53228089D01*
X173314862Y-53356523D01*
X173374259Y-53411635D01*
X173597226Y-53563651D01*
X173597229Y-53563652D01*
X173597230Y-53563653D01*
X173627490Y-53578225D01*
X173840359Y-53680738D01*
X174098228Y-53760280D01*
X174098229Y-53760280D01*
X174098232Y-53760281D01*
X174365063Y-53800499D01*
X174365068Y-53800499D01*
X174365071Y-53800500D01*
X174365072Y-53800500D01*
X174634928Y-53800500D01*
X174634929Y-53800500D01*
X174634936Y-53800499D01*
X174901767Y-53760281D01*
X174901768Y-53760280D01*
X174901772Y-53760280D01*
X175159641Y-53680738D01*
X175369210Y-53579815D01*
X175402767Y-53563655D01*
X175402767Y-53563654D01*
X175402775Y-53563651D01*
X175625741Y-53411635D01*
X175817464Y-53233742D01*
X175823557Y-53228089D01*
X175823557Y-53228087D01*
X175823561Y-53228085D01*
X175991815Y-53017102D01*
X176126743Y-52783398D01*
X176225334Y-52532195D01*
X176285383Y-52269103D01*
X176293674Y-52158460D01*
X176305549Y-52000004D01*
X176305549Y-51999995D01*
X176285383Y-51730898D01*
X176285383Y-51730897D01*
X176225334Y-51467805D01*
X176126743Y-51216602D01*
X175991815Y-50982898D01*
X175823561Y-50771915D01*
X175823560Y-50771914D01*
X175823557Y-50771910D01*
X175625741Y-50588365D01*
X175402775Y-50436349D01*
X175402769Y-50436346D01*
X175402768Y-50436345D01*
X175402767Y-50436344D01*
X175159643Y-50319263D01*
X175159645Y-50319263D01*
X174901773Y-50239720D01*
X174901767Y-50239718D01*
X174634936Y-50199500D01*
X174634929Y-50199500D01*
X174365071Y-50199500D01*
X174365063Y-50199500D01*
X174098232Y-50239718D01*
X174098226Y-50239720D01*
X173840358Y-50319262D01*
X173597230Y-50436346D01*
X173374258Y-50588365D01*
X173176442Y-50771910D01*
X173008185Y-50982898D01*
X172873258Y-51216599D01*
X172873256Y-51216603D01*
X172774666Y-51467804D01*
X172774664Y-51467811D01*
X172714616Y-51730898D01*
X172694451Y-51999995D01*
X171055549Y-51999995D01*
X171035383Y-51730898D01*
X171035383Y-51730897D01*
X170975334Y-51467805D01*
X170876743Y-51216602D01*
X170741815Y-50982898D01*
X170573561Y-50771915D01*
X170573560Y-50771914D01*
X170573557Y-50771910D01*
X170375741Y-50588365D01*
X170152775Y-50436349D01*
X170152769Y-50436346D01*
X170152768Y-50436345D01*
X170152767Y-50436344D01*
X169909643Y-50319263D01*
X169909645Y-50319263D01*
X169651773Y-50239720D01*
X169651767Y-50239718D01*
X169384936Y-50199500D01*
X169384929Y-50199500D01*
X169115071Y-50199500D01*
X169115063Y-50199500D01*
X168848232Y-50239718D01*
X168848226Y-50239720D01*
X168590358Y-50319262D01*
X168347230Y-50436346D01*
X168124258Y-50588365D01*
X167926442Y-50771910D01*
X167758185Y-50982898D01*
X167623258Y-51216599D01*
X167623256Y-51216603D01*
X167524666Y-51467804D01*
X167524664Y-51467811D01*
X167464616Y-51730898D01*
X167444451Y-51999995D01*
X159319941Y-51999995D01*
X149119941Y-41799995D01*
X188794451Y-41799995D01*
X188794451Y-41800004D01*
X188814616Y-42069101D01*
X188874664Y-42332188D01*
X188874666Y-42332195D01*
X188973257Y-42583398D01*
X189108185Y-42817102D01*
X189137255Y-42853554D01*
X189276442Y-43028089D01*
X189380911Y-43125021D01*
X189474259Y-43211635D01*
X189697226Y-43363651D01*
X189940359Y-43480738D01*
X190198228Y-43560280D01*
X190198229Y-43560280D01*
X190198232Y-43560281D01*
X190465063Y-43600499D01*
X190465068Y-43600499D01*
X190465071Y-43600500D01*
X190465072Y-43600500D01*
X190734928Y-43600500D01*
X190734929Y-43600500D01*
X190734936Y-43600499D01*
X191001767Y-43560281D01*
X191001768Y-43560280D01*
X191001772Y-43560280D01*
X191259641Y-43480738D01*
X191502775Y-43363651D01*
X191725741Y-43211635D01*
X191879259Y-43069190D01*
X191923557Y-43028089D01*
X191923557Y-43028087D01*
X191923561Y-43028085D01*
X192091815Y-42817102D01*
X192226743Y-42583398D01*
X192325334Y-42332195D01*
X192385383Y-42069103D01*
X192397183Y-41911635D01*
X192405549Y-41800004D01*
X192405549Y-41799995D01*
X192385383Y-41530898D01*
X192374490Y-41483171D01*
X192325334Y-41267805D01*
X192226743Y-41016602D01*
X192091815Y-40782898D01*
X191923561Y-40571915D01*
X191923560Y-40571914D01*
X191923557Y-40571910D01*
X191846050Y-40499995D01*
X201694451Y-40499995D01*
X201694451Y-40500004D01*
X201714616Y-40769101D01*
X201774664Y-41032188D01*
X201774666Y-41032195D01*
X201840526Y-41200003D01*
X201873257Y-41283398D01*
X202008185Y-41517102D01*
X202120380Y-41657789D01*
X202176442Y-41728089D01*
X202334753Y-41874979D01*
X202374259Y-41911635D01*
X202597226Y-42063651D01*
X202840359Y-42180738D01*
X203098228Y-42260280D01*
X203098229Y-42260280D01*
X203098232Y-42260281D01*
X203365063Y-42300499D01*
X203365068Y-42300499D01*
X203365071Y-42300500D01*
X203365072Y-42300500D01*
X203634928Y-42300500D01*
X203634929Y-42300500D01*
X203634936Y-42300499D01*
X203901767Y-42260281D01*
X203901768Y-42260280D01*
X203901772Y-42260280D01*
X204159641Y-42180738D01*
X204402775Y-42063651D01*
X204625741Y-41911635D01*
X204823561Y-41728085D01*
X204991815Y-41517102D01*
X205126743Y-41283398D01*
X205225334Y-41032195D01*
X205285383Y-40769103D01*
X205305549Y-40500000D01*
X205297183Y-40388365D01*
X205288226Y-40268834D01*
X205285383Y-40230897D01*
X205225334Y-39967805D01*
X205126743Y-39716602D01*
X204991815Y-39482898D01*
X204823561Y-39271915D01*
X204823560Y-39271914D01*
X204823557Y-39271910D01*
X204625741Y-39088365D01*
X204549351Y-39036283D01*
X204402775Y-38936349D01*
X204402769Y-38936346D01*
X204402768Y-38936345D01*
X204402767Y-38936344D01*
X204159643Y-38819263D01*
X204159645Y-38819263D01*
X203901773Y-38739720D01*
X203901767Y-38739718D01*
X203634936Y-38699500D01*
X203634929Y-38699500D01*
X203365071Y-38699500D01*
X203365063Y-38699500D01*
X203098232Y-38739718D01*
X203098226Y-38739720D01*
X202840358Y-38819262D01*
X202597230Y-38936346D01*
X202374258Y-39088365D01*
X202176442Y-39271910D01*
X202008185Y-39482898D01*
X201873258Y-39716599D01*
X201873256Y-39716603D01*
X201774666Y-39967804D01*
X201774664Y-39967811D01*
X201714616Y-40230898D01*
X201694451Y-40499995D01*
X191846050Y-40499995D01*
X191725741Y-40388365D01*
X191502775Y-40236349D01*
X191502769Y-40236346D01*
X191502768Y-40236345D01*
X191502767Y-40236344D01*
X191259643Y-40119263D01*
X191259645Y-40119263D01*
X191001773Y-40039720D01*
X191001767Y-40039718D01*
X190734936Y-39999500D01*
X190734929Y-39999500D01*
X190465071Y-39999500D01*
X190465063Y-39999500D01*
X190198232Y-40039718D01*
X190198226Y-40039720D01*
X189940358Y-40119262D01*
X189697230Y-40236346D01*
X189474258Y-40388365D01*
X189276442Y-40571910D01*
X189108185Y-40782898D01*
X188973258Y-41016599D01*
X188973256Y-41016603D01*
X188874666Y-41267804D01*
X188874664Y-41267811D01*
X188814616Y-41530898D01*
X188794451Y-41799995D01*
X149119941Y-41799995D01*
X144219941Y-36899995D01*
X188794451Y-36899995D01*
X188794451Y-36900004D01*
X188814616Y-37169101D01*
X188857940Y-37358914D01*
X188874666Y-37432195D01*
X188973257Y-37683398D01*
X189108185Y-37917102D01*
X189221125Y-38058724D01*
X189276442Y-38128089D01*
X189463183Y-38301358D01*
X189474259Y-38311635D01*
X189697226Y-38463651D01*
X189940359Y-38580738D01*
X190198228Y-38660280D01*
X190198229Y-38660280D01*
X190198232Y-38660281D01*
X190465063Y-38700499D01*
X190465068Y-38700499D01*
X190465071Y-38700500D01*
X190465072Y-38700500D01*
X190734928Y-38700500D01*
X190734929Y-38700500D01*
X190741564Y-38699500D01*
X191001767Y-38660281D01*
X191001768Y-38660280D01*
X191001772Y-38660280D01*
X191259641Y-38580738D01*
X191502775Y-38463651D01*
X191725741Y-38311635D01*
X191923561Y-38128085D01*
X192091815Y-37917102D01*
X192226743Y-37683398D01*
X192325334Y-37432195D01*
X192385383Y-37169103D01*
X192398055Y-37000000D01*
X192405549Y-36900004D01*
X192405549Y-36899995D01*
X192385383Y-36630898D01*
X192325335Y-36367811D01*
X192325334Y-36367805D01*
X192226743Y-36116602D01*
X192091815Y-35882898D01*
X191923561Y-35671915D01*
X191923560Y-35671914D01*
X191923557Y-35671910D01*
X191738275Y-35499995D01*
X201694451Y-35499995D01*
X201694451Y-35500004D01*
X201714616Y-35769101D01*
X201774664Y-36032188D01*
X201774666Y-36032195D01*
X201835496Y-36187187D01*
X201873257Y-36283398D01*
X202008185Y-36517102D01*
X202098934Y-36630897D01*
X202176442Y-36728089D01*
X202299793Y-36842541D01*
X202374259Y-36911635D01*
X202597226Y-37063651D01*
X202840359Y-37180738D01*
X203098228Y-37260280D01*
X203098229Y-37260280D01*
X203098232Y-37260281D01*
X203365063Y-37300499D01*
X203365068Y-37300499D01*
X203365071Y-37300500D01*
X203365072Y-37300500D01*
X203634928Y-37300500D01*
X203634929Y-37300500D01*
X203634936Y-37300499D01*
X203901767Y-37260281D01*
X203901768Y-37260280D01*
X203901772Y-37260280D01*
X204159641Y-37180738D01*
X204402775Y-37063651D01*
X204496134Y-37000000D01*
X209794457Y-37000000D01*
X209814612Y-37358902D01*
X209814614Y-37358914D01*
X209874826Y-37713296D01*
X209874828Y-37713305D01*
X209945175Y-37957485D01*
X209974341Y-38058724D01*
X210027400Y-38186819D01*
X210111905Y-38390831D01*
X210285790Y-38705454D01*
X210449616Y-38936344D01*
X210493806Y-38998623D01*
X210733339Y-39266661D01*
X211001377Y-39506194D01*
X211294548Y-39714211D01*
X211609167Y-39888094D01*
X211941276Y-40025659D01*
X212286700Y-40125173D01*
X212641093Y-40185387D01*
X213000000Y-40205543D01*
X213358907Y-40185387D01*
X213713300Y-40125173D01*
X214058724Y-40025659D01*
X214390833Y-39888094D01*
X214705452Y-39714211D01*
X214998623Y-39506194D01*
X215266661Y-39266661D01*
X215506194Y-38998623D01*
X215714211Y-38705452D01*
X215888094Y-38390833D01*
X216025659Y-38058724D01*
X216125173Y-37713300D01*
X216185387Y-37358907D01*
X216205543Y-37000000D01*
X216185387Y-36641093D01*
X216125173Y-36286700D01*
X216025659Y-35941276D01*
X215888094Y-35609167D01*
X215714211Y-35294548D01*
X215660792Y-35219262D01*
X215506194Y-35001377D01*
X215469323Y-34960118D01*
X215266661Y-34733339D01*
X214998623Y-34493806D01*
X214907928Y-34429454D01*
X214705454Y-34285790D01*
X214390831Y-34111905D01*
X214304086Y-34075974D01*
X214058724Y-33974341D01*
X214058720Y-33974339D01*
X214058718Y-33974339D01*
X213713305Y-33874828D01*
X213713296Y-33874826D01*
X213358914Y-33814614D01*
X213358902Y-33814612D01*
X213000000Y-33794457D01*
X212641097Y-33814612D01*
X212641085Y-33814614D01*
X212286703Y-33874826D01*
X212286694Y-33874828D01*
X211941281Y-33974339D01*
X211609168Y-34111905D01*
X211294545Y-34285790D01*
X211001377Y-34493805D01*
X210733339Y-34733339D01*
X210493805Y-35001377D01*
X210285790Y-35294545D01*
X210111905Y-35609168D01*
X209974339Y-35941281D01*
X209874828Y-36286694D01*
X209874826Y-36286703D01*
X209814614Y-36641085D01*
X209814612Y-36641097D01*
X209794457Y-37000000D01*
X204496134Y-37000000D01*
X204625741Y-36911635D01*
X204823561Y-36728085D01*
X204991815Y-36517102D01*
X205126743Y-36283398D01*
X205225334Y-36032195D01*
X205285383Y-35769103D01*
X205305549Y-35500000D01*
X205285383Y-35230897D01*
X205225334Y-34967805D01*
X205126743Y-34716602D01*
X204991815Y-34482898D01*
X204823561Y-34271915D01*
X204823560Y-34271914D01*
X204823557Y-34271910D01*
X204625741Y-34088365D01*
X204402775Y-33936349D01*
X204402769Y-33936346D01*
X204402768Y-33936345D01*
X204402767Y-33936344D01*
X204159643Y-33819263D01*
X204159645Y-33819263D01*
X203901773Y-33739720D01*
X203901767Y-33739718D01*
X203634936Y-33699500D01*
X203634929Y-33699500D01*
X203365071Y-33699500D01*
X203365063Y-33699500D01*
X203098232Y-33739718D01*
X203098226Y-33739720D01*
X202840358Y-33819262D01*
X202597230Y-33936346D01*
X202374258Y-34088365D01*
X202176442Y-34271910D01*
X202008185Y-34482898D01*
X201873258Y-34716599D01*
X201873256Y-34716603D01*
X201774666Y-34967804D01*
X201774664Y-34967811D01*
X201714616Y-35230898D01*
X201694451Y-35499995D01*
X191738275Y-35499995D01*
X191725741Y-35488365D01*
X191686557Y-35461650D01*
X191502775Y-35336349D01*
X191502769Y-35336346D01*
X191502768Y-35336345D01*
X191502767Y-35336344D01*
X191259643Y-35219263D01*
X191259645Y-35219263D01*
X191001773Y-35139720D01*
X191001767Y-35139718D01*
X190734936Y-35099500D01*
X190734929Y-35099500D01*
X190465071Y-35099500D01*
X190465063Y-35099500D01*
X190198232Y-35139718D01*
X190198226Y-35139720D01*
X189940358Y-35219262D01*
X189697230Y-35336346D01*
X189474258Y-35488365D01*
X189276442Y-35671910D01*
X189108185Y-35882898D01*
X188973258Y-36116599D01*
X188973256Y-36116603D01*
X188874666Y-36367804D01*
X188874664Y-36367811D01*
X188814616Y-36630898D01*
X188794451Y-36899995D01*
X144219941Y-36899995D01*
X142607200Y-35287254D01*
X142577839Y-35240526D01*
X142557789Y-35183225D01*
X142557789Y-35183224D01*
X142470807Y-35044795D01*
X142355204Y-34929192D01*
X142216774Y-34842210D01*
X142062455Y-34788212D01*
X141900004Y-34769909D01*
X141899996Y-34769909D01*
X141737544Y-34788212D01*
X141583225Y-34842210D01*
X141444795Y-34929192D01*
X141329192Y-35044795D01*
X141242210Y-35183225D01*
X141188212Y-35337544D01*
X141169909Y-35499996D01*
X141169909Y-35500003D01*
X141188212Y-35662455D01*
X141242210Y-35816774D01*
X141242211Y-35816775D01*
X141329192Y-35955204D01*
X141444796Y-36070808D01*
X141496243Y-36103134D01*
X141583224Y-36157789D01*
X141640526Y-36177839D01*
X141687254Y-36207200D01*
X145617873Y-40137819D01*
X145651358Y-40199142D01*
X145646374Y-40268834D01*
X145604502Y-40324767D01*
X145539038Y-40349184D01*
X145530192Y-40349500D01*
X142358673Y-40349500D01*
X142317718Y-40342541D01*
X142162457Y-40288212D01*
X142000004Y-40269909D01*
X141999996Y-40269909D01*
X141837544Y-40288212D01*
X141683225Y-40342210D01*
X141544795Y-40429192D01*
X141429192Y-40544795D01*
X141342210Y-40683225D01*
X141288212Y-40837544D01*
X141269909Y-40999996D01*
X141269909Y-41000003D01*
X141288212Y-41162455D01*
X141342210Y-41316774D01*
X141429192Y-41455204D01*
X141544796Y-41570808D01*
X141683225Y-41657789D01*
X141837539Y-41711786D01*
X141837542Y-41711786D01*
X141837544Y-41711787D01*
X141999996Y-41730091D01*
X142000000Y-41730091D01*
X142000004Y-41730091D01*
X142162457Y-41711787D01*
X142162459Y-41711786D01*
X142162461Y-41711786D01*
X142316775Y-41657789D01*
X142316775Y-41657788D01*
X142317718Y-41657459D01*
X142358673Y-41650500D01*
X146372086Y-41650500D01*
X146439125Y-41670185D01*
X146459767Y-41686819D01*
X150410767Y-45637819D01*
X150444252Y-45699142D01*
X150439268Y-45768834D01*
X150397396Y-45824767D01*
X150331932Y-45849184D01*
X150323086Y-45849500D01*
X142258673Y-45849500D01*
X142217718Y-45842541D01*
X142062457Y-45788212D01*
X141900004Y-45769909D01*
X141899996Y-45769909D01*
X141737544Y-45788212D01*
X141583225Y-45842210D01*
X141444795Y-45929192D01*
X141329192Y-46044795D01*
X141242210Y-46183225D01*
X141188212Y-46337544D01*
X141169909Y-46499996D01*
X141169909Y-46500003D01*
X141188212Y-46662455D01*
X141242210Y-46816774D01*
X141279482Y-46876092D01*
X141329192Y-46955204D01*
X141444796Y-47070808D01*
X141583225Y-47157789D01*
X141737539Y-47211786D01*
X141737542Y-47211786D01*
X141737544Y-47211787D01*
X141899996Y-47230091D01*
X141900000Y-47230091D01*
X141900004Y-47230091D01*
X142062457Y-47211787D01*
X142062459Y-47211786D01*
X142062461Y-47211786D01*
X142216775Y-47157789D01*
X142216775Y-47157788D01*
X142217718Y-47157459D01*
X142258673Y-47150500D01*
X151164980Y-47150500D01*
X151232019Y-47170185D01*
X151252661Y-47186819D01*
X155203661Y-51137819D01*
X155237146Y-51199142D01*
X155232162Y-51268834D01*
X155190290Y-51324767D01*
X155124826Y-51349184D01*
X155115980Y-51349500D01*
X142558673Y-51349500D01*
X142517718Y-51342541D01*
X142362457Y-51288212D01*
X142200004Y-51269909D01*
X142199996Y-51269909D01*
X142037544Y-51288212D01*
X141883225Y-51342210D01*
X141744795Y-51429192D01*
X141629192Y-51544795D01*
X141542210Y-51683225D01*
X141488212Y-51837544D01*
X141469909Y-51999996D01*
X141469909Y-52000003D01*
X141488212Y-52162455D01*
X141542210Y-52316774D01*
X141542211Y-52316775D01*
X141629192Y-52455204D01*
X141744796Y-52570808D01*
X141883225Y-52657789D01*
X142037539Y-52711786D01*
X142037542Y-52711786D01*
X142037544Y-52711787D01*
X142199996Y-52730091D01*
X142200000Y-52730091D01*
X142200004Y-52730091D01*
X142362457Y-52711787D01*
X142362459Y-52711786D01*
X142362461Y-52711786D01*
X142516775Y-52657789D01*
X142516775Y-52657788D01*
X142517718Y-52657459D01*
X142558673Y-52650500D01*
X155957874Y-52650500D01*
X156024913Y-52670185D01*
X156045555Y-52686819D01*
X160021555Y-56662819D01*
X160055040Y-56724142D01*
X160050056Y-56793834D01*
X160008184Y-56849767D01*
X159942720Y-56874184D01*
X159933874Y-56874500D01*
X142633673Y-56874500D01*
X142592718Y-56867541D01*
X142437457Y-56813212D01*
X142275004Y-56794909D01*
X142274996Y-56794909D01*
X142112544Y-56813212D01*
X141958225Y-56867210D01*
X141819795Y-56954192D01*
X141704192Y-57069795D01*
X141617210Y-57208225D01*
X141563212Y-57362544D01*
X141544909Y-57524996D01*
X141544909Y-57525003D01*
X141563212Y-57687455D01*
X141617210Y-57841774D01*
X141617211Y-57841775D01*
X141704192Y-57980204D01*
X141819796Y-58095808D01*
X141958225Y-58182789D01*
X142112539Y-58236786D01*
X142112542Y-58236786D01*
X142112544Y-58236787D01*
X142274996Y-58255091D01*
X142275000Y-58255091D01*
X142275004Y-58255091D01*
X142437457Y-58236787D01*
X142437459Y-58236786D01*
X142437461Y-58236786D01*
X142591775Y-58182789D01*
X142591775Y-58182788D01*
X142592718Y-58182459D01*
X142633673Y-58175500D01*
X160775768Y-58175500D01*
X160842807Y-58195185D01*
X160863449Y-58211819D01*
X164789449Y-62137819D01*
X164822934Y-62199142D01*
X164817950Y-62268834D01*
X164776078Y-62324767D01*
X164710614Y-62349184D01*
X164701768Y-62349500D01*
X142558673Y-62349500D01*
X142517718Y-62342541D01*
X142362457Y-62288212D01*
X142200004Y-62269909D01*
X142199996Y-62269909D01*
X142037544Y-62288212D01*
X141883225Y-62342210D01*
X141744795Y-62429192D01*
X141629192Y-62544795D01*
X141542210Y-62683225D01*
X141488212Y-62837544D01*
X141469909Y-62999996D01*
X141469909Y-63000003D01*
X141488212Y-63162455D01*
X141542210Y-63316774D01*
X141542211Y-63316775D01*
X141629192Y-63455204D01*
X141744796Y-63570808D01*
X141883225Y-63657789D01*
X142037539Y-63711786D01*
X142037542Y-63711786D01*
X142037544Y-63711787D01*
X142199996Y-63730091D01*
X142200000Y-63730091D01*
X142200004Y-63730091D01*
X142362457Y-63711787D01*
X142362459Y-63711786D01*
X142362461Y-63711786D01*
X142516775Y-63657789D01*
X142516775Y-63657788D01*
X142517718Y-63657459D01*
X142558673Y-63650500D01*
X165543662Y-63650500D01*
X165610701Y-63670185D01*
X165631343Y-63686819D01*
X172882343Y-70937819D01*
X172915828Y-70999142D01*
X172910844Y-71068834D01*
X172868972Y-71124767D01*
X172803508Y-71149184D01*
X172794662Y-71149500D01*
X156875929Y-71149500D01*
X156750261Y-71174497D01*
X156750255Y-71174499D01*
X156631875Y-71223533D01*
X156631866Y-71223538D01*
X156525331Y-71294723D01*
X156525327Y-71294726D01*
X149467762Y-78352290D01*
X149406439Y-78385775D01*
X149347989Y-78384384D01*
X149275416Y-78364939D01*
X149275412Y-78364938D01*
X149275408Y-78364937D01*
X149275406Y-78364936D01*
X149275403Y-78364936D01*
X149040001Y-78344341D01*
X149039999Y-78344341D01*
X148804596Y-78364936D01*
X148804586Y-78364938D01*
X148576344Y-78426094D01*
X148576335Y-78426098D01*
X148362171Y-78525964D01*
X148362169Y-78525965D01*
X148168597Y-78661505D01*
X148001505Y-78828597D01*
X147871575Y-79014158D01*
X147816998Y-79057783D01*
X147747500Y-79064977D01*
X147685145Y-79033454D01*
X147668425Y-79014158D01*
X147538494Y-78828597D01*
X147371402Y-78661506D01*
X147371395Y-78661501D01*
X147177834Y-78525967D01*
X147177830Y-78525965D01*
X147133992Y-78505523D01*
X146963663Y-78426097D01*
X146963659Y-78426096D01*
X146963655Y-78426094D01*
X146735413Y-78364938D01*
X146735403Y-78364936D01*
X146500001Y-78344341D01*
X146499999Y-78344341D01*
X146264596Y-78364936D01*
X146264586Y-78364938D01*
X146036344Y-78426094D01*
X146036335Y-78426098D01*
X145822171Y-78525964D01*
X145822169Y-78525965D01*
X145628597Y-78661505D01*
X145461505Y-78828597D01*
X145325965Y-79022169D01*
X145325964Y-79022171D01*
X145226098Y-79236335D01*
X145226094Y-79236344D01*
X145164938Y-79464586D01*
X145164936Y-79464596D01*
X145144341Y-79699999D01*
X145144341Y-79700000D01*
X145164936Y-79935403D01*
X145164938Y-79935413D01*
X145226094Y-80163655D01*
X145226096Y-80163659D01*
X145226097Y-80163663D01*
X145298765Y-80319500D01*
X145325965Y-80377830D01*
X145325967Y-80377834D01*
X145415666Y-80505936D01*
X145461505Y-80571401D01*
X145628599Y-80738495D01*
X145724896Y-80805923D01*
X145822165Y-80874032D01*
X145822167Y-80874033D01*
X145822170Y-80874035D01*
X146036337Y-80973903D01*
X146264592Y-81035063D01*
X146441034Y-81050500D01*
X146499999Y-81055659D01*
X146500000Y-81055659D01*
X146500001Y-81055659D01*
X146558966Y-81050500D01*
X146735408Y-81035063D01*
X146807989Y-81015615D01*
X146877839Y-81017278D01*
X146927763Y-81047709D01*
X147885324Y-82005271D01*
X147885327Y-82005274D01*
X147951518Y-82049501D01*
X147991866Y-82076461D01*
X147991872Y-82076464D01*
X147991873Y-82076465D01*
X148110256Y-82125501D01*
X148110260Y-82125501D01*
X148110261Y-82125502D01*
X148235928Y-82150500D01*
X148235931Y-82150500D01*
X149864071Y-82150500D01*
X149948615Y-82133682D01*
X149989744Y-82125501D01*
X150108127Y-82076465D01*
X150148482Y-82049501D01*
X150214669Y-82005277D01*
X150805277Y-81414669D01*
X150876465Y-81308127D01*
X150914374Y-81216607D01*
X150925501Y-81189744D01*
X150950320Y-81064974D01*
X150982705Y-81003063D01*
X151043421Y-80968489D01*
X151111253Y-80972125D01*
X151111279Y-80972030D01*
X151111729Y-80972150D01*
X151113190Y-80972229D01*
X151114356Y-80972647D01*
X151116514Y-80973432D01*
X151330000Y-81030634D01*
X151330000Y-80133012D01*
X151387007Y-80165925D01*
X151514174Y-80200000D01*
X151645826Y-80200000D01*
X151772993Y-80165925D01*
X151830000Y-80133012D01*
X151830000Y-81030633D01*
X152043483Y-80973433D01*
X152043492Y-80973429D01*
X152257578Y-80873600D01*
X152451082Y-80738105D01*
X152618105Y-80571082D01*
X152748119Y-80385405D01*
X152802696Y-80341781D01*
X152872195Y-80334588D01*
X152934549Y-80366110D01*
X152951269Y-80385405D01*
X152964180Y-80403844D01*
X153081505Y-80571401D01*
X153248599Y-80738495D01*
X153344896Y-80805923D01*
X153442165Y-80874032D01*
X153442167Y-80874033D01*
X153442170Y-80874035D01*
X153656337Y-80973903D01*
X153884592Y-81035063D01*
X154061034Y-81050500D01*
X154119999Y-81055659D01*
X154120000Y-81055659D01*
X154120001Y-81055659D01*
X154178966Y-81050500D01*
X154355408Y-81035063D01*
X154583663Y-80973903D01*
X154797830Y-80874035D01*
X154991401Y-80738495D01*
X155158495Y-80571401D01*
X155272891Y-80408026D01*
X155288425Y-80385842D01*
X155343002Y-80342217D01*
X155412500Y-80335023D01*
X155474855Y-80366546D01*
X155491575Y-80385842D01*
X155621501Y-80571396D01*
X155621506Y-80571402D01*
X155788597Y-80738493D01*
X155788603Y-80738498D01*
X155956623Y-80856147D01*
X156000248Y-80910724D01*
X156009500Y-80957722D01*
X156009500Y-87324071D01*
X156029285Y-87423532D01*
X156029285Y-87423533D01*
X156034497Y-87449737D01*
X156034498Y-87449741D01*
X156034499Y-87449744D01*
X156083535Y-87568127D01*
X156154723Y-87674669D01*
X156154726Y-87674673D01*
X165385328Y-96905275D01*
X165463923Y-96957790D01*
X165463922Y-96957790D01*
X165484908Y-96971811D01*
X165491873Y-96976465D01*
X165610256Y-97025501D01*
X165610260Y-97025501D01*
X165610261Y-97025502D01*
X165735928Y-97050500D01*
X165735931Y-97050500D01*
X168314071Y-97050500D01*
X168416669Y-97030091D01*
X168439744Y-97025501D01*
X168558127Y-96976465D01*
X168586078Y-96957789D01*
X168590540Y-96954808D01*
X168614001Y-96939132D01*
X168664669Y-96905277D01*
X176383126Y-89186818D01*
X176444449Y-89153334D01*
X176470807Y-89150500D01*
X176564071Y-89150500D01*
X176648615Y-89133682D01*
X176689744Y-89125501D01*
X176808127Y-89076465D01*
X176914669Y-89005276D01*
X177005276Y-88914669D01*
X177076465Y-88808127D01*
X177125501Y-88689744D01*
X177135886Y-88637539D01*
X177150500Y-88564071D01*
X177150500Y-86520808D01*
X177170185Y-86453769D01*
X177186814Y-86433130D01*
X177212746Y-86407198D01*
X177259472Y-86377839D01*
X177316775Y-86357789D01*
X177455204Y-86270808D01*
X177570808Y-86155204D01*
X177657789Y-86016775D01*
X177711786Y-85862461D01*
X177715298Y-85831296D01*
X177725867Y-85737486D01*
X177752933Y-85673072D01*
X177810527Y-85633517D01*
X177880364Y-85631378D01*
X177915058Y-85646375D01*
X177933222Y-85657788D01*
X177933225Y-85657789D01*
X178087539Y-85711786D01*
X178087542Y-85711786D01*
X178087544Y-85711787D01*
X178249996Y-85730091D01*
X178250000Y-85730091D01*
X178250004Y-85730091D01*
X178412455Y-85711787D01*
X178412456Y-85711786D01*
X178412461Y-85711786D01*
X178566775Y-85657789D01*
X178705204Y-85570808D01*
X178820808Y-85455204D01*
X178898892Y-85330933D01*
X178951227Y-85284643D01*
X179020280Y-85273995D01*
X179084129Y-85302370D01*
X179120928Y-85355952D01*
X179142210Y-85416774D01*
X179175306Y-85469445D01*
X179229192Y-85555204D01*
X179344796Y-85670808D01*
X179483225Y-85757789D01*
X179637539Y-85811786D01*
X179637542Y-85811786D01*
X179637544Y-85811787D01*
X179799996Y-85830091D01*
X179800000Y-85830091D01*
X179800004Y-85830091D01*
X179962455Y-85811787D01*
X179962456Y-85811786D01*
X179962461Y-85811786D01*
X180116775Y-85757789D01*
X180255204Y-85670808D01*
X180337819Y-85588193D01*
X180399142Y-85554708D01*
X180468834Y-85559692D01*
X180524767Y-85601564D01*
X180549184Y-85667028D01*
X180549500Y-85675874D01*
X180549500Y-86879192D01*
X180529815Y-86946231D01*
X180513181Y-86966873D01*
X167466873Y-100013181D01*
X167405550Y-100046666D01*
X167379192Y-100049500D01*
X139235929Y-100049500D01*
X139110261Y-100074497D01*
X139110255Y-100074499D01*
X138991870Y-100123535D01*
X138885331Y-100194722D01*
X138885324Y-100194728D01*
X138094722Y-100985331D01*
X138094718Y-100985336D01*
X138047195Y-101056463D01*
X138047194Y-101056464D01*
X138023536Y-101091870D01*
X138023534Y-101091874D01*
X137974499Y-101210255D01*
X137974497Y-101210261D01*
X137949500Y-101335928D01*
X137949500Y-101742278D01*
X137929815Y-101809317D01*
X137896623Y-101843853D01*
X137728597Y-101961505D01*
X137561505Y-102128597D01*
X137431575Y-102314158D01*
X137376998Y-102357783D01*
X137307500Y-102364977D01*
X137245145Y-102333454D01*
X137228425Y-102314158D01*
X137098494Y-102128597D01*
X136931402Y-101961506D01*
X136931395Y-101961501D01*
X136737834Y-101825967D01*
X136737830Y-101825965D01*
X136659148Y-101789275D01*
X136523663Y-101726097D01*
X136523659Y-101726096D01*
X136523655Y-101726094D01*
X136295413Y-101664938D01*
X136295403Y-101664936D01*
X136060001Y-101644341D01*
X136059999Y-101644341D01*
X135824596Y-101664936D01*
X135824586Y-101664938D01*
X135596344Y-101726094D01*
X135596335Y-101726098D01*
X135382171Y-101825964D01*
X135382169Y-101825965D01*
X135188597Y-101961505D01*
X135021505Y-102128597D01*
X134891575Y-102314158D01*
X134836998Y-102357783D01*
X134767500Y-102364977D01*
X134705145Y-102333454D01*
X134688425Y-102314158D01*
X134558494Y-102128597D01*
X134391402Y-101961506D01*
X134391395Y-101961501D01*
X134197834Y-101825967D01*
X134197830Y-101825965D01*
X134119148Y-101789275D01*
X133983663Y-101726097D01*
X133983659Y-101726096D01*
X133983655Y-101726094D01*
X133755413Y-101664938D01*
X133755403Y-101664936D01*
X133520001Y-101644341D01*
X133519999Y-101644341D01*
X133284596Y-101664936D01*
X133284586Y-101664938D01*
X133056344Y-101726094D01*
X133056335Y-101726098D01*
X132842171Y-101825964D01*
X132842169Y-101825965D01*
X132648600Y-101961503D01*
X132526284Y-102083819D01*
X132464961Y-102117303D01*
X132395269Y-102112319D01*
X132339336Y-102070447D01*
X132322421Y-102039470D01*
X132273354Y-101907913D01*
X132273350Y-101907906D01*
X132187190Y-101792812D01*
X132187187Y-101792809D01*
X132072093Y-101706649D01*
X132072086Y-101706645D01*
X131937379Y-101656403D01*
X131937372Y-101656401D01*
X131877844Y-101650000D01*
X131230000Y-101650000D01*
X131230000Y-102566988D01*
X131172993Y-102534075D01*
X131045826Y-102500000D01*
X130914174Y-102500000D01*
X130787007Y-102534075D01*
X130730000Y-102566988D01*
X130730000Y-101650000D01*
X130082155Y-101650000D01*
X130022627Y-101656401D01*
X130022620Y-101656403D01*
X129887913Y-101706645D01*
X129887906Y-101706649D01*
X129772812Y-101792809D01*
X129772809Y-101792812D01*
X129686649Y-101907906D01*
X129686645Y-101907913D01*
X129636403Y-102042620D01*
X129636401Y-102042627D01*
X129630000Y-102102155D01*
X129630000Y-102750000D01*
X130546988Y-102750000D01*
X130514075Y-102807007D01*
X130480000Y-102934174D01*
X130480000Y-103065826D01*
X130514075Y-103192993D01*
X130546988Y-103250000D01*
X129630000Y-103250000D01*
X129630000Y-103897844D01*
X129636401Y-103957372D01*
X129636403Y-103957379D01*
X129686645Y-104092086D01*
X129686649Y-104092093D01*
X129772809Y-104207187D01*
X129772812Y-104207190D01*
X129887906Y-104293350D01*
X129887913Y-104293354D01*
X130022620Y-104343596D01*
X130022627Y-104343598D01*
X130082155Y-104349999D01*
X130082172Y-104350000D01*
X130730000Y-104350000D01*
X130730000Y-103433012D01*
X130787007Y-103465925D01*
X130914174Y-103500000D01*
X131045826Y-103500000D01*
X131172993Y-103465925D01*
X131230000Y-103433012D01*
X131230000Y-104350000D01*
X131877828Y-104350000D01*
X131877844Y-104349999D01*
X131937372Y-104343598D01*
X131937379Y-104343596D01*
X132072086Y-104293354D01*
X132072093Y-104293350D01*
X132187187Y-104207190D01*
X132187190Y-104207187D01*
X132273350Y-104092093D01*
X132273354Y-104092086D01*
X132322422Y-103960529D01*
X132364293Y-103904595D01*
X132429757Y-103880178D01*
X132498030Y-103895030D01*
X132526285Y-103916181D01*
X132648599Y-104038495D01*
X132677489Y-104058724D01*
X132842165Y-104174032D01*
X132842167Y-104174033D01*
X132842170Y-104174035D01*
X133056337Y-104273903D01*
X133284592Y-104335063D01*
X133455319Y-104350000D01*
X133519999Y-104355659D01*
X133520000Y-104355659D01*
X133520001Y-104355659D01*
X133584681Y-104350000D01*
X133755408Y-104335063D01*
X133983663Y-104273903D01*
X134197830Y-104174035D01*
X134391401Y-104038495D01*
X134558495Y-103871401D01*
X134688425Y-103685842D01*
X134743002Y-103642217D01*
X134812500Y-103635023D01*
X134874855Y-103666546D01*
X134891575Y-103685842D01*
X135021281Y-103871082D01*
X135021505Y-103871401D01*
X135188599Y-104038495D01*
X135217489Y-104058724D01*
X135382165Y-104174032D01*
X135382167Y-104174033D01*
X135382170Y-104174035D01*
X135596337Y-104273903D01*
X135824592Y-104335063D01*
X135995319Y-104350000D01*
X136059999Y-104355659D01*
X136060000Y-104355659D01*
X136060001Y-104355659D01*
X136124681Y-104350000D01*
X136295408Y-104335063D01*
X136523663Y-104273903D01*
X136737830Y-104174035D01*
X136931401Y-104038495D01*
X137098495Y-103871401D01*
X137228425Y-103685842D01*
X137283002Y-103642217D01*
X137352500Y-103635023D01*
X137414855Y-103666546D01*
X137431575Y-103685842D01*
X137561281Y-103871082D01*
X137561505Y-103871401D01*
X137728599Y-104038495D01*
X137757489Y-104058724D01*
X137922165Y-104174032D01*
X137922167Y-104174033D01*
X137922170Y-104174035D01*
X138136337Y-104273903D01*
X138364592Y-104335063D01*
X138535319Y-104350000D01*
X138599999Y-104355659D01*
X138600000Y-104355659D01*
X138600001Y-104355659D01*
X138664681Y-104350000D01*
X138835408Y-104335063D01*
X139063663Y-104273903D01*
X139277830Y-104174035D01*
X139471401Y-104038495D01*
X139638495Y-103871401D01*
X139768425Y-103685842D01*
X139823002Y-103642217D01*
X139892500Y-103635023D01*
X139954855Y-103666546D01*
X139971575Y-103685842D01*
X140101281Y-103871082D01*
X140101505Y-103871401D01*
X140268599Y-104038495D01*
X140297489Y-104058724D01*
X140462165Y-104174032D01*
X140462167Y-104174033D01*
X140462170Y-104174035D01*
X140676337Y-104273903D01*
X140904592Y-104335063D01*
X141075319Y-104350000D01*
X141139999Y-104355659D01*
X141140000Y-104355659D01*
X141140001Y-104355659D01*
X141204681Y-104350000D01*
X141375408Y-104335063D01*
X141603663Y-104273903D01*
X141817830Y-104174035D01*
X142011401Y-104038495D01*
X142178495Y-103871401D01*
X142308730Y-103685405D01*
X142363307Y-103641781D01*
X142432805Y-103634587D01*
X142495160Y-103666110D01*
X142511879Y-103685405D01*
X142641890Y-103871078D01*
X142808917Y-104038105D01*
X143002421Y-104173600D01*
X143216507Y-104273429D01*
X143216516Y-104273433D01*
X143430000Y-104330634D01*
X143430000Y-103433012D01*
X143487007Y-103465925D01*
X143614174Y-103500000D01*
X143745826Y-103500000D01*
X143872993Y-103465925D01*
X143930000Y-103433012D01*
X143930000Y-104330634D01*
X144143483Y-104273433D01*
X144143492Y-104273429D01*
X144357578Y-104173600D01*
X144551082Y-104038105D01*
X144718105Y-103871082D01*
X144848119Y-103685405D01*
X144902696Y-103641781D01*
X144972195Y-103634588D01*
X145034549Y-103666110D01*
X145051269Y-103685405D01*
X145181505Y-103871401D01*
X145348599Y-104038495D01*
X145377489Y-104058724D01*
X145542165Y-104174032D01*
X145542167Y-104174033D01*
X145542170Y-104174035D01*
X145756337Y-104273903D01*
X145984592Y-104335063D01*
X146155319Y-104350000D01*
X146219999Y-104355659D01*
X146220000Y-104355659D01*
X146220001Y-104355659D01*
X146284681Y-104350000D01*
X146455408Y-104335063D01*
X146683663Y-104273903D01*
X146897830Y-104174035D01*
X147091401Y-104038495D01*
X147258495Y-103871401D01*
X147388425Y-103685842D01*
X147443002Y-103642217D01*
X147512500Y-103635023D01*
X147574855Y-103666546D01*
X147591575Y-103685842D01*
X147721281Y-103871082D01*
X147721505Y-103871401D01*
X147888599Y-104038495D01*
X147917489Y-104058724D01*
X148082165Y-104174032D01*
X148082167Y-104174033D01*
X148082170Y-104174035D01*
X148296337Y-104273903D01*
X148524592Y-104335063D01*
X148695319Y-104350000D01*
X148759999Y-104355659D01*
X148760000Y-104355659D01*
X148760001Y-104355659D01*
X148824681Y-104350000D01*
X148995408Y-104335063D01*
X149223663Y-104273903D01*
X149437830Y-104174035D01*
X149631401Y-104038495D01*
X149798495Y-103871401D01*
X149928425Y-103685842D01*
X149983002Y-103642217D01*
X150052500Y-103635023D01*
X150114855Y-103666546D01*
X150131575Y-103685842D01*
X150261281Y-103871082D01*
X150261505Y-103871401D01*
X150428599Y-104038495D01*
X150457489Y-104058724D01*
X150622165Y-104174032D01*
X150622167Y-104174033D01*
X150622170Y-104174035D01*
X150836337Y-104273903D01*
X151064592Y-104335063D01*
X151235319Y-104350000D01*
X151299999Y-104355659D01*
X151300000Y-104355659D01*
X151300001Y-104355659D01*
X151364681Y-104350000D01*
X151535408Y-104335063D01*
X151763663Y-104273903D01*
X151977830Y-104174035D01*
X152171401Y-104038495D01*
X152338495Y-103871401D01*
X152468425Y-103685842D01*
X152523002Y-103642217D01*
X152592500Y-103635023D01*
X152654855Y-103666546D01*
X152671575Y-103685842D01*
X152801281Y-103871082D01*
X152801505Y-103871401D01*
X152968599Y-104038495D01*
X152997489Y-104058724D01*
X153162165Y-104174032D01*
X153162167Y-104174033D01*
X153162170Y-104174035D01*
X153376337Y-104273903D01*
X153604592Y-104335063D01*
X153775319Y-104350000D01*
X153839999Y-104355659D01*
X153840000Y-104355659D01*
X153840001Y-104355659D01*
X153904681Y-104350000D01*
X154075408Y-104335063D01*
X154303663Y-104273903D01*
X154517830Y-104174035D01*
X154711401Y-104038495D01*
X154878495Y-103871401D01*
X155008425Y-103685842D01*
X155063002Y-103642217D01*
X155132500Y-103635023D01*
X155194855Y-103666546D01*
X155211575Y-103685842D01*
X155341281Y-103871082D01*
X155341505Y-103871401D01*
X155508599Y-104038495D01*
X155537489Y-104058724D01*
X155702165Y-104174032D01*
X155702167Y-104174033D01*
X155702170Y-104174035D01*
X155916337Y-104273903D01*
X156144592Y-104335063D01*
X156315319Y-104350000D01*
X156379999Y-104355659D01*
X156380000Y-104355659D01*
X156380001Y-104355659D01*
X156444681Y-104350000D01*
X156615408Y-104335063D01*
X156843663Y-104273903D01*
X157057830Y-104174035D01*
X157251401Y-104038495D01*
X157418495Y-103871401D01*
X157548425Y-103685842D01*
X157603002Y-103642217D01*
X157672500Y-103635023D01*
X157734855Y-103666546D01*
X157751575Y-103685842D01*
X157881281Y-103871082D01*
X157881505Y-103871401D01*
X158048599Y-104038495D01*
X158077489Y-104058724D01*
X158242165Y-104174032D01*
X158242167Y-104174033D01*
X158242170Y-104174035D01*
X158456337Y-104273903D01*
X158684592Y-104335063D01*
X158855319Y-104350000D01*
X158919999Y-104355659D01*
X158920000Y-104355659D01*
X158920001Y-104355659D01*
X158984681Y-104350000D01*
X159155408Y-104335063D01*
X159383663Y-104273903D01*
X159597830Y-104174035D01*
X159791401Y-104038495D01*
X159958495Y-103871401D01*
X160088425Y-103685842D01*
X160143002Y-103642217D01*
X160212500Y-103635023D01*
X160274855Y-103666546D01*
X160291575Y-103685842D01*
X160421281Y-103871082D01*
X160421505Y-103871401D01*
X160588599Y-104038495D01*
X160617489Y-104058724D01*
X160782165Y-104174032D01*
X160782167Y-104174033D01*
X160782170Y-104174035D01*
X160996337Y-104273903D01*
X161224592Y-104335063D01*
X161395319Y-104350000D01*
X161459999Y-104355659D01*
X161460000Y-104355659D01*
X161460001Y-104355659D01*
X161524681Y-104350000D01*
X161695408Y-104335063D01*
X161923663Y-104273903D01*
X162137830Y-104174035D01*
X162331401Y-104038495D01*
X162498495Y-103871401D01*
X162628425Y-103685842D01*
X162683002Y-103642217D01*
X162752500Y-103635023D01*
X162814855Y-103666546D01*
X162831575Y-103685842D01*
X162961281Y-103871082D01*
X162961505Y-103871401D01*
X163128599Y-104038495D01*
X163157489Y-104058724D01*
X163322165Y-104174032D01*
X163322167Y-104174033D01*
X163322170Y-104174035D01*
X163536337Y-104273903D01*
X163764592Y-104335063D01*
X163935319Y-104350000D01*
X163999999Y-104355659D01*
X164000000Y-104355659D01*
X164000001Y-104355659D01*
X164064681Y-104350000D01*
X164235408Y-104335063D01*
X164463663Y-104273903D01*
X164677830Y-104174035D01*
X164871401Y-104038495D01*
X165038495Y-103871401D01*
X165168425Y-103685842D01*
X165223002Y-103642217D01*
X165292500Y-103635023D01*
X165354855Y-103666546D01*
X165371575Y-103685842D01*
X165501281Y-103871082D01*
X165501505Y-103871401D01*
X165668599Y-104038495D01*
X165697489Y-104058724D01*
X165862165Y-104174032D01*
X165862167Y-104174033D01*
X165862170Y-104174035D01*
X166076337Y-104273903D01*
X166304592Y-104335063D01*
X166475319Y-104350000D01*
X166539999Y-104355659D01*
X166540000Y-104355659D01*
X166540001Y-104355659D01*
X166604681Y-104350000D01*
X166775408Y-104335063D01*
X167003663Y-104273903D01*
X167217830Y-104174035D01*
X167411401Y-104038495D01*
X167578495Y-103871401D01*
X167708425Y-103685842D01*
X167763002Y-103642217D01*
X167832500Y-103635023D01*
X167894855Y-103666546D01*
X167911575Y-103685842D01*
X168041281Y-103871082D01*
X168041505Y-103871401D01*
X168208599Y-104038495D01*
X168237489Y-104058724D01*
X168402165Y-104174032D01*
X168402167Y-104174033D01*
X168402170Y-104174035D01*
X168616337Y-104273903D01*
X168844592Y-104335063D01*
X169015319Y-104350000D01*
X169079999Y-104355659D01*
X169080000Y-104355659D01*
X169080001Y-104355659D01*
X169144681Y-104350000D01*
X169315408Y-104335063D01*
X169543663Y-104273903D01*
X169757830Y-104174035D01*
X169951401Y-104038495D01*
X170118495Y-103871401D01*
X170248425Y-103685842D01*
X170303002Y-103642217D01*
X170372500Y-103635023D01*
X170434855Y-103666546D01*
X170451575Y-103685842D01*
X170581281Y-103871082D01*
X170581505Y-103871401D01*
X170748599Y-104038495D01*
X170777489Y-104058724D01*
X170942165Y-104174032D01*
X170942167Y-104174033D01*
X170942170Y-104174035D01*
X171156337Y-104273903D01*
X171384592Y-104335063D01*
X171555319Y-104350000D01*
X171619999Y-104355659D01*
X171620000Y-104355659D01*
X171620001Y-104355659D01*
X171684681Y-104350000D01*
X171855408Y-104335063D01*
X172083663Y-104273903D01*
X172297830Y-104174035D01*
X172491401Y-104038495D01*
X172658495Y-103871401D01*
X172788425Y-103685842D01*
X172843002Y-103642217D01*
X172912500Y-103635023D01*
X172974855Y-103666546D01*
X172991575Y-103685842D01*
X173121281Y-103871082D01*
X173121505Y-103871401D01*
X173288599Y-104038495D01*
X173317489Y-104058724D01*
X173482165Y-104174032D01*
X173482167Y-104174033D01*
X173482170Y-104174035D01*
X173696337Y-104273903D01*
X173924592Y-104335063D01*
X174095319Y-104350000D01*
X174159999Y-104355659D01*
X174160000Y-104355659D01*
X174160001Y-104355659D01*
X174224681Y-104350000D01*
X174395408Y-104335063D01*
X174623663Y-104273903D01*
X174837830Y-104174035D01*
X175031401Y-104038495D01*
X175198495Y-103871401D01*
X175328425Y-103685842D01*
X175383002Y-103642217D01*
X175452500Y-103635023D01*
X175514855Y-103666546D01*
X175531575Y-103685842D01*
X175661281Y-103871082D01*
X175661505Y-103871401D01*
X175828599Y-104038495D01*
X175857489Y-104058724D01*
X176022165Y-104174032D01*
X176022167Y-104174033D01*
X176022170Y-104174035D01*
X176236337Y-104273903D01*
X176464592Y-104335063D01*
X176635319Y-104350000D01*
X176699999Y-104355659D01*
X176700000Y-104355659D01*
X176700001Y-104355659D01*
X176764681Y-104350000D01*
X176935408Y-104335063D01*
X177163663Y-104273903D01*
X177377830Y-104174035D01*
X177571401Y-104038495D01*
X177738495Y-103871401D01*
X177868730Y-103685405D01*
X177923307Y-103641781D01*
X177992805Y-103634587D01*
X178055160Y-103666110D01*
X178071879Y-103685405D01*
X178201890Y-103871078D01*
X178368917Y-104038105D01*
X178562421Y-104173600D01*
X178776507Y-104273429D01*
X178776516Y-104273433D01*
X178990000Y-104330634D01*
X178990000Y-103433012D01*
X179047007Y-103465925D01*
X179174174Y-103500000D01*
X179305826Y-103500000D01*
X179432993Y-103465925D01*
X179490000Y-103433012D01*
X179490000Y-104330634D01*
X179703483Y-104273433D01*
X179703492Y-104273429D01*
X179917578Y-104173600D01*
X180111082Y-104038105D01*
X180278105Y-103871082D01*
X180413600Y-103677578D01*
X180513429Y-103463492D01*
X180513432Y-103463486D01*
X180570636Y-103250000D01*
X179673012Y-103250000D01*
X179705925Y-103192993D01*
X179740000Y-103065826D01*
X179740000Y-102934174D01*
X179705925Y-102807007D01*
X179673012Y-102750000D01*
X180570636Y-102750000D01*
X180570635Y-102749999D01*
X180513432Y-102536513D01*
X180513429Y-102536507D01*
X180413600Y-102322422D01*
X180413599Y-102322420D01*
X180278113Y-102128926D01*
X180278108Y-102128920D01*
X180111082Y-101961894D01*
X179917578Y-101826399D01*
X179703492Y-101726570D01*
X179703486Y-101726567D01*
X179490000Y-101669364D01*
X179490000Y-102566988D01*
X179432993Y-102534075D01*
X179305826Y-102500000D01*
X179174174Y-102500000D01*
X179047007Y-102534075D01*
X178990000Y-102566988D01*
X178990000Y-101669364D01*
X178989999Y-101669364D01*
X178776513Y-101726567D01*
X178776507Y-101726570D01*
X178562422Y-101826399D01*
X178562420Y-101826400D01*
X178368926Y-101961886D01*
X178368920Y-101961891D01*
X178201891Y-102128920D01*
X178201890Y-102128922D01*
X178071880Y-102314595D01*
X178017303Y-102358219D01*
X177947804Y-102365412D01*
X177885450Y-102333890D01*
X177868730Y-102314594D01*
X177738494Y-102128597D01*
X177571402Y-101961506D01*
X177571395Y-101961501D01*
X177377834Y-101825967D01*
X177377830Y-101825965D01*
X177299148Y-101789275D01*
X177163663Y-101726097D01*
X177163659Y-101726096D01*
X177163655Y-101726094D01*
X176935413Y-101664938D01*
X176935403Y-101664936D01*
X176700001Y-101644341D01*
X176699999Y-101644341D01*
X176464596Y-101664936D01*
X176464586Y-101664938D01*
X176236344Y-101726094D01*
X176236335Y-101726098D01*
X176022171Y-101825964D01*
X176022169Y-101825965D01*
X175828597Y-101961505D01*
X175661505Y-102128597D01*
X175531575Y-102314158D01*
X175476998Y-102357783D01*
X175407500Y-102364977D01*
X175345145Y-102333454D01*
X175328425Y-102314158D01*
X175198494Y-102128597D01*
X175031402Y-101961506D01*
X175031395Y-101961501D01*
X174837834Y-101825967D01*
X174837830Y-101825965D01*
X174759148Y-101789275D01*
X174623663Y-101726097D01*
X174623659Y-101726096D01*
X174623655Y-101726094D01*
X174395413Y-101664938D01*
X174395403Y-101664936D01*
X174160001Y-101644341D01*
X174159999Y-101644341D01*
X173924596Y-101664936D01*
X173924586Y-101664938D01*
X173696344Y-101726094D01*
X173696335Y-101726098D01*
X173482171Y-101825964D01*
X173482169Y-101825965D01*
X173288597Y-101961505D01*
X173121505Y-102128597D01*
X172991575Y-102314158D01*
X172936998Y-102357783D01*
X172867500Y-102364977D01*
X172805145Y-102333454D01*
X172788425Y-102314158D01*
X172658494Y-102128597D01*
X172491402Y-101961506D01*
X172491401Y-101961505D01*
X172367858Y-101874999D01*
X172323376Y-101843852D01*
X172279751Y-101789275D01*
X172270500Y-101742277D01*
X172270500Y-100800808D01*
X172290185Y-100733769D01*
X172306819Y-100713127D01*
X183005272Y-90014674D01*
X183005277Y-90014669D01*
X183076466Y-89908126D01*
X183105704Y-89837539D01*
X183125501Y-89789744D01*
X183140049Y-89716607D01*
X183150500Y-89664071D01*
X183150500Y-85658673D01*
X183157459Y-85617718D01*
X183172331Y-85575217D01*
X183211786Y-85462461D01*
X183211786Y-85462459D01*
X183211787Y-85462457D01*
X183230091Y-85300003D01*
X183230091Y-85299996D01*
X183211787Y-85137544D01*
X183211786Y-85137542D01*
X183211786Y-85137539D01*
X183157789Y-84983225D01*
X183070808Y-84844796D01*
X182955204Y-84729192D01*
X182942765Y-84721376D01*
X182816774Y-84642210D01*
X182662455Y-84588212D01*
X182500004Y-84569909D01*
X182499996Y-84569909D01*
X182337544Y-84588212D01*
X182183228Y-84642209D01*
X182107795Y-84689606D01*
X182040558Y-84708605D01*
X182000871Y-84701653D01*
X181962460Y-84688213D01*
X181838518Y-84674248D01*
X181774104Y-84647181D01*
X181764721Y-84638709D01*
X181655204Y-84529192D01*
X181516774Y-84442210D01*
X181362455Y-84388212D01*
X181200004Y-84369909D01*
X181199996Y-84369909D01*
X181037544Y-84388212D01*
X180883225Y-84442210D01*
X180744795Y-84529192D01*
X180662181Y-84611807D01*
X180600858Y-84645292D01*
X180531166Y-84640308D01*
X180475233Y-84598436D01*
X180450816Y-84532972D01*
X180450500Y-84524126D01*
X180450500Y-84246481D01*
X180470185Y-84179442D01*
X180522989Y-84133687D01*
X180560616Y-84123261D01*
X180582548Y-84120790D01*
X180662455Y-84111787D01*
X180662456Y-84111786D01*
X180662461Y-84111786D01*
X180816775Y-84057789D01*
X180955204Y-83970808D01*
X181070808Y-83855204D01*
X181157789Y-83716775D01*
X181177839Y-83659472D01*
X181207196Y-83612748D01*
X181433128Y-83386816D01*
X181494450Y-83353334D01*
X181520808Y-83350500D01*
X185141327Y-83350500D01*
X185182282Y-83357459D01*
X185337542Y-83411787D01*
X185499996Y-83430091D01*
X185500000Y-83430091D01*
X185500004Y-83430091D01*
X185662455Y-83411787D01*
X185662456Y-83411786D01*
X185662461Y-83411786D01*
X185816775Y-83357789D01*
X185955204Y-83270808D01*
X186070808Y-83155204D01*
X186157789Y-83016775D01*
X186211786Y-82862461D01*
X186216586Y-82819860D01*
X186230091Y-82700003D01*
X186230091Y-82699996D01*
X186211787Y-82537544D01*
X186211786Y-82537542D01*
X186211786Y-82537539D01*
X186157789Y-82383225D01*
X186070808Y-82244796D01*
X185955204Y-82129192D01*
X185912471Y-82102341D01*
X185816774Y-82042210D01*
X185662455Y-81988212D01*
X185500004Y-81969909D01*
X185499996Y-81969909D01*
X185337542Y-81988212D01*
X185182282Y-82042541D01*
X185141327Y-82049500D01*
X181569808Y-82049500D01*
X181502769Y-82029815D01*
X181457014Y-81977011D01*
X181447070Y-81907853D01*
X181476095Y-81844297D01*
X181482127Y-81837819D01*
X182005273Y-81314673D01*
X182005277Y-81314669D01*
X182076465Y-81208127D01*
X182125501Y-81089744D01*
X182126379Y-81085330D01*
X182133308Y-81050498D01*
X182150500Y-80964071D01*
X182150500Y-75499996D01*
X186069909Y-75499996D01*
X186069909Y-75500003D01*
X186088212Y-75662455D01*
X186142210Y-75816774D01*
X186188061Y-75889745D01*
X186229192Y-75955204D01*
X186344796Y-76070808D01*
X186396243Y-76103134D01*
X186483224Y-76157789D01*
X186522042Y-76171371D01*
X186538193Y-76177023D01*
X186540526Y-76177839D01*
X186587254Y-76207200D01*
X189063181Y-78683127D01*
X189096666Y-78744450D01*
X189099500Y-78770808D01*
X189099500Y-83891325D01*
X189092542Y-83932279D01*
X189038212Y-84087544D01*
X189019909Y-84249996D01*
X189019909Y-84250003D01*
X189038212Y-84412455D01*
X189092210Y-84566774D01*
X189159899Y-84674499D01*
X189179192Y-84705204D01*
X189294796Y-84820808D01*
X189433225Y-84907789D01*
X189587539Y-84961786D01*
X189587542Y-84961786D01*
X189587544Y-84961787D01*
X189749996Y-84980091D01*
X189750000Y-84980091D01*
X189750004Y-84980091D01*
X189912455Y-84961787D01*
X189912456Y-84961786D01*
X189912461Y-84961786D01*
X190066775Y-84907789D01*
X190205204Y-84820808D01*
X190320808Y-84705204D01*
X190407789Y-84566775D01*
X190461786Y-84412461D01*
X190462026Y-84410331D01*
X190480091Y-84250003D01*
X190480091Y-84249996D01*
X190461787Y-84087544D01*
X190461786Y-84087542D01*
X190461786Y-84087539D01*
X190407789Y-83933225D01*
X190407458Y-83932279D01*
X190400500Y-83891325D01*
X190400500Y-78385928D01*
X190375502Y-78260261D01*
X190375501Y-78260260D01*
X190375501Y-78260256D01*
X190326465Y-78141873D01*
X190324734Y-78139283D01*
X190255277Y-78035331D01*
X190255275Y-78035329D01*
X190255273Y-78035326D01*
X190255272Y-78035325D01*
X187507200Y-75287254D01*
X187477839Y-75240526D01*
X187457789Y-75183225D01*
X187457789Y-75183224D01*
X187370807Y-75044795D01*
X187255204Y-74929192D01*
X187116774Y-74842210D01*
X186962455Y-74788212D01*
X186800004Y-74769909D01*
X186799996Y-74769909D01*
X186637544Y-74788212D01*
X186483225Y-74842210D01*
X186344795Y-74929192D01*
X186229192Y-75044795D01*
X186142210Y-75183225D01*
X186088212Y-75337544D01*
X186069909Y-75499996D01*
X182150500Y-75499996D01*
X182150500Y-70820808D01*
X182170185Y-70753769D01*
X182186814Y-70733130D01*
X182212746Y-70707198D01*
X182259472Y-70677839D01*
X182316775Y-70657789D01*
X182455204Y-70570808D01*
X182570808Y-70455204D01*
X182657789Y-70316775D01*
X182711786Y-70162461D01*
X182718786Y-70100335D01*
X182730091Y-70000003D01*
X182730091Y-69999996D01*
X182711787Y-69837544D01*
X182711786Y-69837542D01*
X182711786Y-69837539D01*
X182657789Y-69683225D01*
X182570808Y-69544796D01*
X182455204Y-69429192D01*
X182316774Y-69342210D01*
X182244082Y-69316774D01*
X182171968Y-69291540D01*
X182115194Y-69250820D01*
X182089446Y-69185868D01*
X182102902Y-69117306D01*
X182151289Y-69066903D01*
X182212924Y-69050500D01*
X183079192Y-69050500D01*
X183146231Y-69070185D01*
X183166873Y-69086819D01*
X193213181Y-79133127D01*
X193246666Y-79194450D01*
X193249500Y-79220808D01*
X193249500Y-101579192D01*
X193229815Y-101646231D01*
X193213181Y-101666873D01*
X189566873Y-105313181D01*
X189505550Y-105346666D01*
X189479192Y-105349500D01*
X85320808Y-105349500D01*
X85253769Y-105329815D01*
X85233127Y-105313181D01*
X84271077Y-104351131D01*
X84237592Y-104289808D01*
X84242576Y-104220116D01*
X84282594Y-104165597D01*
X84451784Y-104033913D01*
X84608979Y-103863153D01*
X84735924Y-103668849D01*
X84804165Y-103513273D01*
X84830038Y-103475407D01*
X85216861Y-103088584D01*
X85239667Y-103173694D01*
X85298910Y-103276306D01*
X85382694Y-103360090D01*
X85485306Y-103419333D01*
X85570414Y-103442138D01*
X84860201Y-104152351D01*
X84890649Y-104176050D01*
X85094697Y-104286476D01*
X85094706Y-104286479D01*
X85314139Y-104361811D01*
X85542993Y-104400000D01*
X85775007Y-104400000D01*
X86003860Y-104361811D01*
X86223293Y-104286479D01*
X86223301Y-104286476D01*
X86427355Y-104176047D01*
X86457797Y-104152351D01*
X86457798Y-104152350D01*
X85747585Y-103442137D01*
X85832694Y-103419333D01*
X85935306Y-103360090D01*
X86019090Y-103276306D01*
X86078333Y-103173694D01*
X86101138Y-103088585D01*
X86810186Y-103797634D01*
X86894484Y-103668606D01*
X86987682Y-103456135D01*
X87044638Y-103231218D01*
X87063798Y-103000005D01*
X87063798Y-102999994D01*
X87044638Y-102768781D01*
X86987682Y-102543864D01*
X86894483Y-102331390D01*
X86810186Y-102202364D01*
X86101137Y-102911413D01*
X86078333Y-102826306D01*
X86019090Y-102723694D01*
X85935306Y-102639910D01*
X85832694Y-102580667D01*
X85747584Y-102557861D01*
X86457797Y-101847647D01*
X86457797Y-101847645D01*
X86427360Y-101823955D01*
X86427354Y-101823951D01*
X86223302Y-101713523D01*
X86223293Y-101713520D01*
X86003860Y-101638188D01*
X85775007Y-101600000D01*
X85542993Y-101600000D01*
X85314139Y-101638188D01*
X85094706Y-101713520D01*
X85094697Y-101713523D01*
X84890650Y-101823949D01*
X84860200Y-101847647D01*
X85570415Y-102557861D01*
X85485306Y-102580667D01*
X85382694Y-102639910D01*
X85298910Y-102723694D01*
X85239667Y-102826306D01*
X85216861Y-102911414D01*
X84830038Y-102524591D01*
X84804163Y-102486720D01*
X84750761Y-102364977D01*
X84735924Y-102331151D01*
X84706879Y-102286694D01*
X84608983Y-102136852D01*
X84608980Y-102136849D01*
X84608979Y-102136847D01*
X84451784Y-101966087D01*
X84451779Y-101966083D01*
X84451777Y-101966081D01*
X84268634Y-101823535D01*
X84268628Y-101823531D01*
X84064504Y-101713064D01*
X84064495Y-101713061D01*
X83844984Y-101637702D01*
X83654450Y-101605908D01*
X83616049Y-101599500D01*
X83383951Y-101599500D01*
X83345550Y-101605908D01*
X83155015Y-101637702D01*
X82935504Y-101713061D01*
X82935495Y-101713064D01*
X82731371Y-101823531D01*
X82731365Y-101823535D01*
X82548222Y-101966081D01*
X82548218Y-101966084D01*
X82511730Y-102005722D01*
X82451843Y-102041713D01*
X82382004Y-102039612D01*
X82329270Y-102005722D01*
X82292781Y-101966084D01*
X82292777Y-101966081D01*
X82109634Y-101823535D01*
X82109628Y-101823531D01*
X81905504Y-101713064D01*
X81905495Y-101713061D01*
X81685984Y-101637702D01*
X81495450Y-101605908D01*
X81457049Y-101599500D01*
X81224951Y-101599500D01*
X81186550Y-101605908D01*
X80996015Y-101637702D01*
X80776504Y-101713061D01*
X80776490Y-101713067D01*
X80615174Y-101800367D01*
X80546846Y-101814962D01*
X80481474Y-101790299D01*
X80456891Y-101765624D01*
X80439546Y-101742454D01*
X80439544Y-101742453D01*
X80439544Y-101742452D01*
X80324335Y-101656206D01*
X80324328Y-101656202D01*
X80189482Y-101605908D01*
X80189483Y-101605908D01*
X80129883Y-101599501D01*
X80129881Y-101599500D01*
X80129873Y-101599500D01*
X80129864Y-101599500D01*
X78234129Y-101599500D01*
X78234123Y-101599501D01*
X78174516Y-101605908D01*
X78039671Y-101656202D01*
X78039668Y-101656204D01*
X77948811Y-101724220D01*
X77883347Y-101748637D01*
X77815074Y-101733785D01*
X77765668Y-101684380D01*
X77750500Y-101624953D01*
X77750500Y-101112229D01*
X77770185Y-101045190D01*
X77786819Y-101024548D01*
X79016910Y-99794457D01*
X80923750Y-97887616D01*
X80985071Y-97854133D01*
X81054763Y-97859117D01*
X81080319Y-97872196D01*
X81144505Y-97915084D01*
X81144507Y-97915085D01*
X81144511Y-97915087D01*
X81281082Y-97971656D01*
X81281087Y-97971658D01*
X81281091Y-97971658D01*
X81281092Y-97971659D01*
X81426079Y-98000500D01*
X81426082Y-98000500D01*
X81573920Y-98000500D01*
X81671462Y-97981096D01*
X81718913Y-97971658D01*
X81855495Y-97915084D01*
X81978416Y-97832951D01*
X82082951Y-97728416D01*
X82165084Y-97605495D01*
X82221658Y-97468913D01*
X82250500Y-97323918D01*
X82250500Y-83426082D01*
X82250500Y-83426079D01*
X82221659Y-83281092D01*
X82221658Y-83281091D01*
X82221658Y-83281087D01*
X82204442Y-83239524D01*
X82165087Y-83144511D01*
X82165080Y-83144498D01*
X82082952Y-83021585D01*
X82030813Y-82969446D01*
X81978416Y-82917049D01*
X78928232Y-79866865D01*
X75867768Y-76806400D01*
X75834283Y-76745077D01*
X75831449Y-76718719D01*
X75831449Y-76704629D01*
X75831449Y-76704628D01*
X75826471Y-76658321D01*
X75838877Y-76589564D01*
X75886488Y-76538427D01*
X75954188Y-76521148D01*
X76020482Y-76543213D01*
X76037442Y-76557388D01*
X84538181Y-85058127D01*
X84571666Y-85119450D01*
X84574500Y-85145808D01*
X84574500Y-90289070D01*
X84578494Y-90309149D01*
X84592355Y-90378828D01*
X84595634Y-90395312D01*
X84599499Y-90414744D01*
X84639418Y-90511118D01*
X84648535Y-90533127D01*
X84711272Y-90627021D01*
X84719726Y-90639673D01*
X87385328Y-93305275D01*
X87385331Y-93305277D01*
X87469404Y-93361452D01*
X87469405Y-93361453D01*
X87469404Y-93361453D01*
X87491871Y-93376464D01*
X87491872Y-93376464D01*
X87491873Y-93376465D01*
X87610256Y-93425501D01*
X87610260Y-93425501D01*
X87610261Y-93425502D01*
X87735928Y-93450500D01*
X87735931Y-93450500D01*
X88447998Y-93450500D01*
X88515037Y-93470185D01*
X88560792Y-93522989D01*
X88571218Y-93588387D01*
X88569909Y-93600001D01*
X88569909Y-93600003D01*
X88588212Y-93762457D01*
X88642541Y-93917718D01*
X88649500Y-93958673D01*
X88649500Y-95941325D01*
X88642542Y-95982279D01*
X88588212Y-96137544D01*
X88569909Y-96299996D01*
X88569909Y-96300003D01*
X88588212Y-96462455D01*
X88642210Y-96616774D01*
X88642211Y-96616775D01*
X88729192Y-96755204D01*
X88844796Y-96870808D01*
X88983225Y-96957789D01*
X89137539Y-97011786D01*
X89137542Y-97011786D01*
X89137544Y-97011787D01*
X89299996Y-97030091D01*
X89300000Y-97030091D01*
X89300004Y-97030091D01*
X89462455Y-97011787D01*
X89462456Y-97011786D01*
X89462461Y-97011786D01*
X89616775Y-96957789D01*
X89755204Y-96870808D01*
X89870808Y-96755204D01*
X89957789Y-96616775D01*
X90011786Y-96462461D01*
X90030091Y-96300000D01*
X90011786Y-96137539D01*
X89957789Y-95983225D01*
X89957458Y-95982279D01*
X89950500Y-95941325D01*
X89950500Y-93958673D01*
X89957459Y-93917718D01*
X90011787Y-93762457D01*
X90030091Y-93600003D01*
X90030091Y-93600001D01*
X90028782Y-93588387D01*
X90040835Y-93519565D01*
X90088183Y-93468184D01*
X90152002Y-93450500D01*
X93941327Y-93450500D01*
X93982282Y-93457459D01*
X94137542Y-93511787D01*
X94299996Y-93530091D01*
X94300000Y-93530091D01*
X94300004Y-93530091D01*
X94462455Y-93511787D01*
X94462456Y-93511786D01*
X94462461Y-93511786D01*
X94616775Y-93457789D01*
X94755204Y-93370808D01*
X94870808Y-93255204D01*
X94957789Y-93116775D01*
X95011786Y-92962461D01*
X95011787Y-92962455D01*
X95030091Y-92800003D01*
X95030091Y-92799996D01*
X95011787Y-92637544D01*
X95011786Y-92637542D01*
X95011786Y-92637539D01*
X94957789Y-92483225D01*
X94870808Y-92344796D01*
X94755204Y-92229192D01*
X94616774Y-92142210D01*
X94482939Y-92095379D01*
X94462461Y-92088214D01*
X94462460Y-92088213D01*
X94462455Y-92088212D01*
X94300004Y-92069909D01*
X94299996Y-92069909D01*
X94137542Y-92088212D01*
X93982282Y-92142541D01*
X93941327Y-92149500D01*
X90541634Y-92149500D01*
X90474595Y-92129815D01*
X90428840Y-92077011D01*
X90418896Y-92007853D01*
X90447921Y-91944297D01*
X90494181Y-91910939D01*
X90550770Y-91887499D01*
X90604885Y-91865084D01*
X90678379Y-91815977D01*
X90727806Y-91782952D01*
X91510763Y-90999994D01*
X95494357Y-90999994D01*
X95494357Y-91000005D01*
X95514890Y-91247812D01*
X95514892Y-91247824D01*
X95575936Y-91488881D01*
X95675826Y-91716606D01*
X95811833Y-91924782D01*
X95811836Y-91924785D01*
X95980256Y-92107738D01*
X96176491Y-92260474D01*
X96176493Y-92260475D01*
X96332302Y-92344795D01*
X96395190Y-92378828D01*
X96630386Y-92459571D01*
X96875665Y-92500500D01*
X97124335Y-92500500D01*
X97369614Y-92459571D01*
X97604810Y-92378828D01*
X97823509Y-92260474D01*
X98019744Y-92107738D01*
X98188164Y-91924785D01*
X98324173Y-91716607D01*
X98424063Y-91488881D01*
X98485108Y-91247821D01*
X98485109Y-91247812D01*
X98505643Y-91000005D01*
X98505643Y-90999994D01*
X101994357Y-90999994D01*
X101994357Y-91000005D01*
X102014890Y-91247812D01*
X102014892Y-91247824D01*
X102075936Y-91488881D01*
X102175826Y-91716606D01*
X102311833Y-91924782D01*
X102311836Y-91924785D01*
X102480256Y-92107738D01*
X102676491Y-92260474D01*
X102676493Y-92260475D01*
X102832302Y-92344795D01*
X102895190Y-92378828D01*
X103130386Y-92459571D01*
X103375665Y-92500500D01*
X103624335Y-92500500D01*
X103869614Y-92459571D01*
X104104810Y-92378828D01*
X104323509Y-92260474D01*
X104519744Y-92107738D01*
X104688164Y-91924785D01*
X104824173Y-91716607D01*
X104924063Y-91488881D01*
X104985108Y-91247821D01*
X104985109Y-91247812D01*
X105005643Y-91000005D01*
X105005643Y-90999994D01*
X104985109Y-90752187D01*
X104985108Y-90752184D01*
X104985108Y-90752179D01*
X104981976Y-90739812D01*
X104966857Y-90680107D01*
X104969481Y-90610287D01*
X104999379Y-90561987D01*
X110782952Y-84778416D01*
X110852386Y-84674499D01*
X110865084Y-84655495D01*
X110921658Y-84518913D01*
X110942833Y-84412461D01*
X110950500Y-84373920D01*
X110950500Y-82926079D01*
X110921659Y-82781092D01*
X110921658Y-82781091D01*
X110921658Y-82781087D01*
X110902535Y-82734919D01*
X110865087Y-82644511D01*
X110865080Y-82644498D01*
X110782951Y-82521584D01*
X110782948Y-82521580D01*
X110678419Y-82417051D01*
X110678415Y-82417048D01*
X110555501Y-82334919D01*
X110555488Y-82334912D01*
X110418917Y-82278343D01*
X110418907Y-82278340D01*
X110273920Y-82249500D01*
X110273918Y-82249500D01*
X110126082Y-82249500D01*
X110126080Y-82249500D01*
X109981092Y-82278340D01*
X109981082Y-82278343D01*
X109844511Y-82334912D01*
X109844498Y-82334919D01*
X109721584Y-82417048D01*
X109721580Y-82417051D01*
X109617051Y-82521580D01*
X109617048Y-82521584D01*
X109534919Y-82644498D01*
X109534912Y-82644511D01*
X109478343Y-82781082D01*
X109478340Y-82781092D01*
X109449500Y-82926079D01*
X109449500Y-83937769D01*
X109429815Y-84004808D01*
X109413181Y-84025450D01*
X103939247Y-89499383D01*
X103877924Y-89532868D01*
X103831157Y-89534011D01*
X103624335Y-89499500D01*
X103375665Y-89499500D01*
X103130383Y-89540429D01*
X102895197Y-89621169D01*
X102895188Y-89621172D01*
X102676493Y-89739524D01*
X102480257Y-89892261D01*
X102311833Y-90075217D01*
X102175826Y-90283393D01*
X102075936Y-90511118D01*
X102014892Y-90752175D01*
X102014890Y-90752187D01*
X101994357Y-90999994D01*
X98505643Y-90999994D01*
X98485109Y-90752187D01*
X98485107Y-90752175D01*
X98424063Y-90511118D01*
X98324173Y-90283393D01*
X98188166Y-90075217D01*
X98132432Y-90014674D01*
X98019744Y-89892262D01*
X97823509Y-89739526D01*
X97823507Y-89739525D01*
X97823506Y-89739524D01*
X97604811Y-89621172D01*
X97604802Y-89621169D01*
X97369616Y-89540429D01*
X97124335Y-89499500D01*
X96875665Y-89499500D01*
X96630383Y-89540429D01*
X96395197Y-89621169D01*
X96395188Y-89621172D01*
X96176493Y-89739524D01*
X95980257Y-89892261D01*
X95811833Y-90075217D01*
X95675826Y-90283393D01*
X95575936Y-90511118D01*
X95514892Y-90752175D01*
X95514890Y-90752187D01*
X95494357Y-90999994D01*
X91510763Y-90999994D01*
X93138324Y-89372432D01*
X93199645Y-89338949D01*
X93269337Y-89343933D01*
X93325270Y-89385805D01*
X93338585Y-89410789D01*
X93339188Y-89410500D01*
X93342207Y-89416769D01*
X93419908Y-89540429D01*
X93429192Y-89555204D01*
X93544796Y-89670808D01*
X93683225Y-89757789D01*
X93837539Y-89811786D01*
X93837542Y-89811786D01*
X93837544Y-89811787D01*
X93999996Y-89830091D01*
X94000000Y-89830091D01*
X94000004Y-89830091D01*
X94162455Y-89811787D01*
X94162456Y-89811786D01*
X94162461Y-89811786D01*
X94316775Y-89757789D01*
X94455204Y-89670808D01*
X94570808Y-89555204D01*
X94657789Y-89416775D01*
X94677839Y-89359472D01*
X94707198Y-89312746D01*
X95605277Y-88414669D01*
X95676465Y-88308127D01*
X95725501Y-88189744D01*
X95726639Y-88184023D01*
X95738663Y-88123575D01*
X95750500Y-88064071D01*
X95750500Y-87675940D01*
X95770185Y-87608901D01*
X95822989Y-87563146D01*
X95892147Y-87553202D01*
X95955703Y-87582227D01*
X95965725Y-87591953D01*
X95980256Y-87607738D01*
X96176491Y-87760474D01*
X96176493Y-87760475D01*
X96367361Y-87863768D01*
X96395190Y-87878828D01*
X96630386Y-87959571D01*
X96875665Y-88000500D01*
X97124335Y-88000500D01*
X97369614Y-87959571D01*
X97604810Y-87878828D01*
X97823509Y-87760474D01*
X98019744Y-87607738D01*
X98188164Y-87424785D01*
X98324173Y-87216607D01*
X98424063Y-86988881D01*
X98485108Y-86747821D01*
X98503919Y-86520808D01*
X98505643Y-86500005D01*
X98505643Y-86499994D01*
X98485109Y-86252187D01*
X98485107Y-86252175D01*
X98424063Y-86011118D01*
X98324173Y-85783393D01*
X98188166Y-85575217D01*
X98132432Y-85514674D01*
X98019744Y-85392262D01*
X97823509Y-85239526D01*
X97823508Y-85239525D01*
X97823505Y-85239523D01*
X97823503Y-85239522D01*
X97720084Y-85183555D01*
X97670493Y-85134335D01*
X97655385Y-85066119D01*
X97679555Y-85000563D01*
X97735331Y-84958482D01*
X97779101Y-84950500D01*
X102720899Y-84950500D01*
X102787938Y-84970185D01*
X102833693Y-85022989D01*
X102843637Y-85092147D01*
X102814612Y-85155703D01*
X102779916Y-85183555D01*
X102676496Y-85239522D01*
X102676494Y-85239523D01*
X102480257Y-85392261D01*
X102311833Y-85575217D01*
X102175826Y-85783393D01*
X102075936Y-86011118D01*
X102014892Y-86252175D01*
X102014890Y-86252187D01*
X101994357Y-86499994D01*
X101994357Y-86500005D01*
X102014890Y-86747812D01*
X102014892Y-86747824D01*
X102075936Y-86988881D01*
X102175826Y-87216606D01*
X102311833Y-87424782D01*
X102311836Y-87424785D01*
X102480256Y-87607738D01*
X102676491Y-87760474D01*
X102676493Y-87760475D01*
X102867361Y-87863768D01*
X102895190Y-87878828D01*
X103130386Y-87959571D01*
X103375665Y-88000500D01*
X103624335Y-88000500D01*
X103869614Y-87959571D01*
X104104810Y-87878828D01*
X104323509Y-87760474D01*
X104519744Y-87607738D01*
X104688164Y-87424785D01*
X104824173Y-87216607D01*
X104924063Y-86988881D01*
X104985108Y-86747821D01*
X105003919Y-86520808D01*
X105005643Y-86500005D01*
X105005643Y-86499994D01*
X104985109Y-86252187D01*
X104985107Y-86252175D01*
X104924063Y-86011118D01*
X104824173Y-85783393D01*
X104688166Y-85575217D01*
X104632432Y-85514674D01*
X104519744Y-85392262D01*
X104323509Y-85239526D01*
X104323507Y-85239525D01*
X104323506Y-85239524D01*
X104104811Y-85121172D01*
X104104802Y-85121169D01*
X103969746Y-85074804D01*
X103912731Y-85034419D01*
X103886600Y-84969619D01*
X103899651Y-84900979D01*
X103941117Y-84854421D01*
X104014669Y-84805277D01*
X105605276Y-83214670D01*
X105605277Y-83214669D01*
X124205276Y-64614670D01*
X124266400Y-64523191D01*
X124276464Y-64508129D01*
X124298386Y-64455204D01*
X124325501Y-64389744D01*
X124333506Y-64349500D01*
X124344519Y-64294135D01*
X124350500Y-64264070D01*
X124350500Y-59523247D01*
X124369507Y-59457274D01*
X124384655Y-59433166D01*
X124457789Y-59316775D01*
X124508459Y-59171968D01*
X124549180Y-59115194D01*
X124614132Y-59089446D01*
X124682694Y-59102902D01*
X124733097Y-59151289D01*
X124749500Y-59212924D01*
X124749500Y-68773918D01*
X124749500Y-68773920D01*
X124749499Y-68773920D01*
X124778340Y-68918907D01*
X124778342Y-68918913D01*
X124827700Y-69038075D01*
X124837248Y-69061124D01*
X124836383Y-69061481D01*
X124849500Y-69113839D01*
X124849500Y-74573918D01*
X124849500Y-74573920D01*
X124849499Y-74573920D01*
X124878340Y-74718907D01*
X124878343Y-74718917D01*
X124934913Y-74855489D01*
X124934914Y-74855491D01*
X124934916Y-74855495D01*
X124947613Y-74874498D01*
X124947614Y-74874501D01*
X125017046Y-74978414D01*
X125017052Y-74978421D01*
X134913181Y-84874549D01*
X134946666Y-84935872D01*
X134949500Y-84962230D01*
X134949500Y-86873918D01*
X134949500Y-86873920D01*
X134949499Y-86873920D01*
X134978340Y-87018907D01*
X134978343Y-87018917D01*
X135034912Y-87155488D01*
X135034919Y-87155501D01*
X135117048Y-87278415D01*
X135117051Y-87278419D01*
X135221580Y-87382948D01*
X135221584Y-87382951D01*
X135344498Y-87465080D01*
X135344511Y-87465087D01*
X135481082Y-87521656D01*
X135481087Y-87521658D01*
X135481091Y-87521658D01*
X135481092Y-87521659D01*
X135626079Y-87550500D01*
X135626082Y-87550500D01*
X135773920Y-87550500D01*
X135871462Y-87531096D01*
X135918913Y-87521658D01*
X136034163Y-87473920D01*
X136055488Y-87465087D01*
X136055488Y-87465086D01*
X136055495Y-87465084D01*
X136178416Y-87382951D01*
X136282951Y-87278416D01*
X136365084Y-87155495D01*
X136421658Y-87018913D01*
X136439234Y-86930554D01*
X136450500Y-86873920D01*
X136450500Y-84526079D01*
X136421659Y-84381092D01*
X136421658Y-84381091D01*
X136421658Y-84381087D01*
X136417028Y-84369909D01*
X136365087Y-84244511D01*
X136365083Y-84244504D01*
X136331057Y-84193580D01*
X136282952Y-84121584D01*
X126386819Y-74225451D01*
X126353334Y-74164128D01*
X126350500Y-74137770D01*
X126350500Y-68726079D01*
X126321659Y-68581092D01*
X126321658Y-68581091D01*
X126321658Y-68581087D01*
X126265084Y-68444505D01*
X126265083Y-68444504D01*
X126262753Y-68438878D01*
X126263614Y-68438520D01*
X126250500Y-68386160D01*
X126250500Y-51674996D01*
X130694909Y-51674996D01*
X130694909Y-51675003D01*
X130713212Y-51837457D01*
X130767210Y-51991774D01*
X130767213Y-51991779D01*
X130830493Y-52092487D01*
X130849500Y-52158460D01*
X130849500Y-56541325D01*
X130842542Y-56582279D01*
X130788212Y-56737544D01*
X130769909Y-56899996D01*
X130769909Y-56900003D01*
X130788212Y-57062457D01*
X130842541Y-57217718D01*
X130849500Y-57258673D01*
X130849500Y-61941325D01*
X130842542Y-61982279D01*
X130788212Y-62137544D01*
X130769909Y-62299996D01*
X130769909Y-62300003D01*
X130788212Y-62462457D01*
X130842541Y-62617718D01*
X130849500Y-62658673D01*
X130849500Y-67514073D01*
X130873447Y-67634459D01*
X130874498Y-67639740D01*
X130874500Y-67639748D01*
X130907050Y-67718330D01*
X130912471Y-67735335D01*
X130913213Y-67737455D01*
X130913214Y-67737461D01*
X130944578Y-67827095D01*
X130967210Y-67891774D01*
X131054192Y-68030204D01*
X131169796Y-68145808D01*
X131308225Y-68232789D01*
X131462539Y-68286786D01*
X131462542Y-68286786D01*
X131462544Y-68286787D01*
X131624996Y-68305091D01*
X131625000Y-68305091D01*
X131625004Y-68305091D01*
X131787455Y-68286787D01*
X131787456Y-68286786D01*
X131787461Y-68286786D01*
X131941775Y-68232789D01*
X132080204Y-68145808D01*
X132195808Y-68030204D01*
X132282789Y-67891775D01*
X132336786Y-67737461D01*
X132352274Y-67600001D01*
X132355091Y-67575003D01*
X132355091Y-67574996D01*
X132336787Y-67412544D01*
X132336786Y-67412542D01*
X132336786Y-67412539D01*
X132282789Y-67258225D01*
X132195808Y-67119796D01*
X132186819Y-67110807D01*
X132153334Y-67049484D01*
X132150500Y-67023126D01*
X132150500Y-62658673D01*
X132157459Y-62617718D01*
X132157789Y-62616775D01*
X132211786Y-62462461D01*
X132211786Y-62462459D01*
X132211787Y-62462457D01*
X132230091Y-62300003D01*
X132230091Y-62299996D01*
X132211787Y-62137544D01*
X132211786Y-62137542D01*
X132211786Y-62137539D01*
X132157789Y-61983225D01*
X132157458Y-61982279D01*
X132150500Y-61941325D01*
X132150500Y-57258673D01*
X132157459Y-57217718D01*
X132160781Y-57208225D01*
X132211786Y-57062461D01*
X132211786Y-57062459D01*
X132211787Y-57062457D01*
X132230091Y-56900003D01*
X132230091Y-56899996D01*
X132211787Y-56737544D01*
X132211786Y-56737542D01*
X132211786Y-56737539D01*
X132157789Y-56583225D01*
X132157458Y-56582279D01*
X132150500Y-56541325D01*
X132150500Y-51722707D01*
X132151280Y-51708822D01*
X132155091Y-51675001D01*
X132155091Y-51674996D01*
X132136787Y-51512544D01*
X132136786Y-51512542D01*
X132136786Y-51512539D01*
X132082789Y-51358225D01*
X132082458Y-51357279D01*
X132075500Y-51316325D01*
X132075500Y-46683460D01*
X132094507Y-46617487D01*
X132122546Y-46572863D01*
X132157789Y-46516775D01*
X132211786Y-46362461D01*
X132211786Y-46362459D01*
X132211787Y-46362457D01*
X132230091Y-46200003D01*
X132230091Y-46199996D01*
X132211787Y-46037544D01*
X132211786Y-46037542D01*
X132211786Y-46037539D01*
X132157789Y-45883225D01*
X132157458Y-45882279D01*
X132150500Y-45841325D01*
X132150500Y-41558673D01*
X132157459Y-41517718D01*
X132169545Y-41483177D01*
X132211786Y-41362461D01*
X132211786Y-41362459D01*
X132211787Y-41362457D01*
X132230091Y-41200003D01*
X132230091Y-41199996D01*
X132211787Y-41037544D01*
X132211786Y-41037542D01*
X132211786Y-41037539D01*
X132157789Y-40883225D01*
X132070808Y-40744796D01*
X131955204Y-40629192D01*
X131816774Y-40542210D01*
X131662455Y-40488212D01*
X131500004Y-40469909D01*
X131499996Y-40469909D01*
X131337544Y-40488212D01*
X131183225Y-40542210D01*
X131044795Y-40629192D01*
X130929192Y-40744795D01*
X130842210Y-40883225D01*
X130788212Y-41037544D01*
X130769909Y-41199996D01*
X130769909Y-41200003D01*
X130788212Y-41362457D01*
X130842541Y-41517718D01*
X130849500Y-41558673D01*
X130849500Y-45841325D01*
X130842542Y-45882279D01*
X130788212Y-46037544D01*
X130769909Y-46199996D01*
X130769909Y-46200001D01*
X130773720Y-46233822D01*
X130774500Y-46247707D01*
X130774500Y-51316325D01*
X130767542Y-51357279D01*
X130713212Y-51512544D01*
X130694909Y-51674996D01*
X126250500Y-51674996D01*
X126250500Y-45969807D01*
X126270185Y-45902768D01*
X126322989Y-45857013D01*
X126392147Y-45847069D01*
X126455703Y-45876094D01*
X126462181Y-45882126D01*
X127792798Y-47212743D01*
X127822158Y-47259468D01*
X127842211Y-47316776D01*
X127842212Y-47316777D01*
X127929192Y-47455204D01*
X128044796Y-47570808D01*
X128183225Y-47657789D01*
X128337539Y-47711786D01*
X128337542Y-47711786D01*
X128337544Y-47711787D01*
X128499996Y-47730091D01*
X128500000Y-47730091D01*
X128500004Y-47730091D01*
X128662455Y-47711787D01*
X128662456Y-47711786D01*
X128662461Y-47711786D01*
X128816775Y-47657789D01*
X128955204Y-47570808D01*
X129070808Y-47455204D01*
X129157789Y-47316775D01*
X129211786Y-47162461D01*
X129211787Y-47162455D01*
X129230091Y-47000003D01*
X129230091Y-46999996D01*
X129211787Y-46837544D01*
X129211786Y-46837542D01*
X129211786Y-46837539D01*
X129157789Y-46683225D01*
X129070808Y-46544796D01*
X128955204Y-46429192D01*
X128889568Y-46387950D01*
X128816777Y-46342212D01*
X128816776Y-46342211D01*
X128759468Y-46322158D01*
X128712743Y-46292798D01*
X127186819Y-44766873D01*
X127153334Y-44705550D01*
X127150500Y-44679192D01*
X127150500Y-42135928D01*
X127125502Y-42010261D01*
X127125501Y-42010260D01*
X127125501Y-42010256D01*
X127076465Y-41891873D01*
X127053691Y-41857789D01*
X127053691Y-41857788D01*
X127005274Y-41785327D01*
X126214673Y-40994726D01*
X126127954Y-40936783D01*
X126108127Y-40923535D01*
X125989744Y-40874499D01*
X125989738Y-40874497D01*
X125864071Y-40849500D01*
X125864069Y-40849500D01*
X79069808Y-40849500D01*
X79002769Y-40829815D01*
X78957014Y-40777011D01*
X78947070Y-40707853D01*
X78976095Y-40644297D01*
X78982127Y-40637819D01*
X81433127Y-38186819D01*
X81494450Y-38153334D01*
X81520808Y-38150500D01*
X125841327Y-38150500D01*
X125882282Y-38157459D01*
X126037542Y-38211787D01*
X126199996Y-38230091D01*
X126200000Y-38230091D01*
X126200004Y-38230091D01*
X126362455Y-38211787D01*
X126362456Y-38211786D01*
X126362461Y-38211786D01*
X126516775Y-38157789D01*
X126655204Y-38070808D01*
X126770808Y-37955204D01*
X126857789Y-37816775D01*
X126911786Y-37662461D01*
X126930091Y-37500000D01*
X126922451Y-37432195D01*
X126911787Y-37337544D01*
X126911786Y-37337542D01*
X126911786Y-37337539D01*
X126857789Y-37183225D01*
X126770808Y-37044796D01*
X126655204Y-36929192D01*
X126608752Y-36900004D01*
X126516774Y-36842210D01*
X126362455Y-36788212D01*
X126200004Y-36769909D01*
X126199996Y-36769909D01*
X126037542Y-36788212D01*
X125882282Y-36842541D01*
X125841327Y-36849500D01*
X81135929Y-36849500D01*
X81010261Y-36874497D01*
X81010255Y-36874499D01*
X80891874Y-36923534D01*
X80785326Y-36994726D01*
X64994724Y-52785328D01*
X64933102Y-52877554D01*
X64923535Y-52891872D01*
X64874499Y-53010255D01*
X64874497Y-53010261D01*
X64849500Y-53135928D01*
X64849500Y-53135931D01*
X64849500Y-82303119D01*
X64849500Y-82303121D01*
X64849499Y-82303121D01*
X64871688Y-82414666D01*
X64874498Y-82428790D01*
X64874500Y-82428797D01*
X64923533Y-82547175D01*
X64967637Y-82613181D01*
X64990010Y-82646666D01*
X64994726Y-82653723D01*
X64994727Y-82653724D01*
X68108374Y-85767370D01*
X68141859Y-85828693D01*
X68144164Y-85866492D01*
X68125307Y-86069998D01*
X68125307Y-86070000D01*
X68145834Y-86291535D01*
X68145835Y-86291537D01*
X68206719Y-86505523D01*
X68206725Y-86505538D01*
X68305888Y-86704683D01*
X68305893Y-86704691D01*
X68439968Y-86882235D01*
X68545415Y-86978363D01*
X68581696Y-87038075D01*
X68579935Y-87107922D01*
X68545415Y-87161637D01*
X68439968Y-87257764D01*
X68305893Y-87435308D01*
X68305888Y-87435316D01*
X68206725Y-87634461D01*
X68206719Y-87634476D01*
X68145835Y-87848462D01*
X68145834Y-87848464D01*
X68125307Y-88069999D01*
X68125307Y-88070000D01*
X68145834Y-88291535D01*
X68145835Y-88291537D01*
X68206719Y-88505523D01*
X68206725Y-88505538D01*
X68305888Y-88704683D01*
X68305893Y-88704691D01*
X68439968Y-88882235D01*
X68545415Y-88978363D01*
X68581696Y-89038075D01*
X68579935Y-89107922D01*
X68545415Y-89161637D01*
X68439968Y-89257764D01*
X68305893Y-89435308D01*
X68305888Y-89435316D01*
X68206725Y-89634461D01*
X68206719Y-89634476D01*
X68145835Y-89848462D01*
X68145834Y-89848464D01*
X68125307Y-90069999D01*
X68125307Y-90070000D01*
X68145834Y-90291535D01*
X68145835Y-90291537D01*
X68206719Y-90505523D01*
X68206725Y-90505538D01*
X68305888Y-90704683D01*
X68305893Y-90704691D01*
X68439968Y-90882235D01*
X68545415Y-90978363D01*
X68581696Y-91038075D01*
X68579935Y-91107922D01*
X68545415Y-91161637D01*
X68439968Y-91257764D01*
X68305893Y-91435308D01*
X68305888Y-91435316D01*
X68206725Y-91634461D01*
X68206719Y-91634476D01*
X68145835Y-91848462D01*
X68145834Y-91848464D01*
X68125307Y-92069999D01*
X68125307Y-92070000D01*
X68145834Y-92291535D01*
X68145835Y-92291537D01*
X68206719Y-92505523D01*
X68206725Y-92505538D01*
X68305888Y-92704683D01*
X68305893Y-92704691D01*
X68439970Y-92882238D01*
X68527971Y-92962461D01*
X68600240Y-93028343D01*
X68604387Y-93032123D01*
X68604389Y-93032125D01*
X68793545Y-93149245D01*
X68793546Y-93149245D01*
X68793549Y-93149247D01*
X69001010Y-93229618D01*
X69219707Y-93270500D01*
X69219709Y-93270500D01*
X69442191Y-93270500D01*
X69442193Y-93270500D01*
X69660890Y-93229618D01*
X69868351Y-93149247D01*
X70057512Y-93032124D01*
X70221931Y-92882236D01*
X70356008Y-92704689D01*
X70455179Y-92505528D01*
X70516065Y-92291536D01*
X70536593Y-92070000D01*
X70516065Y-91848464D01*
X70494105Y-91771282D01*
X70494691Y-91701418D01*
X70532958Y-91642959D01*
X70596755Y-91614468D01*
X70665827Y-91624992D01*
X70712637Y-91663039D01*
X70773759Y-91744687D01*
X70773762Y-91744690D01*
X70888856Y-91830850D01*
X70888863Y-91830854D01*
X71023570Y-91881096D01*
X71023577Y-91881098D01*
X71083105Y-91887499D01*
X71083122Y-91887500D01*
X72980950Y-91887500D01*
X73480950Y-91887500D01*
X75378778Y-91887500D01*
X75378794Y-91887499D01*
X75438322Y-91881098D01*
X75438329Y-91881096D01*
X75573036Y-91830854D01*
X75573043Y-91830850D01*
X75688137Y-91744690D01*
X75688140Y-91744687D01*
X75774300Y-91629593D01*
X75774304Y-91629586D01*
X75824546Y-91494879D01*
X75824548Y-91494872D01*
X75830949Y-91435344D01*
X75830950Y-91435327D01*
X75830950Y-91320000D01*
X73480950Y-91320000D01*
X73480950Y-91887500D01*
X72980950Y-91887500D01*
X72980950Y-91320000D01*
X70630950Y-91320000D01*
X70630950Y-91435335D01*
X70632745Y-91452032D01*
X70620337Y-91520792D01*
X70572726Y-91571927D01*
X70505026Y-91589205D01*
X70438732Y-91567138D01*
X70398455Y-91520555D01*
X70356013Y-91435320D01*
X70356006Y-91435308D01*
X70234131Y-91273920D01*
X70221931Y-91257764D01*
X70116481Y-91161633D01*
X70080203Y-91101927D01*
X70081963Y-91032079D01*
X70116481Y-90978366D01*
X70221931Y-90882236D01*
X70356008Y-90704689D01*
X70398456Y-90619441D01*
X70445957Y-90568207D01*
X70513620Y-90550785D01*
X70579960Y-90572710D01*
X70623916Y-90627021D01*
X70632745Y-90687966D01*
X70630950Y-90704661D01*
X70630950Y-90820000D01*
X72980950Y-90820000D01*
X73480950Y-90820000D01*
X75830950Y-90820000D01*
X75830950Y-90704672D01*
X75830949Y-90704655D01*
X75824548Y-90645127D01*
X75824546Y-90645120D01*
X75774304Y-90510413D01*
X75774300Y-90510406D01*
X75688140Y-90395312D01*
X75688137Y-90395309D01*
X75573043Y-90309149D01*
X75573036Y-90309145D01*
X75438329Y-90258903D01*
X75438322Y-90258901D01*
X75378794Y-90252500D01*
X73480950Y-90252500D01*
X73480950Y-90820000D01*
X72980950Y-90820000D01*
X72980950Y-90252500D01*
X71083105Y-90252500D01*
X71023577Y-90258901D01*
X71023570Y-90258903D01*
X70888863Y-90309145D01*
X70888856Y-90309149D01*
X70773762Y-90395309D01*
X70712637Y-90476961D01*
X70656703Y-90518831D01*
X70587011Y-90523815D01*
X70525688Y-90490329D01*
X70492204Y-90429005D01*
X70494104Y-90368717D01*
X70516065Y-90291536D01*
X70536593Y-90070000D01*
X70517735Y-89866489D01*
X70531150Y-89797922D01*
X70553522Y-89767372D01*
X70587641Y-89733253D01*
X70648962Y-89699770D01*
X70718654Y-89704754D01*
X70765834Y-89740073D01*
X70767133Y-89738775D01*
X70773405Y-89745047D01*
X70888614Y-89831293D01*
X70888621Y-89831297D01*
X71023467Y-89881591D01*
X71023466Y-89881591D01*
X71030394Y-89882335D01*
X71083077Y-89888000D01*
X75378822Y-89887999D01*
X75438433Y-89881591D01*
X75504850Y-89856819D01*
X75581266Y-89828318D01*
X75624599Y-89820500D01*
X75957770Y-89820500D01*
X76024809Y-89840185D01*
X76045451Y-89856819D01*
X76771580Y-90582948D01*
X76771583Y-90582950D01*
X76771585Y-90582952D01*
X76826200Y-90619444D01*
X76894507Y-90665085D01*
X76930774Y-90680107D01*
X77031088Y-90721659D01*
X77153656Y-90746039D01*
X77176078Y-90750499D01*
X77176082Y-90750500D01*
X77176083Y-90750500D01*
X77323918Y-90750500D01*
X77377649Y-90739812D01*
X77447239Y-90746039D01*
X77502417Y-90788901D01*
X77525662Y-90854791D01*
X77509595Y-90922788D01*
X77489521Y-90949110D01*
X75475451Y-92963181D01*
X75414128Y-92996666D01*
X75387770Y-92999500D01*
X70901080Y-92999500D01*
X70756092Y-93028340D01*
X70756082Y-93028343D01*
X70619511Y-93084912D01*
X70619498Y-93084919D01*
X70496584Y-93167048D01*
X70496580Y-93167051D01*
X63667048Y-99996583D01*
X63649311Y-100023129D01*
X63631692Y-100049500D01*
X63631691Y-100049501D01*
X63584914Y-100119507D01*
X63528343Y-100256082D01*
X63528340Y-100256092D01*
X63499499Y-100401079D01*
X63498903Y-100407142D01*
X63497587Y-100407012D01*
X63479815Y-100467539D01*
X63427011Y-100513294D01*
X63375505Y-100524500D01*
X63352132Y-100524500D01*
X63352123Y-100524501D01*
X63292516Y-100530908D01*
X63157671Y-100581202D01*
X63157664Y-100581206D01*
X63042455Y-100667452D01*
X63042452Y-100667455D01*
X62956206Y-100782664D01*
X62956202Y-100782671D01*
X62905908Y-100917517D01*
X62899501Y-100977116D01*
X62899500Y-100977135D01*
X59484530Y-100977135D01*
X59431252Y-100917517D01*
X59266661Y-100733339D01*
X58998623Y-100493806D01*
X58982848Y-100482613D01*
X58705454Y-100285790D01*
X58390831Y-100111905D01*
X58240175Y-100049501D01*
X58058724Y-99974341D01*
X58058720Y-99974339D01*
X58058718Y-99974339D01*
X57713305Y-99874828D01*
X57713296Y-99874826D01*
X57358914Y-99814614D01*
X57358902Y-99814612D01*
X57000000Y-99794457D01*
X56641097Y-99814612D01*
X56641085Y-99814614D01*
X56286703Y-99874826D01*
X56286694Y-99874828D01*
X55941281Y-99974339D01*
X55609168Y-100111905D01*
X55294545Y-100285790D01*
X55001377Y-100493805D01*
X54733339Y-100733339D01*
X54493805Y-101001377D01*
X54285790Y-101294545D01*
X54111905Y-101609168D01*
X53974339Y-101941281D01*
X53874828Y-102286694D01*
X53874826Y-102286703D01*
X53814614Y-102641085D01*
X53814612Y-102641097D01*
X53794457Y-103000000D01*
X50200500Y-103000000D01*
X50200500Y-90094135D01*
X55772450Y-90094135D01*
X55772450Y-95705870D01*
X55772451Y-95705876D01*
X55778858Y-95765483D01*
X55829152Y-95900328D01*
X55829156Y-95900335D01*
X55915402Y-96015544D01*
X55915405Y-96015547D01*
X56030614Y-96101793D01*
X56030621Y-96101797D01*
X56165467Y-96152091D01*
X56165466Y-96152091D01*
X56172394Y-96152835D01*
X56225077Y-96158500D01*
X61836822Y-96158499D01*
X61896433Y-96152091D01*
X62031281Y-96101796D01*
X62146496Y-96015546D01*
X62232746Y-95900331D01*
X62283041Y-95765483D01*
X62289450Y-95705873D01*
X62289449Y-90094128D01*
X62283041Y-90034517D01*
X62275638Y-90014669D01*
X62232747Y-89899671D01*
X62232743Y-89899664D01*
X62146497Y-89784455D01*
X62146494Y-89784452D01*
X62031285Y-89698206D01*
X62031278Y-89698202D01*
X61896432Y-89647908D01*
X61896433Y-89647908D01*
X61836833Y-89641501D01*
X61836831Y-89641500D01*
X61836823Y-89641500D01*
X61836814Y-89641500D01*
X56225079Y-89641500D01*
X56225073Y-89641501D01*
X56165466Y-89647908D01*
X56030621Y-89698202D01*
X56030614Y-89698206D01*
X55915405Y-89784452D01*
X55915402Y-89784455D01*
X55829156Y-89899664D01*
X55829152Y-89899671D01*
X55778858Y-90034517D01*
X55775044Y-90069999D01*
X55772451Y-90094123D01*
X55772450Y-90094135D01*
X50200500Y-90094135D01*
X50200500Y-64294135D01*
X55772450Y-64294135D01*
X55772450Y-69905870D01*
X55772451Y-69905876D01*
X55778858Y-69965483D01*
X55829152Y-70100328D01*
X55829156Y-70100335D01*
X55915402Y-70215544D01*
X55915405Y-70215547D01*
X56030614Y-70301793D01*
X56030621Y-70301797D01*
X56165467Y-70352091D01*
X56165466Y-70352091D01*
X56172394Y-70352835D01*
X56225077Y-70358500D01*
X61836822Y-70358499D01*
X61896433Y-70352091D01*
X62031281Y-70301796D01*
X62146496Y-70215546D01*
X62232746Y-70100331D01*
X62283041Y-69965483D01*
X62289450Y-69905873D01*
X62289449Y-64294128D01*
X62283041Y-64234517D01*
X62274920Y-64212744D01*
X62232747Y-64099671D01*
X62232743Y-64099664D01*
X62146497Y-63984455D01*
X62146494Y-63984452D01*
X62031285Y-63898206D01*
X62031278Y-63898202D01*
X61896432Y-63847908D01*
X61896433Y-63847908D01*
X61836833Y-63841501D01*
X61836831Y-63841500D01*
X61836823Y-63841500D01*
X61836814Y-63841500D01*
X56225079Y-63841500D01*
X56225073Y-63841501D01*
X56165466Y-63847908D01*
X56030621Y-63898202D01*
X56030614Y-63898206D01*
X55915405Y-63984452D01*
X55915402Y-63984455D01*
X55829156Y-64099664D01*
X55829152Y-64099671D01*
X55778858Y-64234517D01*
X55772451Y-64294116D01*
X55772451Y-64294123D01*
X55772450Y-64294135D01*
X50200500Y-64294135D01*
X50200500Y-49899999D01*
X53994696Y-49899999D01*
X53994696Y-49900000D01*
X54013898Y-50266404D01*
X54071295Y-50628794D01*
X54149747Y-50921581D01*
X54166260Y-50983206D01*
X54297746Y-51325739D01*
X54464320Y-51652656D01*
X54664147Y-51960364D01*
X54827802Y-52162461D01*
X54895051Y-52245506D01*
X55154494Y-52504949D01*
X55287549Y-52612695D01*
X55439635Y-52735852D01*
X55683950Y-52894511D01*
X55747348Y-52935682D01*
X56074264Y-53102255D01*
X56416801Y-53233742D01*
X56771206Y-53328705D01*
X56924769Y-53353027D01*
X56987904Y-53382956D01*
X57024835Y-53442268D01*
X57023837Y-53512130D01*
X56985227Y-53570363D01*
X56921264Y-53598477D01*
X56905371Y-53599500D01*
X55928549Y-53599500D01*
X55714566Y-53614804D01*
X55434962Y-53675628D01*
X55166833Y-53775635D01*
X54915690Y-53912770D01*
X54915682Y-53912775D01*
X54686612Y-54084254D01*
X54686594Y-54084270D01*
X54484270Y-54286594D01*
X54484254Y-54286612D01*
X54312775Y-54515682D01*
X54312770Y-54515690D01*
X54175635Y-54766833D01*
X54075628Y-55034962D01*
X54014804Y-55314566D01*
X53999500Y-55528549D01*
X53999500Y-58671450D01*
X54014804Y-58885433D01*
X54075628Y-59165037D01*
X54175635Y-59433166D01*
X54312770Y-59684309D01*
X54312775Y-59684317D01*
X54484254Y-59913387D01*
X54484270Y-59913405D01*
X54686594Y-60115729D01*
X54686612Y-60115745D01*
X54915682Y-60287224D01*
X54915690Y-60287229D01*
X55166833Y-60424364D01*
X55166832Y-60424364D01*
X55166836Y-60424365D01*
X55166839Y-60424367D01*
X55434954Y-60524369D01*
X55434960Y-60524370D01*
X55434962Y-60524371D01*
X55714566Y-60585195D01*
X55714568Y-60585195D01*
X55714572Y-60585196D01*
X55928552Y-60600500D01*
X59071448Y-60600500D01*
X59285428Y-60585196D01*
X59565046Y-60524369D01*
X59833161Y-60424367D01*
X60084315Y-60287226D01*
X60313395Y-60115739D01*
X60515739Y-59913395D01*
X60687226Y-59684315D01*
X60824367Y-59433161D01*
X60924369Y-59165046D01*
X60960272Y-59000003D01*
X60985195Y-58885433D01*
X60985195Y-58885432D01*
X60985196Y-58885428D01*
X61000500Y-58671448D01*
X61000500Y-55528552D01*
X60985196Y-55314572D01*
X60984390Y-55310868D01*
X60924371Y-55034962D01*
X60924370Y-55034960D01*
X60924369Y-55034954D01*
X60824367Y-54766839D01*
X60785400Y-54695477D01*
X60687229Y-54515690D01*
X60687224Y-54515682D01*
X60515745Y-54286612D01*
X60515729Y-54286594D01*
X60313405Y-54084270D01*
X60313387Y-54084254D01*
X60084317Y-53912775D01*
X60084309Y-53912770D01*
X59833166Y-53775635D01*
X59833167Y-53775635D01*
X59706565Y-53728415D01*
X59565046Y-53675631D01*
X59565043Y-53675630D01*
X59565037Y-53675628D01*
X59285433Y-53614804D01*
X59071450Y-53599500D01*
X59071448Y-53599500D01*
X58094629Y-53599500D01*
X58027590Y-53579815D01*
X57981835Y-53527011D01*
X57971891Y-53457853D01*
X58000916Y-53394297D01*
X58059694Y-53356523D01*
X58075231Y-53353027D01*
X58228794Y-53328705D01*
X58583199Y-53233742D01*
X58925736Y-53102255D01*
X59252652Y-52935682D01*
X59560366Y-52735851D01*
X59845506Y-52504949D01*
X60104949Y-52245506D01*
X60335851Y-51960366D01*
X60535682Y-51652652D01*
X60702255Y-51325736D01*
X60833742Y-50983199D01*
X60928705Y-50628794D01*
X60986102Y-50266404D01*
X61005304Y-49900000D01*
X60986102Y-49533596D01*
X60928705Y-49171206D01*
X60833742Y-48816801D01*
X60702255Y-48474264D01*
X60535682Y-48147348D01*
X60432059Y-47987782D01*
X60335852Y-47839635D01*
X60175676Y-47641835D01*
X60104949Y-47554494D01*
X59845506Y-47295051D01*
X59711851Y-47186819D01*
X59560364Y-47064147D01*
X59252656Y-46864320D01*
X58925739Y-46697746D01*
X58583206Y-46566260D01*
X58583199Y-46566258D01*
X58228794Y-46471295D01*
X58228790Y-46471294D01*
X58228789Y-46471294D01*
X57866405Y-46413898D01*
X57500001Y-46394696D01*
X57499999Y-46394696D01*
X57133594Y-46413898D01*
X56771211Y-46471294D01*
X56771209Y-46471294D01*
X56416793Y-46566260D01*
X56074260Y-46697746D01*
X55747343Y-46864320D01*
X55439635Y-47064147D01*
X55154498Y-47295047D01*
X55154490Y-47295054D01*
X54895054Y-47554490D01*
X54895047Y-47554498D01*
X54664147Y-47839635D01*
X54464320Y-48147343D01*
X54297746Y-48474260D01*
X54166260Y-48816793D01*
X54071294Y-49171209D01*
X54071294Y-49171211D01*
X54013898Y-49533594D01*
X53994696Y-49899999D01*
X50200500Y-49899999D01*
X50200500Y-42499995D01*
X53194451Y-42499995D01*
X53194451Y-42500004D01*
X53214616Y-42769101D01*
X53274664Y-43032188D01*
X53274666Y-43032195D01*
X53320901Y-43150000D01*
X53373257Y-43283398D01*
X53508185Y-43517102D01*
X53574693Y-43600500D01*
X53676442Y-43728089D01*
X53863183Y-43901358D01*
X53874259Y-43911635D01*
X54097226Y-44063651D01*
X54340359Y-44180738D01*
X54598228Y-44260280D01*
X54598229Y-44260280D01*
X54598232Y-44260281D01*
X54865063Y-44300499D01*
X54865068Y-44300499D01*
X54865071Y-44300500D01*
X54865072Y-44300500D01*
X55134928Y-44300500D01*
X55134929Y-44300500D01*
X55134936Y-44300499D01*
X55401767Y-44260281D01*
X55401768Y-44260280D01*
X55401772Y-44260280D01*
X55659641Y-44180738D01*
X55902775Y-44063651D01*
X56125741Y-43911635D01*
X56323561Y-43728085D01*
X56491815Y-43517102D01*
X56626743Y-43283398D01*
X56725334Y-43032195D01*
X56785383Y-42769103D01*
X56799299Y-42583398D01*
X56805549Y-42500004D01*
X56805549Y-42499995D01*
X57844953Y-42499995D01*
X57844953Y-42500004D01*
X57865113Y-42769026D01*
X57865113Y-42769028D01*
X57925142Y-43032033D01*
X57925148Y-43032052D01*
X58023709Y-43283181D01*
X58023708Y-43283181D01*
X58158600Y-43516818D01*
X58212294Y-43584150D01*
X58212295Y-43584150D01*
X59048958Y-42747487D01*
X59073978Y-42807890D01*
X59145112Y-42914351D01*
X59235649Y-43004888D01*
X59342110Y-43076022D01*
X59402511Y-43101041D01*
X58564848Y-43938703D01*
X58747476Y-44063216D01*
X58747485Y-44063221D01*
X58990539Y-44180269D01*
X58990537Y-44180269D01*
X59248337Y-44259790D01*
X59248343Y-44259792D01*
X59515101Y-44299999D01*
X59515110Y-44300000D01*
X59784890Y-44300000D01*
X59784898Y-44299999D01*
X60051656Y-44259792D01*
X60051662Y-44259790D01*
X60309461Y-44180269D01*
X60552516Y-44063221D01*
X60552517Y-44063220D01*
X60735150Y-43938703D01*
X59897487Y-43101041D01*
X59957890Y-43076022D01*
X60064351Y-43004888D01*
X60154888Y-42914351D01*
X60226022Y-42807890D01*
X60251041Y-42747487D01*
X61087703Y-43584150D01*
X61087704Y-43584149D01*
X61141400Y-43516818D01*
X61276290Y-43283181D01*
X61374851Y-43032052D01*
X61374857Y-43032033D01*
X61434886Y-42769028D01*
X61434886Y-42769026D01*
X61455047Y-42500004D01*
X61455047Y-42499995D01*
X61434886Y-42230973D01*
X61434886Y-42230971D01*
X61374857Y-41967966D01*
X61374851Y-41967947D01*
X61276290Y-41716818D01*
X61276291Y-41716818D01*
X61141400Y-41483182D01*
X61141393Y-41483171D01*
X61087704Y-41415849D01*
X61087703Y-41415848D01*
X60251041Y-42252511D01*
X60226022Y-42192110D01*
X60154888Y-42085649D01*
X60064351Y-41995112D01*
X59957890Y-41923978D01*
X59897488Y-41898958D01*
X60735150Y-41061295D01*
X60552524Y-40936783D01*
X60552516Y-40936778D01*
X60309460Y-40819730D01*
X60309462Y-40819730D01*
X60051662Y-40740209D01*
X60051656Y-40740207D01*
X59784898Y-40700000D01*
X59515101Y-40700000D01*
X59248343Y-40740207D01*
X59248337Y-40740209D01*
X58990538Y-40819730D01*
X58747482Y-40936780D01*
X58747469Y-40936787D01*
X58564848Y-41061294D01*
X59402512Y-41898958D01*
X59342110Y-41923978D01*
X59235649Y-41995112D01*
X59145112Y-42085649D01*
X59073978Y-42192110D01*
X59048958Y-42252512D01*
X58212294Y-41415848D01*
X58158602Y-41483177D01*
X58023709Y-41716818D01*
X57925148Y-41967947D01*
X57925142Y-41967966D01*
X57865113Y-42230971D01*
X57865113Y-42230973D01*
X57844953Y-42499995D01*
X56805549Y-42499995D01*
X56785389Y-42230973D01*
X56785383Y-42230897D01*
X56725334Y-41967805D01*
X56626743Y-41716602D01*
X56491815Y-41482898D01*
X56323561Y-41271915D01*
X56323560Y-41271914D01*
X56323557Y-41271910D01*
X56125741Y-41088365D01*
X55902775Y-40936349D01*
X55902769Y-40936346D01*
X55902768Y-40936345D01*
X55902767Y-40936344D01*
X55659643Y-40819263D01*
X55659645Y-40819263D01*
X55401773Y-40739720D01*
X55401767Y-40739718D01*
X55134936Y-40699500D01*
X55134929Y-40699500D01*
X54865071Y-40699500D01*
X54865063Y-40699500D01*
X54598232Y-40739718D01*
X54598226Y-40739720D01*
X54340358Y-40819262D01*
X54097230Y-40936346D01*
X53874258Y-41088365D01*
X53676442Y-41271910D01*
X53508185Y-41482898D01*
X53373258Y-41716599D01*
X53373256Y-41716603D01*
X53274666Y-41967804D01*
X53274664Y-41967811D01*
X53214616Y-42230898D01*
X53194451Y-42499995D01*
X50200500Y-42499995D01*
X50200500Y-37000000D01*
X53794457Y-37000000D01*
X53814612Y-37358902D01*
X53814614Y-37358914D01*
X53874826Y-37713296D01*
X53874828Y-37713305D01*
X53945175Y-37957485D01*
X53974341Y-38058724D01*
X54027400Y-38186819D01*
X54111905Y-38390831D01*
X54285790Y-38705454D01*
X54449616Y-38936344D01*
X54493806Y-38998623D01*
X54733339Y-39266661D01*
X55001377Y-39506194D01*
X55294548Y-39714211D01*
X55609167Y-39888094D01*
X55941276Y-40025659D01*
X56286700Y-40125173D01*
X56641093Y-40185387D01*
X57000000Y-40205543D01*
X57358907Y-40185387D01*
X57713300Y-40125173D01*
X58058724Y-40025659D01*
X58390833Y-39888094D01*
X58705452Y-39714211D01*
X58998623Y-39506194D01*
X59266661Y-39266661D01*
X59506194Y-38998623D01*
X59714211Y-38705452D01*
X59888094Y-38390833D01*
X60025659Y-38058724D01*
X60125173Y-37713300D01*
X60185387Y-37358907D01*
X60205543Y-37000000D01*
X60185387Y-36641093D01*
X60125173Y-36286700D01*
X60025659Y-35941276D01*
X59888094Y-35609167D01*
X59714211Y-35294548D01*
X59660792Y-35219262D01*
X59506194Y-35001377D01*
X59469323Y-34960118D01*
X59266661Y-34733339D01*
X58998623Y-34493806D01*
X58907928Y-34429454D01*
X58705454Y-34285790D01*
X58390831Y-34111905D01*
X58304086Y-34075974D01*
X58058724Y-33974341D01*
X58058720Y-33974339D01*
X58058718Y-33974339D01*
X57713305Y-33874828D01*
X57713296Y-33874826D01*
X57358914Y-33814614D01*
X57358902Y-33814612D01*
X57000000Y-33794457D01*
X56641097Y-33814612D01*
X56641085Y-33814614D01*
X56286703Y-33874826D01*
X56286694Y-33874828D01*
X55941281Y-33974339D01*
X55609168Y-34111905D01*
X55294545Y-34285790D01*
X55001377Y-34493805D01*
X54733339Y-34733339D01*
X54493805Y-35001377D01*
X54285790Y-35294545D01*
X54111905Y-35609168D01*
X53974339Y-35941281D01*
X53874828Y-36286694D01*
X53874826Y-36286703D01*
X53814614Y-36641085D01*
X53814612Y-36641097D01*
X53794457Y-37000000D01*
X50200500Y-37000000D01*
X50200500Y-35002706D01*
X50200618Y-34997297D01*
X50202241Y-34960118D01*
X50218528Y-34587080D01*
X50219468Y-34576347D01*
X50272709Y-34171938D01*
X50274582Y-34161308D01*
X50362870Y-33763068D01*
X50365668Y-33752630D01*
X50488319Y-33363629D01*
X50492016Y-33353473D01*
X50593711Y-33107961D01*
X50648111Y-32976627D01*
X50652669Y-32966853D01*
X50841025Y-32605024D01*
X50846407Y-32595703D01*
X51065574Y-32251680D01*
X51071765Y-32242837D01*
X51320083Y-31919224D01*
X51327021Y-31910955D01*
X51602594Y-31610220D01*
X51610220Y-31602594D01*
X51910955Y-31327021D01*
X51919224Y-31320083D01*
X52242837Y-31071765D01*
X52251680Y-31065574D01*
X52595703Y-30846407D01*
X52605024Y-30841025D01*
X52966853Y-30652669D01*
X52976627Y-30648111D01*
X53353482Y-30492012D01*
X53363629Y-30488319D01*
X53752639Y-30365665D01*
X53763068Y-30362870D01*
X54161308Y-30274582D01*
X54171938Y-30272709D01*
X54576347Y-30219468D01*
X54587080Y-30218528D01*
X54997297Y-30200617D01*
X55002706Y-30200500D01*
X55039882Y-30200500D01*
X214960118Y-30200500D01*
X214997294Y-30200500D01*
X215002702Y-30200617D01*
G37*
%TD.AperFunction*%
%TD*%
M02*
