M48
; DRILL file {KiCad 8.0.8-8.0.8-0~ubuntu24.04.1} date 2025-02-12T10:46:22-0500
; FORMAT={-:-/ absolute / metric / decimal}
; #@! TF.CreationDate,2025-02-12T10:46:22-05:00
; #@! TF.GenerationSoftware,Kicad,Pcbnew,8.0.8-8.0.8-0~ubuntu24.04.1
; #@! TF.FileFunction,Plated,1,2,PTH
FMAT,2
METRIC
; #@! TA.AperFunction,Plated,PTH,ViaDrill
T1C0.300
; #@! TA.AperFunction,Plated,PTH,ComponentDrill
T2C0.800
; #@! TA.AperFunction,Plated,PTH,ComponentDrill
T3C0.900
; #@! TA.AperFunction,Plated,PTH,ComponentDrill
T4C1.000
; #@! TA.AperFunction,Plated,PTH,ComponentDrill
T5C1.100
; #@! TA.AperFunction,Plated,PTH,ComponentDrill
T6C1.300
; #@! TA.AperFunction,Plated,PTH,ComponentDrill
T7C1.650
; #@! TA.AperFunction,Plated,PTH,ComponentDrill
T8C2.000
; #@! TA.AperFunction,Plated,PTH,ComponentDrill
T9C4.500
%
G90
G05
T1
X67.25Y-64.0
X68.25Y-58.0
X69.25Y-53.25
X75.0Y-58.0
X76.7Y-87.0
X77.0Y-74.2
X77.25Y-90.0
X77.6Y-74.8
X77.95Y-86.55
X79.0Y-59.0
X80.0Y-60.135
X80.4Y-78.2
X81.1Y-47.35
X81.5Y-72.25
X81.5Y-97.25
X82.5Y-74.5
X82.7Y-48.1
X84.3Y-88.8
X84.7Y-91.5
X89.3Y-93.6
X89.3Y-96.3
X89.5Y-91.2
X90.3Y-80.9
X94.0Y-89.1
X94.3Y-92.8
X96.5Y-49.5
X98.75Y-43.75
X103.25Y-38.25
X107.3Y-76.9
X110.2Y-83.0
X110.6Y-43.8
X116.0Y-43.75
X116.0Y-52.0
X121.9Y-45.0
X122.5Y-55.0
X123.8Y-59.0
X125.5Y-42.4
X125.5Y-47.0
X125.5Y-52.9
X125.5Y-58.3
X125.5Y-63.2
X125.6Y-68.8
X126.2Y-37.5
X128.5Y-47.0
X131.425Y-51.675
X131.5Y-41.2
X131.5Y-46.2
X131.5Y-56.9
X131.5Y-62.3
X131.625Y-67.575
X135.7Y-86.8
X141.9Y-35.5
X141.9Y-46.5
X142.0Y-41.0
X142.2Y-52.0
X142.2Y-63.0
X142.275Y-57.525
X145.6Y-35.6
X150.0Y-45.6
X150.5Y-40.1
X150.5Y-56.3
X150.6Y-61.7
X150.9Y-50.7
X153.4Y-82.8
X157.7Y-95.0
X160.4Y-76.7
X160.7Y-73.5
X164.1Y-82.7
X164.3Y-69.0
X164.5Y-91.9
X166.7Y-74.5
X167.1Y-92.3
X169.9Y-87.3
X170.6Y-77.5
X171.5Y-90.9
X172.3Y-76.2
X172.6Y-88.8
X174.3Y-82.6
X174.9Y-38.6
X175.55Y-77.45
X175.95Y-73.95
X176.0Y-89.75
X176.4Y-66.8
X176.7Y-80.1
X177.0Y-85.7
X177.086Y-84.7
X177.625Y-77.3
X177.9Y-82.3
X178.25Y-85.0
X178.5Y-67.6
X178.8Y-43.8
X179.1Y-79.3
X179.5Y-42.9
X179.7Y-78.8
X179.8Y-85.1
X180.2Y-77.6
X180.3Y-68.4
X180.5Y-83.4
X181.2Y-85.1
X181.8Y-85.4
X182.0Y-70.0
X182.5Y-85.3
X184.7Y-72.1
X185.5Y-82.7
X186.8Y-75.5
X187.2Y-93.1
X187.3Y-87.7
X188.1Y-47.0
X189.75Y-84.25
X192.1Y-85.8
X196.5Y-80.8
X197.5Y-81.5
X203.3Y-57.1
T2
X69.331Y-68.07
X69.331Y-70.07
X69.331Y-72.07
X69.331Y-74.07
X69.331Y-76.07
X69.331Y-78.07
X69.331Y-80.07
X69.331Y-82.07
X69.331Y-84.07
X69.331Y-86.07
X69.331Y-88.07
X69.331Y-90.07
X69.331Y-92.07
T3
X79.182Y-103.0
X81.341Y-103.0
X83.5Y-103.0
X85.659Y-103.0
T4
X64.25Y-101.875
X66.79Y-101.875
X72.25Y-101.875
X74.79Y-101.875
X130.98Y-103.0
X133.52Y-103.0
X136.06Y-103.0
X138.6Y-103.0
X141.14Y-103.0
X143.68Y-103.0
X146.22Y-103.0
X146.5Y-79.7
X148.76Y-103.0
X149.04Y-79.7
X151.3Y-103.0
X151.58Y-79.7
X153.84Y-103.0
X154.12Y-79.7
X156.38Y-103.0
X156.66Y-79.7
X158.92Y-103.0
X159.2Y-79.7
X161.46Y-103.0
X164.0Y-103.0
X166.54Y-103.0
X169.08Y-103.0
X171.62Y-103.0
X174.16Y-103.0
X176.7Y-103.0
X179.24Y-103.0
T5
X97.0Y-86.5
X97.0Y-91.0
X103.5Y-86.5
X103.5Y-91.0
X207.5Y-84.5
X207.5Y-89.0
X214.0Y-84.5
X214.0Y-89.0
T6
X55.0Y-42.5
X59.65Y-42.5
X96.55Y-66.0
X96.55Y-80.5
X99.05Y-80.5
X101.55Y-66.0
X101.55Y-80.5
X169.25Y-52.0
X174.5Y-52.0
X190.6Y-36.9
X190.6Y-41.8
X203.5Y-35.5
X203.5Y-40.5
X206.35Y-52.0
X211.0Y-52.0
T7
X208.4Y-66.0
X211.0Y-66.0
X213.6Y-66.0
T9
X57.5Y-49.9
X57.5Y-57.1
X59.031Y-67.1
X59.031Y-92.9
T8
X94.3Y-73.15G85X94.3Y-72.85
G05
X103.8Y-73.15G85X103.8Y-72.85
G05
M30
