%TF.GenerationSoftware,KiCad,Pcbnew,8.0.8-8.0.8-0~ubuntu24.04.1*%
%TF.CreationDate,2025-02-11T18:27:14-05:00*%
%TF.ProjectId,Strojni_posuv,5374726f-6a6e-4695-9f70-6f7375762e6b,rev?*%
%TF.SameCoordinates,Original*%
%TF.FileFunction,Soldermask,Bot*%
%TF.FilePolarity,Negative*%
%FSLAX46Y46*%
G04 Gerber Fmt 4.6, Leading zero omitted, Abs format (unit mm)*
G04 Created by KiCad (PCBNEW 8.0.8-8.0.8-0~ubuntu24.04.1) date 2025-02-11 18:27:14*
%MOMM*%
%LPD*%
G01*
G04 APERTURE LIST*
G04 Aperture macros list*
%AMRoundRect*
0 Rectangle with rounded corners*
0 $1 Rounding radius*
0 $2 $3 $4 $5 $6 $7 $8 $9 X,Y pos of 4 corners*
0 Add a 4 corners polygon primitive as box body*
4,1,4,$2,$3,$4,$5,$6,$7,$8,$9,$2,$3,0*
0 Add four circle primitives for the rounded corners*
1,1,$1+$1,$2,$3*
1,1,$1+$1,$4,$5*
1,1,$1+$1,$6,$7*
1,1,$1+$1,$8,$9*
0 Add four rect primitives between the rounded corners*
20,1,$1+$1,$2,$3,$4,$5,0*
20,1,$1+$1,$4,$5,$6,$7,0*
20,1,$1+$1,$6,$7,$8,$9,0*
20,1,$1+$1,$8,$9,$2,$3,0*%
G04 Aperture macros list end*
%ADD10C,2.400000*%
%ADD11R,1.700000X1.700000*%
%ADD12O,1.700000X1.700000*%
%ADD13C,2.000000*%
%ADD14C,2.600000*%
%ADD15R,2.000000X2.000000*%
%ADD16R,2.500000X3.000000*%
%ADD17R,1.800000X1.800000*%
%ADD18C,1.800000*%
%ADD19RoundRect,1.500000X1.500000X-1.500000X1.500000X1.500000X-1.500000X1.500000X-1.500000X-1.500000X0*%
%ADD20C,6.000000*%
%ADD21C,1.604000*%
%ADD22RoundRect,0.102000X2.100000X-0.317500X2.100000X0.317500X-2.100000X0.317500X-2.100000X-0.317500X0*%
%ADD23RoundRect,0.102000X2.758000X-2.758000X2.758000X2.758000X-2.758000X2.758000X-2.758000X-2.758000X0*%
G04 APERTURE END LIST*
D10*
%TO.C,SW4*%
X208400000Y-66000000D03*
X211000000Y-66000000D03*
X213600000Y-66000000D03*
%TD*%
D11*
%TO.C,J15*%
X159200000Y-79700000D03*
D12*
X156660000Y-79700000D03*
X154120000Y-79700000D03*
X151580000Y-79700000D03*
X149040000Y-79700000D03*
X146500000Y-79700000D03*
%TD*%
D13*
%TO.C,SW3*%
X207500000Y-84500000D03*
X214000000Y-84500000D03*
X207500000Y-89000000D03*
X214000000Y-89000000D03*
%TD*%
D14*
%TO.C,J9*%
X206350000Y-52000000D03*
%TD*%
%TO.C,J13*%
X190600000Y-36900000D03*
%TD*%
%TO.C,J11*%
X190600000Y-41800000D03*
%TD*%
D15*
%TO.C,SW5*%
X96550000Y-80500000D03*
D13*
X101550000Y-80500000D03*
X99050000Y-80500000D03*
D16*
X94300000Y-73000000D03*
X103800000Y-73000000D03*
D13*
X96550000Y-66000000D03*
X101550000Y-66000000D03*
%TD*%
D11*
%TO.C,J4*%
X64250000Y-100475000D03*
D12*
X66790000Y-100475000D03*
%TD*%
D14*
%TO.C,J2*%
X55000000Y-42500000D03*
%TD*%
D11*
%TO.C,J1*%
X130980000Y-103000000D03*
D12*
X133520000Y-103000000D03*
X136060000Y-103000000D03*
X138600000Y-103000000D03*
X141140000Y-103000000D03*
X143680000Y-103000000D03*
X146220000Y-103000000D03*
X148760000Y-103000000D03*
X151300000Y-103000000D03*
X153840000Y-103000000D03*
X156380000Y-103000000D03*
X158920000Y-103000000D03*
X161460000Y-103000000D03*
X164000000Y-103000000D03*
X166540000Y-103000000D03*
X169080000Y-103000000D03*
X171620000Y-103000000D03*
X174160000Y-103000000D03*
X176700000Y-103000000D03*
X179240000Y-103000000D03*
%TD*%
D14*
%TO.C,J12*%
X203500000Y-40500000D03*
%TD*%
%TO.C,J14*%
X203500000Y-35500000D03*
%TD*%
%TO.C,J10*%
X211000000Y-52000000D03*
%TD*%
%TO.C,J7*%
X169250000Y-52000000D03*
%TD*%
D13*
%TO.C,SW2*%
X97000000Y-86500000D03*
X103500000Y-86500000D03*
X97000000Y-91000000D03*
X103500000Y-91000000D03*
%TD*%
D14*
%TO.C,J8*%
X174500000Y-52000000D03*
%TD*%
D11*
%TO.C,J3*%
X72250000Y-100475000D03*
D12*
X74790000Y-100475000D03*
%TD*%
D14*
%TO.C,J6*%
X59650000Y-42500000D03*
%TD*%
D17*
%TO.C,D2*%
X79182000Y-103000000D03*
D18*
X81341000Y-103000000D03*
X83500000Y-103000000D03*
X85659000Y-103000000D03*
%TD*%
D19*
%TO.C,J5*%
X57500000Y-57100000D03*
D20*
X57500000Y-49900000D03*
%TD*%
D21*
%TO.C,IC1*%
X69330950Y-92070000D03*
D22*
X73230950Y-91070000D03*
D21*
X69330950Y-90070000D03*
D22*
X73230950Y-89070000D03*
D21*
X69330950Y-88070000D03*
D22*
X73230950Y-87070000D03*
D21*
X69330950Y-86070000D03*
D22*
X73230950Y-85070000D03*
D21*
X69330950Y-84070000D03*
D22*
X73230950Y-83070000D03*
D21*
X69330950Y-82070000D03*
D22*
X73230950Y-81070000D03*
D21*
X69330950Y-80070000D03*
D22*
X73230950Y-79070000D03*
D21*
X69330950Y-78070000D03*
D22*
X73230950Y-77070000D03*
D21*
X69330950Y-76070000D03*
D22*
X73230950Y-75070000D03*
D21*
X69330950Y-74070000D03*
D22*
X73230950Y-73070000D03*
D21*
X69330950Y-72070000D03*
D22*
X73230950Y-71070000D03*
D21*
X69330950Y-70070000D03*
D22*
X73230950Y-69070000D03*
D21*
X69330950Y-68070000D03*
D23*
X59030950Y-92900000D03*
X59030950Y-67100000D03*
%TD*%
M02*
