%TF.GenerationSoftware,KiCad,Pcbnew,8.0.8-8.0.8-0~ubuntu24.04.1*%
%TF.CreationDate,2025-02-11T18:27:08-05:00*%
%TF.ProjectId,Strojni_posuv,5374726f-6a6e-4695-9f70-6f7375762e6b,rev?*%
%TF.SameCoordinates,Original*%
%TF.FileFunction,Legend,Bot*%
%TF.FilePolarity,Positive*%
%FSLAX46Y46*%
G04 Gerber Fmt 4.6, Leading zero omitted, Abs format (unit mm)*
G04 Created by KiCad (PCBNEW 8.0.8-8.0.8-0~ubuntu24.04.1) date 2025-02-11 18:27:08*
%MOMM*%
%LPD*%
G01*
G04 APERTURE LIST*
G04 Aperture macros list*
%AMRoundRect*
0 Rectangle with rounded corners*
0 $1 Rounding radius*
0 $2 $3 $4 $5 $6 $7 $8 $9 X,Y pos of 4 corners*
0 Add a 4 corners polygon primitive as box body*
4,1,4,$2,$3,$4,$5,$6,$7,$8,$9,$2,$3,0*
0 Add four circle primitives for the rounded corners*
1,1,$1+$1,$2,$3*
1,1,$1+$1,$4,$5*
1,1,$1+$1,$6,$7*
1,1,$1+$1,$8,$9*
0 Add four rect primitives between the rounded corners*
20,1,$1+$1,$2,$3,$4,$5,0*
20,1,$1+$1,$4,$5,$6,$7,0*
20,1,$1+$1,$6,$7,$8,$9,0*
20,1,$1+$1,$8,$9,$2,$3,0*%
G04 Aperture macros list end*
%ADD10C,0.125000*%
%ADD11C,0.049000*%
%ADD12C,0.100000*%
%ADD13C,0.150000*%
%ADD14C,0.120000*%
%ADD15C,0.127000*%
%ADD16C,0.203200*%
%ADD17C,2.400000*%
%ADD18R,1.700000X1.700000*%
%ADD19O,1.700000X1.700000*%
%ADD20C,2.000000*%
%ADD21C,2.600000*%
%ADD22R,2.000000X2.000000*%
%ADD23R,2.500000X3.000000*%
%ADD24R,1.800000X1.800000*%
%ADD25C,1.800000*%
%ADD26RoundRect,1.500000X1.500000X-1.500000X1.500000X1.500000X-1.500000X1.500000X-1.500000X-1.500000X0*%
%ADD27C,6.000000*%
%ADD28C,1.604000*%
%ADD29RoundRect,0.102000X2.100000X-0.317500X2.100000X0.317500X-2.100000X0.317500X-2.100000X-0.317500X0*%
%ADD30RoundRect,0.102000X2.758000X-2.758000X2.758000X2.758000X-2.758000X2.758000X-2.758000X-2.758000X0*%
G04 APERTURE END LIST*
D10*
X168427287Y-40007640D02*
X168427287Y-39207640D01*
X168427287Y-39588592D02*
X167970144Y-39588592D01*
X167970144Y-40007640D02*
X167970144Y-39207640D01*
X167436811Y-39207640D02*
X167284430Y-39207640D01*
X167284430Y-39207640D02*
X167208240Y-39245735D01*
X167208240Y-39245735D02*
X167132049Y-39321925D01*
X167132049Y-39321925D02*
X167093954Y-39474306D01*
X167093954Y-39474306D02*
X167093954Y-39740973D01*
X167093954Y-39740973D02*
X167132049Y-39893354D01*
X167132049Y-39893354D02*
X167208240Y-39969545D01*
X167208240Y-39969545D02*
X167284430Y-40007640D01*
X167284430Y-40007640D02*
X167436811Y-40007640D01*
X167436811Y-40007640D02*
X167513002Y-39969545D01*
X167513002Y-39969545D02*
X167589192Y-39893354D01*
X167589192Y-39893354D02*
X167627288Y-39740973D01*
X167627288Y-39740973D02*
X167627288Y-39474306D01*
X167627288Y-39474306D02*
X167589192Y-39321925D01*
X167589192Y-39321925D02*
X167513002Y-39245735D01*
X167513002Y-39245735D02*
X167436811Y-39207640D01*
X167208239Y-41295595D02*
X167208239Y-40495595D01*
X167208239Y-40876547D02*
X166751096Y-40876547D01*
X166751096Y-41295595D02*
X166751096Y-40495595D01*
X166217763Y-40495595D02*
X166065382Y-40495595D01*
X166065382Y-40495595D02*
X165989192Y-40533690D01*
X165989192Y-40533690D02*
X165913001Y-40609880D01*
X165913001Y-40609880D02*
X165874906Y-40762261D01*
X165874906Y-40762261D02*
X165874906Y-41028928D01*
X165874906Y-41028928D02*
X165913001Y-41181309D01*
X165913001Y-41181309D02*
X165989192Y-41257500D01*
X165989192Y-41257500D02*
X166065382Y-41295595D01*
X166065382Y-41295595D02*
X166217763Y-41295595D01*
X166217763Y-41295595D02*
X166293954Y-41257500D01*
X166293954Y-41257500D02*
X166370144Y-41181309D01*
X166370144Y-41181309D02*
X166408240Y-41028928D01*
X166408240Y-41028928D02*
X166408240Y-40762261D01*
X166408240Y-40762261D02*
X166370144Y-40609880D01*
X166370144Y-40609880D02*
X166293954Y-40533690D01*
X166293954Y-40533690D02*
X166217763Y-40495595D01*
D11*
X172141726Y-37664156D02*
X172354667Y-37664156D01*
X172067186Y-36100338D02*
X172014117Y-36092293D01*
X171960150Y-36094597D01*
X171908372Y-36108102D01*
X171861870Y-36133661D01*
X170359495Y-38473286D02*
G75*
G02*
X170093876Y-38627895I-451365J469976D01*
G01*
X171491943Y-37867630D02*
G75*
G02*
X171541749Y-38963350I-892821J-589575D01*
G01*
X168695310Y-37227575D02*
G75*
G02*
X168705274Y-37143647I-82746J52379D01*
G01*
X168675383Y-37750533D02*
G75*
G02*
X168675383Y-37664156I-69904J43188D01*
G01*
X171607678Y-39251557D02*
X172025938Y-39602519D01*
X171279982Y-37664726D02*
G75*
G02*
X170937147Y-37940534I-320932J47946D01*
G01*
X170208632Y-38418389D02*
G75*
G02*
X170037331Y-38547728I-900532J1014589D01*
G01*
X171764756Y-38863507D02*
G75*
G02*
X171658415Y-39160553I-1244056J277807D01*
G01*
X171861870Y-36133661D02*
X171823920Y-36170766D01*
X171795815Y-36216448D01*
X171779238Y-36266690D01*
X171775874Y-36317478D01*
X170333107Y-38001699D02*
G75*
G02*
X170373504Y-37913420I220893J-47701D01*
G01*
X169635733Y-37745020D02*
X169720204Y-37863098D01*
X171541749Y-38963350D02*
G75*
G02*
X169488301Y-38963350I-1026724J371887D01*
G01*
X169220339Y-38233141D02*
X168815383Y-37750533D01*
X171309846Y-37863098D02*
X171394317Y-37745020D01*
X171809711Y-38233141D02*
G75*
G02*
X171812056Y-38597296I-1319251J-190579D01*
G01*
X169815120Y-38324058D02*
G75*
G02*
X169550128Y-38467434I-273840J189548D01*
G01*
X169611253Y-38275562D02*
G75*
G02*
X169673716Y-38081034I268547J21062D01*
G01*
X172227355Y-36207296D02*
X172191360Y-36167571D01*
X172147666Y-36134481D01*
X172103321Y-36112059D01*
X172067186Y-36100338D01*
X170558050Y-38112290D02*
G75*
G02*
X170515036Y-38028255I129850J119490D01*
G01*
X170208632Y-38418389D02*
G75*
G02*
X170037331Y-38547728I-900532J1014589D01*
G01*
X171932609Y-37019391D02*
X171948076Y-36824002D01*
X170634552Y-37621094D02*
G75*
G02*
X171279977Y-37664727I317668J-96436D01*
G01*
X171687797Y-40026016D02*
X171687797Y-40159701D01*
X169957042Y-38347129D02*
G75*
G02*
X170262213Y-38178747I365688J-302031D01*
G01*
X168867904Y-38224156D02*
X169231032Y-38656915D01*
X168815383Y-37750533D02*
X168675383Y-37750533D01*
X171222650Y-38006607D02*
G75*
G02*
X171309852Y-37863105I288050J-76793D01*
G01*
X169720204Y-37863098D02*
G75*
G02*
X169807400Y-38006607I-201064J-220412D01*
G01*
X169342253Y-40159701D02*
G75*
G02*
X169234417Y-40159701I-53918J-70000D01*
G01*
X169920935Y-38055654D02*
X170050364Y-38066231D01*
X170395498Y-37621094D02*
G75*
G02*
X170092904Y-37940538I-414918J89994D01*
G01*
X170670555Y-38473286D02*
G75*
G02*
X170609458Y-38396100I317745J314286D01*
G01*
X169815120Y-38324058D02*
G75*
G02*
X169673723Y-38081040I196420J276928D01*
G01*
X169342253Y-40026016D02*
X169342253Y-40159701D01*
X169231032Y-38656915D02*
X169217994Y-38597296D01*
X169438028Y-37673141D02*
G75*
G02*
X169088554Y-37227574I185692J505481D01*
G01*
X172000539Y-36583530D02*
X171972101Y-36626052D01*
X171974529Y-36676011D01*
X171977965Y-36679738D01*
X169280374Y-38881479D02*
X168815035Y-38326910D01*
X171941501Y-37227575D02*
G75*
G02*
X171592019Y-37673134I-535101J59875D01*
G01*
X172012364Y-36481409D02*
X172048940Y-36447796D01*
X172074222Y-36403003D01*
X172093529Y-36356532D01*
X172097650Y-36345902D01*
X169722021Y-37420762D02*
X169643908Y-37572446D01*
X169004112Y-39602519D02*
X169004112Y-39742519D01*
X169248285Y-38093141D02*
X168888324Y-37664156D01*
X169722021Y-37420762D02*
X169643908Y-37572446D01*
X169137533Y-37050819D02*
X169402747Y-36867388D01*
X170631005Y-35370849D02*
X171461740Y-35687395D01*
X171356326Y-38081040D02*
G75*
G02*
X171214930Y-38324058I-337526J33740D01*
G01*
X170684360Y-38137283D02*
G75*
G02*
X170558053Y-38112288I-50200J77953D01*
G01*
X170767837Y-38178751D02*
G75*
G02*
X170979686Y-38066232I236613J-189799D01*
G01*
X171315315Y-39582479D02*
X171795633Y-39985513D01*
X169815120Y-38324058D02*
G75*
G02*
X169673723Y-38081040I196420J276928D01*
G01*
X170656554Y-37913414D02*
G75*
G02*
X170696951Y-38001697I-180954J-136186D01*
G01*
X171627303Y-36867388D02*
G75*
G02*
X171673020Y-36795900I24197J34888D01*
G01*
X171479922Y-38467431D02*
G75*
G02*
X171214913Y-38324070I8878J333031D01*
G01*
X169488301Y-38963350D02*
G75*
G02*
X169538106Y-37867629I942769J506140D01*
G01*
X171635618Y-37099005D02*
X171801161Y-37204888D01*
X168889020Y-39565513D02*
X169379320Y-39154103D01*
X171356326Y-38081040D02*
G75*
G02*
X171418819Y-38275564I-205626J-173360D01*
G01*
X172283252Y-36368001D02*
X172276659Y-36314977D01*
X172260136Y-36263886D01*
X172233792Y-36216267D01*
X172227355Y-36207296D01*
X171932609Y-37019391D02*
G75*
G02*
X171892504Y-37050892I-33909J1891D01*
G01*
X170500178Y-37726754D02*
X170529872Y-37726754D01*
X170515025Y-38323574D02*
G75*
G02*
X170609487Y-38396090I-4025J-103026D01*
G01*
X171809711Y-38233141D02*
X172214667Y-37750533D01*
X171222650Y-38006607D02*
G75*
G02*
X171109116Y-38055636I-107950J94007D01*
G01*
X171658422Y-39160557D02*
X172141030Y-39565513D01*
X171892517Y-37050819D02*
X171627303Y-36867388D01*
X171541749Y-38963350D02*
G75*
G02*
X169488301Y-38963350I-1026724J371887D01*
G01*
X170767837Y-38178751D02*
G75*
G02*
X170979686Y-38066232I236613J-189799D01*
G01*
X171644924Y-38453102D02*
G75*
G02*
X171479922Y-38467438I-128224J519102D01*
G01*
X171635618Y-37099005D02*
G75*
G02*
X171670666Y-37017360I48082J27705D01*
G01*
X168815035Y-38326910D02*
X168675035Y-38326910D01*
X170162532Y-37652040D02*
G75*
G02*
X169952532Y-37652040I-105000J0D01*
G01*
X169952532Y-37652040D02*
G75*
G02*
X170162532Y-37652040I105000J0D01*
G01*
X169004112Y-39742519D02*
G75*
G02*
X168889020Y-39742519I-57546J-70000D01*
G01*
X169635733Y-37745020D02*
G75*
G02*
X169643908Y-37572446I130596J80294D01*
G01*
X169611253Y-38275562D02*
G75*
G02*
X169673716Y-38081034I268547J21062D01*
G01*
X169357027Y-36795896D02*
G75*
G02*
X169402743Y-36867383I21653J-36514D01*
G01*
X171461740Y-35687395D02*
X171678639Y-36079388D01*
X171804236Y-36876513D02*
X171809201Y-36764623D01*
X171222650Y-38006607D02*
G75*
G02*
X171309852Y-37863105I288050J-76793D01*
G01*
X169488301Y-38963350D02*
G75*
G02*
X169538106Y-37867629I942769J506140D01*
G01*
X170050364Y-38066231D02*
G75*
G02*
X170262232Y-38178736I-24864J-302569D01*
G01*
X169815120Y-38324058D02*
G75*
G02*
X169550128Y-38467434I-273840J189548D01*
G01*
X171673023Y-36795896D02*
X171804236Y-36876513D01*
X171491943Y-37867630D02*
G75*
G02*
X171541749Y-38963350I-892821J-589575D01*
G01*
X172097650Y-36345902D02*
G75*
G02*
X172180270Y-36354976I40150J-15098D01*
G01*
X169538107Y-38207866D02*
G75*
G02*
X169538109Y-37867631I361353J170116D01*
G01*
X169137533Y-37050819D02*
G75*
G02*
X169097441Y-37019391I-6061J33554D01*
G01*
X171359483Y-38592666D02*
G75*
G02*
X171073008Y-38347129I141677J455186D01*
G01*
X172244016Y-36529782D02*
X172264898Y-36482233D01*
X172278385Y-36431256D01*
X172283371Y-36378585D01*
X172283252Y-36368001D01*
X169761985Y-37220939D02*
G75*
G02*
X171268065Y-37220939I753040J-1758557D01*
G01*
X171356326Y-38081040D02*
G75*
G02*
X171418819Y-38275564I-205626J-173360D01*
G01*
X170936174Y-38627895D02*
G75*
G02*
X170670555Y-38473286I185926J624895D01*
G01*
X169225814Y-36876513D02*
X169220849Y-36764623D01*
X169611253Y-38275562D02*
G75*
G02*
X169538111Y-38207864I43187J120022D01*
G01*
X168888324Y-37664156D02*
X168675383Y-37664156D01*
X169761985Y-37220939D02*
G75*
G02*
X169722026Y-37420765I-315285J-40861D01*
G01*
X169681645Y-35965084D02*
X169400516Y-36449404D01*
X169379320Y-39154103D02*
G75*
G02*
X169280374Y-38881479I1141880J568703D01*
G01*
X171670666Y-37017361D02*
X171904776Y-37143647D01*
X171781765Y-38093141D02*
X172141726Y-37664156D01*
X169920935Y-38055654D02*
G75*
G02*
X169807416Y-38006593I-5535J143054D01*
G01*
X171308029Y-37420762D02*
G75*
G02*
X171268077Y-37220941I274871J158862D01*
G01*
X170529872Y-37726754D02*
G75*
G02*
X170656551Y-37913415I-323772J-356046D01*
G01*
X171386142Y-37572446D02*
G75*
G02*
X171394314Y-37745018I-122372J-92274D01*
G01*
X171394317Y-37745020D02*
X171309846Y-37863098D01*
X172334740Y-37227575D02*
X171941501Y-37227575D01*
X171359483Y-38592666D02*
G75*
G02*
X170992720Y-38547727I-129833J459496D01*
G01*
X172324776Y-37143647D02*
G75*
G02*
X172334727Y-37227583I92824J-31553D01*
G01*
X172355015Y-38224156D02*
G75*
G02*
X172355018Y-38326908I70035J-51374D01*
G01*
X170345690Y-38137283D02*
G75*
G02*
X170333102Y-38001696I91610J76883D01*
G01*
X172214667Y-37750533D02*
X172354667Y-37750533D01*
X169720204Y-37863098D02*
G75*
G02*
X169807400Y-38006607I-201064J-220412D01*
G01*
X169268662Y-37338720D02*
G75*
G02*
X171761388Y-37338720I1246363J-1602338D01*
G01*
X171795633Y-39985513D02*
X171795633Y-40159701D01*
X169429607Y-39245486D02*
X169004112Y-39602519D01*
X171977965Y-36679738D02*
X172031151Y-36686388D01*
X172078087Y-36672240D01*
X172125234Y-36649639D01*
X170037331Y-38547728D02*
G75*
G02*
X169670566Y-38592669I-236851J413888D01*
G01*
X170979686Y-38066231D02*
X171109115Y-38055654D01*
X169357027Y-36795896D02*
X169225814Y-36876513D01*
X170937147Y-37940535D02*
G75*
G02*
X170634552Y-37621094I112403J409515D01*
G01*
X169802929Y-39639462D02*
X169342253Y-40026016D01*
X171232001Y-39643557D02*
G75*
G02*
X169802929Y-39639463I-711511J1057987D01*
G01*
X171076885Y-35723486D02*
X171122790Y-35761834D01*
X171172746Y-35796946D01*
X171215399Y-35832560D01*
X171258711Y-35877447D01*
X171299275Y-35932792D01*
X171323107Y-35976085D01*
X171343193Y-36024905D01*
X171358524Y-36079604D01*
X171368088Y-36140534D01*
X171370877Y-36208046D01*
X171369416Y-36244380D01*
X170696943Y-38001699D02*
G75*
G02*
X170684356Y-38137280I-104093J-58711D01*
G01*
X171491943Y-37867630D02*
G75*
G02*
X171491945Y-38207867I-360893J-170120D01*
G01*
X169076489Y-36670019D02*
X169097441Y-37019391D01*
X171904776Y-37143647D02*
X172324776Y-37143647D01*
X170936174Y-38627895D02*
G75*
G02*
X170821440Y-38418387I183926J236895D01*
G01*
X171077518Y-37652040D02*
G75*
G02*
X170867518Y-37652040I-105000J0D01*
G01*
X170867518Y-37652040D02*
G75*
G02*
X171077518Y-37652040I105000J0D01*
G01*
X169550128Y-38467431D02*
G75*
G02*
X169385126Y-38453103I-36758J533931D01*
G01*
X171222650Y-38006607D02*
G75*
G02*
X171109116Y-38055636I-107950J94007D01*
G01*
X172141030Y-39742519D02*
G75*
G02*
X172025938Y-39742519I-57546J-70000D01*
G01*
X170373496Y-37913414D02*
G75*
G02*
X170500175Y-37726751I450604J-169486D01*
G01*
X169234417Y-39985513D02*
X169234417Y-40159701D01*
X168675035Y-38326910D02*
G75*
G02*
X168675035Y-38224156I-69983J51377D01*
G01*
X169400516Y-36449404D02*
X169076489Y-36670019D01*
X171644924Y-38453102D02*
G75*
G02*
X170515025Y-38597824I-622384J376052D01*
G01*
X172180349Y-36354965D02*
X172176662Y-36412667D01*
X172158022Y-36466059D01*
X172121276Y-36509376D01*
X172076508Y-36538367D01*
X172031836Y-36561837D01*
X172000539Y-36583530D01*
X170050364Y-38066231D02*
G75*
G02*
X170262232Y-38178736I-24864J-302569D01*
G01*
X169217994Y-38597296D02*
G75*
G02*
X169220338Y-38233141I1321706J173576D01*
G01*
X171131617Y-36204746D02*
X171507684Y-36391869D01*
X171491943Y-38207866D02*
G75*
G02*
X171418810Y-38275597I-116243J52166D01*
G01*
X171232001Y-39643557D02*
X171687797Y-40026016D01*
X171607678Y-39251557D02*
G75*
G02*
X171315312Y-39582475I-1086778J665557D01*
G01*
X170992719Y-38547728D02*
G75*
G02*
X170821413Y-38418394I730081J1145128D01*
G01*
X168867904Y-38224156D02*
X168675035Y-38224156D01*
X170208632Y-38418389D02*
G75*
G02*
X170093876Y-38627895I-299062J27629D01*
G01*
X168889020Y-39565513D02*
X168889020Y-39742519D01*
X170767837Y-38178751D02*
G75*
G02*
X171073011Y-38347126I-60637J-470649D01*
G01*
X169720076Y-39577997D02*
G75*
G02*
X169429607Y-39245486I800494J992407D01*
G01*
X171109115Y-38055654D02*
X170979686Y-38066231D01*
X172215015Y-38326910D02*
X171764756Y-38863507D01*
X169125274Y-37143647D02*
X168705274Y-37143647D01*
X170631005Y-35370849D02*
X169681645Y-35965084D01*
X171801161Y-37204888D02*
X171761388Y-37338720D01*
X170515025Y-38597824D02*
G75*
G02*
X169385125Y-38453102I-507522J520723D01*
G01*
X171356326Y-38081040D02*
G75*
G02*
X171214930Y-38324058I-337526J33740D01*
G01*
X170472000Y-38112290D02*
G75*
G02*
X170345699Y-38137268I-76100J52990D01*
G01*
X171076885Y-35723486D02*
X171348027Y-35822254D01*
X171507684Y-36391869D02*
X171495569Y-36335288D01*
X171487612Y-36270624D01*
X171480253Y-36212345D01*
X171470741Y-36148559D01*
X171458214Y-36081855D01*
X171441808Y-36014822D01*
X171420661Y-35950050D01*
X171393908Y-35890129D01*
X171360687Y-35837647D01*
X171348027Y-35822254D01*
X168695310Y-37227575D02*
X169088549Y-37227575D01*
X171870470Y-36463672D02*
X171916030Y-36484552D01*
X171966999Y-36492409D01*
X172012364Y-36481409D01*
X169920935Y-38055654D02*
G75*
G02*
X169807416Y-38006593I-5535J143054D01*
G01*
X169761985Y-37220939D02*
G75*
G02*
X171268065Y-37220939I753040J-1758557D01*
G01*
X171386142Y-37572446D02*
G75*
G02*
X171394314Y-37745018I-122372J-92274D01*
G01*
X170420588Y-38396098D02*
G75*
G02*
X170515025Y-38323569I98442J-30432D01*
G01*
X171479922Y-38467431D02*
G75*
G02*
X171214913Y-38324070I8878J333031D01*
G01*
X171812056Y-38597296D02*
X171802185Y-38653141D01*
X170515025Y-38597824D02*
G75*
G02*
X169385125Y-38453102I-507522J520723D01*
G01*
X171644924Y-38453102D02*
G75*
G02*
X170515025Y-38597824I-622384J376052D01*
G01*
X172215015Y-38326910D02*
X172355015Y-38326910D01*
X172141030Y-39565513D02*
X172141030Y-39742519D01*
X172125234Y-36649639D02*
X172168060Y-36621053D01*
X172206389Y-36584651D01*
X172236408Y-36543216D01*
X172244016Y-36529782D01*
X169234417Y-39985513D02*
X169720076Y-39577997D01*
X169359384Y-37017361D02*
G75*
G02*
X169394433Y-37099005I-12844J-53859D01*
G01*
X169750068Y-37664726D02*
G75*
G02*
X170395500Y-37621093I327762J-52824D01*
G01*
X171592022Y-37673141D02*
G75*
G02*
X171781768Y-38093140I-1101422J-750459D01*
G01*
X169228889Y-37204888D02*
X169268662Y-37338720D01*
X172354667Y-37664156D02*
G75*
G02*
X172354707Y-37750508I70033J-43144D01*
G01*
X172162146Y-38224156D02*
X172355015Y-38224156D01*
X171795633Y-40159701D02*
G75*
G02*
X171687797Y-40159701I-53918J-70000D01*
G01*
X169920935Y-38055654D02*
X170050364Y-38066231D01*
X171491943Y-38207866D02*
G75*
G02*
X171418810Y-38275597I-116243J52166D01*
G01*
X171491943Y-37867630D02*
G75*
G02*
X171491945Y-38207867I-360893J-170120D01*
G01*
X171678639Y-36079388D02*
G75*
G02*
X171948076Y-36824001I317431J-306192D01*
G01*
X169538107Y-38207866D02*
G75*
G02*
X169538109Y-37867631I361353J170116D01*
G01*
X169635733Y-37745020D02*
G75*
G02*
X169643908Y-37572446I130596J80294D01*
G01*
X171775874Y-36317478D02*
X171787440Y-36367092D01*
X171812281Y-36411041D01*
X171847493Y-36447425D01*
X171870470Y-36463672D01*
X170420588Y-38396098D02*
G75*
G02*
X170359490Y-38473281I-378688J236998D01*
G01*
X172025938Y-39602519D02*
X172025938Y-39742519D01*
X171386142Y-37572446D02*
X171308029Y-37420762D01*
X169220849Y-36764623D02*
G75*
G02*
X171809201Y-36764623I1294176J-1609142D01*
G01*
X169957042Y-38347129D02*
G75*
G02*
X169670567Y-38592666I-428452J209999D01*
G01*
X169635733Y-37745020D02*
X169720204Y-37863098D01*
X169957042Y-38347129D02*
G75*
G02*
X170262213Y-38178747I365688J-302031D01*
G01*
X171308029Y-37420762D02*
G75*
G02*
X171268077Y-37220941I274871J158862D01*
G01*
X170670555Y-38473286D02*
G75*
G02*
X170609458Y-38396100I317745J314286D01*
G01*
X171131617Y-36204746D02*
X171369416Y-36244380D01*
X169248285Y-38093141D02*
G75*
G02*
X169438029Y-37673142I1291735J-330709D01*
G01*
X171802185Y-38653141D02*
X172162146Y-38224156D01*
X170515025Y-38323574D02*
G75*
G02*
X170609487Y-38396090I-4025J-103026D01*
G01*
X169957042Y-38347129D02*
G75*
G02*
X169670567Y-38592666I-428452J209999D01*
G01*
X170092903Y-37940535D02*
G75*
G02*
X169750071Y-37664726I-21843J323825D01*
G01*
X169359384Y-37017361D02*
X169125274Y-37143647D01*
X169550128Y-38467431D02*
G75*
G02*
X169385126Y-38453103I-36758J533931D01*
G01*
X170515025Y-38028257D02*
G75*
G02*
X170471984Y-38112275I-173325J35757D01*
G01*
X169761985Y-37220939D02*
G75*
G02*
X169722026Y-37420765I-315285J-40861D01*
G01*
X169394432Y-37099005D02*
X169228889Y-37204888D01*
D12*
X51500000Y-31500000D02*
X218500000Y-31500000D01*
X218500000Y-108500000D01*
X51500000Y-108500000D01*
X51500000Y-31500000D01*
X218500000Y-105500000D02*
X218500000Y-108500000D01*
D13*
X62254819Y-53166666D02*
X62969104Y-53166666D01*
X62969104Y-53166666D02*
X63111961Y-53119047D01*
X63111961Y-53119047D02*
X63207200Y-53023809D01*
X63207200Y-53023809D02*
X63254819Y-52880952D01*
X63254819Y-52880952D02*
X63254819Y-52785714D01*
X62254819Y-54119047D02*
X62254819Y-53642857D01*
X62254819Y-53642857D02*
X62731009Y-53595238D01*
X62731009Y-53595238D02*
X62683390Y-53642857D01*
X62683390Y-53642857D02*
X62635771Y-53738095D01*
X62635771Y-53738095D02*
X62635771Y-53976190D01*
X62635771Y-53976190D02*
X62683390Y-54071428D01*
X62683390Y-54071428D02*
X62731009Y-54119047D01*
X62731009Y-54119047D02*
X62826247Y-54166666D01*
X62826247Y-54166666D02*
X63064342Y-54166666D01*
X63064342Y-54166666D02*
X63159580Y-54119047D01*
X63159580Y-54119047D02*
X63207200Y-54071428D01*
X63207200Y-54071428D02*
X63254819Y-53976190D01*
X63254819Y-53976190D02*
X63254819Y-53738095D01*
X63254819Y-53738095D02*
X63207200Y-53642857D01*
X63207200Y-53642857D02*
X63159580Y-53595238D01*
X78420769Y-79318810D02*
X77420769Y-79318810D01*
X78325530Y-80366428D02*
X78373150Y-80318809D01*
X78373150Y-80318809D02*
X78420769Y-80175952D01*
X78420769Y-80175952D02*
X78420769Y-80080714D01*
X78420769Y-80080714D02*
X78373150Y-79937857D01*
X78373150Y-79937857D02*
X78277911Y-79842619D01*
X78277911Y-79842619D02*
X78182673Y-79795000D01*
X78182673Y-79795000D02*
X77992197Y-79747381D01*
X77992197Y-79747381D02*
X77849340Y-79747381D01*
X77849340Y-79747381D02*
X77658864Y-79795000D01*
X77658864Y-79795000D02*
X77563626Y-79842619D01*
X77563626Y-79842619D02*
X77468388Y-79937857D01*
X77468388Y-79937857D02*
X77420769Y-80080714D01*
X77420769Y-80080714D02*
X77420769Y-80175952D01*
X77420769Y-80175952D02*
X77468388Y-80318809D01*
X77468388Y-80318809D02*
X77516007Y-80366428D01*
X78420769Y-81318809D02*
X78420769Y-80747381D01*
X78420769Y-81033095D02*
X77420769Y-81033095D01*
X77420769Y-81033095D02*
X77563626Y-80937857D01*
X77563626Y-80937857D02*
X77658864Y-80842619D01*
X77658864Y-80842619D02*
X77706483Y-80747381D01*
D14*
%TO.C,J5*%
X53350000Y-45650000D02*
X53350000Y-58500000D01*
X53350000Y-58500000D02*
X55950000Y-61350000D01*
X55950000Y-61350000D02*
X59100000Y-61350000D01*
X59100000Y-61350000D02*
X61650000Y-58500000D01*
X61650000Y-45650000D02*
X53350000Y-45650000D01*
X61650000Y-58500000D02*
X61650000Y-45650000D01*
D15*
%TO.C,IC1*%
X53530950Y-65753800D02*
X53530950Y-94379600D01*
X53530950Y-94379600D02*
X56511550Y-94379600D01*
X56454750Y-65770000D02*
X76454750Y-65770000D01*
X56454750Y-94370000D02*
X76454750Y-94370000D01*
X56536950Y-65753800D02*
X53530950Y-65753800D01*
D16*
X73130950Y-67895000D02*
X73130950Y-65807500D01*
%TD*%
%LPC*%
D17*
%TO.C,SW4*%
X208400000Y-66000000D03*
X211000000Y-66000000D03*
X213600000Y-66000000D03*
%TD*%
D18*
%TO.C,J15*%
X159200000Y-79700000D03*
D19*
X156660000Y-79700000D03*
X154120000Y-79700000D03*
X151580000Y-79700000D03*
X149040000Y-79700000D03*
X146500000Y-79700000D03*
%TD*%
D20*
%TO.C,SW3*%
X207500000Y-84500000D03*
X214000000Y-84500000D03*
X207500000Y-89000000D03*
X214000000Y-89000000D03*
%TD*%
D21*
%TO.C,J9*%
X206350000Y-52000000D03*
%TD*%
%TO.C,J13*%
X190600000Y-36900000D03*
%TD*%
%TO.C,J11*%
X190600000Y-41800000D03*
%TD*%
D22*
%TO.C,SW5*%
X96550000Y-80500000D03*
D20*
X101550000Y-80500000D03*
X99050000Y-80500000D03*
D23*
X94300000Y-73000000D03*
X103800000Y-73000000D03*
D20*
X96550000Y-66000000D03*
X101550000Y-66000000D03*
%TD*%
D18*
%TO.C,J4*%
X64250000Y-100475000D03*
D19*
X66790000Y-100475000D03*
%TD*%
D21*
%TO.C,J2*%
X55000000Y-42500000D03*
%TD*%
D18*
%TO.C,J1*%
X130980000Y-103000000D03*
D19*
X133520000Y-103000000D03*
X136060000Y-103000000D03*
X138600000Y-103000000D03*
X141140000Y-103000000D03*
X143680000Y-103000000D03*
X146220000Y-103000000D03*
X148760000Y-103000000D03*
X151300000Y-103000000D03*
X153840000Y-103000000D03*
X156380000Y-103000000D03*
X158920000Y-103000000D03*
X161460000Y-103000000D03*
X164000000Y-103000000D03*
X166540000Y-103000000D03*
X169080000Y-103000000D03*
X171620000Y-103000000D03*
X174160000Y-103000000D03*
X176700000Y-103000000D03*
X179240000Y-103000000D03*
%TD*%
D21*
%TO.C,J12*%
X203500000Y-40500000D03*
%TD*%
%TO.C,J14*%
X203500000Y-35500000D03*
%TD*%
%TO.C,J10*%
X211000000Y-52000000D03*
%TD*%
%TO.C,J7*%
X169250000Y-52000000D03*
%TD*%
D20*
%TO.C,SW2*%
X97000000Y-86500000D03*
X103500000Y-86500000D03*
X97000000Y-91000000D03*
X103500000Y-91000000D03*
%TD*%
D21*
%TO.C,J8*%
X174500000Y-52000000D03*
%TD*%
D18*
%TO.C,J3*%
X72250000Y-100475000D03*
D19*
X74790000Y-100475000D03*
%TD*%
D21*
%TO.C,J6*%
X59650000Y-42500000D03*
%TD*%
D24*
%TO.C,D2*%
X79182000Y-103000000D03*
D25*
X81341000Y-103000000D03*
X83500000Y-103000000D03*
X85659000Y-103000000D03*
%TD*%
D26*
%TO.C,J5*%
X57500000Y-57100000D03*
D27*
X57500000Y-49900000D03*
%TD*%
D28*
%TO.C,IC1*%
X69330950Y-92070000D03*
D29*
X73230950Y-91070000D03*
D28*
X69330950Y-90070000D03*
D29*
X73230950Y-89070000D03*
D28*
X69330950Y-88070000D03*
D29*
X73230950Y-87070000D03*
D28*
X69330950Y-86070000D03*
D29*
X73230950Y-85070000D03*
D28*
X69330950Y-84070000D03*
D29*
X73230950Y-83070000D03*
D28*
X69330950Y-82070000D03*
D29*
X73230950Y-81070000D03*
D28*
X69330950Y-80070000D03*
D29*
X73230950Y-79070000D03*
D28*
X69330950Y-78070000D03*
D29*
X73230950Y-77070000D03*
D28*
X69330950Y-76070000D03*
D29*
X73230950Y-75070000D03*
D28*
X69330950Y-74070000D03*
D29*
X73230950Y-73070000D03*
D28*
X69330950Y-72070000D03*
D29*
X73230950Y-71070000D03*
D28*
X69330950Y-70070000D03*
D29*
X73230950Y-69070000D03*
D28*
X69330950Y-68070000D03*
D30*
X59030950Y-92900000D03*
X59030950Y-67100000D03*
%TD*%
%LPD*%
M02*
