%TF.GenerationSoftware,KiCad,Pcbnew,8.0.8-8.0.8-0~ubuntu24.04.1*%
%TF.CreationDate,2025-02-12T10:46:23-05:00*%
%TF.ProjectId,Strojni_posuv,5374726f-6a6e-4695-9f70-6f7375762e6b,rev?*%
%TF.SameCoordinates,Original*%
%TF.FileFunction,Drillmap*%
%TF.FilePolarity,Positive*%
%FSLAX45Y45*%
G04 Gerber Fmt 4.5, Leading zero omitted, Abs format (unit mm)*
G04 Created by KiCad (PCBNEW 8.0.8-8.0.8-0~ubuntu24.04.1) date 2025-02-12 10:46:23*
%MOMM*%
%LPD*%
G01*
G04 APERTURE LIST*
%ADD10C,0.050000*%
%ADD11C,0.200000*%
%ADD12C,0.100000*%
%ADD13C,0.110000*%
%ADD14C,0.130000*%
%ADD15C,0.165000*%
%ADD16C,0.450000*%
G04 APERTURE END LIST*
D10*
X5500000Y-11000000D02*
X21500000Y-11000000D01*
X6000000Y-10300000D02*
G75*
G02*
X5400000Y-10300000I-300000J0D01*
G01*
X5400000Y-10300000D02*
G75*
G02*
X6000000Y-10300000I300000J0D01*
G01*
X6000000Y-3700000D02*
G75*
G02*
X5400000Y-3700000I-300000J0D01*
G01*
X5400000Y-3700000D02*
G75*
G02*
X6000000Y-3700000I300000J0D01*
G01*
X22000000Y-10500000D02*
G75*
G02*
X21500000Y-11000000I-500000J0D01*
G01*
X21600000Y-10300000D02*
G75*
G02*
X21000000Y-10300000I-300000J0D01*
G01*
X21000000Y-10300000D02*
G75*
G02*
X21600000Y-10300000I300000J0D01*
G01*
X22000000Y-10500000D02*
X22000000Y-3500000D01*
X5000000Y-3500000D02*
G75*
G02*
X5500000Y-3000000I500000J0D01*
G01*
X21600000Y-3700000D02*
G75*
G02*
X21000000Y-3700000I-300000J0D01*
G01*
X21000000Y-3700000D02*
G75*
G02*
X21600000Y-3700000I300000J0D01*
G01*
X5000000Y-3500000D02*
X5000000Y-10500000D01*
X5500000Y-11000000D02*
G75*
G02*
X5000000Y-10500000I0J500000D01*
G01*
X21500000Y-3000000D02*
G75*
G02*
X22000000Y-3500000I0J-500000D01*
G01*
X21500000Y-3000000D02*
X5500000Y-3000000D01*
D11*
D12*
X6710000Y-6385000D02*
X6740000Y-6415000D01*
X6740000Y-6385000D02*
X6710000Y-6415000D01*
X6810000Y-5785000D02*
X6840000Y-5815000D01*
X6840000Y-5785000D02*
X6810000Y-5815000D01*
X6910000Y-5310000D02*
X6940000Y-5340000D01*
X6940000Y-5310000D02*
X6910000Y-5340000D01*
X7485000Y-5785000D02*
X7515000Y-5815000D01*
X7515000Y-5785000D02*
X7485000Y-5815000D01*
X7655000Y-8685000D02*
X7685000Y-8715000D01*
X7685000Y-8685000D02*
X7655000Y-8715000D01*
X7685000Y-7405000D02*
X7715000Y-7435000D01*
X7715000Y-7405000D02*
X7685000Y-7435000D01*
X7710000Y-8985000D02*
X7740000Y-9015000D01*
X7740000Y-8985000D02*
X7710000Y-9015000D01*
X7745000Y-7465000D02*
X7775000Y-7495000D01*
X7775000Y-7465000D02*
X7745000Y-7495000D01*
X7780000Y-8640000D02*
X7810000Y-8670000D01*
X7810000Y-8640000D02*
X7780000Y-8670000D01*
X7885000Y-5885000D02*
X7915000Y-5915000D01*
X7915000Y-5885000D02*
X7885000Y-5915000D01*
X7985000Y-5998500D02*
X8015000Y-6028500D01*
X8015000Y-5998500D02*
X7985000Y-6028500D01*
X8025000Y-7805000D02*
X8055000Y-7835000D01*
X8055000Y-7805000D02*
X8025000Y-7835000D01*
X8095000Y-4720000D02*
X8125000Y-4750000D01*
X8125000Y-4720000D02*
X8095000Y-4750000D01*
X8135000Y-7210000D02*
X8165000Y-7240000D01*
X8165000Y-7210000D02*
X8135000Y-7240000D01*
X8135000Y-9710000D02*
X8165000Y-9740000D01*
X8165000Y-9710000D02*
X8135000Y-9740000D01*
X8235000Y-7435000D02*
X8265000Y-7465000D01*
X8265000Y-7435000D02*
X8235000Y-7465000D01*
X8255000Y-4795000D02*
X8285000Y-4825000D01*
X8285000Y-4795000D02*
X8255000Y-4825000D01*
X8415000Y-8865000D02*
X8445000Y-8895000D01*
X8445000Y-8865000D02*
X8415000Y-8895000D01*
X8455000Y-9135000D02*
X8485000Y-9165000D01*
X8485000Y-9135000D02*
X8455000Y-9165000D01*
X8915000Y-9345000D02*
X8945000Y-9375000D01*
X8945000Y-9345000D02*
X8915000Y-9375000D01*
X8915000Y-9615000D02*
X8945000Y-9645000D01*
X8945000Y-9615000D02*
X8915000Y-9645000D01*
X8935000Y-9105000D02*
X8965000Y-9135000D01*
X8965000Y-9105000D02*
X8935000Y-9135000D01*
X9015000Y-8075000D02*
X9045000Y-8105000D01*
X9045000Y-8075000D02*
X9015000Y-8105000D01*
X9385000Y-8895000D02*
X9415000Y-8925000D01*
X9415000Y-8895000D02*
X9385000Y-8925000D01*
X9415000Y-9265000D02*
X9445000Y-9295000D01*
X9445000Y-9265000D02*
X9415000Y-9295000D01*
X9635000Y-4935000D02*
X9665000Y-4965000D01*
X9665000Y-4935000D02*
X9635000Y-4965000D01*
X9860000Y-4360000D02*
X9890000Y-4390000D01*
X9890000Y-4360000D02*
X9860000Y-4390000D01*
X10310000Y-3810000D02*
X10340000Y-3840000D01*
X10340000Y-3810000D02*
X10310000Y-3840000D01*
X10715000Y-7675000D02*
X10745000Y-7705000D01*
X10745000Y-7675000D02*
X10715000Y-7705000D01*
X11005000Y-8285000D02*
X11035000Y-8315000D01*
X11035000Y-8285000D02*
X11005000Y-8315000D01*
X11045000Y-4365000D02*
X11075000Y-4395000D01*
X11075000Y-4365000D02*
X11045000Y-4395000D01*
X11585000Y-4360000D02*
X11615000Y-4390000D01*
X11615000Y-4360000D02*
X11585000Y-4390000D01*
X11585000Y-5185000D02*
X11615000Y-5215000D01*
X11615000Y-5185000D02*
X11585000Y-5215000D01*
X12175000Y-4485000D02*
X12205000Y-4515000D01*
X12205000Y-4485000D02*
X12175000Y-4515000D01*
X12235000Y-5485000D02*
X12265000Y-5515000D01*
X12265000Y-5485000D02*
X12235000Y-5515000D01*
X12365000Y-5885000D02*
X12395000Y-5915000D01*
X12395000Y-5885000D02*
X12365000Y-5915000D01*
X12535000Y-4225000D02*
X12565000Y-4255000D01*
X12565000Y-4225000D02*
X12535000Y-4255000D01*
X12535000Y-4685000D02*
X12565000Y-4715000D01*
X12565000Y-4685000D02*
X12535000Y-4715000D01*
X12535000Y-5275000D02*
X12565000Y-5305000D01*
X12565000Y-5275000D02*
X12535000Y-5305000D01*
X12535000Y-5815000D02*
X12565000Y-5845000D01*
X12565000Y-5815000D02*
X12535000Y-5845000D01*
X12535000Y-6305000D02*
X12565000Y-6335000D01*
X12565000Y-6305000D02*
X12535000Y-6335000D01*
X12545000Y-6865000D02*
X12575000Y-6895000D01*
X12575000Y-6865000D02*
X12545000Y-6895000D01*
X12605000Y-3735000D02*
X12635000Y-3765000D01*
X12635000Y-3735000D02*
X12605000Y-3765000D01*
X12835000Y-4685000D02*
X12865000Y-4715000D01*
X12865000Y-4685000D02*
X12835000Y-4715000D01*
X13127500Y-5152500D02*
X13157500Y-5182500D01*
X13157500Y-5152500D02*
X13127500Y-5182500D01*
X13135000Y-4105000D02*
X13165000Y-4135000D01*
X13165000Y-4105000D02*
X13135000Y-4135000D01*
X13135000Y-4605000D02*
X13165000Y-4635000D01*
X13165000Y-4605000D02*
X13135000Y-4635000D01*
X13135000Y-5675000D02*
X13165000Y-5705000D01*
X13165000Y-5675000D02*
X13135000Y-5705000D01*
X13135000Y-6215000D02*
X13165000Y-6245000D01*
X13165000Y-6215000D02*
X13135000Y-6245000D01*
X13147500Y-6742500D02*
X13177500Y-6772500D01*
X13177500Y-6742500D02*
X13147500Y-6772500D01*
X13555000Y-8665000D02*
X13585000Y-8695000D01*
X13585000Y-8665000D02*
X13555000Y-8695000D01*
X14175000Y-3535000D02*
X14205000Y-3565000D01*
X14205000Y-3535000D02*
X14175000Y-3565000D01*
X14175000Y-4635000D02*
X14205000Y-4665000D01*
X14205000Y-4635000D02*
X14175000Y-4665000D01*
X14185000Y-4085000D02*
X14215000Y-4115000D01*
X14215000Y-4085000D02*
X14185000Y-4115000D01*
X14205000Y-5185000D02*
X14235000Y-5215000D01*
X14235000Y-5185000D02*
X14205000Y-5215000D01*
X14205000Y-6285000D02*
X14235000Y-6315000D01*
X14235000Y-6285000D02*
X14205000Y-6315000D01*
X14212500Y-5737500D02*
X14242500Y-5767500D01*
X14242500Y-5737500D02*
X14212500Y-5767500D01*
X14545000Y-3545000D02*
X14575000Y-3575000D01*
X14575000Y-3545000D02*
X14545000Y-3575000D01*
X14985000Y-4545000D02*
X15015000Y-4575000D01*
X15015000Y-4545000D02*
X14985000Y-4575000D01*
X15035000Y-3995000D02*
X15065000Y-4025000D01*
X15065000Y-3995000D02*
X15035000Y-4025000D01*
X15035000Y-5615000D02*
X15065000Y-5645000D01*
X15065000Y-5615000D02*
X15035000Y-5645000D01*
X15045000Y-6155000D02*
X15075000Y-6185000D01*
X15075000Y-6155000D02*
X15045000Y-6185000D01*
X15075000Y-5055000D02*
X15105000Y-5085000D01*
X15105000Y-5055000D02*
X15075000Y-5085000D01*
X15325000Y-8265000D02*
X15355000Y-8295000D01*
X15355000Y-8265000D02*
X15325000Y-8295000D01*
X15755000Y-9485000D02*
X15785000Y-9515000D01*
X15785000Y-9485000D02*
X15755000Y-9515000D01*
X16025000Y-7655000D02*
X16055000Y-7685000D01*
X16055000Y-7655000D02*
X16025000Y-7685000D01*
X16055000Y-7335000D02*
X16085000Y-7365000D01*
X16085000Y-7335000D02*
X16055000Y-7365000D01*
X16395000Y-8255000D02*
X16425000Y-8285000D01*
X16425000Y-8255000D02*
X16395000Y-8285000D01*
X16415000Y-6885000D02*
X16445000Y-6915000D01*
X16445000Y-6885000D02*
X16415000Y-6915000D01*
X16435000Y-9175000D02*
X16465000Y-9205000D01*
X16465000Y-9175000D02*
X16435000Y-9205000D01*
X16655000Y-7435000D02*
X16685000Y-7465000D01*
X16685000Y-7435000D02*
X16655000Y-7465000D01*
X16695000Y-9215000D02*
X16725000Y-9245000D01*
X16725000Y-9215000D02*
X16695000Y-9245000D01*
X16975000Y-8715000D02*
X17005000Y-8745000D01*
X17005000Y-8715000D02*
X16975000Y-8745000D01*
X17045000Y-7735000D02*
X17075000Y-7765000D01*
X17075000Y-7735000D02*
X17045000Y-7765000D01*
X17135000Y-9075000D02*
X17165000Y-9105000D01*
X17165000Y-9075000D02*
X17135000Y-9105000D01*
X17215000Y-7605000D02*
X17245000Y-7635000D01*
X17245000Y-7605000D02*
X17215000Y-7635000D01*
X17245000Y-8865000D02*
X17275000Y-8895000D01*
X17275000Y-8865000D02*
X17245000Y-8895000D01*
X17415000Y-8245000D02*
X17445000Y-8275000D01*
X17445000Y-8245000D02*
X17415000Y-8275000D01*
X17475000Y-3845000D02*
X17505000Y-3875000D01*
X17505000Y-3845000D02*
X17475000Y-3875000D01*
X17540000Y-7730000D02*
X17570000Y-7760000D01*
X17570000Y-7730000D02*
X17540000Y-7760000D01*
X17580000Y-7380000D02*
X17610000Y-7410000D01*
X17610000Y-7380000D02*
X17580000Y-7410000D01*
X17585000Y-8960000D02*
X17615000Y-8990000D01*
X17615000Y-8960000D02*
X17585000Y-8990000D01*
X17625000Y-6665000D02*
X17655000Y-6695000D01*
X17655000Y-6665000D02*
X17625000Y-6695000D01*
X17655000Y-7995000D02*
X17685000Y-8025000D01*
X17685000Y-7995000D02*
X17655000Y-8025000D01*
X17685000Y-8555000D02*
X17715000Y-8585000D01*
X17715000Y-8555000D02*
X17685000Y-8585000D01*
X17693609Y-8455000D02*
X17723609Y-8485000D01*
X17723609Y-8455000D02*
X17693609Y-8485000D01*
X17747500Y-7715000D02*
X17777500Y-7745000D01*
X17777500Y-7715000D02*
X17747500Y-7745000D01*
X17775000Y-8215000D02*
X17805000Y-8245000D01*
X17805000Y-8215000D02*
X17775000Y-8245000D01*
X17810000Y-8485000D02*
X17840000Y-8515000D01*
X17840000Y-8485000D02*
X17810000Y-8515000D01*
X17835000Y-6745000D02*
X17865000Y-6775000D01*
X17865000Y-6745000D02*
X17835000Y-6775000D01*
X17865000Y-4365000D02*
X17895000Y-4395000D01*
X17895000Y-4365000D02*
X17865000Y-4395000D01*
X17895000Y-7915000D02*
X17925000Y-7945000D01*
X17925000Y-7915000D02*
X17895000Y-7945000D01*
X17935000Y-4275000D02*
X17965000Y-4305000D01*
X17965000Y-4275000D02*
X17935000Y-4305000D01*
X17955000Y-7865000D02*
X17985000Y-7895000D01*
X17985000Y-7865000D02*
X17955000Y-7895000D01*
X17965000Y-8495000D02*
X17995000Y-8525000D01*
X17995000Y-8495000D02*
X17965000Y-8525000D01*
X18005000Y-7745000D02*
X18035000Y-7775000D01*
X18035000Y-7745000D02*
X18005000Y-7775000D01*
X18015000Y-6825000D02*
X18045000Y-6855000D01*
X18045000Y-6825000D02*
X18015000Y-6855000D01*
X18035000Y-8325000D02*
X18065000Y-8355000D01*
X18065000Y-8325000D02*
X18035000Y-8355000D01*
X18105000Y-8495000D02*
X18135000Y-8525000D01*
X18135000Y-8495000D02*
X18105000Y-8525000D01*
X18165000Y-8525000D02*
X18195000Y-8555000D01*
X18195000Y-8525000D02*
X18165000Y-8555000D01*
X18185000Y-6985000D02*
X18215000Y-7015000D01*
X18215000Y-6985000D02*
X18185000Y-7015000D01*
X18235000Y-8515000D02*
X18265000Y-8545000D01*
X18265000Y-8515000D02*
X18235000Y-8545000D01*
X18455000Y-7195000D02*
X18485000Y-7225000D01*
X18485000Y-7195000D02*
X18455000Y-7225000D01*
X18535000Y-8255000D02*
X18565000Y-8285000D01*
X18565000Y-8255000D02*
X18535000Y-8285000D01*
X18665000Y-7535000D02*
X18695000Y-7565000D01*
X18695000Y-7535000D02*
X18665000Y-7565000D01*
X18705000Y-9295000D02*
X18735000Y-9325000D01*
X18735000Y-9295000D02*
X18705000Y-9325000D01*
X18715000Y-8755000D02*
X18745000Y-8785000D01*
X18745000Y-8755000D02*
X18715000Y-8785000D01*
X18795000Y-4685000D02*
X18825000Y-4715000D01*
X18825000Y-4685000D02*
X18795000Y-4715000D01*
X18960000Y-8410000D02*
X18990000Y-8440000D01*
X18990000Y-8410000D02*
X18960000Y-8440000D01*
X19195000Y-8565000D02*
X19225000Y-8595000D01*
X19225000Y-8565000D02*
X19195000Y-8595000D01*
X19635000Y-8065000D02*
X19665000Y-8095000D01*
X19665000Y-8065000D02*
X19635000Y-8095000D01*
X19735000Y-8135000D02*
X19765000Y-8165000D01*
X19765000Y-8135000D02*
X19735000Y-8165000D01*
X20315000Y-5695000D02*
X20345000Y-5725000D01*
X20345000Y-5695000D02*
X20315000Y-5725000D01*
X6973095Y-6807000D02*
G75*
G02*
X6893095Y-6807000I-40000J0D01*
G01*
X6893095Y-6807000D02*
G75*
G02*
X6973095Y-6807000I40000J0D01*
G01*
X6973095Y-7007000D02*
G75*
G02*
X6893095Y-7007000I-40000J0D01*
G01*
X6893095Y-7007000D02*
G75*
G02*
X6973095Y-7007000I40000J0D01*
G01*
X6973095Y-7207000D02*
G75*
G02*
X6893095Y-7207000I-40000J0D01*
G01*
X6893095Y-7207000D02*
G75*
G02*
X6973095Y-7207000I40000J0D01*
G01*
X6973095Y-7407000D02*
G75*
G02*
X6893095Y-7407000I-40000J0D01*
G01*
X6893095Y-7407000D02*
G75*
G02*
X6973095Y-7407000I40000J0D01*
G01*
X6973095Y-7607000D02*
G75*
G02*
X6893095Y-7607000I-40000J0D01*
G01*
X6893095Y-7607000D02*
G75*
G02*
X6973095Y-7607000I40000J0D01*
G01*
X6973095Y-7807000D02*
G75*
G02*
X6893095Y-7807000I-40000J0D01*
G01*
X6893095Y-7807000D02*
G75*
G02*
X6973095Y-7807000I40000J0D01*
G01*
X6973095Y-8007000D02*
G75*
G02*
X6893095Y-8007000I-40000J0D01*
G01*
X6893095Y-8007000D02*
G75*
G02*
X6973095Y-8007000I40000J0D01*
G01*
X6973095Y-8207000D02*
G75*
G02*
X6893095Y-8207000I-40000J0D01*
G01*
X6893095Y-8207000D02*
G75*
G02*
X6973095Y-8207000I40000J0D01*
G01*
X6973095Y-8407000D02*
G75*
G02*
X6893095Y-8407000I-40000J0D01*
G01*
X6893095Y-8407000D02*
G75*
G02*
X6973095Y-8407000I40000J0D01*
G01*
X6973095Y-8607000D02*
G75*
G02*
X6893095Y-8607000I-40000J0D01*
G01*
X6893095Y-8607000D02*
G75*
G02*
X6973095Y-8607000I40000J0D01*
G01*
X6973095Y-8807000D02*
G75*
G02*
X6893095Y-8807000I-40000J0D01*
G01*
X6893095Y-8807000D02*
G75*
G02*
X6973095Y-8807000I40000J0D01*
G01*
X6973095Y-9007000D02*
G75*
G02*
X6893095Y-9007000I-40000J0D01*
G01*
X6893095Y-9007000D02*
G75*
G02*
X6973095Y-9007000I40000J0D01*
G01*
X6973095Y-9207000D02*
G75*
G02*
X6893095Y-9207000I-40000J0D01*
G01*
X6893095Y-9207000D02*
G75*
G02*
X6973095Y-9207000I40000J0D01*
G01*
X7918200Y-10255000D02*
X7918200Y-10345000D01*
X7873200Y-10300000D02*
X7963200Y-10300000D01*
X8134100Y-10255000D02*
X8134100Y-10345000D01*
X8089100Y-10300000D02*
X8179100Y-10300000D01*
X8350000Y-10255000D02*
X8350000Y-10345000D01*
X8305000Y-10300000D02*
X8395000Y-10300000D01*
X8565900Y-10255000D02*
X8565900Y-10345000D01*
X8520900Y-10300000D02*
X8610900Y-10300000D01*
X6460356Y-10222856D02*
X6460356Y-10152144D01*
X6389644Y-10152144D01*
X6389644Y-10222856D01*
X6460356Y-10222856D01*
X6714356Y-10222856D02*
X6714356Y-10152144D01*
X6643644Y-10152144D01*
X6643644Y-10222856D01*
X6714356Y-10222856D01*
X7260356Y-10222856D02*
X7260356Y-10152144D01*
X7189644Y-10152144D01*
X7189644Y-10222856D01*
X7260356Y-10222856D01*
X7514356Y-10222856D02*
X7514356Y-10152144D01*
X7443644Y-10152144D01*
X7443644Y-10222856D01*
X7514356Y-10222856D01*
X13133356Y-10335356D02*
X13133356Y-10264644D01*
X13062644Y-10264644D01*
X13062644Y-10335356D01*
X13133356Y-10335356D01*
X13387356Y-10335356D02*
X13387356Y-10264644D01*
X13316644Y-10264644D01*
X13316644Y-10335356D01*
X13387356Y-10335356D01*
X13641356Y-10335356D02*
X13641356Y-10264644D01*
X13570644Y-10264644D01*
X13570644Y-10335356D01*
X13641356Y-10335356D01*
X13895356Y-10335356D02*
X13895356Y-10264644D01*
X13824644Y-10264644D01*
X13824644Y-10335356D01*
X13895356Y-10335356D01*
X14149356Y-10335356D02*
X14149356Y-10264644D01*
X14078644Y-10264644D01*
X14078644Y-10335356D01*
X14149356Y-10335356D01*
X14403356Y-10335356D02*
X14403356Y-10264644D01*
X14332644Y-10264644D01*
X14332644Y-10335356D01*
X14403356Y-10335356D01*
X14657356Y-10335356D02*
X14657356Y-10264644D01*
X14586644Y-10264644D01*
X14586644Y-10335356D01*
X14657356Y-10335356D01*
X14685356Y-8005356D02*
X14685356Y-7934644D01*
X14614644Y-7934644D01*
X14614644Y-8005356D01*
X14685356Y-8005356D01*
X14911356Y-10335356D02*
X14911356Y-10264644D01*
X14840644Y-10264644D01*
X14840644Y-10335356D01*
X14911356Y-10335356D01*
X14939356Y-8005356D02*
X14939356Y-7934644D01*
X14868644Y-7934644D01*
X14868644Y-8005356D01*
X14939356Y-8005356D01*
X15165356Y-10335356D02*
X15165356Y-10264644D01*
X15094644Y-10264644D01*
X15094644Y-10335356D01*
X15165356Y-10335356D01*
X15193356Y-8005356D02*
X15193356Y-7934644D01*
X15122644Y-7934644D01*
X15122644Y-8005356D01*
X15193356Y-8005356D01*
X15419356Y-10335356D02*
X15419356Y-10264644D01*
X15348644Y-10264644D01*
X15348644Y-10335356D01*
X15419356Y-10335356D01*
X15447356Y-8005356D02*
X15447356Y-7934644D01*
X15376644Y-7934644D01*
X15376644Y-8005356D01*
X15447356Y-8005356D01*
X15673356Y-10335356D02*
X15673356Y-10264644D01*
X15602644Y-10264644D01*
X15602644Y-10335356D01*
X15673356Y-10335356D01*
X15701356Y-8005356D02*
X15701356Y-7934644D01*
X15630644Y-7934644D01*
X15630644Y-8005356D01*
X15701356Y-8005356D01*
X15927356Y-10335356D02*
X15927356Y-10264644D01*
X15856644Y-10264644D01*
X15856644Y-10335356D01*
X15927356Y-10335356D01*
X15955356Y-8005356D02*
X15955356Y-7934644D01*
X15884644Y-7934644D01*
X15884644Y-8005356D01*
X15955356Y-8005356D01*
X16181356Y-10335356D02*
X16181356Y-10264644D01*
X16110644Y-10264644D01*
X16110644Y-10335356D01*
X16181356Y-10335356D01*
X16435356Y-10335356D02*
X16435356Y-10264644D01*
X16364644Y-10264644D01*
X16364644Y-10335356D01*
X16435356Y-10335356D01*
X16689356Y-10335356D02*
X16689356Y-10264644D01*
X16618644Y-10264644D01*
X16618644Y-10335356D01*
X16689356Y-10335356D01*
X16943356Y-10335356D02*
X16943356Y-10264644D01*
X16872644Y-10264644D01*
X16872644Y-10335356D01*
X16943356Y-10335356D01*
X17197356Y-10335356D02*
X17197356Y-10264644D01*
X17126644Y-10264644D01*
X17126644Y-10335356D01*
X17197356Y-10335356D01*
X17451356Y-10335356D02*
X17451356Y-10264644D01*
X17380644Y-10264644D01*
X17380644Y-10335356D01*
X17451356Y-10335356D01*
X17705356Y-10335356D02*
X17705356Y-10264644D01*
X17634644Y-10264644D01*
X17634644Y-10335356D01*
X17705356Y-10335356D01*
X17959356Y-10335356D02*
X17959356Y-10264644D01*
X17888644Y-10264644D01*
X17888644Y-10335356D01*
X17959356Y-10335356D01*
D13*
X9700000Y-8705000D02*
X9755000Y-8650000D01*
X9700000Y-8595000D01*
X9645000Y-8650000D01*
X9700000Y-8705000D01*
X9700000Y-9155000D02*
X9755000Y-9100000D01*
X9700000Y-9045000D01*
X9645000Y-9100000D01*
X9700000Y-9155000D01*
X10350000Y-8705000D02*
X10405000Y-8650000D01*
X10350000Y-8595000D01*
X10295000Y-8650000D01*
X10350000Y-8705000D01*
X10350000Y-9155000D02*
X10405000Y-9100000D01*
X10350000Y-9045000D01*
X10295000Y-9100000D01*
X10350000Y-9155000D01*
X20750000Y-8505000D02*
X20805000Y-8450000D01*
X20750000Y-8395000D01*
X20695000Y-8450000D01*
X20750000Y-8505000D01*
X20750000Y-8955000D02*
X20805000Y-8900000D01*
X20750000Y-8845000D01*
X20695000Y-8900000D01*
X20750000Y-8955000D01*
X21400000Y-8505000D02*
X21455000Y-8450000D01*
X21400000Y-8395000D01*
X21345000Y-8450000D01*
X21400000Y-8505000D01*
X21400000Y-8955000D02*
X21455000Y-8900000D01*
X21400000Y-8845000D01*
X21345000Y-8900000D01*
X21400000Y-8955000D01*
D14*
X5435000Y-4185000D02*
X5565000Y-4315000D01*
X5565000Y-4185000D02*
X5435000Y-4315000D01*
X5565000Y-4250000D02*
G75*
G02*
X5435000Y-4250000I-65000J0D01*
G01*
X5435000Y-4250000D02*
G75*
G02*
X5565000Y-4250000I65000J0D01*
G01*
X5900000Y-4185000D02*
X6030000Y-4315000D01*
X6030000Y-4185000D02*
X5900000Y-4315000D01*
X6030000Y-4250000D02*
G75*
G02*
X5900000Y-4250000I-65000J0D01*
G01*
X5900000Y-4250000D02*
G75*
G02*
X6030000Y-4250000I65000J0D01*
G01*
X9590000Y-6535000D02*
X9720000Y-6665000D01*
X9720000Y-6535000D02*
X9590000Y-6665000D01*
X9720000Y-6600000D02*
G75*
G02*
X9590000Y-6600000I-65000J0D01*
G01*
X9590000Y-6600000D02*
G75*
G02*
X9720000Y-6600000I65000J0D01*
G01*
X9590000Y-7985000D02*
X9720000Y-8115000D01*
X9720000Y-7985000D02*
X9590000Y-8115000D01*
X9720000Y-8050000D02*
G75*
G02*
X9590000Y-8050000I-65000J0D01*
G01*
X9590000Y-8050000D02*
G75*
G02*
X9720000Y-8050000I65000J0D01*
G01*
X9840000Y-7985000D02*
X9970000Y-8115000D01*
X9970000Y-7985000D02*
X9840000Y-8115000D01*
X9970000Y-8050000D02*
G75*
G02*
X9840000Y-8050000I-65000J0D01*
G01*
X9840000Y-8050000D02*
G75*
G02*
X9970000Y-8050000I65000J0D01*
G01*
X10090000Y-6535000D02*
X10220000Y-6665000D01*
X10220000Y-6535000D02*
X10090000Y-6665000D01*
X10220000Y-6600000D02*
G75*
G02*
X10090000Y-6600000I-65000J0D01*
G01*
X10090000Y-6600000D02*
G75*
G02*
X10220000Y-6600000I65000J0D01*
G01*
X10090000Y-7985000D02*
X10220000Y-8115000D01*
X10220000Y-7985000D02*
X10090000Y-8115000D01*
X10220000Y-8050000D02*
G75*
G02*
X10090000Y-8050000I-65000J0D01*
G01*
X10090000Y-8050000D02*
G75*
G02*
X10220000Y-8050000I65000J0D01*
G01*
X16860000Y-5135000D02*
X16990000Y-5265000D01*
X16990000Y-5135000D02*
X16860000Y-5265000D01*
X16990000Y-5200000D02*
G75*
G02*
X16860000Y-5200000I-65000J0D01*
G01*
X16860000Y-5200000D02*
G75*
G02*
X16990000Y-5200000I65000J0D01*
G01*
X17385000Y-5135000D02*
X17515000Y-5265000D01*
X17515000Y-5135000D02*
X17385000Y-5265000D01*
X17515000Y-5200000D02*
G75*
G02*
X17385000Y-5200000I-65000J0D01*
G01*
X17385000Y-5200000D02*
G75*
G02*
X17515000Y-5200000I65000J0D01*
G01*
X18995000Y-3625000D02*
X19125000Y-3755000D01*
X19125000Y-3625000D02*
X18995000Y-3755000D01*
X19125000Y-3690000D02*
G75*
G02*
X18995000Y-3690000I-65000J0D01*
G01*
X18995000Y-3690000D02*
G75*
G02*
X19125000Y-3690000I65000J0D01*
G01*
X18995000Y-4115000D02*
X19125000Y-4245000D01*
X19125000Y-4115000D02*
X18995000Y-4245000D01*
X19125000Y-4180000D02*
G75*
G02*
X18995000Y-4180000I-65000J0D01*
G01*
X18995000Y-4180000D02*
G75*
G02*
X19125000Y-4180000I65000J0D01*
G01*
X20285000Y-3485000D02*
X20415000Y-3615000D01*
X20415000Y-3485000D02*
X20285000Y-3615000D01*
X20415000Y-3550000D02*
G75*
G02*
X20285000Y-3550000I-65000J0D01*
G01*
X20285000Y-3550000D02*
G75*
G02*
X20415000Y-3550000I65000J0D01*
G01*
X20285000Y-3985000D02*
X20415000Y-4115000D01*
X20415000Y-3985000D02*
X20285000Y-4115000D01*
X20415000Y-4050000D02*
G75*
G02*
X20285000Y-4050000I-65000J0D01*
G01*
X20285000Y-4050000D02*
G75*
G02*
X20415000Y-4050000I65000J0D01*
G01*
X20570000Y-5135000D02*
X20700000Y-5265000D01*
X20700000Y-5135000D02*
X20570000Y-5265000D01*
X20700000Y-5200000D02*
G75*
G02*
X20570000Y-5200000I-65000J0D01*
G01*
X20570000Y-5200000D02*
G75*
G02*
X20700000Y-5200000I65000J0D01*
G01*
X21035000Y-5135000D02*
X21165000Y-5265000D01*
X21165000Y-5135000D02*
X21035000Y-5265000D01*
X21165000Y-5200000D02*
G75*
G02*
X21035000Y-5200000I-65000J0D01*
G01*
X21035000Y-5200000D02*
G75*
G02*
X21165000Y-5200000I65000J0D01*
G01*
D15*
X20757500Y-6517500D02*
X20922500Y-6682500D01*
X20922500Y-6517500D02*
X20757500Y-6682500D01*
X20840000Y-6517500D02*
X20840000Y-6682500D01*
X20757500Y-6600000D02*
X20922500Y-6600000D01*
X21017500Y-6517500D02*
X21182500Y-6682500D01*
X21182500Y-6517500D02*
X21017500Y-6682500D01*
X21100000Y-6517500D02*
X21100000Y-6682500D01*
X21017500Y-6600000D02*
X21182500Y-6600000D01*
X21277500Y-6517500D02*
X21442500Y-6682500D01*
X21442500Y-6517500D02*
X21277500Y-6682500D01*
X21360000Y-6517500D02*
X21360000Y-6682500D01*
X21277500Y-6600000D02*
X21442500Y-6600000D01*
D11*
X9330000Y-7200000D02*
X9530000Y-7400000D01*
X9530000Y-7200000D02*
X9330000Y-7400000D01*
X9500711Y-7370711D02*
X9500711Y-7229289D01*
X9359289Y-7229289D01*
X9359289Y-7370711D01*
X9500711Y-7370711D01*
D12*
X9530000Y-7315000D02*
X9530000Y-7285000D01*
X9330000Y-7285000D02*
G75*
G02*
X9530000Y-7285000I100000J0D01*
G01*
X9330000Y-7285000D02*
X9330000Y-7315000D01*
X9330000Y-7315000D02*
G75*
G03*
X9530000Y-7315000I100000J0D01*
G01*
D11*
X10280000Y-7200000D02*
X10480000Y-7400000D01*
X10480000Y-7200000D02*
X10280000Y-7400000D01*
X10450711Y-7370711D02*
X10450711Y-7229289D01*
X10309289Y-7229289D01*
X10309289Y-7370711D01*
X10450711Y-7370711D01*
D12*
X10480000Y-7315000D02*
X10480000Y-7285000D01*
X10280000Y-7285000D02*
G75*
G02*
X10480000Y-7285000I100000J0D01*
G01*
X10280000Y-7285000D02*
X10280000Y-7315000D01*
X10280000Y-7315000D02*
G75*
G03*
X10480000Y-7315000I100000J0D01*
G01*
D16*
X5525000Y-4765000D02*
X5975000Y-5215000D01*
X5975000Y-4765000D02*
X5525000Y-5215000D01*
X5750000Y-5215000D02*
X5975000Y-4990000D01*
X5750000Y-4765000D01*
X5525000Y-4990000D01*
X5750000Y-5215000D01*
X5525000Y-5485000D02*
X5975000Y-5935000D01*
X5975000Y-5485000D02*
X5525000Y-5935000D01*
X5750000Y-5935000D02*
X5975000Y-5710000D01*
X5750000Y-5485000D01*
X5525000Y-5710000D01*
X5750000Y-5935000D01*
X5678095Y-6485000D02*
X6128095Y-6935000D01*
X6128095Y-6485000D02*
X5678095Y-6935000D01*
X5903095Y-6935000D02*
X6128095Y-6710000D01*
X5903095Y-6485000D01*
X5678095Y-6710000D01*
X5903095Y-6935000D01*
X5678095Y-9065000D02*
X6128095Y-9515000D01*
X6128095Y-9065000D02*
X5678095Y-9515000D01*
X5903095Y-9515000D02*
X6128095Y-9290000D01*
X5903095Y-9065000D01*
X5678095Y-9290000D01*
X5903095Y-9515000D01*
D11*
X5258277Y-11313984D02*
X5258277Y-11113984D01*
X5258277Y-11113984D02*
X5305896Y-11113984D01*
X5305896Y-11113984D02*
X5334467Y-11123508D01*
X5334467Y-11123508D02*
X5353515Y-11142555D01*
X5353515Y-11142555D02*
X5363039Y-11161603D01*
X5363039Y-11161603D02*
X5372563Y-11199698D01*
X5372563Y-11199698D02*
X5372563Y-11228269D01*
X5372563Y-11228269D02*
X5363039Y-11266365D01*
X5363039Y-11266365D02*
X5353515Y-11285412D01*
X5353515Y-11285412D02*
X5334467Y-11304460D01*
X5334467Y-11304460D02*
X5305896Y-11313984D01*
X5305896Y-11313984D02*
X5258277Y-11313984D01*
X5458277Y-11313984D02*
X5458277Y-11180650D01*
X5458277Y-11218746D02*
X5467801Y-11199698D01*
X5467801Y-11199698D02*
X5477324Y-11190174D01*
X5477324Y-11190174D02*
X5496372Y-11180650D01*
X5496372Y-11180650D02*
X5515420Y-11180650D01*
X5582086Y-11313984D02*
X5582086Y-11180650D01*
X5582086Y-11113984D02*
X5572563Y-11123508D01*
X5572563Y-11123508D02*
X5582086Y-11133031D01*
X5582086Y-11133031D02*
X5591610Y-11123508D01*
X5591610Y-11123508D02*
X5582086Y-11113984D01*
X5582086Y-11113984D02*
X5582086Y-11133031D01*
X5705896Y-11313984D02*
X5686848Y-11304460D01*
X5686848Y-11304460D02*
X5677324Y-11285412D01*
X5677324Y-11285412D02*
X5677324Y-11113984D01*
X5810658Y-11313984D02*
X5791610Y-11304460D01*
X5791610Y-11304460D02*
X5782086Y-11285412D01*
X5782086Y-11285412D02*
X5782086Y-11113984D01*
X6039229Y-11313984D02*
X6039229Y-11113984D01*
X6039229Y-11113984D02*
X6105896Y-11256841D01*
X6105896Y-11256841D02*
X6172562Y-11113984D01*
X6172562Y-11113984D02*
X6172562Y-11313984D01*
X6353515Y-11313984D02*
X6353515Y-11209222D01*
X6353515Y-11209222D02*
X6343991Y-11190174D01*
X6343991Y-11190174D02*
X6324943Y-11180650D01*
X6324943Y-11180650D02*
X6286848Y-11180650D01*
X6286848Y-11180650D02*
X6267801Y-11190174D01*
X6353515Y-11304460D02*
X6334467Y-11313984D01*
X6334467Y-11313984D02*
X6286848Y-11313984D01*
X6286848Y-11313984D02*
X6267801Y-11304460D01*
X6267801Y-11304460D02*
X6258277Y-11285412D01*
X6258277Y-11285412D02*
X6258277Y-11266365D01*
X6258277Y-11266365D02*
X6267801Y-11247317D01*
X6267801Y-11247317D02*
X6286848Y-11237793D01*
X6286848Y-11237793D02*
X6334467Y-11237793D01*
X6334467Y-11237793D02*
X6353515Y-11228269D01*
X6448753Y-11180650D02*
X6448753Y-11380650D01*
X6448753Y-11190174D02*
X6467801Y-11180650D01*
X6467801Y-11180650D02*
X6505896Y-11180650D01*
X6505896Y-11180650D02*
X6524943Y-11190174D01*
X6524943Y-11190174D02*
X6534467Y-11199698D01*
X6534467Y-11199698D02*
X6543991Y-11218746D01*
X6543991Y-11218746D02*
X6543991Y-11275888D01*
X6543991Y-11275888D02*
X6534467Y-11294936D01*
X6534467Y-11294936D02*
X6524943Y-11304460D01*
X6524943Y-11304460D02*
X6505896Y-11313984D01*
X6505896Y-11313984D02*
X6467801Y-11313984D01*
X6467801Y-11313984D02*
X6448753Y-11304460D01*
X6629705Y-11294936D02*
X6639229Y-11304460D01*
X6639229Y-11304460D02*
X6629705Y-11313984D01*
X6629705Y-11313984D02*
X6620182Y-11304460D01*
X6620182Y-11304460D02*
X6629705Y-11294936D01*
X6629705Y-11294936D02*
X6629705Y-11313984D01*
X6629705Y-11190174D02*
X6639229Y-11199698D01*
X6639229Y-11199698D02*
X6629705Y-11209222D01*
X6629705Y-11209222D02*
X6620182Y-11199698D01*
X6620182Y-11199698D02*
X6629705Y-11190174D01*
X6629705Y-11190174D02*
X6629705Y-11209222D01*
D12*
X4967500Y-11627500D02*
X4997500Y-11657500D01*
X4997500Y-11627500D02*
X4967500Y-11657500D01*
D11*
X5296372Y-11533984D02*
X5315420Y-11533984D01*
X5315420Y-11533984D02*
X5334467Y-11543508D01*
X5334467Y-11543508D02*
X5343991Y-11553031D01*
X5343991Y-11553031D02*
X5353515Y-11572079D01*
X5353515Y-11572079D02*
X5363039Y-11610174D01*
X5363039Y-11610174D02*
X5363039Y-11657793D01*
X5363039Y-11657793D02*
X5353515Y-11695888D01*
X5353515Y-11695888D02*
X5343991Y-11714936D01*
X5343991Y-11714936D02*
X5334467Y-11724460D01*
X5334467Y-11724460D02*
X5315420Y-11733984D01*
X5315420Y-11733984D02*
X5296372Y-11733984D01*
X5296372Y-11733984D02*
X5277324Y-11724460D01*
X5277324Y-11724460D02*
X5267801Y-11714936D01*
X5267801Y-11714936D02*
X5258277Y-11695888D01*
X5258277Y-11695888D02*
X5248753Y-11657793D01*
X5248753Y-11657793D02*
X5248753Y-11610174D01*
X5248753Y-11610174D02*
X5258277Y-11572079D01*
X5258277Y-11572079D02*
X5267801Y-11553031D01*
X5267801Y-11553031D02*
X5277324Y-11543508D01*
X5277324Y-11543508D02*
X5296372Y-11533984D01*
X5448753Y-11714936D02*
X5458277Y-11724460D01*
X5458277Y-11724460D02*
X5448753Y-11733984D01*
X5448753Y-11733984D02*
X5439229Y-11724460D01*
X5439229Y-11724460D02*
X5448753Y-11714936D01*
X5448753Y-11714936D02*
X5448753Y-11733984D01*
X5524944Y-11533984D02*
X5648753Y-11533984D01*
X5648753Y-11533984D02*
X5582086Y-11610174D01*
X5582086Y-11610174D02*
X5610658Y-11610174D01*
X5610658Y-11610174D02*
X5629705Y-11619698D01*
X5629705Y-11619698D02*
X5639229Y-11629222D01*
X5639229Y-11629222D02*
X5648753Y-11648269D01*
X5648753Y-11648269D02*
X5648753Y-11695888D01*
X5648753Y-11695888D02*
X5639229Y-11714936D01*
X5639229Y-11714936D02*
X5629705Y-11724460D01*
X5629705Y-11724460D02*
X5610658Y-11733984D01*
X5610658Y-11733984D02*
X5553515Y-11733984D01*
X5553515Y-11733984D02*
X5534467Y-11724460D01*
X5534467Y-11724460D02*
X5524944Y-11714936D01*
X5772562Y-11533984D02*
X5791610Y-11533984D01*
X5791610Y-11533984D02*
X5810658Y-11543508D01*
X5810658Y-11543508D02*
X5820182Y-11553031D01*
X5820182Y-11553031D02*
X5829705Y-11572079D01*
X5829705Y-11572079D02*
X5839229Y-11610174D01*
X5839229Y-11610174D02*
X5839229Y-11657793D01*
X5839229Y-11657793D02*
X5829705Y-11695888D01*
X5829705Y-11695888D02*
X5820182Y-11714936D01*
X5820182Y-11714936D02*
X5810658Y-11724460D01*
X5810658Y-11724460D02*
X5791610Y-11733984D01*
X5791610Y-11733984D02*
X5772562Y-11733984D01*
X5772562Y-11733984D02*
X5753515Y-11724460D01*
X5753515Y-11724460D02*
X5743991Y-11714936D01*
X5743991Y-11714936D02*
X5734467Y-11695888D01*
X5734467Y-11695888D02*
X5724943Y-11657793D01*
X5724943Y-11657793D02*
X5724943Y-11610174D01*
X5724943Y-11610174D02*
X5734467Y-11572079D01*
X5734467Y-11572079D02*
X5743991Y-11553031D01*
X5743991Y-11553031D02*
X5753515Y-11543508D01*
X5753515Y-11543508D02*
X5772562Y-11533984D01*
X5963039Y-11533984D02*
X5982086Y-11533984D01*
X5982086Y-11533984D02*
X6001134Y-11543508D01*
X6001134Y-11543508D02*
X6010658Y-11553031D01*
X6010658Y-11553031D02*
X6020182Y-11572079D01*
X6020182Y-11572079D02*
X6029705Y-11610174D01*
X6029705Y-11610174D02*
X6029705Y-11657793D01*
X6029705Y-11657793D02*
X6020182Y-11695888D01*
X6020182Y-11695888D02*
X6010658Y-11714936D01*
X6010658Y-11714936D02*
X6001134Y-11724460D01*
X6001134Y-11724460D02*
X5982086Y-11733984D01*
X5982086Y-11733984D02*
X5963039Y-11733984D01*
X5963039Y-11733984D02*
X5943991Y-11724460D01*
X5943991Y-11724460D02*
X5934467Y-11714936D01*
X5934467Y-11714936D02*
X5924943Y-11695888D01*
X5924943Y-11695888D02*
X5915420Y-11657793D01*
X5915420Y-11657793D02*
X5915420Y-11610174D01*
X5915420Y-11610174D02*
X5924943Y-11572079D01*
X5924943Y-11572079D02*
X5934467Y-11553031D01*
X5934467Y-11553031D02*
X5943991Y-11543508D01*
X5943991Y-11543508D02*
X5963039Y-11533984D01*
X6115420Y-11733984D02*
X6115420Y-11600650D01*
X6115420Y-11619698D02*
X6124943Y-11610174D01*
X6124943Y-11610174D02*
X6143991Y-11600650D01*
X6143991Y-11600650D02*
X6172563Y-11600650D01*
X6172563Y-11600650D02*
X6191610Y-11610174D01*
X6191610Y-11610174D02*
X6201134Y-11629222D01*
X6201134Y-11629222D02*
X6201134Y-11733984D01*
X6201134Y-11629222D02*
X6210658Y-11610174D01*
X6210658Y-11610174D02*
X6229705Y-11600650D01*
X6229705Y-11600650D02*
X6258277Y-11600650D01*
X6258277Y-11600650D02*
X6277324Y-11610174D01*
X6277324Y-11610174D02*
X6286848Y-11629222D01*
X6286848Y-11629222D02*
X6286848Y-11733984D01*
X6382086Y-11733984D02*
X6382086Y-11600650D01*
X6382086Y-11619698D02*
X6391610Y-11610174D01*
X6391610Y-11610174D02*
X6410658Y-11600650D01*
X6410658Y-11600650D02*
X6439229Y-11600650D01*
X6439229Y-11600650D02*
X6458277Y-11610174D01*
X6458277Y-11610174D02*
X6467801Y-11629222D01*
X6467801Y-11629222D02*
X6467801Y-11733984D01*
X6467801Y-11629222D02*
X6477324Y-11610174D01*
X6477324Y-11610174D02*
X6496372Y-11600650D01*
X6496372Y-11600650D02*
X6524943Y-11600650D01*
X6524943Y-11600650D02*
X6543991Y-11610174D01*
X6543991Y-11610174D02*
X6553515Y-11629222D01*
X6553515Y-11629222D02*
X6553515Y-11733984D01*
X6943991Y-11524460D02*
X6772563Y-11781603D01*
X7201134Y-11533984D02*
X7220182Y-11533984D01*
X7220182Y-11533984D02*
X7239229Y-11543508D01*
X7239229Y-11543508D02*
X7248753Y-11553031D01*
X7248753Y-11553031D02*
X7258277Y-11572079D01*
X7258277Y-11572079D02*
X7267801Y-11610174D01*
X7267801Y-11610174D02*
X7267801Y-11657793D01*
X7267801Y-11657793D02*
X7258277Y-11695888D01*
X7258277Y-11695888D02*
X7248753Y-11714936D01*
X7248753Y-11714936D02*
X7239229Y-11724460D01*
X7239229Y-11724460D02*
X7220182Y-11733984D01*
X7220182Y-11733984D02*
X7201134Y-11733984D01*
X7201134Y-11733984D02*
X7182086Y-11724460D01*
X7182086Y-11724460D02*
X7172563Y-11714936D01*
X7172563Y-11714936D02*
X7163039Y-11695888D01*
X7163039Y-11695888D02*
X7153515Y-11657793D01*
X7153515Y-11657793D02*
X7153515Y-11610174D01*
X7153515Y-11610174D02*
X7163039Y-11572079D01*
X7163039Y-11572079D02*
X7172563Y-11553031D01*
X7172563Y-11553031D02*
X7182086Y-11543508D01*
X7182086Y-11543508D02*
X7201134Y-11533984D01*
X7353515Y-11714936D02*
X7363039Y-11724460D01*
X7363039Y-11724460D02*
X7353515Y-11733984D01*
X7353515Y-11733984D02*
X7343991Y-11724460D01*
X7343991Y-11724460D02*
X7353515Y-11714936D01*
X7353515Y-11714936D02*
X7353515Y-11733984D01*
X7486848Y-11533984D02*
X7505896Y-11533984D01*
X7505896Y-11533984D02*
X7524944Y-11543508D01*
X7524944Y-11543508D02*
X7534467Y-11553031D01*
X7534467Y-11553031D02*
X7543991Y-11572079D01*
X7543991Y-11572079D02*
X7553515Y-11610174D01*
X7553515Y-11610174D02*
X7553515Y-11657793D01*
X7553515Y-11657793D02*
X7543991Y-11695888D01*
X7543991Y-11695888D02*
X7534467Y-11714936D01*
X7534467Y-11714936D02*
X7524944Y-11724460D01*
X7524944Y-11724460D02*
X7505896Y-11733984D01*
X7505896Y-11733984D02*
X7486848Y-11733984D01*
X7486848Y-11733984D02*
X7467801Y-11724460D01*
X7467801Y-11724460D02*
X7458277Y-11714936D01*
X7458277Y-11714936D02*
X7448753Y-11695888D01*
X7448753Y-11695888D02*
X7439229Y-11657793D01*
X7439229Y-11657793D02*
X7439229Y-11610174D01*
X7439229Y-11610174D02*
X7448753Y-11572079D01*
X7448753Y-11572079D02*
X7458277Y-11553031D01*
X7458277Y-11553031D02*
X7467801Y-11543508D01*
X7467801Y-11543508D02*
X7486848Y-11533984D01*
X7743991Y-11733984D02*
X7629706Y-11733984D01*
X7686848Y-11733984D02*
X7686848Y-11533984D01*
X7686848Y-11533984D02*
X7667801Y-11562555D01*
X7667801Y-11562555D02*
X7648753Y-11581603D01*
X7648753Y-11581603D02*
X7629706Y-11591127D01*
X7934467Y-11733984D02*
X7820182Y-11733984D01*
X7877325Y-11733984D02*
X7877325Y-11533984D01*
X7877325Y-11533984D02*
X7858277Y-11562555D01*
X7858277Y-11562555D02*
X7839229Y-11581603D01*
X7839229Y-11581603D02*
X7820182Y-11591127D01*
X8048753Y-11619698D02*
X8029706Y-11610174D01*
X8029706Y-11610174D02*
X8020182Y-11600650D01*
X8020182Y-11600650D02*
X8010658Y-11581603D01*
X8010658Y-11581603D02*
X8010658Y-11572079D01*
X8010658Y-11572079D02*
X8020182Y-11553031D01*
X8020182Y-11553031D02*
X8029706Y-11543508D01*
X8029706Y-11543508D02*
X8048753Y-11533984D01*
X8048753Y-11533984D02*
X8086848Y-11533984D01*
X8086848Y-11533984D02*
X8105896Y-11543508D01*
X8105896Y-11543508D02*
X8115420Y-11553031D01*
X8115420Y-11553031D02*
X8124944Y-11572079D01*
X8124944Y-11572079D02*
X8124944Y-11581603D01*
X8124944Y-11581603D02*
X8115420Y-11600650D01*
X8115420Y-11600650D02*
X8105896Y-11610174D01*
X8105896Y-11610174D02*
X8086848Y-11619698D01*
X8086848Y-11619698D02*
X8048753Y-11619698D01*
X8048753Y-11619698D02*
X8029706Y-11629222D01*
X8029706Y-11629222D02*
X8020182Y-11638746D01*
X8020182Y-11638746D02*
X8010658Y-11657793D01*
X8010658Y-11657793D02*
X8010658Y-11695888D01*
X8010658Y-11695888D02*
X8020182Y-11714936D01*
X8020182Y-11714936D02*
X8029706Y-11724460D01*
X8029706Y-11724460D02*
X8048753Y-11733984D01*
X8048753Y-11733984D02*
X8086848Y-11733984D01*
X8086848Y-11733984D02*
X8105896Y-11724460D01*
X8105896Y-11724460D02*
X8115420Y-11714936D01*
X8115420Y-11714936D02*
X8124944Y-11695888D01*
X8124944Y-11695888D02*
X8124944Y-11657793D01*
X8124944Y-11657793D02*
X8115420Y-11638746D01*
X8115420Y-11638746D02*
X8105896Y-11629222D01*
X8105896Y-11629222D02*
X8086848Y-11619698D01*
X8201134Y-11533984D02*
X8201134Y-11572079D01*
X8277325Y-11533984D02*
X8277325Y-11572079D01*
X8572563Y-11810174D02*
X8563039Y-11800650D01*
X8563039Y-11800650D02*
X8543991Y-11772079D01*
X8543991Y-11772079D02*
X8534468Y-11753031D01*
X8534468Y-11753031D02*
X8524944Y-11724460D01*
X8524944Y-11724460D02*
X8515420Y-11676841D01*
X8515420Y-11676841D02*
X8515420Y-11638746D01*
X8515420Y-11638746D02*
X8524944Y-11591127D01*
X8524944Y-11591127D02*
X8534468Y-11562555D01*
X8534468Y-11562555D02*
X8543991Y-11543508D01*
X8543991Y-11543508D02*
X8563039Y-11514936D01*
X8563039Y-11514936D02*
X8572563Y-11505412D01*
X8753515Y-11733984D02*
X8639230Y-11733984D01*
X8696372Y-11733984D02*
X8696372Y-11533984D01*
X8696372Y-11533984D02*
X8677325Y-11562555D01*
X8677325Y-11562555D02*
X8658277Y-11581603D01*
X8658277Y-11581603D02*
X8639230Y-11591127D01*
X8943991Y-11733984D02*
X8829706Y-11733984D01*
X8886849Y-11733984D02*
X8886849Y-11533984D01*
X8886849Y-11533984D02*
X8867801Y-11562555D01*
X8867801Y-11562555D02*
X8848753Y-11581603D01*
X8848753Y-11581603D02*
X8829706Y-11591127D01*
X9010658Y-11533984D02*
X9134468Y-11533984D01*
X9134468Y-11533984D02*
X9067801Y-11610174D01*
X9067801Y-11610174D02*
X9096372Y-11610174D01*
X9096372Y-11610174D02*
X9115420Y-11619698D01*
X9115420Y-11619698D02*
X9124944Y-11629222D01*
X9124944Y-11629222D02*
X9134468Y-11648269D01*
X9134468Y-11648269D02*
X9134468Y-11695888D01*
X9134468Y-11695888D02*
X9124944Y-11714936D01*
X9124944Y-11714936D02*
X9115420Y-11724460D01*
X9115420Y-11724460D02*
X9096372Y-11733984D01*
X9096372Y-11733984D02*
X9039230Y-11733984D01*
X9039230Y-11733984D02*
X9020182Y-11724460D01*
X9020182Y-11724460D02*
X9010658Y-11714936D01*
X9372563Y-11733984D02*
X9372563Y-11533984D01*
X9458277Y-11733984D02*
X9458277Y-11629222D01*
X9458277Y-11629222D02*
X9448753Y-11610174D01*
X9448753Y-11610174D02*
X9429706Y-11600650D01*
X9429706Y-11600650D02*
X9401134Y-11600650D01*
X9401134Y-11600650D02*
X9382087Y-11610174D01*
X9382087Y-11610174D02*
X9372563Y-11619698D01*
X9582087Y-11733984D02*
X9563039Y-11724460D01*
X9563039Y-11724460D02*
X9553515Y-11714936D01*
X9553515Y-11714936D02*
X9543992Y-11695888D01*
X9543992Y-11695888D02*
X9543992Y-11638746D01*
X9543992Y-11638746D02*
X9553515Y-11619698D01*
X9553515Y-11619698D02*
X9563039Y-11610174D01*
X9563039Y-11610174D02*
X9582087Y-11600650D01*
X9582087Y-11600650D02*
X9610658Y-11600650D01*
X9610658Y-11600650D02*
X9629706Y-11610174D01*
X9629706Y-11610174D02*
X9639230Y-11619698D01*
X9639230Y-11619698D02*
X9648753Y-11638746D01*
X9648753Y-11638746D02*
X9648753Y-11695888D01*
X9648753Y-11695888D02*
X9639230Y-11714936D01*
X9639230Y-11714936D02*
X9629706Y-11724460D01*
X9629706Y-11724460D02*
X9610658Y-11733984D01*
X9610658Y-11733984D02*
X9582087Y-11733984D01*
X9763039Y-11733984D02*
X9743992Y-11724460D01*
X9743992Y-11724460D02*
X9734468Y-11705412D01*
X9734468Y-11705412D02*
X9734468Y-11533984D01*
X9915420Y-11724460D02*
X9896373Y-11733984D01*
X9896373Y-11733984D02*
X9858277Y-11733984D01*
X9858277Y-11733984D02*
X9839230Y-11724460D01*
X9839230Y-11724460D02*
X9829706Y-11705412D01*
X9829706Y-11705412D02*
X9829706Y-11629222D01*
X9829706Y-11629222D02*
X9839230Y-11610174D01*
X9839230Y-11610174D02*
X9858277Y-11600650D01*
X9858277Y-11600650D02*
X9896373Y-11600650D01*
X9896373Y-11600650D02*
X9915420Y-11610174D01*
X9915420Y-11610174D02*
X9924944Y-11629222D01*
X9924944Y-11629222D02*
X9924944Y-11648269D01*
X9924944Y-11648269D02*
X9829706Y-11667317D01*
X10001134Y-11724460D02*
X10020182Y-11733984D01*
X10020182Y-11733984D02*
X10058277Y-11733984D01*
X10058277Y-11733984D02*
X10077325Y-11724460D01*
X10077325Y-11724460D02*
X10086849Y-11705412D01*
X10086849Y-11705412D02*
X10086849Y-11695888D01*
X10086849Y-11695888D02*
X10077325Y-11676841D01*
X10077325Y-11676841D02*
X10058277Y-11667317D01*
X10058277Y-11667317D02*
X10029706Y-11667317D01*
X10029706Y-11667317D02*
X10010658Y-11657793D01*
X10010658Y-11657793D02*
X10001134Y-11638746D01*
X10001134Y-11638746D02*
X10001134Y-11629222D01*
X10001134Y-11629222D02*
X10010658Y-11610174D01*
X10010658Y-11610174D02*
X10029706Y-11600650D01*
X10029706Y-11600650D02*
X10058277Y-11600650D01*
X10058277Y-11600650D02*
X10077325Y-11610174D01*
X10153515Y-11810174D02*
X10163039Y-11800650D01*
X10163039Y-11800650D02*
X10182087Y-11772079D01*
X10182087Y-11772079D02*
X10191611Y-11753031D01*
X10191611Y-11753031D02*
X10201134Y-11724460D01*
X10201134Y-11724460D02*
X10210658Y-11676841D01*
X10210658Y-11676841D02*
X10210658Y-11638746D01*
X10210658Y-11638746D02*
X10201134Y-11591127D01*
X10201134Y-11591127D02*
X10191611Y-11562555D01*
X10191611Y-11562555D02*
X10182087Y-11543508D01*
X10182087Y-11543508D02*
X10163039Y-11514936D01*
X10163039Y-11514936D02*
X10153515Y-11505412D01*
D12*
X4997500Y-11906500D02*
G75*
G02*
X4917500Y-11906500I-40000J0D01*
G01*
X4917500Y-11906500D02*
G75*
G02*
X4997500Y-11906500I40000J0D01*
G01*
D11*
X5296372Y-11797984D02*
X5315420Y-11797984D01*
X5315420Y-11797984D02*
X5334467Y-11807508D01*
X5334467Y-11807508D02*
X5343991Y-11817031D01*
X5343991Y-11817031D02*
X5353515Y-11836079D01*
X5353515Y-11836079D02*
X5363039Y-11874174D01*
X5363039Y-11874174D02*
X5363039Y-11921793D01*
X5363039Y-11921793D02*
X5353515Y-11959888D01*
X5353515Y-11959888D02*
X5343991Y-11978936D01*
X5343991Y-11978936D02*
X5334467Y-11988460D01*
X5334467Y-11988460D02*
X5315420Y-11997984D01*
X5315420Y-11997984D02*
X5296372Y-11997984D01*
X5296372Y-11997984D02*
X5277324Y-11988460D01*
X5277324Y-11988460D02*
X5267801Y-11978936D01*
X5267801Y-11978936D02*
X5258277Y-11959888D01*
X5258277Y-11959888D02*
X5248753Y-11921793D01*
X5248753Y-11921793D02*
X5248753Y-11874174D01*
X5248753Y-11874174D02*
X5258277Y-11836079D01*
X5258277Y-11836079D02*
X5267801Y-11817031D01*
X5267801Y-11817031D02*
X5277324Y-11807508D01*
X5277324Y-11807508D02*
X5296372Y-11797984D01*
X5448753Y-11978936D02*
X5458277Y-11988460D01*
X5458277Y-11988460D02*
X5448753Y-11997984D01*
X5448753Y-11997984D02*
X5439229Y-11988460D01*
X5439229Y-11988460D02*
X5448753Y-11978936D01*
X5448753Y-11978936D02*
X5448753Y-11997984D01*
X5572563Y-11883698D02*
X5553515Y-11874174D01*
X5553515Y-11874174D02*
X5543991Y-11864650D01*
X5543991Y-11864650D02*
X5534467Y-11845603D01*
X5534467Y-11845603D02*
X5534467Y-11836079D01*
X5534467Y-11836079D02*
X5543991Y-11817031D01*
X5543991Y-11817031D02*
X5553515Y-11807508D01*
X5553515Y-11807508D02*
X5572563Y-11797984D01*
X5572563Y-11797984D02*
X5610658Y-11797984D01*
X5610658Y-11797984D02*
X5629705Y-11807508D01*
X5629705Y-11807508D02*
X5639229Y-11817031D01*
X5639229Y-11817031D02*
X5648753Y-11836079D01*
X5648753Y-11836079D02*
X5648753Y-11845603D01*
X5648753Y-11845603D02*
X5639229Y-11864650D01*
X5639229Y-11864650D02*
X5629705Y-11874174D01*
X5629705Y-11874174D02*
X5610658Y-11883698D01*
X5610658Y-11883698D02*
X5572563Y-11883698D01*
X5572563Y-11883698D02*
X5553515Y-11893222D01*
X5553515Y-11893222D02*
X5543991Y-11902746D01*
X5543991Y-11902746D02*
X5534467Y-11921793D01*
X5534467Y-11921793D02*
X5534467Y-11959888D01*
X5534467Y-11959888D02*
X5543991Y-11978936D01*
X5543991Y-11978936D02*
X5553515Y-11988460D01*
X5553515Y-11988460D02*
X5572563Y-11997984D01*
X5572563Y-11997984D02*
X5610658Y-11997984D01*
X5610658Y-11997984D02*
X5629705Y-11988460D01*
X5629705Y-11988460D02*
X5639229Y-11978936D01*
X5639229Y-11978936D02*
X5648753Y-11959888D01*
X5648753Y-11959888D02*
X5648753Y-11921793D01*
X5648753Y-11921793D02*
X5639229Y-11902746D01*
X5639229Y-11902746D02*
X5629705Y-11893222D01*
X5629705Y-11893222D02*
X5610658Y-11883698D01*
X5772562Y-11797984D02*
X5791610Y-11797984D01*
X5791610Y-11797984D02*
X5810658Y-11807508D01*
X5810658Y-11807508D02*
X5820182Y-11817031D01*
X5820182Y-11817031D02*
X5829705Y-11836079D01*
X5829705Y-11836079D02*
X5839229Y-11874174D01*
X5839229Y-11874174D02*
X5839229Y-11921793D01*
X5839229Y-11921793D02*
X5829705Y-11959888D01*
X5829705Y-11959888D02*
X5820182Y-11978936D01*
X5820182Y-11978936D02*
X5810658Y-11988460D01*
X5810658Y-11988460D02*
X5791610Y-11997984D01*
X5791610Y-11997984D02*
X5772562Y-11997984D01*
X5772562Y-11997984D02*
X5753515Y-11988460D01*
X5753515Y-11988460D02*
X5743991Y-11978936D01*
X5743991Y-11978936D02*
X5734467Y-11959888D01*
X5734467Y-11959888D02*
X5724943Y-11921793D01*
X5724943Y-11921793D02*
X5724943Y-11874174D01*
X5724943Y-11874174D02*
X5734467Y-11836079D01*
X5734467Y-11836079D02*
X5743991Y-11817031D01*
X5743991Y-11817031D02*
X5753515Y-11807508D01*
X5753515Y-11807508D02*
X5772562Y-11797984D01*
X5963039Y-11797984D02*
X5982086Y-11797984D01*
X5982086Y-11797984D02*
X6001134Y-11807508D01*
X6001134Y-11807508D02*
X6010658Y-11817031D01*
X6010658Y-11817031D02*
X6020182Y-11836079D01*
X6020182Y-11836079D02*
X6029705Y-11874174D01*
X6029705Y-11874174D02*
X6029705Y-11921793D01*
X6029705Y-11921793D02*
X6020182Y-11959888D01*
X6020182Y-11959888D02*
X6010658Y-11978936D01*
X6010658Y-11978936D02*
X6001134Y-11988460D01*
X6001134Y-11988460D02*
X5982086Y-11997984D01*
X5982086Y-11997984D02*
X5963039Y-11997984D01*
X5963039Y-11997984D02*
X5943991Y-11988460D01*
X5943991Y-11988460D02*
X5934467Y-11978936D01*
X5934467Y-11978936D02*
X5924943Y-11959888D01*
X5924943Y-11959888D02*
X5915420Y-11921793D01*
X5915420Y-11921793D02*
X5915420Y-11874174D01*
X5915420Y-11874174D02*
X5924943Y-11836079D01*
X5924943Y-11836079D02*
X5934467Y-11817031D01*
X5934467Y-11817031D02*
X5943991Y-11807508D01*
X5943991Y-11807508D02*
X5963039Y-11797984D01*
X6115420Y-11997984D02*
X6115420Y-11864650D01*
X6115420Y-11883698D02*
X6124943Y-11874174D01*
X6124943Y-11874174D02*
X6143991Y-11864650D01*
X6143991Y-11864650D02*
X6172563Y-11864650D01*
X6172563Y-11864650D02*
X6191610Y-11874174D01*
X6191610Y-11874174D02*
X6201134Y-11893222D01*
X6201134Y-11893222D02*
X6201134Y-11997984D01*
X6201134Y-11893222D02*
X6210658Y-11874174D01*
X6210658Y-11874174D02*
X6229705Y-11864650D01*
X6229705Y-11864650D02*
X6258277Y-11864650D01*
X6258277Y-11864650D02*
X6277324Y-11874174D01*
X6277324Y-11874174D02*
X6286848Y-11893222D01*
X6286848Y-11893222D02*
X6286848Y-11997984D01*
X6382086Y-11997984D02*
X6382086Y-11864650D01*
X6382086Y-11883698D02*
X6391610Y-11874174D01*
X6391610Y-11874174D02*
X6410658Y-11864650D01*
X6410658Y-11864650D02*
X6439229Y-11864650D01*
X6439229Y-11864650D02*
X6458277Y-11874174D01*
X6458277Y-11874174D02*
X6467801Y-11893222D01*
X6467801Y-11893222D02*
X6467801Y-11997984D01*
X6467801Y-11893222D02*
X6477324Y-11874174D01*
X6477324Y-11874174D02*
X6496372Y-11864650D01*
X6496372Y-11864650D02*
X6524943Y-11864650D01*
X6524943Y-11864650D02*
X6543991Y-11874174D01*
X6543991Y-11874174D02*
X6553515Y-11893222D01*
X6553515Y-11893222D02*
X6553515Y-11997984D01*
X6943991Y-11788460D02*
X6772563Y-12045603D01*
X7201134Y-11797984D02*
X7220182Y-11797984D01*
X7220182Y-11797984D02*
X7239229Y-11807508D01*
X7239229Y-11807508D02*
X7248753Y-11817031D01*
X7248753Y-11817031D02*
X7258277Y-11836079D01*
X7258277Y-11836079D02*
X7267801Y-11874174D01*
X7267801Y-11874174D02*
X7267801Y-11921793D01*
X7267801Y-11921793D02*
X7258277Y-11959888D01*
X7258277Y-11959888D02*
X7248753Y-11978936D01*
X7248753Y-11978936D02*
X7239229Y-11988460D01*
X7239229Y-11988460D02*
X7220182Y-11997984D01*
X7220182Y-11997984D02*
X7201134Y-11997984D01*
X7201134Y-11997984D02*
X7182086Y-11988460D01*
X7182086Y-11988460D02*
X7172563Y-11978936D01*
X7172563Y-11978936D02*
X7163039Y-11959888D01*
X7163039Y-11959888D02*
X7153515Y-11921793D01*
X7153515Y-11921793D02*
X7153515Y-11874174D01*
X7153515Y-11874174D02*
X7163039Y-11836079D01*
X7163039Y-11836079D02*
X7172563Y-11817031D01*
X7172563Y-11817031D02*
X7182086Y-11807508D01*
X7182086Y-11807508D02*
X7201134Y-11797984D01*
X7353515Y-11978936D02*
X7363039Y-11988460D01*
X7363039Y-11988460D02*
X7353515Y-11997984D01*
X7353515Y-11997984D02*
X7343991Y-11988460D01*
X7343991Y-11988460D02*
X7353515Y-11978936D01*
X7353515Y-11978936D02*
X7353515Y-11997984D01*
X7486848Y-11797984D02*
X7505896Y-11797984D01*
X7505896Y-11797984D02*
X7524944Y-11807508D01*
X7524944Y-11807508D02*
X7534467Y-11817031D01*
X7534467Y-11817031D02*
X7543991Y-11836079D01*
X7543991Y-11836079D02*
X7553515Y-11874174D01*
X7553515Y-11874174D02*
X7553515Y-11921793D01*
X7553515Y-11921793D02*
X7543991Y-11959888D01*
X7543991Y-11959888D02*
X7534467Y-11978936D01*
X7534467Y-11978936D02*
X7524944Y-11988460D01*
X7524944Y-11988460D02*
X7505896Y-11997984D01*
X7505896Y-11997984D02*
X7486848Y-11997984D01*
X7486848Y-11997984D02*
X7467801Y-11988460D01*
X7467801Y-11988460D02*
X7458277Y-11978936D01*
X7458277Y-11978936D02*
X7448753Y-11959888D01*
X7448753Y-11959888D02*
X7439229Y-11921793D01*
X7439229Y-11921793D02*
X7439229Y-11874174D01*
X7439229Y-11874174D02*
X7448753Y-11836079D01*
X7448753Y-11836079D02*
X7458277Y-11817031D01*
X7458277Y-11817031D02*
X7467801Y-11807508D01*
X7467801Y-11807508D02*
X7486848Y-11797984D01*
X7620182Y-11797984D02*
X7743991Y-11797984D01*
X7743991Y-11797984D02*
X7677325Y-11874174D01*
X7677325Y-11874174D02*
X7705896Y-11874174D01*
X7705896Y-11874174D02*
X7724944Y-11883698D01*
X7724944Y-11883698D02*
X7734467Y-11893222D01*
X7734467Y-11893222D02*
X7743991Y-11912269D01*
X7743991Y-11912269D02*
X7743991Y-11959888D01*
X7743991Y-11959888D02*
X7734467Y-11978936D01*
X7734467Y-11978936D02*
X7724944Y-11988460D01*
X7724944Y-11988460D02*
X7705896Y-11997984D01*
X7705896Y-11997984D02*
X7648753Y-11997984D01*
X7648753Y-11997984D02*
X7629706Y-11988460D01*
X7629706Y-11988460D02*
X7620182Y-11978936D01*
X7934467Y-11997984D02*
X7820182Y-11997984D01*
X7877325Y-11997984D02*
X7877325Y-11797984D01*
X7877325Y-11797984D02*
X7858277Y-11826555D01*
X7858277Y-11826555D02*
X7839229Y-11845603D01*
X7839229Y-11845603D02*
X7820182Y-11855127D01*
X8115420Y-11797984D02*
X8020182Y-11797984D01*
X8020182Y-11797984D02*
X8010658Y-11893222D01*
X8010658Y-11893222D02*
X8020182Y-11883698D01*
X8020182Y-11883698D02*
X8039229Y-11874174D01*
X8039229Y-11874174D02*
X8086848Y-11874174D01*
X8086848Y-11874174D02*
X8105896Y-11883698D01*
X8105896Y-11883698D02*
X8115420Y-11893222D01*
X8115420Y-11893222D02*
X8124944Y-11912269D01*
X8124944Y-11912269D02*
X8124944Y-11959888D01*
X8124944Y-11959888D02*
X8115420Y-11978936D01*
X8115420Y-11978936D02*
X8105896Y-11988460D01*
X8105896Y-11988460D02*
X8086848Y-11997984D01*
X8086848Y-11997984D02*
X8039229Y-11997984D01*
X8039229Y-11997984D02*
X8020182Y-11988460D01*
X8020182Y-11988460D02*
X8010658Y-11978936D01*
X8201134Y-11797984D02*
X8201134Y-11836079D01*
X8277325Y-11797984D02*
X8277325Y-11836079D01*
X8572563Y-12074174D02*
X8563039Y-12064650D01*
X8563039Y-12064650D02*
X8543991Y-12036079D01*
X8543991Y-12036079D02*
X8534468Y-12017031D01*
X8534468Y-12017031D02*
X8524944Y-11988460D01*
X8524944Y-11988460D02*
X8515420Y-11940841D01*
X8515420Y-11940841D02*
X8515420Y-11902746D01*
X8515420Y-11902746D02*
X8524944Y-11855127D01*
X8524944Y-11855127D02*
X8534468Y-11826555D01*
X8534468Y-11826555D02*
X8543991Y-11807508D01*
X8543991Y-11807508D02*
X8563039Y-11778936D01*
X8563039Y-11778936D02*
X8572563Y-11769412D01*
X8753515Y-11997984D02*
X8639230Y-11997984D01*
X8696372Y-11997984D02*
X8696372Y-11797984D01*
X8696372Y-11797984D02*
X8677325Y-11826555D01*
X8677325Y-11826555D02*
X8658277Y-11845603D01*
X8658277Y-11845603D02*
X8639230Y-11855127D01*
X8820182Y-11797984D02*
X8943991Y-11797984D01*
X8943991Y-11797984D02*
X8877325Y-11874174D01*
X8877325Y-11874174D02*
X8905896Y-11874174D01*
X8905896Y-11874174D02*
X8924944Y-11883698D01*
X8924944Y-11883698D02*
X8934468Y-11893222D01*
X8934468Y-11893222D02*
X8943991Y-11912269D01*
X8943991Y-11912269D02*
X8943991Y-11959888D01*
X8943991Y-11959888D02*
X8934468Y-11978936D01*
X8934468Y-11978936D02*
X8924944Y-11988460D01*
X8924944Y-11988460D02*
X8905896Y-11997984D01*
X8905896Y-11997984D02*
X8848753Y-11997984D01*
X8848753Y-11997984D02*
X8829706Y-11988460D01*
X8829706Y-11988460D02*
X8820182Y-11978936D01*
X9182087Y-11997984D02*
X9182087Y-11797984D01*
X9267801Y-11997984D02*
X9267801Y-11893222D01*
X9267801Y-11893222D02*
X9258277Y-11874174D01*
X9258277Y-11874174D02*
X9239230Y-11864650D01*
X9239230Y-11864650D02*
X9210658Y-11864650D01*
X9210658Y-11864650D02*
X9191611Y-11874174D01*
X9191611Y-11874174D02*
X9182087Y-11883698D01*
X9391611Y-11997984D02*
X9372563Y-11988460D01*
X9372563Y-11988460D02*
X9363039Y-11978936D01*
X9363039Y-11978936D02*
X9353515Y-11959888D01*
X9353515Y-11959888D02*
X9353515Y-11902746D01*
X9353515Y-11902746D02*
X9363039Y-11883698D01*
X9363039Y-11883698D02*
X9372563Y-11874174D01*
X9372563Y-11874174D02*
X9391611Y-11864650D01*
X9391611Y-11864650D02*
X9420182Y-11864650D01*
X9420182Y-11864650D02*
X9439230Y-11874174D01*
X9439230Y-11874174D02*
X9448753Y-11883698D01*
X9448753Y-11883698D02*
X9458277Y-11902746D01*
X9458277Y-11902746D02*
X9458277Y-11959888D01*
X9458277Y-11959888D02*
X9448753Y-11978936D01*
X9448753Y-11978936D02*
X9439230Y-11988460D01*
X9439230Y-11988460D02*
X9420182Y-11997984D01*
X9420182Y-11997984D02*
X9391611Y-11997984D01*
X9572563Y-11997984D02*
X9553515Y-11988460D01*
X9553515Y-11988460D02*
X9543992Y-11969412D01*
X9543992Y-11969412D02*
X9543992Y-11797984D01*
X9724944Y-11988460D02*
X9705896Y-11997984D01*
X9705896Y-11997984D02*
X9667801Y-11997984D01*
X9667801Y-11997984D02*
X9648753Y-11988460D01*
X9648753Y-11988460D02*
X9639230Y-11969412D01*
X9639230Y-11969412D02*
X9639230Y-11893222D01*
X9639230Y-11893222D02*
X9648753Y-11874174D01*
X9648753Y-11874174D02*
X9667801Y-11864650D01*
X9667801Y-11864650D02*
X9705896Y-11864650D01*
X9705896Y-11864650D02*
X9724944Y-11874174D01*
X9724944Y-11874174D02*
X9734468Y-11893222D01*
X9734468Y-11893222D02*
X9734468Y-11912269D01*
X9734468Y-11912269D02*
X9639230Y-11931317D01*
X9810658Y-11988460D02*
X9829706Y-11997984D01*
X9829706Y-11997984D02*
X9867801Y-11997984D01*
X9867801Y-11997984D02*
X9886849Y-11988460D01*
X9886849Y-11988460D02*
X9896373Y-11969412D01*
X9896373Y-11969412D02*
X9896373Y-11959888D01*
X9896373Y-11959888D02*
X9886849Y-11940841D01*
X9886849Y-11940841D02*
X9867801Y-11931317D01*
X9867801Y-11931317D02*
X9839230Y-11931317D01*
X9839230Y-11931317D02*
X9820182Y-11921793D01*
X9820182Y-11921793D02*
X9810658Y-11902746D01*
X9810658Y-11902746D02*
X9810658Y-11893222D01*
X9810658Y-11893222D02*
X9820182Y-11874174D01*
X9820182Y-11874174D02*
X9839230Y-11864650D01*
X9839230Y-11864650D02*
X9867801Y-11864650D01*
X9867801Y-11864650D02*
X9886849Y-11874174D01*
X9963039Y-12074174D02*
X9972563Y-12064650D01*
X9972563Y-12064650D02*
X9991611Y-12036079D01*
X9991611Y-12036079D02*
X10001134Y-12017031D01*
X10001134Y-12017031D02*
X10010658Y-11988460D01*
X10010658Y-11988460D02*
X10020182Y-11940841D01*
X10020182Y-11940841D02*
X10020182Y-11902746D01*
X10020182Y-11902746D02*
X10010658Y-11855127D01*
X10010658Y-11855127D02*
X10001134Y-11826555D01*
X10001134Y-11826555D02*
X9991611Y-11807508D01*
X9991611Y-11807508D02*
X9972563Y-11778936D01*
X9972563Y-11778936D02*
X9963039Y-11769412D01*
D12*
X4952500Y-12125500D02*
X4952500Y-12215500D01*
X4907500Y-12170500D02*
X4997500Y-12170500D01*
D11*
X5296372Y-12061984D02*
X5315420Y-12061984D01*
X5315420Y-12061984D02*
X5334467Y-12071508D01*
X5334467Y-12071508D02*
X5343991Y-12081031D01*
X5343991Y-12081031D02*
X5353515Y-12100079D01*
X5353515Y-12100079D02*
X5363039Y-12138174D01*
X5363039Y-12138174D02*
X5363039Y-12185793D01*
X5363039Y-12185793D02*
X5353515Y-12223888D01*
X5353515Y-12223888D02*
X5343991Y-12242936D01*
X5343991Y-12242936D02*
X5334467Y-12252460D01*
X5334467Y-12252460D02*
X5315420Y-12261984D01*
X5315420Y-12261984D02*
X5296372Y-12261984D01*
X5296372Y-12261984D02*
X5277324Y-12252460D01*
X5277324Y-12252460D02*
X5267801Y-12242936D01*
X5267801Y-12242936D02*
X5258277Y-12223888D01*
X5258277Y-12223888D02*
X5248753Y-12185793D01*
X5248753Y-12185793D02*
X5248753Y-12138174D01*
X5248753Y-12138174D02*
X5258277Y-12100079D01*
X5258277Y-12100079D02*
X5267801Y-12081031D01*
X5267801Y-12081031D02*
X5277324Y-12071508D01*
X5277324Y-12071508D02*
X5296372Y-12061984D01*
X5448753Y-12242936D02*
X5458277Y-12252460D01*
X5458277Y-12252460D02*
X5448753Y-12261984D01*
X5448753Y-12261984D02*
X5439229Y-12252460D01*
X5439229Y-12252460D02*
X5448753Y-12242936D01*
X5448753Y-12242936D02*
X5448753Y-12261984D01*
X5553515Y-12261984D02*
X5591610Y-12261984D01*
X5591610Y-12261984D02*
X5610658Y-12252460D01*
X5610658Y-12252460D02*
X5620182Y-12242936D01*
X5620182Y-12242936D02*
X5639229Y-12214365D01*
X5639229Y-12214365D02*
X5648753Y-12176269D01*
X5648753Y-12176269D02*
X5648753Y-12100079D01*
X5648753Y-12100079D02*
X5639229Y-12081031D01*
X5639229Y-12081031D02*
X5629705Y-12071508D01*
X5629705Y-12071508D02*
X5610658Y-12061984D01*
X5610658Y-12061984D02*
X5572563Y-12061984D01*
X5572563Y-12061984D02*
X5553515Y-12071508D01*
X5553515Y-12071508D02*
X5543991Y-12081031D01*
X5543991Y-12081031D02*
X5534467Y-12100079D01*
X5534467Y-12100079D02*
X5534467Y-12147698D01*
X5534467Y-12147698D02*
X5543991Y-12166746D01*
X5543991Y-12166746D02*
X5553515Y-12176269D01*
X5553515Y-12176269D02*
X5572563Y-12185793D01*
X5572563Y-12185793D02*
X5610658Y-12185793D01*
X5610658Y-12185793D02*
X5629705Y-12176269D01*
X5629705Y-12176269D02*
X5639229Y-12166746D01*
X5639229Y-12166746D02*
X5648753Y-12147698D01*
X5772562Y-12061984D02*
X5791610Y-12061984D01*
X5791610Y-12061984D02*
X5810658Y-12071508D01*
X5810658Y-12071508D02*
X5820182Y-12081031D01*
X5820182Y-12081031D02*
X5829705Y-12100079D01*
X5829705Y-12100079D02*
X5839229Y-12138174D01*
X5839229Y-12138174D02*
X5839229Y-12185793D01*
X5839229Y-12185793D02*
X5829705Y-12223888D01*
X5829705Y-12223888D02*
X5820182Y-12242936D01*
X5820182Y-12242936D02*
X5810658Y-12252460D01*
X5810658Y-12252460D02*
X5791610Y-12261984D01*
X5791610Y-12261984D02*
X5772562Y-12261984D01*
X5772562Y-12261984D02*
X5753515Y-12252460D01*
X5753515Y-12252460D02*
X5743991Y-12242936D01*
X5743991Y-12242936D02*
X5734467Y-12223888D01*
X5734467Y-12223888D02*
X5724943Y-12185793D01*
X5724943Y-12185793D02*
X5724943Y-12138174D01*
X5724943Y-12138174D02*
X5734467Y-12100079D01*
X5734467Y-12100079D02*
X5743991Y-12081031D01*
X5743991Y-12081031D02*
X5753515Y-12071508D01*
X5753515Y-12071508D02*
X5772562Y-12061984D01*
X5963039Y-12061984D02*
X5982086Y-12061984D01*
X5982086Y-12061984D02*
X6001134Y-12071508D01*
X6001134Y-12071508D02*
X6010658Y-12081031D01*
X6010658Y-12081031D02*
X6020182Y-12100079D01*
X6020182Y-12100079D02*
X6029705Y-12138174D01*
X6029705Y-12138174D02*
X6029705Y-12185793D01*
X6029705Y-12185793D02*
X6020182Y-12223888D01*
X6020182Y-12223888D02*
X6010658Y-12242936D01*
X6010658Y-12242936D02*
X6001134Y-12252460D01*
X6001134Y-12252460D02*
X5982086Y-12261984D01*
X5982086Y-12261984D02*
X5963039Y-12261984D01*
X5963039Y-12261984D02*
X5943991Y-12252460D01*
X5943991Y-12252460D02*
X5934467Y-12242936D01*
X5934467Y-12242936D02*
X5924943Y-12223888D01*
X5924943Y-12223888D02*
X5915420Y-12185793D01*
X5915420Y-12185793D02*
X5915420Y-12138174D01*
X5915420Y-12138174D02*
X5924943Y-12100079D01*
X5924943Y-12100079D02*
X5934467Y-12081031D01*
X5934467Y-12081031D02*
X5943991Y-12071508D01*
X5943991Y-12071508D02*
X5963039Y-12061984D01*
X6115420Y-12261984D02*
X6115420Y-12128650D01*
X6115420Y-12147698D02*
X6124943Y-12138174D01*
X6124943Y-12138174D02*
X6143991Y-12128650D01*
X6143991Y-12128650D02*
X6172563Y-12128650D01*
X6172563Y-12128650D02*
X6191610Y-12138174D01*
X6191610Y-12138174D02*
X6201134Y-12157222D01*
X6201134Y-12157222D02*
X6201134Y-12261984D01*
X6201134Y-12157222D02*
X6210658Y-12138174D01*
X6210658Y-12138174D02*
X6229705Y-12128650D01*
X6229705Y-12128650D02*
X6258277Y-12128650D01*
X6258277Y-12128650D02*
X6277324Y-12138174D01*
X6277324Y-12138174D02*
X6286848Y-12157222D01*
X6286848Y-12157222D02*
X6286848Y-12261984D01*
X6382086Y-12261984D02*
X6382086Y-12128650D01*
X6382086Y-12147698D02*
X6391610Y-12138174D01*
X6391610Y-12138174D02*
X6410658Y-12128650D01*
X6410658Y-12128650D02*
X6439229Y-12128650D01*
X6439229Y-12128650D02*
X6458277Y-12138174D01*
X6458277Y-12138174D02*
X6467801Y-12157222D01*
X6467801Y-12157222D02*
X6467801Y-12261984D01*
X6467801Y-12157222D02*
X6477324Y-12138174D01*
X6477324Y-12138174D02*
X6496372Y-12128650D01*
X6496372Y-12128650D02*
X6524943Y-12128650D01*
X6524943Y-12128650D02*
X6543991Y-12138174D01*
X6543991Y-12138174D02*
X6553515Y-12157222D01*
X6553515Y-12157222D02*
X6553515Y-12261984D01*
X6943991Y-12052460D02*
X6772563Y-12309603D01*
X7201134Y-12061984D02*
X7220182Y-12061984D01*
X7220182Y-12061984D02*
X7239229Y-12071508D01*
X7239229Y-12071508D02*
X7248753Y-12081031D01*
X7248753Y-12081031D02*
X7258277Y-12100079D01*
X7258277Y-12100079D02*
X7267801Y-12138174D01*
X7267801Y-12138174D02*
X7267801Y-12185793D01*
X7267801Y-12185793D02*
X7258277Y-12223888D01*
X7258277Y-12223888D02*
X7248753Y-12242936D01*
X7248753Y-12242936D02*
X7239229Y-12252460D01*
X7239229Y-12252460D02*
X7220182Y-12261984D01*
X7220182Y-12261984D02*
X7201134Y-12261984D01*
X7201134Y-12261984D02*
X7182086Y-12252460D01*
X7182086Y-12252460D02*
X7172563Y-12242936D01*
X7172563Y-12242936D02*
X7163039Y-12223888D01*
X7163039Y-12223888D02*
X7153515Y-12185793D01*
X7153515Y-12185793D02*
X7153515Y-12138174D01*
X7153515Y-12138174D02*
X7163039Y-12100079D01*
X7163039Y-12100079D02*
X7172563Y-12081031D01*
X7172563Y-12081031D02*
X7182086Y-12071508D01*
X7182086Y-12071508D02*
X7201134Y-12061984D01*
X7353515Y-12242936D02*
X7363039Y-12252460D01*
X7363039Y-12252460D02*
X7353515Y-12261984D01*
X7353515Y-12261984D02*
X7343991Y-12252460D01*
X7343991Y-12252460D02*
X7353515Y-12242936D01*
X7353515Y-12242936D02*
X7353515Y-12261984D01*
X7486848Y-12061984D02*
X7505896Y-12061984D01*
X7505896Y-12061984D02*
X7524944Y-12071508D01*
X7524944Y-12071508D02*
X7534467Y-12081031D01*
X7534467Y-12081031D02*
X7543991Y-12100079D01*
X7543991Y-12100079D02*
X7553515Y-12138174D01*
X7553515Y-12138174D02*
X7553515Y-12185793D01*
X7553515Y-12185793D02*
X7543991Y-12223888D01*
X7543991Y-12223888D02*
X7534467Y-12242936D01*
X7534467Y-12242936D02*
X7524944Y-12252460D01*
X7524944Y-12252460D02*
X7505896Y-12261984D01*
X7505896Y-12261984D02*
X7486848Y-12261984D01*
X7486848Y-12261984D02*
X7467801Y-12252460D01*
X7467801Y-12252460D02*
X7458277Y-12242936D01*
X7458277Y-12242936D02*
X7448753Y-12223888D01*
X7448753Y-12223888D02*
X7439229Y-12185793D01*
X7439229Y-12185793D02*
X7439229Y-12138174D01*
X7439229Y-12138174D02*
X7448753Y-12100079D01*
X7448753Y-12100079D02*
X7458277Y-12081031D01*
X7458277Y-12081031D02*
X7467801Y-12071508D01*
X7467801Y-12071508D02*
X7486848Y-12061984D01*
X7620182Y-12061984D02*
X7743991Y-12061984D01*
X7743991Y-12061984D02*
X7677325Y-12138174D01*
X7677325Y-12138174D02*
X7705896Y-12138174D01*
X7705896Y-12138174D02*
X7724944Y-12147698D01*
X7724944Y-12147698D02*
X7734467Y-12157222D01*
X7734467Y-12157222D02*
X7743991Y-12176269D01*
X7743991Y-12176269D02*
X7743991Y-12223888D01*
X7743991Y-12223888D02*
X7734467Y-12242936D01*
X7734467Y-12242936D02*
X7724944Y-12252460D01*
X7724944Y-12252460D02*
X7705896Y-12261984D01*
X7705896Y-12261984D02*
X7648753Y-12261984D01*
X7648753Y-12261984D02*
X7629706Y-12252460D01*
X7629706Y-12252460D02*
X7620182Y-12242936D01*
X7924944Y-12061984D02*
X7829706Y-12061984D01*
X7829706Y-12061984D02*
X7820182Y-12157222D01*
X7820182Y-12157222D02*
X7829706Y-12147698D01*
X7829706Y-12147698D02*
X7848753Y-12138174D01*
X7848753Y-12138174D02*
X7896372Y-12138174D01*
X7896372Y-12138174D02*
X7915420Y-12147698D01*
X7915420Y-12147698D02*
X7924944Y-12157222D01*
X7924944Y-12157222D02*
X7934467Y-12176269D01*
X7934467Y-12176269D02*
X7934467Y-12223888D01*
X7934467Y-12223888D02*
X7924944Y-12242936D01*
X7924944Y-12242936D02*
X7915420Y-12252460D01*
X7915420Y-12252460D02*
X7896372Y-12261984D01*
X7896372Y-12261984D02*
X7848753Y-12261984D01*
X7848753Y-12261984D02*
X7829706Y-12252460D01*
X7829706Y-12252460D02*
X7820182Y-12242936D01*
X8105896Y-12128650D02*
X8105896Y-12261984D01*
X8058277Y-12052460D02*
X8010658Y-12195317D01*
X8010658Y-12195317D02*
X8134467Y-12195317D01*
X8201134Y-12061984D02*
X8201134Y-12100079D01*
X8277325Y-12061984D02*
X8277325Y-12100079D01*
X8572563Y-12338174D02*
X8563039Y-12328650D01*
X8563039Y-12328650D02*
X8543991Y-12300079D01*
X8543991Y-12300079D02*
X8534468Y-12281031D01*
X8534468Y-12281031D02*
X8524944Y-12252460D01*
X8524944Y-12252460D02*
X8515420Y-12204841D01*
X8515420Y-12204841D02*
X8515420Y-12166746D01*
X8515420Y-12166746D02*
X8524944Y-12119127D01*
X8524944Y-12119127D02*
X8534468Y-12090555D01*
X8534468Y-12090555D02*
X8543991Y-12071508D01*
X8543991Y-12071508D02*
X8563039Y-12042936D01*
X8563039Y-12042936D02*
X8572563Y-12033412D01*
X8734468Y-12128650D02*
X8734468Y-12261984D01*
X8686849Y-12052460D02*
X8639230Y-12195317D01*
X8639230Y-12195317D02*
X8763039Y-12195317D01*
X8991611Y-12261984D02*
X8991611Y-12061984D01*
X9077325Y-12261984D02*
X9077325Y-12157222D01*
X9077325Y-12157222D02*
X9067801Y-12138174D01*
X9067801Y-12138174D02*
X9048753Y-12128650D01*
X9048753Y-12128650D02*
X9020182Y-12128650D01*
X9020182Y-12128650D02*
X9001134Y-12138174D01*
X9001134Y-12138174D02*
X8991611Y-12147698D01*
X9201134Y-12261984D02*
X9182087Y-12252460D01*
X9182087Y-12252460D02*
X9172563Y-12242936D01*
X9172563Y-12242936D02*
X9163039Y-12223888D01*
X9163039Y-12223888D02*
X9163039Y-12166746D01*
X9163039Y-12166746D02*
X9172563Y-12147698D01*
X9172563Y-12147698D02*
X9182087Y-12138174D01*
X9182087Y-12138174D02*
X9201134Y-12128650D01*
X9201134Y-12128650D02*
X9229706Y-12128650D01*
X9229706Y-12128650D02*
X9248753Y-12138174D01*
X9248753Y-12138174D02*
X9258277Y-12147698D01*
X9258277Y-12147698D02*
X9267801Y-12166746D01*
X9267801Y-12166746D02*
X9267801Y-12223888D01*
X9267801Y-12223888D02*
X9258277Y-12242936D01*
X9258277Y-12242936D02*
X9248753Y-12252460D01*
X9248753Y-12252460D02*
X9229706Y-12261984D01*
X9229706Y-12261984D02*
X9201134Y-12261984D01*
X9382087Y-12261984D02*
X9363039Y-12252460D01*
X9363039Y-12252460D02*
X9353515Y-12233412D01*
X9353515Y-12233412D02*
X9353515Y-12061984D01*
X9534468Y-12252460D02*
X9515420Y-12261984D01*
X9515420Y-12261984D02*
X9477325Y-12261984D01*
X9477325Y-12261984D02*
X9458277Y-12252460D01*
X9458277Y-12252460D02*
X9448753Y-12233412D01*
X9448753Y-12233412D02*
X9448753Y-12157222D01*
X9448753Y-12157222D02*
X9458277Y-12138174D01*
X9458277Y-12138174D02*
X9477325Y-12128650D01*
X9477325Y-12128650D02*
X9515420Y-12128650D01*
X9515420Y-12128650D02*
X9534468Y-12138174D01*
X9534468Y-12138174D02*
X9543992Y-12157222D01*
X9543992Y-12157222D02*
X9543992Y-12176269D01*
X9543992Y-12176269D02*
X9448753Y-12195317D01*
X9620182Y-12252460D02*
X9639230Y-12261984D01*
X9639230Y-12261984D02*
X9677325Y-12261984D01*
X9677325Y-12261984D02*
X9696373Y-12252460D01*
X9696373Y-12252460D02*
X9705896Y-12233412D01*
X9705896Y-12233412D02*
X9705896Y-12223888D01*
X9705896Y-12223888D02*
X9696373Y-12204841D01*
X9696373Y-12204841D02*
X9677325Y-12195317D01*
X9677325Y-12195317D02*
X9648753Y-12195317D01*
X9648753Y-12195317D02*
X9629706Y-12185793D01*
X9629706Y-12185793D02*
X9620182Y-12166746D01*
X9620182Y-12166746D02*
X9620182Y-12157222D01*
X9620182Y-12157222D02*
X9629706Y-12138174D01*
X9629706Y-12138174D02*
X9648753Y-12128650D01*
X9648753Y-12128650D02*
X9677325Y-12128650D01*
X9677325Y-12128650D02*
X9696373Y-12138174D01*
X9772563Y-12338174D02*
X9782087Y-12328650D01*
X9782087Y-12328650D02*
X9801134Y-12300079D01*
X9801134Y-12300079D02*
X9810658Y-12281031D01*
X9810658Y-12281031D02*
X9820182Y-12252460D01*
X9820182Y-12252460D02*
X9829706Y-12204841D01*
X9829706Y-12204841D02*
X9829706Y-12166746D01*
X9829706Y-12166746D02*
X9820182Y-12119127D01*
X9820182Y-12119127D02*
X9810658Y-12090555D01*
X9810658Y-12090555D02*
X9801134Y-12071508D01*
X9801134Y-12071508D02*
X9782087Y-12042936D01*
X9782087Y-12042936D02*
X9772563Y-12033412D01*
D12*
X4982856Y-12469856D02*
X4982856Y-12399144D01*
X4912144Y-12399144D01*
X4912144Y-12469856D01*
X4982856Y-12469856D01*
D11*
X5363039Y-12525984D02*
X5248753Y-12525984D01*
X5305896Y-12525984D02*
X5305896Y-12325984D01*
X5305896Y-12325984D02*
X5286848Y-12354555D01*
X5286848Y-12354555D02*
X5267801Y-12373603D01*
X5267801Y-12373603D02*
X5248753Y-12383127D01*
X5448753Y-12506936D02*
X5458277Y-12516460D01*
X5458277Y-12516460D02*
X5448753Y-12525984D01*
X5448753Y-12525984D02*
X5439229Y-12516460D01*
X5439229Y-12516460D02*
X5448753Y-12506936D01*
X5448753Y-12506936D02*
X5448753Y-12525984D01*
X5582086Y-12325984D02*
X5601134Y-12325984D01*
X5601134Y-12325984D02*
X5620182Y-12335508D01*
X5620182Y-12335508D02*
X5629705Y-12345031D01*
X5629705Y-12345031D02*
X5639229Y-12364079D01*
X5639229Y-12364079D02*
X5648753Y-12402174D01*
X5648753Y-12402174D02*
X5648753Y-12449793D01*
X5648753Y-12449793D02*
X5639229Y-12487888D01*
X5639229Y-12487888D02*
X5629705Y-12506936D01*
X5629705Y-12506936D02*
X5620182Y-12516460D01*
X5620182Y-12516460D02*
X5601134Y-12525984D01*
X5601134Y-12525984D02*
X5582086Y-12525984D01*
X5582086Y-12525984D02*
X5563039Y-12516460D01*
X5563039Y-12516460D02*
X5553515Y-12506936D01*
X5553515Y-12506936D02*
X5543991Y-12487888D01*
X5543991Y-12487888D02*
X5534467Y-12449793D01*
X5534467Y-12449793D02*
X5534467Y-12402174D01*
X5534467Y-12402174D02*
X5543991Y-12364079D01*
X5543991Y-12364079D02*
X5553515Y-12345031D01*
X5553515Y-12345031D02*
X5563039Y-12335508D01*
X5563039Y-12335508D02*
X5582086Y-12325984D01*
X5772562Y-12325984D02*
X5791610Y-12325984D01*
X5791610Y-12325984D02*
X5810658Y-12335508D01*
X5810658Y-12335508D02*
X5820182Y-12345031D01*
X5820182Y-12345031D02*
X5829705Y-12364079D01*
X5829705Y-12364079D02*
X5839229Y-12402174D01*
X5839229Y-12402174D02*
X5839229Y-12449793D01*
X5839229Y-12449793D02*
X5829705Y-12487888D01*
X5829705Y-12487888D02*
X5820182Y-12506936D01*
X5820182Y-12506936D02*
X5810658Y-12516460D01*
X5810658Y-12516460D02*
X5791610Y-12525984D01*
X5791610Y-12525984D02*
X5772562Y-12525984D01*
X5772562Y-12525984D02*
X5753515Y-12516460D01*
X5753515Y-12516460D02*
X5743991Y-12506936D01*
X5743991Y-12506936D02*
X5734467Y-12487888D01*
X5734467Y-12487888D02*
X5724943Y-12449793D01*
X5724943Y-12449793D02*
X5724943Y-12402174D01*
X5724943Y-12402174D02*
X5734467Y-12364079D01*
X5734467Y-12364079D02*
X5743991Y-12345031D01*
X5743991Y-12345031D02*
X5753515Y-12335508D01*
X5753515Y-12335508D02*
X5772562Y-12325984D01*
X5963039Y-12325984D02*
X5982086Y-12325984D01*
X5982086Y-12325984D02*
X6001134Y-12335508D01*
X6001134Y-12335508D02*
X6010658Y-12345031D01*
X6010658Y-12345031D02*
X6020182Y-12364079D01*
X6020182Y-12364079D02*
X6029705Y-12402174D01*
X6029705Y-12402174D02*
X6029705Y-12449793D01*
X6029705Y-12449793D02*
X6020182Y-12487888D01*
X6020182Y-12487888D02*
X6010658Y-12506936D01*
X6010658Y-12506936D02*
X6001134Y-12516460D01*
X6001134Y-12516460D02*
X5982086Y-12525984D01*
X5982086Y-12525984D02*
X5963039Y-12525984D01*
X5963039Y-12525984D02*
X5943991Y-12516460D01*
X5943991Y-12516460D02*
X5934467Y-12506936D01*
X5934467Y-12506936D02*
X5924943Y-12487888D01*
X5924943Y-12487888D02*
X5915420Y-12449793D01*
X5915420Y-12449793D02*
X5915420Y-12402174D01*
X5915420Y-12402174D02*
X5924943Y-12364079D01*
X5924943Y-12364079D02*
X5934467Y-12345031D01*
X5934467Y-12345031D02*
X5943991Y-12335508D01*
X5943991Y-12335508D02*
X5963039Y-12325984D01*
X6115420Y-12525984D02*
X6115420Y-12392650D01*
X6115420Y-12411698D02*
X6124943Y-12402174D01*
X6124943Y-12402174D02*
X6143991Y-12392650D01*
X6143991Y-12392650D02*
X6172563Y-12392650D01*
X6172563Y-12392650D02*
X6191610Y-12402174D01*
X6191610Y-12402174D02*
X6201134Y-12421222D01*
X6201134Y-12421222D02*
X6201134Y-12525984D01*
X6201134Y-12421222D02*
X6210658Y-12402174D01*
X6210658Y-12402174D02*
X6229705Y-12392650D01*
X6229705Y-12392650D02*
X6258277Y-12392650D01*
X6258277Y-12392650D02*
X6277324Y-12402174D01*
X6277324Y-12402174D02*
X6286848Y-12421222D01*
X6286848Y-12421222D02*
X6286848Y-12525984D01*
X6382086Y-12525984D02*
X6382086Y-12392650D01*
X6382086Y-12411698D02*
X6391610Y-12402174D01*
X6391610Y-12402174D02*
X6410658Y-12392650D01*
X6410658Y-12392650D02*
X6439229Y-12392650D01*
X6439229Y-12392650D02*
X6458277Y-12402174D01*
X6458277Y-12402174D02*
X6467801Y-12421222D01*
X6467801Y-12421222D02*
X6467801Y-12525984D01*
X6467801Y-12421222D02*
X6477324Y-12402174D01*
X6477324Y-12402174D02*
X6496372Y-12392650D01*
X6496372Y-12392650D02*
X6524943Y-12392650D01*
X6524943Y-12392650D02*
X6543991Y-12402174D01*
X6543991Y-12402174D02*
X6553515Y-12421222D01*
X6553515Y-12421222D02*
X6553515Y-12525984D01*
X6943991Y-12316460D02*
X6772563Y-12573603D01*
X7201134Y-12325984D02*
X7220182Y-12325984D01*
X7220182Y-12325984D02*
X7239229Y-12335508D01*
X7239229Y-12335508D02*
X7248753Y-12345031D01*
X7248753Y-12345031D02*
X7258277Y-12364079D01*
X7258277Y-12364079D02*
X7267801Y-12402174D01*
X7267801Y-12402174D02*
X7267801Y-12449793D01*
X7267801Y-12449793D02*
X7258277Y-12487888D01*
X7258277Y-12487888D02*
X7248753Y-12506936D01*
X7248753Y-12506936D02*
X7239229Y-12516460D01*
X7239229Y-12516460D02*
X7220182Y-12525984D01*
X7220182Y-12525984D02*
X7201134Y-12525984D01*
X7201134Y-12525984D02*
X7182086Y-12516460D01*
X7182086Y-12516460D02*
X7172563Y-12506936D01*
X7172563Y-12506936D02*
X7163039Y-12487888D01*
X7163039Y-12487888D02*
X7153515Y-12449793D01*
X7153515Y-12449793D02*
X7153515Y-12402174D01*
X7153515Y-12402174D02*
X7163039Y-12364079D01*
X7163039Y-12364079D02*
X7172563Y-12345031D01*
X7172563Y-12345031D02*
X7182086Y-12335508D01*
X7182086Y-12335508D02*
X7201134Y-12325984D01*
X7353515Y-12506936D02*
X7363039Y-12516460D01*
X7363039Y-12516460D02*
X7353515Y-12525984D01*
X7353515Y-12525984D02*
X7343991Y-12516460D01*
X7343991Y-12516460D02*
X7353515Y-12506936D01*
X7353515Y-12506936D02*
X7353515Y-12525984D01*
X7486848Y-12325984D02*
X7505896Y-12325984D01*
X7505896Y-12325984D02*
X7524944Y-12335508D01*
X7524944Y-12335508D02*
X7534467Y-12345031D01*
X7534467Y-12345031D02*
X7543991Y-12364079D01*
X7543991Y-12364079D02*
X7553515Y-12402174D01*
X7553515Y-12402174D02*
X7553515Y-12449793D01*
X7553515Y-12449793D02*
X7543991Y-12487888D01*
X7543991Y-12487888D02*
X7534467Y-12506936D01*
X7534467Y-12506936D02*
X7524944Y-12516460D01*
X7524944Y-12516460D02*
X7505896Y-12525984D01*
X7505896Y-12525984D02*
X7486848Y-12525984D01*
X7486848Y-12525984D02*
X7467801Y-12516460D01*
X7467801Y-12516460D02*
X7458277Y-12506936D01*
X7458277Y-12506936D02*
X7448753Y-12487888D01*
X7448753Y-12487888D02*
X7439229Y-12449793D01*
X7439229Y-12449793D02*
X7439229Y-12402174D01*
X7439229Y-12402174D02*
X7448753Y-12364079D01*
X7448753Y-12364079D02*
X7458277Y-12345031D01*
X7458277Y-12345031D02*
X7467801Y-12335508D01*
X7467801Y-12335508D02*
X7486848Y-12325984D01*
X7620182Y-12325984D02*
X7743991Y-12325984D01*
X7743991Y-12325984D02*
X7677325Y-12402174D01*
X7677325Y-12402174D02*
X7705896Y-12402174D01*
X7705896Y-12402174D02*
X7724944Y-12411698D01*
X7724944Y-12411698D02*
X7734467Y-12421222D01*
X7734467Y-12421222D02*
X7743991Y-12440269D01*
X7743991Y-12440269D02*
X7743991Y-12487888D01*
X7743991Y-12487888D02*
X7734467Y-12506936D01*
X7734467Y-12506936D02*
X7724944Y-12516460D01*
X7724944Y-12516460D02*
X7705896Y-12525984D01*
X7705896Y-12525984D02*
X7648753Y-12525984D01*
X7648753Y-12525984D02*
X7629706Y-12516460D01*
X7629706Y-12516460D02*
X7620182Y-12506936D01*
X7839229Y-12525984D02*
X7877325Y-12525984D01*
X7877325Y-12525984D02*
X7896372Y-12516460D01*
X7896372Y-12516460D02*
X7905896Y-12506936D01*
X7905896Y-12506936D02*
X7924944Y-12478365D01*
X7924944Y-12478365D02*
X7934467Y-12440269D01*
X7934467Y-12440269D02*
X7934467Y-12364079D01*
X7934467Y-12364079D02*
X7924944Y-12345031D01*
X7924944Y-12345031D02*
X7915420Y-12335508D01*
X7915420Y-12335508D02*
X7896372Y-12325984D01*
X7896372Y-12325984D02*
X7858277Y-12325984D01*
X7858277Y-12325984D02*
X7839229Y-12335508D01*
X7839229Y-12335508D02*
X7829706Y-12345031D01*
X7829706Y-12345031D02*
X7820182Y-12364079D01*
X7820182Y-12364079D02*
X7820182Y-12411698D01*
X7820182Y-12411698D02*
X7829706Y-12430746D01*
X7829706Y-12430746D02*
X7839229Y-12440269D01*
X7839229Y-12440269D02*
X7858277Y-12449793D01*
X7858277Y-12449793D02*
X7896372Y-12449793D01*
X7896372Y-12449793D02*
X7915420Y-12440269D01*
X7915420Y-12440269D02*
X7924944Y-12430746D01*
X7924944Y-12430746D02*
X7934467Y-12411698D01*
X8105896Y-12392650D02*
X8105896Y-12525984D01*
X8058277Y-12316460D02*
X8010658Y-12459317D01*
X8010658Y-12459317D02*
X8134467Y-12459317D01*
X8201134Y-12325984D02*
X8201134Y-12364079D01*
X8277325Y-12325984D02*
X8277325Y-12364079D01*
X8572563Y-12602174D02*
X8563039Y-12592650D01*
X8563039Y-12592650D02*
X8543991Y-12564079D01*
X8543991Y-12564079D02*
X8534468Y-12545031D01*
X8534468Y-12545031D02*
X8524944Y-12516460D01*
X8524944Y-12516460D02*
X8515420Y-12468841D01*
X8515420Y-12468841D02*
X8515420Y-12430746D01*
X8515420Y-12430746D02*
X8524944Y-12383127D01*
X8524944Y-12383127D02*
X8534468Y-12354555D01*
X8534468Y-12354555D02*
X8543991Y-12335508D01*
X8543991Y-12335508D02*
X8563039Y-12306936D01*
X8563039Y-12306936D02*
X8572563Y-12297412D01*
X8629706Y-12325984D02*
X8753515Y-12325984D01*
X8753515Y-12325984D02*
X8686849Y-12402174D01*
X8686849Y-12402174D02*
X8715420Y-12402174D01*
X8715420Y-12402174D02*
X8734468Y-12411698D01*
X8734468Y-12411698D02*
X8743991Y-12421222D01*
X8743991Y-12421222D02*
X8753515Y-12440269D01*
X8753515Y-12440269D02*
X8753515Y-12487888D01*
X8753515Y-12487888D02*
X8743991Y-12506936D01*
X8743991Y-12506936D02*
X8734468Y-12516460D01*
X8734468Y-12516460D02*
X8715420Y-12525984D01*
X8715420Y-12525984D02*
X8658277Y-12525984D01*
X8658277Y-12525984D02*
X8639230Y-12516460D01*
X8639230Y-12516460D02*
X8629706Y-12506936D01*
X8877325Y-12325984D02*
X8896372Y-12325984D01*
X8896372Y-12325984D02*
X8915420Y-12335508D01*
X8915420Y-12335508D02*
X8924944Y-12345031D01*
X8924944Y-12345031D02*
X8934468Y-12364079D01*
X8934468Y-12364079D02*
X8943991Y-12402174D01*
X8943991Y-12402174D02*
X8943991Y-12449793D01*
X8943991Y-12449793D02*
X8934468Y-12487888D01*
X8934468Y-12487888D02*
X8924944Y-12506936D01*
X8924944Y-12506936D02*
X8915420Y-12516460D01*
X8915420Y-12516460D02*
X8896372Y-12525984D01*
X8896372Y-12525984D02*
X8877325Y-12525984D01*
X8877325Y-12525984D02*
X8858277Y-12516460D01*
X8858277Y-12516460D02*
X8848753Y-12506936D01*
X8848753Y-12506936D02*
X8839230Y-12487888D01*
X8839230Y-12487888D02*
X8829706Y-12449793D01*
X8829706Y-12449793D02*
X8829706Y-12402174D01*
X8829706Y-12402174D02*
X8839230Y-12364079D01*
X8839230Y-12364079D02*
X8848753Y-12345031D01*
X8848753Y-12345031D02*
X8858277Y-12335508D01*
X8858277Y-12335508D02*
X8877325Y-12325984D01*
X9182087Y-12525984D02*
X9182087Y-12325984D01*
X9267801Y-12525984D02*
X9267801Y-12421222D01*
X9267801Y-12421222D02*
X9258277Y-12402174D01*
X9258277Y-12402174D02*
X9239230Y-12392650D01*
X9239230Y-12392650D02*
X9210658Y-12392650D01*
X9210658Y-12392650D02*
X9191611Y-12402174D01*
X9191611Y-12402174D02*
X9182087Y-12411698D01*
X9391611Y-12525984D02*
X9372563Y-12516460D01*
X9372563Y-12516460D02*
X9363039Y-12506936D01*
X9363039Y-12506936D02*
X9353515Y-12487888D01*
X9353515Y-12487888D02*
X9353515Y-12430746D01*
X9353515Y-12430746D02*
X9363039Y-12411698D01*
X9363039Y-12411698D02*
X9372563Y-12402174D01*
X9372563Y-12402174D02*
X9391611Y-12392650D01*
X9391611Y-12392650D02*
X9420182Y-12392650D01*
X9420182Y-12392650D02*
X9439230Y-12402174D01*
X9439230Y-12402174D02*
X9448753Y-12411698D01*
X9448753Y-12411698D02*
X9458277Y-12430746D01*
X9458277Y-12430746D02*
X9458277Y-12487888D01*
X9458277Y-12487888D02*
X9448753Y-12506936D01*
X9448753Y-12506936D02*
X9439230Y-12516460D01*
X9439230Y-12516460D02*
X9420182Y-12525984D01*
X9420182Y-12525984D02*
X9391611Y-12525984D01*
X9572563Y-12525984D02*
X9553515Y-12516460D01*
X9553515Y-12516460D02*
X9543992Y-12497412D01*
X9543992Y-12497412D02*
X9543992Y-12325984D01*
X9724944Y-12516460D02*
X9705896Y-12525984D01*
X9705896Y-12525984D02*
X9667801Y-12525984D01*
X9667801Y-12525984D02*
X9648753Y-12516460D01*
X9648753Y-12516460D02*
X9639230Y-12497412D01*
X9639230Y-12497412D02*
X9639230Y-12421222D01*
X9639230Y-12421222D02*
X9648753Y-12402174D01*
X9648753Y-12402174D02*
X9667801Y-12392650D01*
X9667801Y-12392650D02*
X9705896Y-12392650D01*
X9705896Y-12392650D02*
X9724944Y-12402174D01*
X9724944Y-12402174D02*
X9734468Y-12421222D01*
X9734468Y-12421222D02*
X9734468Y-12440269D01*
X9734468Y-12440269D02*
X9639230Y-12459317D01*
X9810658Y-12516460D02*
X9829706Y-12525984D01*
X9829706Y-12525984D02*
X9867801Y-12525984D01*
X9867801Y-12525984D02*
X9886849Y-12516460D01*
X9886849Y-12516460D02*
X9896373Y-12497412D01*
X9896373Y-12497412D02*
X9896373Y-12487888D01*
X9896373Y-12487888D02*
X9886849Y-12468841D01*
X9886849Y-12468841D02*
X9867801Y-12459317D01*
X9867801Y-12459317D02*
X9839230Y-12459317D01*
X9839230Y-12459317D02*
X9820182Y-12449793D01*
X9820182Y-12449793D02*
X9810658Y-12430746D01*
X9810658Y-12430746D02*
X9810658Y-12421222D01*
X9810658Y-12421222D02*
X9820182Y-12402174D01*
X9820182Y-12402174D02*
X9839230Y-12392650D01*
X9839230Y-12392650D02*
X9867801Y-12392650D01*
X9867801Y-12392650D02*
X9886849Y-12402174D01*
X9963039Y-12602174D02*
X9972563Y-12592650D01*
X9972563Y-12592650D02*
X9991611Y-12564079D01*
X9991611Y-12564079D02*
X10001134Y-12545031D01*
X10001134Y-12545031D02*
X10010658Y-12516460D01*
X10010658Y-12516460D02*
X10020182Y-12468841D01*
X10020182Y-12468841D02*
X10020182Y-12430746D01*
X10020182Y-12430746D02*
X10010658Y-12383127D01*
X10010658Y-12383127D02*
X10001134Y-12354555D01*
X10001134Y-12354555D02*
X9991611Y-12335508D01*
X9991611Y-12335508D02*
X9972563Y-12306936D01*
X9972563Y-12306936D02*
X9963039Y-12297412D01*
D13*
X4942500Y-12753500D02*
X4997500Y-12698500D01*
X4942500Y-12643500D01*
X4887500Y-12698500D01*
X4942500Y-12753500D01*
D11*
X5363039Y-12789984D02*
X5248753Y-12789984D01*
X5305896Y-12789984D02*
X5305896Y-12589984D01*
X5305896Y-12589984D02*
X5286848Y-12618555D01*
X5286848Y-12618555D02*
X5267801Y-12637603D01*
X5267801Y-12637603D02*
X5248753Y-12647127D01*
X5448753Y-12770936D02*
X5458277Y-12780460D01*
X5458277Y-12780460D02*
X5448753Y-12789984D01*
X5448753Y-12789984D02*
X5439229Y-12780460D01*
X5439229Y-12780460D02*
X5448753Y-12770936D01*
X5448753Y-12770936D02*
X5448753Y-12789984D01*
X5648753Y-12789984D02*
X5534467Y-12789984D01*
X5591610Y-12789984D02*
X5591610Y-12589984D01*
X5591610Y-12589984D02*
X5572563Y-12618555D01*
X5572563Y-12618555D02*
X5553515Y-12637603D01*
X5553515Y-12637603D02*
X5534467Y-12647127D01*
X5772562Y-12589984D02*
X5791610Y-12589984D01*
X5791610Y-12589984D02*
X5810658Y-12599508D01*
X5810658Y-12599508D02*
X5820182Y-12609031D01*
X5820182Y-12609031D02*
X5829705Y-12628079D01*
X5829705Y-12628079D02*
X5839229Y-12666174D01*
X5839229Y-12666174D02*
X5839229Y-12713793D01*
X5839229Y-12713793D02*
X5829705Y-12751888D01*
X5829705Y-12751888D02*
X5820182Y-12770936D01*
X5820182Y-12770936D02*
X5810658Y-12780460D01*
X5810658Y-12780460D02*
X5791610Y-12789984D01*
X5791610Y-12789984D02*
X5772562Y-12789984D01*
X5772562Y-12789984D02*
X5753515Y-12780460D01*
X5753515Y-12780460D02*
X5743991Y-12770936D01*
X5743991Y-12770936D02*
X5734467Y-12751888D01*
X5734467Y-12751888D02*
X5724943Y-12713793D01*
X5724943Y-12713793D02*
X5724943Y-12666174D01*
X5724943Y-12666174D02*
X5734467Y-12628079D01*
X5734467Y-12628079D02*
X5743991Y-12609031D01*
X5743991Y-12609031D02*
X5753515Y-12599508D01*
X5753515Y-12599508D02*
X5772562Y-12589984D01*
X5963039Y-12589984D02*
X5982086Y-12589984D01*
X5982086Y-12589984D02*
X6001134Y-12599508D01*
X6001134Y-12599508D02*
X6010658Y-12609031D01*
X6010658Y-12609031D02*
X6020182Y-12628079D01*
X6020182Y-12628079D02*
X6029705Y-12666174D01*
X6029705Y-12666174D02*
X6029705Y-12713793D01*
X6029705Y-12713793D02*
X6020182Y-12751888D01*
X6020182Y-12751888D02*
X6010658Y-12770936D01*
X6010658Y-12770936D02*
X6001134Y-12780460D01*
X6001134Y-12780460D02*
X5982086Y-12789984D01*
X5982086Y-12789984D02*
X5963039Y-12789984D01*
X5963039Y-12789984D02*
X5943991Y-12780460D01*
X5943991Y-12780460D02*
X5934467Y-12770936D01*
X5934467Y-12770936D02*
X5924943Y-12751888D01*
X5924943Y-12751888D02*
X5915420Y-12713793D01*
X5915420Y-12713793D02*
X5915420Y-12666174D01*
X5915420Y-12666174D02*
X5924943Y-12628079D01*
X5924943Y-12628079D02*
X5934467Y-12609031D01*
X5934467Y-12609031D02*
X5943991Y-12599508D01*
X5943991Y-12599508D02*
X5963039Y-12589984D01*
X6115420Y-12789984D02*
X6115420Y-12656650D01*
X6115420Y-12675698D02*
X6124943Y-12666174D01*
X6124943Y-12666174D02*
X6143991Y-12656650D01*
X6143991Y-12656650D02*
X6172563Y-12656650D01*
X6172563Y-12656650D02*
X6191610Y-12666174D01*
X6191610Y-12666174D02*
X6201134Y-12685222D01*
X6201134Y-12685222D02*
X6201134Y-12789984D01*
X6201134Y-12685222D02*
X6210658Y-12666174D01*
X6210658Y-12666174D02*
X6229705Y-12656650D01*
X6229705Y-12656650D02*
X6258277Y-12656650D01*
X6258277Y-12656650D02*
X6277324Y-12666174D01*
X6277324Y-12666174D02*
X6286848Y-12685222D01*
X6286848Y-12685222D02*
X6286848Y-12789984D01*
X6382086Y-12789984D02*
X6382086Y-12656650D01*
X6382086Y-12675698D02*
X6391610Y-12666174D01*
X6391610Y-12666174D02*
X6410658Y-12656650D01*
X6410658Y-12656650D02*
X6439229Y-12656650D01*
X6439229Y-12656650D02*
X6458277Y-12666174D01*
X6458277Y-12666174D02*
X6467801Y-12685222D01*
X6467801Y-12685222D02*
X6467801Y-12789984D01*
X6467801Y-12685222D02*
X6477324Y-12666174D01*
X6477324Y-12666174D02*
X6496372Y-12656650D01*
X6496372Y-12656650D02*
X6524943Y-12656650D01*
X6524943Y-12656650D02*
X6543991Y-12666174D01*
X6543991Y-12666174D02*
X6553515Y-12685222D01*
X6553515Y-12685222D02*
X6553515Y-12789984D01*
X6943991Y-12580460D02*
X6772563Y-12837603D01*
X7201134Y-12589984D02*
X7220182Y-12589984D01*
X7220182Y-12589984D02*
X7239229Y-12599508D01*
X7239229Y-12599508D02*
X7248753Y-12609031D01*
X7248753Y-12609031D02*
X7258277Y-12628079D01*
X7258277Y-12628079D02*
X7267801Y-12666174D01*
X7267801Y-12666174D02*
X7267801Y-12713793D01*
X7267801Y-12713793D02*
X7258277Y-12751888D01*
X7258277Y-12751888D02*
X7248753Y-12770936D01*
X7248753Y-12770936D02*
X7239229Y-12780460D01*
X7239229Y-12780460D02*
X7220182Y-12789984D01*
X7220182Y-12789984D02*
X7201134Y-12789984D01*
X7201134Y-12789984D02*
X7182086Y-12780460D01*
X7182086Y-12780460D02*
X7172563Y-12770936D01*
X7172563Y-12770936D02*
X7163039Y-12751888D01*
X7163039Y-12751888D02*
X7153515Y-12713793D01*
X7153515Y-12713793D02*
X7153515Y-12666174D01*
X7153515Y-12666174D02*
X7163039Y-12628079D01*
X7163039Y-12628079D02*
X7172563Y-12609031D01*
X7172563Y-12609031D02*
X7182086Y-12599508D01*
X7182086Y-12599508D02*
X7201134Y-12589984D01*
X7353515Y-12770936D02*
X7363039Y-12780460D01*
X7363039Y-12780460D02*
X7353515Y-12789984D01*
X7353515Y-12789984D02*
X7343991Y-12780460D01*
X7343991Y-12780460D02*
X7353515Y-12770936D01*
X7353515Y-12770936D02*
X7353515Y-12789984D01*
X7486848Y-12589984D02*
X7505896Y-12589984D01*
X7505896Y-12589984D02*
X7524944Y-12599508D01*
X7524944Y-12599508D02*
X7534467Y-12609031D01*
X7534467Y-12609031D02*
X7543991Y-12628079D01*
X7543991Y-12628079D02*
X7553515Y-12666174D01*
X7553515Y-12666174D02*
X7553515Y-12713793D01*
X7553515Y-12713793D02*
X7543991Y-12751888D01*
X7543991Y-12751888D02*
X7534467Y-12770936D01*
X7534467Y-12770936D02*
X7524944Y-12780460D01*
X7524944Y-12780460D02*
X7505896Y-12789984D01*
X7505896Y-12789984D02*
X7486848Y-12789984D01*
X7486848Y-12789984D02*
X7467801Y-12780460D01*
X7467801Y-12780460D02*
X7458277Y-12770936D01*
X7458277Y-12770936D02*
X7448753Y-12751888D01*
X7448753Y-12751888D02*
X7439229Y-12713793D01*
X7439229Y-12713793D02*
X7439229Y-12666174D01*
X7439229Y-12666174D02*
X7448753Y-12628079D01*
X7448753Y-12628079D02*
X7458277Y-12609031D01*
X7458277Y-12609031D02*
X7467801Y-12599508D01*
X7467801Y-12599508D02*
X7486848Y-12589984D01*
X7724944Y-12656650D02*
X7724944Y-12789984D01*
X7677325Y-12580460D02*
X7629706Y-12723317D01*
X7629706Y-12723317D02*
X7753515Y-12723317D01*
X7810658Y-12589984D02*
X7934467Y-12589984D01*
X7934467Y-12589984D02*
X7867801Y-12666174D01*
X7867801Y-12666174D02*
X7896372Y-12666174D01*
X7896372Y-12666174D02*
X7915420Y-12675698D01*
X7915420Y-12675698D02*
X7924944Y-12685222D01*
X7924944Y-12685222D02*
X7934467Y-12704269D01*
X7934467Y-12704269D02*
X7934467Y-12751888D01*
X7934467Y-12751888D02*
X7924944Y-12770936D01*
X7924944Y-12770936D02*
X7915420Y-12780460D01*
X7915420Y-12780460D02*
X7896372Y-12789984D01*
X7896372Y-12789984D02*
X7839229Y-12789984D01*
X7839229Y-12789984D02*
X7820182Y-12780460D01*
X7820182Y-12780460D02*
X7810658Y-12770936D01*
X8001134Y-12589984D02*
X8124944Y-12589984D01*
X8124944Y-12589984D02*
X8058277Y-12666174D01*
X8058277Y-12666174D02*
X8086848Y-12666174D01*
X8086848Y-12666174D02*
X8105896Y-12675698D01*
X8105896Y-12675698D02*
X8115420Y-12685222D01*
X8115420Y-12685222D02*
X8124944Y-12704269D01*
X8124944Y-12704269D02*
X8124944Y-12751888D01*
X8124944Y-12751888D02*
X8115420Y-12770936D01*
X8115420Y-12770936D02*
X8105896Y-12780460D01*
X8105896Y-12780460D02*
X8086848Y-12789984D01*
X8086848Y-12789984D02*
X8029706Y-12789984D01*
X8029706Y-12789984D02*
X8010658Y-12780460D01*
X8010658Y-12780460D02*
X8001134Y-12770936D01*
X8201134Y-12589984D02*
X8201134Y-12628079D01*
X8277325Y-12589984D02*
X8277325Y-12628079D01*
X8572563Y-12866174D02*
X8563039Y-12856650D01*
X8563039Y-12856650D02*
X8543991Y-12828079D01*
X8543991Y-12828079D02*
X8534468Y-12809031D01*
X8534468Y-12809031D02*
X8524944Y-12780460D01*
X8524944Y-12780460D02*
X8515420Y-12732841D01*
X8515420Y-12732841D02*
X8515420Y-12694746D01*
X8515420Y-12694746D02*
X8524944Y-12647127D01*
X8524944Y-12647127D02*
X8534468Y-12618555D01*
X8534468Y-12618555D02*
X8543991Y-12599508D01*
X8543991Y-12599508D02*
X8563039Y-12570936D01*
X8563039Y-12570936D02*
X8572563Y-12561412D01*
X8677325Y-12675698D02*
X8658277Y-12666174D01*
X8658277Y-12666174D02*
X8648753Y-12656650D01*
X8648753Y-12656650D02*
X8639230Y-12637603D01*
X8639230Y-12637603D02*
X8639230Y-12628079D01*
X8639230Y-12628079D02*
X8648753Y-12609031D01*
X8648753Y-12609031D02*
X8658277Y-12599508D01*
X8658277Y-12599508D02*
X8677325Y-12589984D01*
X8677325Y-12589984D02*
X8715420Y-12589984D01*
X8715420Y-12589984D02*
X8734468Y-12599508D01*
X8734468Y-12599508D02*
X8743991Y-12609031D01*
X8743991Y-12609031D02*
X8753515Y-12628079D01*
X8753515Y-12628079D02*
X8753515Y-12637603D01*
X8753515Y-12637603D02*
X8743991Y-12656650D01*
X8743991Y-12656650D02*
X8734468Y-12666174D01*
X8734468Y-12666174D02*
X8715420Y-12675698D01*
X8715420Y-12675698D02*
X8677325Y-12675698D01*
X8677325Y-12675698D02*
X8658277Y-12685222D01*
X8658277Y-12685222D02*
X8648753Y-12694746D01*
X8648753Y-12694746D02*
X8639230Y-12713793D01*
X8639230Y-12713793D02*
X8639230Y-12751888D01*
X8639230Y-12751888D02*
X8648753Y-12770936D01*
X8648753Y-12770936D02*
X8658277Y-12780460D01*
X8658277Y-12780460D02*
X8677325Y-12789984D01*
X8677325Y-12789984D02*
X8715420Y-12789984D01*
X8715420Y-12789984D02*
X8734468Y-12780460D01*
X8734468Y-12780460D02*
X8743991Y-12770936D01*
X8743991Y-12770936D02*
X8753515Y-12751888D01*
X8753515Y-12751888D02*
X8753515Y-12713793D01*
X8753515Y-12713793D02*
X8743991Y-12694746D01*
X8743991Y-12694746D02*
X8734468Y-12685222D01*
X8734468Y-12685222D02*
X8715420Y-12675698D01*
X8991611Y-12789984D02*
X8991611Y-12589984D01*
X9077325Y-12789984D02*
X9077325Y-12685222D01*
X9077325Y-12685222D02*
X9067801Y-12666174D01*
X9067801Y-12666174D02*
X9048753Y-12656650D01*
X9048753Y-12656650D02*
X9020182Y-12656650D01*
X9020182Y-12656650D02*
X9001134Y-12666174D01*
X9001134Y-12666174D02*
X8991611Y-12675698D01*
X9201134Y-12789984D02*
X9182087Y-12780460D01*
X9182087Y-12780460D02*
X9172563Y-12770936D01*
X9172563Y-12770936D02*
X9163039Y-12751888D01*
X9163039Y-12751888D02*
X9163039Y-12694746D01*
X9163039Y-12694746D02*
X9172563Y-12675698D01*
X9172563Y-12675698D02*
X9182087Y-12666174D01*
X9182087Y-12666174D02*
X9201134Y-12656650D01*
X9201134Y-12656650D02*
X9229706Y-12656650D01*
X9229706Y-12656650D02*
X9248753Y-12666174D01*
X9248753Y-12666174D02*
X9258277Y-12675698D01*
X9258277Y-12675698D02*
X9267801Y-12694746D01*
X9267801Y-12694746D02*
X9267801Y-12751888D01*
X9267801Y-12751888D02*
X9258277Y-12770936D01*
X9258277Y-12770936D02*
X9248753Y-12780460D01*
X9248753Y-12780460D02*
X9229706Y-12789984D01*
X9229706Y-12789984D02*
X9201134Y-12789984D01*
X9382087Y-12789984D02*
X9363039Y-12780460D01*
X9363039Y-12780460D02*
X9353515Y-12761412D01*
X9353515Y-12761412D02*
X9353515Y-12589984D01*
X9534468Y-12780460D02*
X9515420Y-12789984D01*
X9515420Y-12789984D02*
X9477325Y-12789984D01*
X9477325Y-12789984D02*
X9458277Y-12780460D01*
X9458277Y-12780460D02*
X9448753Y-12761412D01*
X9448753Y-12761412D02*
X9448753Y-12685222D01*
X9448753Y-12685222D02*
X9458277Y-12666174D01*
X9458277Y-12666174D02*
X9477325Y-12656650D01*
X9477325Y-12656650D02*
X9515420Y-12656650D01*
X9515420Y-12656650D02*
X9534468Y-12666174D01*
X9534468Y-12666174D02*
X9543992Y-12685222D01*
X9543992Y-12685222D02*
X9543992Y-12704269D01*
X9543992Y-12704269D02*
X9448753Y-12723317D01*
X9620182Y-12780460D02*
X9639230Y-12789984D01*
X9639230Y-12789984D02*
X9677325Y-12789984D01*
X9677325Y-12789984D02*
X9696373Y-12780460D01*
X9696373Y-12780460D02*
X9705896Y-12761412D01*
X9705896Y-12761412D02*
X9705896Y-12751888D01*
X9705896Y-12751888D02*
X9696373Y-12732841D01*
X9696373Y-12732841D02*
X9677325Y-12723317D01*
X9677325Y-12723317D02*
X9648753Y-12723317D01*
X9648753Y-12723317D02*
X9629706Y-12713793D01*
X9629706Y-12713793D02*
X9620182Y-12694746D01*
X9620182Y-12694746D02*
X9620182Y-12685222D01*
X9620182Y-12685222D02*
X9629706Y-12666174D01*
X9629706Y-12666174D02*
X9648753Y-12656650D01*
X9648753Y-12656650D02*
X9677325Y-12656650D01*
X9677325Y-12656650D02*
X9696373Y-12666174D01*
X9772563Y-12866174D02*
X9782087Y-12856650D01*
X9782087Y-12856650D02*
X9801134Y-12828079D01*
X9801134Y-12828079D02*
X9810658Y-12809031D01*
X9810658Y-12809031D02*
X9820182Y-12780460D01*
X9820182Y-12780460D02*
X9829706Y-12732841D01*
X9829706Y-12732841D02*
X9829706Y-12694746D01*
X9829706Y-12694746D02*
X9820182Y-12647127D01*
X9820182Y-12647127D02*
X9810658Y-12618555D01*
X9810658Y-12618555D02*
X9801134Y-12599508D01*
X9801134Y-12599508D02*
X9782087Y-12570936D01*
X9782087Y-12570936D02*
X9772563Y-12561412D01*
D14*
X4867500Y-12897500D02*
X4997500Y-13027500D01*
X4997500Y-12897500D02*
X4867500Y-13027500D01*
X4997500Y-12962500D02*
G75*
G02*
X4867500Y-12962500I-65000J0D01*
G01*
X4867500Y-12962500D02*
G75*
G02*
X4997500Y-12962500I65000J0D01*
G01*
D11*
X5363039Y-13053984D02*
X5248753Y-13053984D01*
X5305896Y-13053984D02*
X5305896Y-12853984D01*
X5305896Y-12853984D02*
X5286848Y-12882555D01*
X5286848Y-12882555D02*
X5267801Y-12901603D01*
X5267801Y-12901603D02*
X5248753Y-12911127D01*
X5448753Y-13034936D02*
X5458277Y-13044460D01*
X5458277Y-13044460D02*
X5448753Y-13053984D01*
X5448753Y-13053984D02*
X5439229Y-13044460D01*
X5439229Y-13044460D02*
X5448753Y-13034936D01*
X5448753Y-13034936D02*
X5448753Y-13053984D01*
X5524944Y-12853984D02*
X5648753Y-12853984D01*
X5648753Y-12853984D02*
X5582086Y-12930174D01*
X5582086Y-12930174D02*
X5610658Y-12930174D01*
X5610658Y-12930174D02*
X5629705Y-12939698D01*
X5629705Y-12939698D02*
X5639229Y-12949222D01*
X5639229Y-12949222D02*
X5648753Y-12968269D01*
X5648753Y-12968269D02*
X5648753Y-13015888D01*
X5648753Y-13015888D02*
X5639229Y-13034936D01*
X5639229Y-13034936D02*
X5629705Y-13044460D01*
X5629705Y-13044460D02*
X5610658Y-13053984D01*
X5610658Y-13053984D02*
X5553515Y-13053984D01*
X5553515Y-13053984D02*
X5534467Y-13044460D01*
X5534467Y-13044460D02*
X5524944Y-13034936D01*
X5772562Y-12853984D02*
X5791610Y-12853984D01*
X5791610Y-12853984D02*
X5810658Y-12863508D01*
X5810658Y-12863508D02*
X5820182Y-12873031D01*
X5820182Y-12873031D02*
X5829705Y-12892079D01*
X5829705Y-12892079D02*
X5839229Y-12930174D01*
X5839229Y-12930174D02*
X5839229Y-12977793D01*
X5839229Y-12977793D02*
X5829705Y-13015888D01*
X5829705Y-13015888D02*
X5820182Y-13034936D01*
X5820182Y-13034936D02*
X5810658Y-13044460D01*
X5810658Y-13044460D02*
X5791610Y-13053984D01*
X5791610Y-13053984D02*
X5772562Y-13053984D01*
X5772562Y-13053984D02*
X5753515Y-13044460D01*
X5753515Y-13044460D02*
X5743991Y-13034936D01*
X5743991Y-13034936D02*
X5734467Y-13015888D01*
X5734467Y-13015888D02*
X5724943Y-12977793D01*
X5724943Y-12977793D02*
X5724943Y-12930174D01*
X5724943Y-12930174D02*
X5734467Y-12892079D01*
X5734467Y-12892079D02*
X5743991Y-12873031D01*
X5743991Y-12873031D02*
X5753515Y-12863508D01*
X5753515Y-12863508D02*
X5772562Y-12853984D01*
X5963039Y-12853984D02*
X5982086Y-12853984D01*
X5982086Y-12853984D02*
X6001134Y-12863508D01*
X6001134Y-12863508D02*
X6010658Y-12873031D01*
X6010658Y-12873031D02*
X6020182Y-12892079D01*
X6020182Y-12892079D02*
X6029705Y-12930174D01*
X6029705Y-12930174D02*
X6029705Y-12977793D01*
X6029705Y-12977793D02*
X6020182Y-13015888D01*
X6020182Y-13015888D02*
X6010658Y-13034936D01*
X6010658Y-13034936D02*
X6001134Y-13044460D01*
X6001134Y-13044460D02*
X5982086Y-13053984D01*
X5982086Y-13053984D02*
X5963039Y-13053984D01*
X5963039Y-13053984D02*
X5943991Y-13044460D01*
X5943991Y-13044460D02*
X5934467Y-13034936D01*
X5934467Y-13034936D02*
X5924943Y-13015888D01*
X5924943Y-13015888D02*
X5915420Y-12977793D01*
X5915420Y-12977793D02*
X5915420Y-12930174D01*
X5915420Y-12930174D02*
X5924943Y-12892079D01*
X5924943Y-12892079D02*
X5934467Y-12873031D01*
X5934467Y-12873031D02*
X5943991Y-12863508D01*
X5943991Y-12863508D02*
X5963039Y-12853984D01*
X6115420Y-13053984D02*
X6115420Y-12920650D01*
X6115420Y-12939698D02*
X6124943Y-12930174D01*
X6124943Y-12930174D02*
X6143991Y-12920650D01*
X6143991Y-12920650D02*
X6172563Y-12920650D01*
X6172563Y-12920650D02*
X6191610Y-12930174D01*
X6191610Y-12930174D02*
X6201134Y-12949222D01*
X6201134Y-12949222D02*
X6201134Y-13053984D01*
X6201134Y-12949222D02*
X6210658Y-12930174D01*
X6210658Y-12930174D02*
X6229705Y-12920650D01*
X6229705Y-12920650D02*
X6258277Y-12920650D01*
X6258277Y-12920650D02*
X6277324Y-12930174D01*
X6277324Y-12930174D02*
X6286848Y-12949222D01*
X6286848Y-12949222D02*
X6286848Y-13053984D01*
X6382086Y-13053984D02*
X6382086Y-12920650D01*
X6382086Y-12939698D02*
X6391610Y-12930174D01*
X6391610Y-12930174D02*
X6410658Y-12920650D01*
X6410658Y-12920650D02*
X6439229Y-12920650D01*
X6439229Y-12920650D02*
X6458277Y-12930174D01*
X6458277Y-12930174D02*
X6467801Y-12949222D01*
X6467801Y-12949222D02*
X6467801Y-13053984D01*
X6467801Y-12949222D02*
X6477324Y-12930174D01*
X6477324Y-12930174D02*
X6496372Y-12920650D01*
X6496372Y-12920650D02*
X6524943Y-12920650D01*
X6524943Y-12920650D02*
X6543991Y-12930174D01*
X6543991Y-12930174D02*
X6553515Y-12949222D01*
X6553515Y-12949222D02*
X6553515Y-13053984D01*
X6943991Y-12844460D02*
X6772563Y-13101603D01*
X7201134Y-12853984D02*
X7220182Y-12853984D01*
X7220182Y-12853984D02*
X7239229Y-12863508D01*
X7239229Y-12863508D02*
X7248753Y-12873031D01*
X7248753Y-12873031D02*
X7258277Y-12892079D01*
X7258277Y-12892079D02*
X7267801Y-12930174D01*
X7267801Y-12930174D02*
X7267801Y-12977793D01*
X7267801Y-12977793D02*
X7258277Y-13015888D01*
X7258277Y-13015888D02*
X7248753Y-13034936D01*
X7248753Y-13034936D02*
X7239229Y-13044460D01*
X7239229Y-13044460D02*
X7220182Y-13053984D01*
X7220182Y-13053984D02*
X7201134Y-13053984D01*
X7201134Y-13053984D02*
X7182086Y-13044460D01*
X7182086Y-13044460D02*
X7172563Y-13034936D01*
X7172563Y-13034936D02*
X7163039Y-13015888D01*
X7163039Y-13015888D02*
X7153515Y-12977793D01*
X7153515Y-12977793D02*
X7153515Y-12930174D01*
X7153515Y-12930174D02*
X7163039Y-12892079D01*
X7163039Y-12892079D02*
X7172563Y-12873031D01*
X7172563Y-12873031D02*
X7182086Y-12863508D01*
X7182086Y-12863508D02*
X7201134Y-12853984D01*
X7353515Y-13034936D02*
X7363039Y-13044460D01*
X7363039Y-13044460D02*
X7353515Y-13053984D01*
X7353515Y-13053984D02*
X7343991Y-13044460D01*
X7343991Y-13044460D02*
X7353515Y-13034936D01*
X7353515Y-13034936D02*
X7353515Y-13053984D01*
X7486848Y-12853984D02*
X7505896Y-12853984D01*
X7505896Y-12853984D02*
X7524944Y-12863508D01*
X7524944Y-12863508D02*
X7534467Y-12873031D01*
X7534467Y-12873031D02*
X7543991Y-12892079D01*
X7543991Y-12892079D02*
X7553515Y-12930174D01*
X7553515Y-12930174D02*
X7553515Y-12977793D01*
X7553515Y-12977793D02*
X7543991Y-13015888D01*
X7543991Y-13015888D02*
X7534467Y-13034936D01*
X7534467Y-13034936D02*
X7524944Y-13044460D01*
X7524944Y-13044460D02*
X7505896Y-13053984D01*
X7505896Y-13053984D02*
X7486848Y-13053984D01*
X7486848Y-13053984D02*
X7467801Y-13044460D01*
X7467801Y-13044460D02*
X7458277Y-13034936D01*
X7458277Y-13034936D02*
X7448753Y-13015888D01*
X7448753Y-13015888D02*
X7439229Y-12977793D01*
X7439229Y-12977793D02*
X7439229Y-12930174D01*
X7439229Y-12930174D02*
X7448753Y-12892079D01*
X7448753Y-12892079D02*
X7458277Y-12873031D01*
X7458277Y-12873031D02*
X7467801Y-12863508D01*
X7467801Y-12863508D02*
X7486848Y-12853984D01*
X7734467Y-12853984D02*
X7639229Y-12853984D01*
X7639229Y-12853984D02*
X7629706Y-12949222D01*
X7629706Y-12949222D02*
X7639229Y-12939698D01*
X7639229Y-12939698D02*
X7658277Y-12930174D01*
X7658277Y-12930174D02*
X7705896Y-12930174D01*
X7705896Y-12930174D02*
X7724944Y-12939698D01*
X7724944Y-12939698D02*
X7734467Y-12949222D01*
X7734467Y-12949222D02*
X7743991Y-12968269D01*
X7743991Y-12968269D02*
X7743991Y-13015888D01*
X7743991Y-13015888D02*
X7734467Y-13034936D01*
X7734467Y-13034936D02*
X7724944Y-13044460D01*
X7724944Y-13044460D02*
X7705896Y-13053984D01*
X7705896Y-13053984D02*
X7658277Y-13053984D01*
X7658277Y-13053984D02*
X7639229Y-13044460D01*
X7639229Y-13044460D02*
X7629706Y-13034936D01*
X7934467Y-13053984D02*
X7820182Y-13053984D01*
X7877325Y-13053984D02*
X7877325Y-12853984D01*
X7877325Y-12853984D02*
X7858277Y-12882555D01*
X7858277Y-12882555D02*
X7839229Y-12901603D01*
X7839229Y-12901603D02*
X7820182Y-12911127D01*
X8010658Y-12873031D02*
X8020182Y-12863508D01*
X8020182Y-12863508D02*
X8039229Y-12853984D01*
X8039229Y-12853984D02*
X8086848Y-12853984D01*
X8086848Y-12853984D02*
X8105896Y-12863508D01*
X8105896Y-12863508D02*
X8115420Y-12873031D01*
X8115420Y-12873031D02*
X8124944Y-12892079D01*
X8124944Y-12892079D02*
X8124944Y-12911127D01*
X8124944Y-12911127D02*
X8115420Y-12939698D01*
X8115420Y-12939698D02*
X8001134Y-13053984D01*
X8001134Y-13053984D02*
X8124944Y-13053984D01*
X8201134Y-12853984D02*
X8201134Y-12892079D01*
X8277325Y-12853984D02*
X8277325Y-12892079D01*
X8572563Y-13130174D02*
X8563039Y-13120650D01*
X8563039Y-13120650D02*
X8543991Y-13092079D01*
X8543991Y-13092079D02*
X8534468Y-13073031D01*
X8534468Y-13073031D02*
X8524944Y-13044460D01*
X8524944Y-13044460D02*
X8515420Y-12996841D01*
X8515420Y-12996841D02*
X8515420Y-12958746D01*
X8515420Y-12958746D02*
X8524944Y-12911127D01*
X8524944Y-12911127D02*
X8534468Y-12882555D01*
X8534468Y-12882555D02*
X8543991Y-12863508D01*
X8543991Y-12863508D02*
X8563039Y-12834936D01*
X8563039Y-12834936D02*
X8572563Y-12825412D01*
X8753515Y-13053984D02*
X8639230Y-13053984D01*
X8696372Y-13053984D02*
X8696372Y-12853984D01*
X8696372Y-12853984D02*
X8677325Y-12882555D01*
X8677325Y-12882555D02*
X8658277Y-12901603D01*
X8658277Y-12901603D02*
X8639230Y-12911127D01*
X8934468Y-12853984D02*
X8839230Y-12853984D01*
X8839230Y-12853984D02*
X8829706Y-12949222D01*
X8829706Y-12949222D02*
X8839230Y-12939698D01*
X8839230Y-12939698D02*
X8858277Y-12930174D01*
X8858277Y-12930174D02*
X8905896Y-12930174D01*
X8905896Y-12930174D02*
X8924944Y-12939698D01*
X8924944Y-12939698D02*
X8934468Y-12949222D01*
X8934468Y-12949222D02*
X8943991Y-12968269D01*
X8943991Y-12968269D02*
X8943991Y-13015888D01*
X8943991Y-13015888D02*
X8934468Y-13034936D01*
X8934468Y-13034936D02*
X8924944Y-13044460D01*
X8924944Y-13044460D02*
X8905896Y-13053984D01*
X8905896Y-13053984D02*
X8858277Y-13053984D01*
X8858277Y-13053984D02*
X8839230Y-13044460D01*
X8839230Y-13044460D02*
X8829706Y-13034936D01*
X9182087Y-13053984D02*
X9182087Y-12853984D01*
X9267801Y-13053984D02*
X9267801Y-12949222D01*
X9267801Y-12949222D02*
X9258277Y-12930174D01*
X9258277Y-12930174D02*
X9239230Y-12920650D01*
X9239230Y-12920650D02*
X9210658Y-12920650D01*
X9210658Y-12920650D02*
X9191611Y-12930174D01*
X9191611Y-12930174D02*
X9182087Y-12939698D01*
X9391611Y-13053984D02*
X9372563Y-13044460D01*
X9372563Y-13044460D02*
X9363039Y-13034936D01*
X9363039Y-13034936D02*
X9353515Y-13015888D01*
X9353515Y-13015888D02*
X9353515Y-12958746D01*
X9353515Y-12958746D02*
X9363039Y-12939698D01*
X9363039Y-12939698D02*
X9372563Y-12930174D01*
X9372563Y-12930174D02*
X9391611Y-12920650D01*
X9391611Y-12920650D02*
X9420182Y-12920650D01*
X9420182Y-12920650D02*
X9439230Y-12930174D01*
X9439230Y-12930174D02*
X9448753Y-12939698D01*
X9448753Y-12939698D02*
X9458277Y-12958746D01*
X9458277Y-12958746D02*
X9458277Y-13015888D01*
X9458277Y-13015888D02*
X9448753Y-13034936D01*
X9448753Y-13034936D02*
X9439230Y-13044460D01*
X9439230Y-13044460D02*
X9420182Y-13053984D01*
X9420182Y-13053984D02*
X9391611Y-13053984D01*
X9572563Y-13053984D02*
X9553515Y-13044460D01*
X9553515Y-13044460D02*
X9543992Y-13025412D01*
X9543992Y-13025412D02*
X9543992Y-12853984D01*
X9724944Y-13044460D02*
X9705896Y-13053984D01*
X9705896Y-13053984D02*
X9667801Y-13053984D01*
X9667801Y-13053984D02*
X9648753Y-13044460D01*
X9648753Y-13044460D02*
X9639230Y-13025412D01*
X9639230Y-13025412D02*
X9639230Y-12949222D01*
X9639230Y-12949222D02*
X9648753Y-12930174D01*
X9648753Y-12930174D02*
X9667801Y-12920650D01*
X9667801Y-12920650D02*
X9705896Y-12920650D01*
X9705896Y-12920650D02*
X9724944Y-12930174D01*
X9724944Y-12930174D02*
X9734468Y-12949222D01*
X9734468Y-12949222D02*
X9734468Y-12968269D01*
X9734468Y-12968269D02*
X9639230Y-12987317D01*
X9810658Y-13044460D02*
X9829706Y-13053984D01*
X9829706Y-13053984D02*
X9867801Y-13053984D01*
X9867801Y-13053984D02*
X9886849Y-13044460D01*
X9886849Y-13044460D02*
X9896373Y-13025412D01*
X9896373Y-13025412D02*
X9896373Y-13015888D01*
X9896373Y-13015888D02*
X9886849Y-12996841D01*
X9886849Y-12996841D02*
X9867801Y-12987317D01*
X9867801Y-12987317D02*
X9839230Y-12987317D01*
X9839230Y-12987317D02*
X9820182Y-12977793D01*
X9820182Y-12977793D02*
X9810658Y-12958746D01*
X9810658Y-12958746D02*
X9810658Y-12949222D01*
X9810658Y-12949222D02*
X9820182Y-12930174D01*
X9820182Y-12930174D02*
X9839230Y-12920650D01*
X9839230Y-12920650D02*
X9867801Y-12920650D01*
X9867801Y-12920650D02*
X9886849Y-12930174D01*
X9963039Y-13130174D02*
X9972563Y-13120650D01*
X9972563Y-13120650D02*
X9991611Y-13092079D01*
X9991611Y-13092079D02*
X10001134Y-13073031D01*
X10001134Y-13073031D02*
X10010658Y-13044460D01*
X10010658Y-13044460D02*
X10020182Y-12996841D01*
X10020182Y-12996841D02*
X10020182Y-12958746D01*
X10020182Y-12958746D02*
X10010658Y-12911127D01*
X10010658Y-12911127D02*
X10001134Y-12882555D01*
X10001134Y-12882555D02*
X9991611Y-12863508D01*
X9991611Y-12863508D02*
X9972563Y-12834936D01*
X9972563Y-12834936D02*
X9963039Y-12825412D01*
D15*
X4832500Y-13144000D02*
X4997500Y-13309000D01*
X4997500Y-13144000D02*
X4832500Y-13309000D01*
X4915000Y-13144000D02*
X4915000Y-13309000D01*
X4832500Y-13226500D02*
X4997500Y-13226500D01*
D11*
X5363039Y-13317984D02*
X5248753Y-13317984D01*
X5305896Y-13317984D02*
X5305896Y-13117984D01*
X5305896Y-13117984D02*
X5286848Y-13146555D01*
X5286848Y-13146555D02*
X5267801Y-13165603D01*
X5267801Y-13165603D02*
X5248753Y-13175127D01*
X5448753Y-13298936D02*
X5458277Y-13308460D01*
X5458277Y-13308460D02*
X5448753Y-13317984D01*
X5448753Y-13317984D02*
X5439229Y-13308460D01*
X5439229Y-13308460D02*
X5448753Y-13298936D01*
X5448753Y-13298936D02*
X5448753Y-13317984D01*
X5629705Y-13117984D02*
X5591610Y-13117984D01*
X5591610Y-13117984D02*
X5572563Y-13127508D01*
X5572563Y-13127508D02*
X5563039Y-13137031D01*
X5563039Y-13137031D02*
X5543991Y-13165603D01*
X5543991Y-13165603D02*
X5534467Y-13203698D01*
X5534467Y-13203698D02*
X5534467Y-13279888D01*
X5534467Y-13279888D02*
X5543991Y-13298936D01*
X5543991Y-13298936D02*
X5553515Y-13308460D01*
X5553515Y-13308460D02*
X5572563Y-13317984D01*
X5572563Y-13317984D02*
X5610658Y-13317984D01*
X5610658Y-13317984D02*
X5629705Y-13308460D01*
X5629705Y-13308460D02*
X5639229Y-13298936D01*
X5639229Y-13298936D02*
X5648753Y-13279888D01*
X5648753Y-13279888D02*
X5648753Y-13232269D01*
X5648753Y-13232269D02*
X5639229Y-13213222D01*
X5639229Y-13213222D02*
X5629705Y-13203698D01*
X5629705Y-13203698D02*
X5610658Y-13194174D01*
X5610658Y-13194174D02*
X5572563Y-13194174D01*
X5572563Y-13194174D02*
X5553515Y-13203698D01*
X5553515Y-13203698D02*
X5543991Y-13213222D01*
X5543991Y-13213222D02*
X5534467Y-13232269D01*
X5829705Y-13117984D02*
X5734467Y-13117984D01*
X5734467Y-13117984D02*
X5724943Y-13213222D01*
X5724943Y-13213222D02*
X5734467Y-13203698D01*
X5734467Y-13203698D02*
X5753515Y-13194174D01*
X5753515Y-13194174D02*
X5801134Y-13194174D01*
X5801134Y-13194174D02*
X5820182Y-13203698D01*
X5820182Y-13203698D02*
X5829705Y-13213222D01*
X5829705Y-13213222D02*
X5839229Y-13232269D01*
X5839229Y-13232269D02*
X5839229Y-13279888D01*
X5839229Y-13279888D02*
X5829705Y-13298936D01*
X5829705Y-13298936D02*
X5820182Y-13308460D01*
X5820182Y-13308460D02*
X5801134Y-13317984D01*
X5801134Y-13317984D02*
X5753515Y-13317984D01*
X5753515Y-13317984D02*
X5734467Y-13308460D01*
X5734467Y-13308460D02*
X5724943Y-13298936D01*
X5963039Y-13117984D02*
X5982086Y-13117984D01*
X5982086Y-13117984D02*
X6001134Y-13127508D01*
X6001134Y-13127508D02*
X6010658Y-13137031D01*
X6010658Y-13137031D02*
X6020182Y-13156079D01*
X6020182Y-13156079D02*
X6029705Y-13194174D01*
X6029705Y-13194174D02*
X6029705Y-13241793D01*
X6029705Y-13241793D02*
X6020182Y-13279888D01*
X6020182Y-13279888D02*
X6010658Y-13298936D01*
X6010658Y-13298936D02*
X6001134Y-13308460D01*
X6001134Y-13308460D02*
X5982086Y-13317984D01*
X5982086Y-13317984D02*
X5963039Y-13317984D01*
X5963039Y-13317984D02*
X5943991Y-13308460D01*
X5943991Y-13308460D02*
X5934467Y-13298936D01*
X5934467Y-13298936D02*
X5924943Y-13279888D01*
X5924943Y-13279888D02*
X5915420Y-13241793D01*
X5915420Y-13241793D02*
X5915420Y-13194174D01*
X5915420Y-13194174D02*
X5924943Y-13156079D01*
X5924943Y-13156079D02*
X5934467Y-13137031D01*
X5934467Y-13137031D02*
X5943991Y-13127508D01*
X5943991Y-13127508D02*
X5963039Y-13117984D01*
X6115420Y-13317984D02*
X6115420Y-13184650D01*
X6115420Y-13203698D02*
X6124943Y-13194174D01*
X6124943Y-13194174D02*
X6143991Y-13184650D01*
X6143991Y-13184650D02*
X6172563Y-13184650D01*
X6172563Y-13184650D02*
X6191610Y-13194174D01*
X6191610Y-13194174D02*
X6201134Y-13213222D01*
X6201134Y-13213222D02*
X6201134Y-13317984D01*
X6201134Y-13213222D02*
X6210658Y-13194174D01*
X6210658Y-13194174D02*
X6229705Y-13184650D01*
X6229705Y-13184650D02*
X6258277Y-13184650D01*
X6258277Y-13184650D02*
X6277324Y-13194174D01*
X6277324Y-13194174D02*
X6286848Y-13213222D01*
X6286848Y-13213222D02*
X6286848Y-13317984D01*
X6382086Y-13317984D02*
X6382086Y-13184650D01*
X6382086Y-13203698D02*
X6391610Y-13194174D01*
X6391610Y-13194174D02*
X6410658Y-13184650D01*
X6410658Y-13184650D02*
X6439229Y-13184650D01*
X6439229Y-13184650D02*
X6458277Y-13194174D01*
X6458277Y-13194174D02*
X6467801Y-13213222D01*
X6467801Y-13213222D02*
X6467801Y-13317984D01*
X6467801Y-13213222D02*
X6477324Y-13194174D01*
X6477324Y-13194174D02*
X6496372Y-13184650D01*
X6496372Y-13184650D02*
X6524943Y-13184650D01*
X6524943Y-13184650D02*
X6543991Y-13194174D01*
X6543991Y-13194174D02*
X6553515Y-13213222D01*
X6553515Y-13213222D02*
X6553515Y-13317984D01*
X6943991Y-13108460D02*
X6772563Y-13365603D01*
X7201134Y-13117984D02*
X7220182Y-13117984D01*
X7220182Y-13117984D02*
X7239229Y-13127508D01*
X7239229Y-13127508D02*
X7248753Y-13137031D01*
X7248753Y-13137031D02*
X7258277Y-13156079D01*
X7258277Y-13156079D02*
X7267801Y-13194174D01*
X7267801Y-13194174D02*
X7267801Y-13241793D01*
X7267801Y-13241793D02*
X7258277Y-13279888D01*
X7258277Y-13279888D02*
X7248753Y-13298936D01*
X7248753Y-13298936D02*
X7239229Y-13308460D01*
X7239229Y-13308460D02*
X7220182Y-13317984D01*
X7220182Y-13317984D02*
X7201134Y-13317984D01*
X7201134Y-13317984D02*
X7182086Y-13308460D01*
X7182086Y-13308460D02*
X7172563Y-13298936D01*
X7172563Y-13298936D02*
X7163039Y-13279888D01*
X7163039Y-13279888D02*
X7153515Y-13241793D01*
X7153515Y-13241793D02*
X7153515Y-13194174D01*
X7153515Y-13194174D02*
X7163039Y-13156079D01*
X7163039Y-13156079D02*
X7172563Y-13137031D01*
X7172563Y-13137031D02*
X7182086Y-13127508D01*
X7182086Y-13127508D02*
X7201134Y-13117984D01*
X7353515Y-13298936D02*
X7363039Y-13308460D01*
X7363039Y-13308460D02*
X7353515Y-13317984D01*
X7353515Y-13317984D02*
X7343991Y-13308460D01*
X7343991Y-13308460D02*
X7353515Y-13298936D01*
X7353515Y-13298936D02*
X7353515Y-13317984D01*
X7486848Y-13117984D02*
X7505896Y-13117984D01*
X7505896Y-13117984D02*
X7524944Y-13127508D01*
X7524944Y-13127508D02*
X7534467Y-13137031D01*
X7534467Y-13137031D02*
X7543991Y-13156079D01*
X7543991Y-13156079D02*
X7553515Y-13194174D01*
X7553515Y-13194174D02*
X7553515Y-13241793D01*
X7553515Y-13241793D02*
X7543991Y-13279888D01*
X7543991Y-13279888D02*
X7534467Y-13298936D01*
X7534467Y-13298936D02*
X7524944Y-13308460D01*
X7524944Y-13308460D02*
X7505896Y-13317984D01*
X7505896Y-13317984D02*
X7486848Y-13317984D01*
X7486848Y-13317984D02*
X7467801Y-13308460D01*
X7467801Y-13308460D02*
X7458277Y-13298936D01*
X7458277Y-13298936D02*
X7448753Y-13279888D01*
X7448753Y-13279888D02*
X7439229Y-13241793D01*
X7439229Y-13241793D02*
X7439229Y-13194174D01*
X7439229Y-13194174D02*
X7448753Y-13156079D01*
X7448753Y-13156079D02*
X7458277Y-13137031D01*
X7458277Y-13137031D02*
X7467801Y-13127508D01*
X7467801Y-13127508D02*
X7486848Y-13117984D01*
X7724944Y-13117984D02*
X7686848Y-13117984D01*
X7686848Y-13117984D02*
X7667801Y-13127508D01*
X7667801Y-13127508D02*
X7658277Y-13137031D01*
X7658277Y-13137031D02*
X7639229Y-13165603D01*
X7639229Y-13165603D02*
X7629706Y-13203698D01*
X7629706Y-13203698D02*
X7629706Y-13279888D01*
X7629706Y-13279888D02*
X7639229Y-13298936D01*
X7639229Y-13298936D02*
X7648753Y-13308460D01*
X7648753Y-13308460D02*
X7667801Y-13317984D01*
X7667801Y-13317984D02*
X7705896Y-13317984D01*
X7705896Y-13317984D02*
X7724944Y-13308460D01*
X7724944Y-13308460D02*
X7734467Y-13298936D01*
X7734467Y-13298936D02*
X7743991Y-13279888D01*
X7743991Y-13279888D02*
X7743991Y-13232269D01*
X7743991Y-13232269D02*
X7734467Y-13213222D01*
X7734467Y-13213222D02*
X7724944Y-13203698D01*
X7724944Y-13203698D02*
X7705896Y-13194174D01*
X7705896Y-13194174D02*
X7667801Y-13194174D01*
X7667801Y-13194174D02*
X7648753Y-13203698D01*
X7648753Y-13203698D02*
X7639229Y-13213222D01*
X7639229Y-13213222D02*
X7629706Y-13232269D01*
X7924944Y-13117984D02*
X7829706Y-13117984D01*
X7829706Y-13117984D02*
X7820182Y-13213222D01*
X7820182Y-13213222D02*
X7829706Y-13203698D01*
X7829706Y-13203698D02*
X7848753Y-13194174D01*
X7848753Y-13194174D02*
X7896372Y-13194174D01*
X7896372Y-13194174D02*
X7915420Y-13203698D01*
X7915420Y-13203698D02*
X7924944Y-13213222D01*
X7924944Y-13213222D02*
X7934467Y-13232269D01*
X7934467Y-13232269D02*
X7934467Y-13279888D01*
X7934467Y-13279888D02*
X7924944Y-13298936D01*
X7924944Y-13298936D02*
X7915420Y-13308460D01*
X7915420Y-13308460D02*
X7896372Y-13317984D01*
X7896372Y-13317984D02*
X7848753Y-13317984D01*
X7848753Y-13317984D02*
X7829706Y-13308460D01*
X7829706Y-13308460D02*
X7820182Y-13298936D01*
X8058277Y-13117984D02*
X8077325Y-13117984D01*
X8077325Y-13117984D02*
X8096372Y-13127508D01*
X8096372Y-13127508D02*
X8105896Y-13137031D01*
X8105896Y-13137031D02*
X8115420Y-13156079D01*
X8115420Y-13156079D02*
X8124944Y-13194174D01*
X8124944Y-13194174D02*
X8124944Y-13241793D01*
X8124944Y-13241793D02*
X8115420Y-13279888D01*
X8115420Y-13279888D02*
X8105896Y-13298936D01*
X8105896Y-13298936D02*
X8096372Y-13308460D01*
X8096372Y-13308460D02*
X8077325Y-13317984D01*
X8077325Y-13317984D02*
X8058277Y-13317984D01*
X8058277Y-13317984D02*
X8039229Y-13308460D01*
X8039229Y-13308460D02*
X8029706Y-13298936D01*
X8029706Y-13298936D02*
X8020182Y-13279888D01*
X8020182Y-13279888D02*
X8010658Y-13241793D01*
X8010658Y-13241793D02*
X8010658Y-13194174D01*
X8010658Y-13194174D02*
X8020182Y-13156079D01*
X8020182Y-13156079D02*
X8029706Y-13137031D01*
X8029706Y-13137031D02*
X8039229Y-13127508D01*
X8039229Y-13127508D02*
X8058277Y-13117984D01*
X8201134Y-13117984D02*
X8201134Y-13156079D01*
X8277325Y-13117984D02*
X8277325Y-13156079D01*
X8572563Y-13394174D02*
X8563039Y-13384650D01*
X8563039Y-13384650D02*
X8543991Y-13356079D01*
X8543991Y-13356079D02*
X8534468Y-13337031D01*
X8534468Y-13337031D02*
X8524944Y-13308460D01*
X8524944Y-13308460D02*
X8515420Y-13260841D01*
X8515420Y-13260841D02*
X8515420Y-13222746D01*
X8515420Y-13222746D02*
X8524944Y-13175127D01*
X8524944Y-13175127D02*
X8534468Y-13146555D01*
X8534468Y-13146555D02*
X8543991Y-13127508D01*
X8543991Y-13127508D02*
X8563039Y-13098936D01*
X8563039Y-13098936D02*
X8572563Y-13089412D01*
X8629706Y-13117984D02*
X8753515Y-13117984D01*
X8753515Y-13117984D02*
X8686849Y-13194174D01*
X8686849Y-13194174D02*
X8715420Y-13194174D01*
X8715420Y-13194174D02*
X8734468Y-13203698D01*
X8734468Y-13203698D02*
X8743991Y-13213222D01*
X8743991Y-13213222D02*
X8753515Y-13232269D01*
X8753515Y-13232269D02*
X8753515Y-13279888D01*
X8753515Y-13279888D02*
X8743991Y-13298936D01*
X8743991Y-13298936D02*
X8734468Y-13308460D01*
X8734468Y-13308460D02*
X8715420Y-13317984D01*
X8715420Y-13317984D02*
X8658277Y-13317984D01*
X8658277Y-13317984D02*
X8639230Y-13308460D01*
X8639230Y-13308460D02*
X8629706Y-13298936D01*
X8991611Y-13317984D02*
X8991611Y-13117984D01*
X9077325Y-13317984D02*
X9077325Y-13213222D01*
X9077325Y-13213222D02*
X9067801Y-13194174D01*
X9067801Y-13194174D02*
X9048753Y-13184650D01*
X9048753Y-13184650D02*
X9020182Y-13184650D01*
X9020182Y-13184650D02*
X9001134Y-13194174D01*
X9001134Y-13194174D02*
X8991611Y-13203698D01*
X9201134Y-13317984D02*
X9182087Y-13308460D01*
X9182087Y-13308460D02*
X9172563Y-13298936D01*
X9172563Y-13298936D02*
X9163039Y-13279888D01*
X9163039Y-13279888D02*
X9163039Y-13222746D01*
X9163039Y-13222746D02*
X9172563Y-13203698D01*
X9172563Y-13203698D02*
X9182087Y-13194174D01*
X9182087Y-13194174D02*
X9201134Y-13184650D01*
X9201134Y-13184650D02*
X9229706Y-13184650D01*
X9229706Y-13184650D02*
X9248753Y-13194174D01*
X9248753Y-13194174D02*
X9258277Y-13203698D01*
X9258277Y-13203698D02*
X9267801Y-13222746D01*
X9267801Y-13222746D02*
X9267801Y-13279888D01*
X9267801Y-13279888D02*
X9258277Y-13298936D01*
X9258277Y-13298936D02*
X9248753Y-13308460D01*
X9248753Y-13308460D02*
X9229706Y-13317984D01*
X9229706Y-13317984D02*
X9201134Y-13317984D01*
X9382087Y-13317984D02*
X9363039Y-13308460D01*
X9363039Y-13308460D02*
X9353515Y-13289412D01*
X9353515Y-13289412D02*
X9353515Y-13117984D01*
X9534468Y-13308460D02*
X9515420Y-13317984D01*
X9515420Y-13317984D02*
X9477325Y-13317984D01*
X9477325Y-13317984D02*
X9458277Y-13308460D01*
X9458277Y-13308460D02*
X9448753Y-13289412D01*
X9448753Y-13289412D02*
X9448753Y-13213222D01*
X9448753Y-13213222D02*
X9458277Y-13194174D01*
X9458277Y-13194174D02*
X9477325Y-13184650D01*
X9477325Y-13184650D02*
X9515420Y-13184650D01*
X9515420Y-13184650D02*
X9534468Y-13194174D01*
X9534468Y-13194174D02*
X9543992Y-13213222D01*
X9543992Y-13213222D02*
X9543992Y-13232269D01*
X9543992Y-13232269D02*
X9448753Y-13251317D01*
X9620182Y-13308460D02*
X9639230Y-13317984D01*
X9639230Y-13317984D02*
X9677325Y-13317984D01*
X9677325Y-13317984D02*
X9696373Y-13308460D01*
X9696373Y-13308460D02*
X9705896Y-13289412D01*
X9705896Y-13289412D02*
X9705896Y-13279888D01*
X9705896Y-13279888D02*
X9696373Y-13260841D01*
X9696373Y-13260841D02*
X9677325Y-13251317D01*
X9677325Y-13251317D02*
X9648753Y-13251317D01*
X9648753Y-13251317D02*
X9629706Y-13241793D01*
X9629706Y-13241793D02*
X9620182Y-13222746D01*
X9620182Y-13222746D02*
X9620182Y-13213222D01*
X9620182Y-13213222D02*
X9629706Y-13194174D01*
X9629706Y-13194174D02*
X9648753Y-13184650D01*
X9648753Y-13184650D02*
X9677325Y-13184650D01*
X9677325Y-13184650D02*
X9696373Y-13194174D01*
X9772563Y-13394174D02*
X9782087Y-13384650D01*
X9782087Y-13384650D02*
X9801134Y-13356079D01*
X9801134Y-13356079D02*
X9810658Y-13337031D01*
X9810658Y-13337031D02*
X9820182Y-13308460D01*
X9820182Y-13308460D02*
X9829706Y-13260841D01*
X9829706Y-13260841D02*
X9829706Y-13222746D01*
X9829706Y-13222746D02*
X9820182Y-13175127D01*
X9820182Y-13175127D02*
X9810658Y-13146555D01*
X9810658Y-13146555D02*
X9801134Y-13127508D01*
X9801134Y-13127508D02*
X9782087Y-13098936D01*
X9782087Y-13098936D02*
X9772563Y-13089412D01*
X4797500Y-13411500D02*
X4997500Y-13611500D01*
X4997500Y-13411500D02*
X4797500Y-13611500D01*
X4968211Y-13582211D02*
X4968211Y-13440789D01*
X4826789Y-13440789D01*
X4826789Y-13582211D01*
X4968211Y-13582211D01*
X5248753Y-13422031D02*
X5258277Y-13412508D01*
X5258277Y-13412508D02*
X5277324Y-13402984D01*
X5277324Y-13402984D02*
X5324944Y-13402984D01*
X5324944Y-13402984D02*
X5343991Y-13412508D01*
X5343991Y-13412508D02*
X5353515Y-13422031D01*
X5353515Y-13422031D02*
X5363039Y-13441079D01*
X5363039Y-13441079D02*
X5363039Y-13460127D01*
X5363039Y-13460127D02*
X5353515Y-13488698D01*
X5353515Y-13488698D02*
X5239229Y-13602984D01*
X5239229Y-13602984D02*
X5363039Y-13602984D01*
X5448753Y-13583936D02*
X5458277Y-13593460D01*
X5458277Y-13593460D02*
X5448753Y-13602984D01*
X5448753Y-13602984D02*
X5439229Y-13593460D01*
X5439229Y-13593460D02*
X5448753Y-13583936D01*
X5448753Y-13583936D02*
X5448753Y-13602984D01*
X5582086Y-13402984D02*
X5601134Y-13402984D01*
X5601134Y-13402984D02*
X5620182Y-13412508D01*
X5620182Y-13412508D02*
X5629705Y-13422031D01*
X5629705Y-13422031D02*
X5639229Y-13441079D01*
X5639229Y-13441079D02*
X5648753Y-13479174D01*
X5648753Y-13479174D02*
X5648753Y-13526793D01*
X5648753Y-13526793D02*
X5639229Y-13564888D01*
X5639229Y-13564888D02*
X5629705Y-13583936D01*
X5629705Y-13583936D02*
X5620182Y-13593460D01*
X5620182Y-13593460D02*
X5601134Y-13602984D01*
X5601134Y-13602984D02*
X5582086Y-13602984D01*
X5582086Y-13602984D02*
X5563039Y-13593460D01*
X5563039Y-13593460D02*
X5553515Y-13583936D01*
X5553515Y-13583936D02*
X5543991Y-13564888D01*
X5543991Y-13564888D02*
X5534467Y-13526793D01*
X5534467Y-13526793D02*
X5534467Y-13479174D01*
X5534467Y-13479174D02*
X5543991Y-13441079D01*
X5543991Y-13441079D02*
X5553515Y-13422031D01*
X5553515Y-13422031D02*
X5563039Y-13412508D01*
X5563039Y-13412508D02*
X5582086Y-13402984D01*
X5772562Y-13402984D02*
X5791610Y-13402984D01*
X5791610Y-13402984D02*
X5810658Y-13412508D01*
X5810658Y-13412508D02*
X5820182Y-13422031D01*
X5820182Y-13422031D02*
X5829705Y-13441079D01*
X5829705Y-13441079D02*
X5839229Y-13479174D01*
X5839229Y-13479174D02*
X5839229Y-13526793D01*
X5839229Y-13526793D02*
X5829705Y-13564888D01*
X5829705Y-13564888D02*
X5820182Y-13583936D01*
X5820182Y-13583936D02*
X5810658Y-13593460D01*
X5810658Y-13593460D02*
X5791610Y-13602984D01*
X5791610Y-13602984D02*
X5772562Y-13602984D01*
X5772562Y-13602984D02*
X5753515Y-13593460D01*
X5753515Y-13593460D02*
X5743991Y-13583936D01*
X5743991Y-13583936D02*
X5734467Y-13564888D01*
X5734467Y-13564888D02*
X5724943Y-13526793D01*
X5724943Y-13526793D02*
X5724943Y-13479174D01*
X5724943Y-13479174D02*
X5734467Y-13441079D01*
X5734467Y-13441079D02*
X5743991Y-13422031D01*
X5743991Y-13422031D02*
X5753515Y-13412508D01*
X5753515Y-13412508D02*
X5772562Y-13402984D01*
X5963039Y-13402984D02*
X5982086Y-13402984D01*
X5982086Y-13402984D02*
X6001134Y-13412508D01*
X6001134Y-13412508D02*
X6010658Y-13422031D01*
X6010658Y-13422031D02*
X6020182Y-13441079D01*
X6020182Y-13441079D02*
X6029705Y-13479174D01*
X6029705Y-13479174D02*
X6029705Y-13526793D01*
X6029705Y-13526793D02*
X6020182Y-13564888D01*
X6020182Y-13564888D02*
X6010658Y-13583936D01*
X6010658Y-13583936D02*
X6001134Y-13593460D01*
X6001134Y-13593460D02*
X5982086Y-13602984D01*
X5982086Y-13602984D02*
X5963039Y-13602984D01*
X5963039Y-13602984D02*
X5943991Y-13593460D01*
X5943991Y-13593460D02*
X5934467Y-13583936D01*
X5934467Y-13583936D02*
X5924943Y-13564888D01*
X5924943Y-13564888D02*
X5915420Y-13526793D01*
X5915420Y-13526793D02*
X5915420Y-13479174D01*
X5915420Y-13479174D02*
X5924943Y-13441079D01*
X5924943Y-13441079D02*
X5934467Y-13422031D01*
X5934467Y-13422031D02*
X5943991Y-13412508D01*
X5943991Y-13412508D02*
X5963039Y-13402984D01*
X6115420Y-13602984D02*
X6115420Y-13469650D01*
X6115420Y-13488698D02*
X6124943Y-13479174D01*
X6124943Y-13479174D02*
X6143991Y-13469650D01*
X6143991Y-13469650D02*
X6172563Y-13469650D01*
X6172563Y-13469650D02*
X6191610Y-13479174D01*
X6191610Y-13479174D02*
X6201134Y-13498222D01*
X6201134Y-13498222D02*
X6201134Y-13602984D01*
X6201134Y-13498222D02*
X6210658Y-13479174D01*
X6210658Y-13479174D02*
X6229705Y-13469650D01*
X6229705Y-13469650D02*
X6258277Y-13469650D01*
X6258277Y-13469650D02*
X6277324Y-13479174D01*
X6277324Y-13479174D02*
X6286848Y-13498222D01*
X6286848Y-13498222D02*
X6286848Y-13602984D01*
X6382086Y-13602984D02*
X6382086Y-13469650D01*
X6382086Y-13488698D02*
X6391610Y-13479174D01*
X6391610Y-13479174D02*
X6410658Y-13469650D01*
X6410658Y-13469650D02*
X6439229Y-13469650D01*
X6439229Y-13469650D02*
X6458277Y-13479174D01*
X6458277Y-13479174D02*
X6467801Y-13498222D01*
X6467801Y-13498222D02*
X6467801Y-13602984D01*
X6467801Y-13498222D02*
X6477324Y-13479174D01*
X6477324Y-13479174D02*
X6496372Y-13469650D01*
X6496372Y-13469650D02*
X6524943Y-13469650D01*
X6524943Y-13469650D02*
X6543991Y-13479174D01*
X6543991Y-13479174D02*
X6553515Y-13498222D01*
X6553515Y-13498222D02*
X6553515Y-13602984D01*
X6943991Y-13393460D02*
X6772563Y-13650603D01*
X7201134Y-13402984D02*
X7220182Y-13402984D01*
X7220182Y-13402984D02*
X7239229Y-13412508D01*
X7239229Y-13412508D02*
X7248753Y-13422031D01*
X7248753Y-13422031D02*
X7258277Y-13441079D01*
X7258277Y-13441079D02*
X7267801Y-13479174D01*
X7267801Y-13479174D02*
X7267801Y-13526793D01*
X7267801Y-13526793D02*
X7258277Y-13564888D01*
X7258277Y-13564888D02*
X7248753Y-13583936D01*
X7248753Y-13583936D02*
X7239229Y-13593460D01*
X7239229Y-13593460D02*
X7220182Y-13602984D01*
X7220182Y-13602984D02*
X7201134Y-13602984D01*
X7201134Y-13602984D02*
X7182086Y-13593460D01*
X7182086Y-13593460D02*
X7172563Y-13583936D01*
X7172563Y-13583936D02*
X7163039Y-13564888D01*
X7163039Y-13564888D02*
X7153515Y-13526793D01*
X7153515Y-13526793D02*
X7153515Y-13479174D01*
X7153515Y-13479174D02*
X7163039Y-13441079D01*
X7163039Y-13441079D02*
X7172563Y-13422031D01*
X7172563Y-13422031D02*
X7182086Y-13412508D01*
X7182086Y-13412508D02*
X7201134Y-13402984D01*
X7353515Y-13583936D02*
X7363039Y-13593460D01*
X7363039Y-13593460D02*
X7353515Y-13602984D01*
X7353515Y-13602984D02*
X7343991Y-13593460D01*
X7343991Y-13593460D02*
X7353515Y-13583936D01*
X7353515Y-13583936D02*
X7353515Y-13602984D01*
X7486848Y-13402984D02*
X7505896Y-13402984D01*
X7505896Y-13402984D02*
X7524944Y-13412508D01*
X7524944Y-13412508D02*
X7534467Y-13422031D01*
X7534467Y-13422031D02*
X7543991Y-13441079D01*
X7543991Y-13441079D02*
X7553515Y-13479174D01*
X7553515Y-13479174D02*
X7553515Y-13526793D01*
X7553515Y-13526793D02*
X7543991Y-13564888D01*
X7543991Y-13564888D02*
X7534467Y-13583936D01*
X7534467Y-13583936D02*
X7524944Y-13593460D01*
X7524944Y-13593460D02*
X7505896Y-13602984D01*
X7505896Y-13602984D02*
X7486848Y-13602984D01*
X7486848Y-13602984D02*
X7467801Y-13593460D01*
X7467801Y-13593460D02*
X7458277Y-13583936D01*
X7458277Y-13583936D02*
X7448753Y-13564888D01*
X7448753Y-13564888D02*
X7439229Y-13526793D01*
X7439229Y-13526793D02*
X7439229Y-13479174D01*
X7439229Y-13479174D02*
X7448753Y-13441079D01*
X7448753Y-13441079D02*
X7458277Y-13422031D01*
X7458277Y-13422031D02*
X7467801Y-13412508D01*
X7467801Y-13412508D02*
X7486848Y-13402984D01*
X7620182Y-13402984D02*
X7753515Y-13402984D01*
X7753515Y-13402984D02*
X7667801Y-13602984D01*
X7858277Y-13488698D02*
X7839229Y-13479174D01*
X7839229Y-13479174D02*
X7829706Y-13469650D01*
X7829706Y-13469650D02*
X7820182Y-13450603D01*
X7820182Y-13450603D02*
X7820182Y-13441079D01*
X7820182Y-13441079D02*
X7829706Y-13422031D01*
X7829706Y-13422031D02*
X7839229Y-13412508D01*
X7839229Y-13412508D02*
X7858277Y-13402984D01*
X7858277Y-13402984D02*
X7896372Y-13402984D01*
X7896372Y-13402984D02*
X7915420Y-13412508D01*
X7915420Y-13412508D02*
X7924944Y-13422031D01*
X7924944Y-13422031D02*
X7934467Y-13441079D01*
X7934467Y-13441079D02*
X7934467Y-13450603D01*
X7934467Y-13450603D02*
X7924944Y-13469650D01*
X7924944Y-13469650D02*
X7915420Y-13479174D01*
X7915420Y-13479174D02*
X7896372Y-13488698D01*
X7896372Y-13488698D02*
X7858277Y-13488698D01*
X7858277Y-13488698D02*
X7839229Y-13498222D01*
X7839229Y-13498222D02*
X7829706Y-13507746D01*
X7829706Y-13507746D02*
X7820182Y-13526793D01*
X7820182Y-13526793D02*
X7820182Y-13564888D01*
X7820182Y-13564888D02*
X7829706Y-13583936D01*
X7829706Y-13583936D02*
X7839229Y-13593460D01*
X7839229Y-13593460D02*
X7858277Y-13602984D01*
X7858277Y-13602984D02*
X7896372Y-13602984D01*
X7896372Y-13602984D02*
X7915420Y-13593460D01*
X7915420Y-13593460D02*
X7924944Y-13583936D01*
X7924944Y-13583936D02*
X7934467Y-13564888D01*
X7934467Y-13564888D02*
X7934467Y-13526793D01*
X7934467Y-13526793D02*
X7924944Y-13507746D01*
X7924944Y-13507746D02*
X7915420Y-13498222D01*
X7915420Y-13498222D02*
X7896372Y-13488698D01*
X8001134Y-13402984D02*
X8134467Y-13402984D01*
X8134467Y-13402984D02*
X8048753Y-13602984D01*
X8201134Y-13402984D02*
X8201134Y-13441079D01*
X8277325Y-13402984D02*
X8277325Y-13441079D01*
X8572563Y-13679174D02*
X8563039Y-13669650D01*
X8563039Y-13669650D02*
X8543991Y-13641079D01*
X8543991Y-13641079D02*
X8534468Y-13622031D01*
X8534468Y-13622031D02*
X8524944Y-13593460D01*
X8524944Y-13593460D02*
X8515420Y-13545841D01*
X8515420Y-13545841D02*
X8515420Y-13507746D01*
X8515420Y-13507746D02*
X8524944Y-13460127D01*
X8524944Y-13460127D02*
X8534468Y-13431555D01*
X8534468Y-13431555D02*
X8543991Y-13412508D01*
X8543991Y-13412508D02*
X8563039Y-13383936D01*
X8563039Y-13383936D02*
X8572563Y-13374412D01*
X8686849Y-13402984D02*
X8705896Y-13402984D01*
X8705896Y-13402984D02*
X8724944Y-13412508D01*
X8724944Y-13412508D02*
X8734468Y-13422031D01*
X8734468Y-13422031D02*
X8743991Y-13441079D01*
X8743991Y-13441079D02*
X8753515Y-13479174D01*
X8753515Y-13479174D02*
X8753515Y-13526793D01*
X8753515Y-13526793D02*
X8743991Y-13564888D01*
X8743991Y-13564888D02*
X8734468Y-13583936D01*
X8734468Y-13583936D02*
X8724944Y-13593460D01*
X8724944Y-13593460D02*
X8705896Y-13602984D01*
X8705896Y-13602984D02*
X8686849Y-13602984D01*
X8686849Y-13602984D02*
X8667801Y-13593460D01*
X8667801Y-13593460D02*
X8658277Y-13583936D01*
X8658277Y-13583936D02*
X8648753Y-13564888D01*
X8648753Y-13564888D02*
X8639230Y-13526793D01*
X8639230Y-13526793D02*
X8639230Y-13479174D01*
X8639230Y-13479174D02*
X8648753Y-13441079D01*
X8648753Y-13441079D02*
X8658277Y-13422031D01*
X8658277Y-13422031D02*
X8667801Y-13412508D01*
X8667801Y-13412508D02*
X8686849Y-13402984D01*
X8991611Y-13602984D02*
X8991611Y-13402984D01*
X9077325Y-13602984D02*
X9077325Y-13498222D01*
X9077325Y-13498222D02*
X9067801Y-13479174D01*
X9067801Y-13479174D02*
X9048753Y-13469650D01*
X9048753Y-13469650D02*
X9020182Y-13469650D01*
X9020182Y-13469650D02*
X9001134Y-13479174D01*
X9001134Y-13479174D02*
X8991611Y-13488698D01*
X9201134Y-13602984D02*
X9182087Y-13593460D01*
X9182087Y-13593460D02*
X9172563Y-13583936D01*
X9172563Y-13583936D02*
X9163039Y-13564888D01*
X9163039Y-13564888D02*
X9163039Y-13507746D01*
X9163039Y-13507746D02*
X9172563Y-13488698D01*
X9172563Y-13488698D02*
X9182087Y-13479174D01*
X9182087Y-13479174D02*
X9201134Y-13469650D01*
X9201134Y-13469650D02*
X9229706Y-13469650D01*
X9229706Y-13469650D02*
X9248753Y-13479174D01*
X9248753Y-13479174D02*
X9258277Y-13488698D01*
X9258277Y-13488698D02*
X9267801Y-13507746D01*
X9267801Y-13507746D02*
X9267801Y-13564888D01*
X9267801Y-13564888D02*
X9258277Y-13583936D01*
X9258277Y-13583936D02*
X9248753Y-13593460D01*
X9248753Y-13593460D02*
X9229706Y-13602984D01*
X9229706Y-13602984D02*
X9201134Y-13602984D01*
X9382087Y-13602984D02*
X9363039Y-13593460D01*
X9363039Y-13593460D02*
X9353515Y-13574412D01*
X9353515Y-13574412D02*
X9353515Y-13402984D01*
X9534468Y-13593460D02*
X9515420Y-13602984D01*
X9515420Y-13602984D02*
X9477325Y-13602984D01*
X9477325Y-13602984D02*
X9458277Y-13593460D01*
X9458277Y-13593460D02*
X9448753Y-13574412D01*
X9448753Y-13574412D02*
X9448753Y-13498222D01*
X9448753Y-13498222D02*
X9458277Y-13479174D01*
X9458277Y-13479174D02*
X9477325Y-13469650D01*
X9477325Y-13469650D02*
X9515420Y-13469650D01*
X9515420Y-13469650D02*
X9534468Y-13479174D01*
X9534468Y-13479174D02*
X9543992Y-13498222D01*
X9543992Y-13498222D02*
X9543992Y-13517269D01*
X9543992Y-13517269D02*
X9448753Y-13536317D01*
X9620182Y-13593460D02*
X9639230Y-13602984D01*
X9639230Y-13602984D02*
X9677325Y-13602984D01*
X9677325Y-13602984D02*
X9696373Y-13593460D01*
X9696373Y-13593460D02*
X9705896Y-13574412D01*
X9705896Y-13574412D02*
X9705896Y-13564888D01*
X9705896Y-13564888D02*
X9696373Y-13545841D01*
X9696373Y-13545841D02*
X9677325Y-13536317D01*
X9677325Y-13536317D02*
X9648753Y-13536317D01*
X9648753Y-13536317D02*
X9629706Y-13526793D01*
X9629706Y-13526793D02*
X9620182Y-13507746D01*
X9620182Y-13507746D02*
X9620182Y-13498222D01*
X9620182Y-13498222D02*
X9629706Y-13479174D01*
X9629706Y-13479174D02*
X9648753Y-13469650D01*
X9648753Y-13469650D02*
X9677325Y-13469650D01*
X9677325Y-13469650D02*
X9696373Y-13479174D01*
X9943992Y-13526793D02*
X10096373Y-13526793D01*
X10020182Y-13602984D02*
X10020182Y-13450603D01*
X10334468Y-13422031D02*
X10343992Y-13412508D01*
X10343992Y-13412508D02*
X10363039Y-13402984D01*
X10363039Y-13402984D02*
X10410658Y-13402984D01*
X10410658Y-13402984D02*
X10429706Y-13412508D01*
X10429706Y-13412508D02*
X10439230Y-13422031D01*
X10439230Y-13422031D02*
X10448754Y-13441079D01*
X10448754Y-13441079D02*
X10448754Y-13460127D01*
X10448754Y-13460127D02*
X10439230Y-13488698D01*
X10439230Y-13488698D02*
X10324944Y-13602984D01*
X10324944Y-13602984D02*
X10448754Y-13602984D01*
X10677325Y-13593460D02*
X10696373Y-13602984D01*
X10696373Y-13602984D02*
X10734468Y-13602984D01*
X10734468Y-13602984D02*
X10753516Y-13593460D01*
X10753516Y-13593460D02*
X10763039Y-13574412D01*
X10763039Y-13574412D02*
X10763039Y-13564888D01*
X10763039Y-13564888D02*
X10753516Y-13545841D01*
X10753516Y-13545841D02*
X10734468Y-13536317D01*
X10734468Y-13536317D02*
X10705896Y-13536317D01*
X10705896Y-13536317D02*
X10686849Y-13526793D01*
X10686849Y-13526793D02*
X10677325Y-13507746D01*
X10677325Y-13507746D02*
X10677325Y-13498222D01*
X10677325Y-13498222D02*
X10686849Y-13479174D01*
X10686849Y-13479174D02*
X10705896Y-13469650D01*
X10705896Y-13469650D02*
X10734468Y-13469650D01*
X10734468Y-13469650D02*
X10753516Y-13479174D01*
X10877325Y-13602984D02*
X10858277Y-13593460D01*
X10858277Y-13593460D02*
X10848754Y-13574412D01*
X10848754Y-13574412D02*
X10848754Y-13402984D01*
X10982087Y-13602984D02*
X10963039Y-13593460D01*
X10963039Y-13593460D02*
X10953516Y-13583936D01*
X10953516Y-13583936D02*
X10943992Y-13564888D01*
X10943992Y-13564888D02*
X10943992Y-13507746D01*
X10943992Y-13507746D02*
X10953516Y-13488698D01*
X10953516Y-13488698D02*
X10963039Y-13479174D01*
X10963039Y-13479174D02*
X10982087Y-13469650D01*
X10982087Y-13469650D02*
X11010658Y-13469650D01*
X11010658Y-13469650D02*
X11029706Y-13479174D01*
X11029706Y-13479174D02*
X11039230Y-13488698D01*
X11039230Y-13488698D02*
X11048754Y-13507746D01*
X11048754Y-13507746D02*
X11048754Y-13564888D01*
X11048754Y-13564888D02*
X11039230Y-13583936D01*
X11039230Y-13583936D02*
X11029706Y-13593460D01*
X11029706Y-13593460D02*
X11010658Y-13602984D01*
X11010658Y-13602984D02*
X10982087Y-13602984D01*
X11105897Y-13469650D02*
X11182087Y-13469650D01*
X11134468Y-13402984D02*
X11134468Y-13574412D01*
X11134468Y-13574412D02*
X11143992Y-13593460D01*
X11143992Y-13593460D02*
X11163039Y-13602984D01*
X11163039Y-13602984D02*
X11182087Y-13602984D01*
X11239230Y-13593460D02*
X11258277Y-13602984D01*
X11258277Y-13602984D02*
X11296373Y-13602984D01*
X11296373Y-13602984D02*
X11315420Y-13593460D01*
X11315420Y-13593460D02*
X11324944Y-13574412D01*
X11324944Y-13574412D02*
X11324944Y-13564888D01*
X11324944Y-13564888D02*
X11315420Y-13545841D01*
X11315420Y-13545841D02*
X11296373Y-13536317D01*
X11296373Y-13536317D02*
X11267801Y-13536317D01*
X11267801Y-13536317D02*
X11248754Y-13526793D01*
X11248754Y-13526793D02*
X11239230Y-13507746D01*
X11239230Y-13507746D02*
X11239230Y-13498222D01*
X11239230Y-13498222D02*
X11248754Y-13479174D01*
X11248754Y-13479174D02*
X11267801Y-13469650D01*
X11267801Y-13469650D02*
X11296373Y-13469650D01*
X11296373Y-13469650D02*
X11315420Y-13479174D01*
X11391611Y-13679174D02*
X11401135Y-13669650D01*
X11401135Y-13669650D02*
X11420182Y-13641079D01*
X11420182Y-13641079D02*
X11429706Y-13622031D01*
X11429706Y-13622031D02*
X11439230Y-13593460D01*
X11439230Y-13593460D02*
X11448754Y-13545841D01*
X11448754Y-13545841D02*
X11448754Y-13507746D01*
X11448754Y-13507746D02*
X11439230Y-13460127D01*
X11439230Y-13460127D02*
X11429706Y-13431555D01*
X11429706Y-13431555D02*
X11420182Y-13412508D01*
X11420182Y-13412508D02*
X11401135Y-13383936D01*
X11401135Y-13383936D02*
X11391611Y-13374412D01*
X4797500Y-13731500D02*
X4997500Y-13931500D01*
X4997500Y-13731500D02*
X4797500Y-13931500D01*
X4897500Y-13931500D02*
X4997500Y-13831500D01*
X4897500Y-13731500D01*
X4797500Y-13831500D01*
X4897500Y-13931500D01*
X5343991Y-13789650D02*
X5343991Y-13922984D01*
X5296372Y-13713460D02*
X5248753Y-13856317D01*
X5248753Y-13856317D02*
X5372563Y-13856317D01*
X5448753Y-13903936D02*
X5458277Y-13913460D01*
X5458277Y-13913460D02*
X5448753Y-13922984D01*
X5448753Y-13922984D02*
X5439229Y-13913460D01*
X5439229Y-13913460D02*
X5448753Y-13903936D01*
X5448753Y-13903936D02*
X5448753Y-13922984D01*
X5639229Y-13722984D02*
X5543991Y-13722984D01*
X5543991Y-13722984D02*
X5534467Y-13818222D01*
X5534467Y-13818222D02*
X5543991Y-13808698D01*
X5543991Y-13808698D02*
X5563039Y-13799174D01*
X5563039Y-13799174D02*
X5610658Y-13799174D01*
X5610658Y-13799174D02*
X5629705Y-13808698D01*
X5629705Y-13808698D02*
X5639229Y-13818222D01*
X5639229Y-13818222D02*
X5648753Y-13837269D01*
X5648753Y-13837269D02*
X5648753Y-13884888D01*
X5648753Y-13884888D02*
X5639229Y-13903936D01*
X5639229Y-13903936D02*
X5629705Y-13913460D01*
X5629705Y-13913460D02*
X5610658Y-13922984D01*
X5610658Y-13922984D02*
X5563039Y-13922984D01*
X5563039Y-13922984D02*
X5543991Y-13913460D01*
X5543991Y-13913460D02*
X5534467Y-13903936D01*
X5772562Y-13722984D02*
X5791610Y-13722984D01*
X5791610Y-13722984D02*
X5810658Y-13732508D01*
X5810658Y-13732508D02*
X5820182Y-13742031D01*
X5820182Y-13742031D02*
X5829705Y-13761079D01*
X5829705Y-13761079D02*
X5839229Y-13799174D01*
X5839229Y-13799174D02*
X5839229Y-13846793D01*
X5839229Y-13846793D02*
X5829705Y-13884888D01*
X5829705Y-13884888D02*
X5820182Y-13903936D01*
X5820182Y-13903936D02*
X5810658Y-13913460D01*
X5810658Y-13913460D02*
X5791610Y-13922984D01*
X5791610Y-13922984D02*
X5772562Y-13922984D01*
X5772562Y-13922984D02*
X5753515Y-13913460D01*
X5753515Y-13913460D02*
X5743991Y-13903936D01*
X5743991Y-13903936D02*
X5734467Y-13884888D01*
X5734467Y-13884888D02*
X5724943Y-13846793D01*
X5724943Y-13846793D02*
X5724943Y-13799174D01*
X5724943Y-13799174D02*
X5734467Y-13761079D01*
X5734467Y-13761079D02*
X5743991Y-13742031D01*
X5743991Y-13742031D02*
X5753515Y-13732508D01*
X5753515Y-13732508D02*
X5772562Y-13722984D01*
X5963039Y-13722984D02*
X5982086Y-13722984D01*
X5982086Y-13722984D02*
X6001134Y-13732508D01*
X6001134Y-13732508D02*
X6010658Y-13742031D01*
X6010658Y-13742031D02*
X6020182Y-13761079D01*
X6020182Y-13761079D02*
X6029705Y-13799174D01*
X6029705Y-13799174D02*
X6029705Y-13846793D01*
X6029705Y-13846793D02*
X6020182Y-13884888D01*
X6020182Y-13884888D02*
X6010658Y-13903936D01*
X6010658Y-13903936D02*
X6001134Y-13913460D01*
X6001134Y-13913460D02*
X5982086Y-13922984D01*
X5982086Y-13922984D02*
X5963039Y-13922984D01*
X5963039Y-13922984D02*
X5943991Y-13913460D01*
X5943991Y-13913460D02*
X5934467Y-13903936D01*
X5934467Y-13903936D02*
X5924943Y-13884888D01*
X5924943Y-13884888D02*
X5915420Y-13846793D01*
X5915420Y-13846793D02*
X5915420Y-13799174D01*
X5915420Y-13799174D02*
X5924943Y-13761079D01*
X5924943Y-13761079D02*
X5934467Y-13742031D01*
X5934467Y-13742031D02*
X5943991Y-13732508D01*
X5943991Y-13732508D02*
X5963039Y-13722984D01*
X6115420Y-13922984D02*
X6115420Y-13789650D01*
X6115420Y-13808698D02*
X6124943Y-13799174D01*
X6124943Y-13799174D02*
X6143991Y-13789650D01*
X6143991Y-13789650D02*
X6172563Y-13789650D01*
X6172563Y-13789650D02*
X6191610Y-13799174D01*
X6191610Y-13799174D02*
X6201134Y-13818222D01*
X6201134Y-13818222D02*
X6201134Y-13922984D01*
X6201134Y-13818222D02*
X6210658Y-13799174D01*
X6210658Y-13799174D02*
X6229705Y-13789650D01*
X6229705Y-13789650D02*
X6258277Y-13789650D01*
X6258277Y-13789650D02*
X6277324Y-13799174D01*
X6277324Y-13799174D02*
X6286848Y-13818222D01*
X6286848Y-13818222D02*
X6286848Y-13922984D01*
X6382086Y-13922984D02*
X6382086Y-13789650D01*
X6382086Y-13808698D02*
X6391610Y-13799174D01*
X6391610Y-13799174D02*
X6410658Y-13789650D01*
X6410658Y-13789650D02*
X6439229Y-13789650D01*
X6439229Y-13789650D02*
X6458277Y-13799174D01*
X6458277Y-13799174D02*
X6467801Y-13818222D01*
X6467801Y-13818222D02*
X6467801Y-13922984D01*
X6467801Y-13818222D02*
X6477324Y-13799174D01*
X6477324Y-13799174D02*
X6496372Y-13789650D01*
X6496372Y-13789650D02*
X6524943Y-13789650D01*
X6524943Y-13789650D02*
X6543991Y-13799174D01*
X6543991Y-13799174D02*
X6553515Y-13818222D01*
X6553515Y-13818222D02*
X6553515Y-13922984D01*
X6943991Y-13713460D02*
X6772563Y-13970603D01*
X7201134Y-13722984D02*
X7220182Y-13722984D01*
X7220182Y-13722984D02*
X7239229Y-13732508D01*
X7239229Y-13732508D02*
X7248753Y-13742031D01*
X7248753Y-13742031D02*
X7258277Y-13761079D01*
X7258277Y-13761079D02*
X7267801Y-13799174D01*
X7267801Y-13799174D02*
X7267801Y-13846793D01*
X7267801Y-13846793D02*
X7258277Y-13884888D01*
X7258277Y-13884888D02*
X7248753Y-13903936D01*
X7248753Y-13903936D02*
X7239229Y-13913460D01*
X7239229Y-13913460D02*
X7220182Y-13922984D01*
X7220182Y-13922984D02*
X7201134Y-13922984D01*
X7201134Y-13922984D02*
X7182086Y-13913460D01*
X7182086Y-13913460D02*
X7172563Y-13903936D01*
X7172563Y-13903936D02*
X7163039Y-13884888D01*
X7163039Y-13884888D02*
X7153515Y-13846793D01*
X7153515Y-13846793D02*
X7153515Y-13799174D01*
X7153515Y-13799174D02*
X7163039Y-13761079D01*
X7163039Y-13761079D02*
X7172563Y-13742031D01*
X7172563Y-13742031D02*
X7182086Y-13732508D01*
X7182086Y-13732508D02*
X7201134Y-13722984D01*
X7353515Y-13903936D02*
X7363039Y-13913460D01*
X7363039Y-13913460D02*
X7353515Y-13922984D01*
X7353515Y-13922984D02*
X7343991Y-13913460D01*
X7343991Y-13913460D02*
X7353515Y-13903936D01*
X7353515Y-13903936D02*
X7353515Y-13922984D01*
X7553515Y-13922984D02*
X7439229Y-13922984D01*
X7496372Y-13922984D02*
X7496372Y-13722984D01*
X7496372Y-13722984D02*
X7477325Y-13751555D01*
X7477325Y-13751555D02*
X7458277Y-13770603D01*
X7458277Y-13770603D02*
X7439229Y-13780127D01*
X7620182Y-13722984D02*
X7753515Y-13722984D01*
X7753515Y-13722984D02*
X7667801Y-13922984D01*
X7810658Y-13722984D02*
X7943991Y-13722984D01*
X7943991Y-13722984D02*
X7858277Y-13922984D01*
X8010658Y-13742031D02*
X8020182Y-13732508D01*
X8020182Y-13732508D02*
X8039229Y-13722984D01*
X8039229Y-13722984D02*
X8086848Y-13722984D01*
X8086848Y-13722984D02*
X8105896Y-13732508D01*
X8105896Y-13732508D02*
X8115420Y-13742031D01*
X8115420Y-13742031D02*
X8124944Y-13761079D01*
X8124944Y-13761079D02*
X8124944Y-13780127D01*
X8124944Y-13780127D02*
X8115420Y-13808698D01*
X8115420Y-13808698D02*
X8001134Y-13922984D01*
X8001134Y-13922984D02*
X8124944Y-13922984D01*
X8201134Y-13722984D02*
X8201134Y-13761079D01*
X8277325Y-13722984D02*
X8277325Y-13761079D01*
X8572563Y-13999174D02*
X8563039Y-13989650D01*
X8563039Y-13989650D02*
X8543991Y-13961079D01*
X8543991Y-13961079D02*
X8534468Y-13942031D01*
X8534468Y-13942031D02*
X8524944Y-13913460D01*
X8524944Y-13913460D02*
X8515420Y-13865841D01*
X8515420Y-13865841D02*
X8515420Y-13827746D01*
X8515420Y-13827746D02*
X8524944Y-13780127D01*
X8524944Y-13780127D02*
X8534468Y-13751555D01*
X8534468Y-13751555D02*
X8543991Y-13732508D01*
X8543991Y-13732508D02*
X8563039Y-13703936D01*
X8563039Y-13703936D02*
X8572563Y-13694412D01*
X8734468Y-13789650D02*
X8734468Y-13922984D01*
X8686849Y-13713460D02*
X8639230Y-13856317D01*
X8639230Y-13856317D02*
X8763039Y-13856317D01*
X8991611Y-13922984D02*
X8991611Y-13722984D01*
X9077325Y-13922984D02*
X9077325Y-13818222D01*
X9077325Y-13818222D02*
X9067801Y-13799174D01*
X9067801Y-13799174D02*
X9048753Y-13789650D01*
X9048753Y-13789650D02*
X9020182Y-13789650D01*
X9020182Y-13789650D02*
X9001134Y-13799174D01*
X9001134Y-13799174D02*
X8991611Y-13808698D01*
X9201134Y-13922984D02*
X9182087Y-13913460D01*
X9182087Y-13913460D02*
X9172563Y-13903936D01*
X9172563Y-13903936D02*
X9163039Y-13884888D01*
X9163039Y-13884888D02*
X9163039Y-13827746D01*
X9163039Y-13827746D02*
X9172563Y-13808698D01*
X9172563Y-13808698D02*
X9182087Y-13799174D01*
X9182087Y-13799174D02*
X9201134Y-13789650D01*
X9201134Y-13789650D02*
X9229706Y-13789650D01*
X9229706Y-13789650D02*
X9248753Y-13799174D01*
X9248753Y-13799174D02*
X9258277Y-13808698D01*
X9258277Y-13808698D02*
X9267801Y-13827746D01*
X9267801Y-13827746D02*
X9267801Y-13884888D01*
X9267801Y-13884888D02*
X9258277Y-13903936D01*
X9258277Y-13903936D02*
X9248753Y-13913460D01*
X9248753Y-13913460D02*
X9229706Y-13922984D01*
X9229706Y-13922984D02*
X9201134Y-13922984D01*
X9382087Y-13922984D02*
X9363039Y-13913460D01*
X9363039Y-13913460D02*
X9353515Y-13894412D01*
X9353515Y-13894412D02*
X9353515Y-13722984D01*
X9534468Y-13913460D02*
X9515420Y-13922984D01*
X9515420Y-13922984D02*
X9477325Y-13922984D01*
X9477325Y-13922984D02*
X9458277Y-13913460D01*
X9458277Y-13913460D02*
X9448753Y-13894412D01*
X9448753Y-13894412D02*
X9448753Y-13818222D01*
X9448753Y-13818222D02*
X9458277Y-13799174D01*
X9458277Y-13799174D02*
X9477325Y-13789650D01*
X9477325Y-13789650D02*
X9515420Y-13789650D01*
X9515420Y-13789650D02*
X9534468Y-13799174D01*
X9534468Y-13799174D02*
X9543992Y-13818222D01*
X9543992Y-13818222D02*
X9543992Y-13837269D01*
X9543992Y-13837269D02*
X9448753Y-13856317D01*
X9620182Y-13913460D02*
X9639230Y-13922984D01*
X9639230Y-13922984D02*
X9677325Y-13922984D01*
X9677325Y-13922984D02*
X9696373Y-13913460D01*
X9696373Y-13913460D02*
X9705896Y-13894412D01*
X9705896Y-13894412D02*
X9705896Y-13884888D01*
X9705896Y-13884888D02*
X9696373Y-13865841D01*
X9696373Y-13865841D02*
X9677325Y-13856317D01*
X9677325Y-13856317D02*
X9648753Y-13856317D01*
X9648753Y-13856317D02*
X9629706Y-13846793D01*
X9629706Y-13846793D02*
X9620182Y-13827746D01*
X9620182Y-13827746D02*
X9620182Y-13818222D01*
X9620182Y-13818222D02*
X9629706Y-13799174D01*
X9629706Y-13799174D02*
X9648753Y-13789650D01*
X9648753Y-13789650D02*
X9677325Y-13789650D01*
X9677325Y-13789650D02*
X9696373Y-13799174D01*
X9772563Y-13999174D02*
X9782087Y-13989650D01*
X9782087Y-13989650D02*
X9801134Y-13961079D01*
X9801134Y-13961079D02*
X9810658Y-13942031D01*
X9810658Y-13942031D02*
X9820182Y-13913460D01*
X9820182Y-13913460D02*
X9829706Y-13865841D01*
X9829706Y-13865841D02*
X9829706Y-13827746D01*
X9829706Y-13827746D02*
X9820182Y-13780127D01*
X9820182Y-13780127D02*
X9810658Y-13751555D01*
X9810658Y-13751555D02*
X9801134Y-13732508D01*
X9801134Y-13732508D02*
X9782087Y-13703936D01*
X9782087Y-13703936D02*
X9772563Y-13694412D01*
M02*
