%TF.GenerationSoftware,KiCad,Pcbnew,8.0.8-8.0.8-0~ubuntu24.04.1*%
%TF.CreationDate,2025-02-11T18:26:58-05:00*%
%TF.ProjectId,Strojni_posuv,5374726f-6a6e-4695-9f70-6f7375762e6b,rev?*%
%TF.SameCoordinates,Original*%
%TF.FileFunction,Paste,Top*%
%TF.FilePolarity,Positive*%
%FSLAX46Y46*%
G04 Gerber Fmt 4.6, Leading zero omitted, Abs format (unit mm)*
G04 Created by KiCad (PCBNEW 8.0.8-8.0.8-0~ubuntu24.04.1) date 2025-02-11 18:26:58*
%MOMM*%
%LPD*%
G01*
G04 APERTURE LIST*
G04 Aperture macros list*
%AMRoundRect*
0 Rectangle with rounded corners*
0 $1 Rounding radius*
0 $2 $3 $4 $5 $6 $7 $8 $9 X,Y pos of 4 corners*
0 Add a 4 corners polygon primitive as box body*
4,1,4,$2,$3,$4,$5,$6,$7,$8,$9,$2,$3,0*
0 Add four circle primitives for the rounded corners*
1,1,$1+$1,$2,$3*
1,1,$1+$1,$4,$5*
1,1,$1+$1,$6,$7*
1,1,$1+$1,$8,$9*
0 Add four rect primitives between the rounded corners*
20,1,$1+$1,$2,$3,$4,$5,0*
20,1,$1+$1,$4,$5,$6,$7,0*
20,1,$1+$1,$6,$7,$8,$9,0*
20,1,$1+$1,$8,$9,$2,$3,0*%
G04 Aperture macros list end*
%ADD10RoundRect,0.150000X0.150000X-0.587500X0.150000X0.587500X-0.150000X0.587500X-0.150000X-0.587500X0*%
%ADD11RoundRect,0.200000X0.200000X0.275000X-0.200000X0.275000X-0.200000X-0.275000X0.200000X-0.275000X0*%
%ADD12RoundRect,0.200000X0.275000X-0.200000X0.275000X0.200000X-0.275000X0.200000X-0.275000X-0.200000X0*%
%ADD13RoundRect,0.225000X-0.225000X-0.250000X0.225000X-0.250000X0.225000X0.250000X-0.225000X0.250000X0*%
%ADD14RoundRect,0.200000X-0.275000X0.200000X-0.275000X-0.200000X0.275000X-0.200000X0.275000X0.200000X0*%
%ADD15RoundRect,0.200000X-0.200000X-0.275000X0.200000X-0.275000X0.200000X0.275000X-0.200000X0.275000X0*%
%ADD16R,1.400000X1.200000*%
%ADD17RoundRect,0.250000X0.400000X-0.400000X0.400000X0.400000X-0.400000X0.400000X-0.400000X-0.400000X0*%
%ADD18RoundRect,0.250000X0.400000X-0.750000X0.400000X0.750000X-0.400000X0.750000X-0.400000X-0.750000X0*%
%ADD19RoundRect,0.150000X0.587500X0.150000X-0.587500X0.150000X-0.587500X-0.150000X0.587500X-0.150000X0*%
%ADD20RoundRect,0.250000X0.625000X-0.312500X0.625000X0.312500X-0.625000X0.312500X-0.625000X-0.312500X0*%
%ADD21RoundRect,0.225000X-0.250000X0.225000X-0.250000X-0.225000X0.250000X-0.225000X0.250000X0.225000X0*%
%ADD22RoundRect,0.100000X-0.225000X-0.100000X0.225000X-0.100000X0.225000X0.100000X-0.225000X0.100000X0*%
%ADD23RoundRect,0.218750X0.256250X-0.218750X0.256250X0.218750X-0.256250X0.218750X-0.256250X-0.218750X0*%
%ADD24RoundRect,0.225000X0.250000X-0.225000X0.250000X0.225000X-0.250000X0.225000X-0.250000X-0.225000X0*%
%ADD25RoundRect,0.250000X1.000000X0.650000X-1.000000X0.650000X-1.000000X-0.650000X1.000000X-0.650000X0*%
%ADD26RoundRect,0.250000X-0.375000X-0.850000X0.375000X-0.850000X0.375000X0.850000X-0.375000X0.850000X0*%
%ADD27RoundRect,0.250000X-0.250000X-0.475000X0.250000X-0.475000X0.250000X0.475000X-0.250000X0.475000X0*%
%ADD28RoundRect,0.250000X0.250000X0.475000X-0.250000X0.475000X-0.250000X-0.475000X0.250000X-0.475000X0*%
%ADD29RoundRect,0.230000X-0.375000X0.230000X-0.375000X-0.230000X0.375000X-0.230000X0.375000X0.230000X0*%
%ADD30RoundRect,0.150000X-0.150000X0.825000X-0.150000X-0.825000X0.150000X-0.825000X0.150000X0.825000X0*%
%ADD31RoundRect,0.218750X-0.218750X-0.256250X0.218750X-0.256250X0.218750X0.256250X-0.218750X0.256250X0*%
%ADD32RoundRect,0.225000X0.225000X0.250000X-0.225000X0.250000X-0.225000X-0.250000X0.225000X-0.250000X0*%
%ADD33RoundRect,0.062500X-0.337500X-0.062500X0.337500X-0.062500X0.337500X0.062500X-0.337500X0.062500X0*%
%ADD34RoundRect,0.150000X0.150000X-0.825000X0.150000X0.825000X-0.150000X0.825000X-0.150000X-0.825000X0*%
%ADD35RoundRect,0.250000X0.650000X2.450000X-0.650000X2.450000X-0.650000X-2.450000X0.650000X-2.450000X0*%
%ADD36RoundRect,0.250000X1.000000X-1.950000X1.000000X1.950000X-1.000000X1.950000X-1.000000X-1.950000X0*%
%ADD37RoundRect,0.250000X0.900000X0.675000X-0.900000X0.675000X-0.900000X-0.675000X0.900000X-0.675000X0*%
%ADD38RoundRect,0.075000X0.075000X-0.700000X0.075000X0.700000X-0.075000X0.700000X-0.075000X-0.700000X0*%
%ADD39RoundRect,0.075000X0.700000X-0.075000X0.700000X0.075000X-0.700000X0.075000X-0.700000X-0.075000X0*%
%ADD40RoundRect,0.218750X0.218750X0.256250X-0.218750X0.256250X-0.218750X-0.256250X0.218750X-0.256250X0*%
%ADD41RoundRect,0.250000X-0.550000X1.500000X-0.550000X-1.500000X0.550000X-1.500000X0.550000X1.500000X0*%
%ADD42R,3.500000X2.350000*%
%ADD43R,3.100000X1.600000*%
G04 APERTURE END LIST*
D10*
%TO.C,Q7*%
X64500000Y-57500000D03*
X66400000Y-57500000D03*
X65450000Y-55625000D03*
%TD*%
D11*
%TO.C,R3*%
X108150000Y-67250000D03*
X106500000Y-67250000D03*
%TD*%
D12*
%TO.C,R44*%
X116000000Y-50325000D03*
X116000000Y-48675000D03*
%TD*%
D13*
%TO.C,C33*%
X184975000Y-43750000D03*
X186525000Y-43750000D03*
%TD*%
D14*
%TO.C,R25*%
X131500000Y-38075000D03*
X131500000Y-39725000D03*
%TD*%
%TO.C,R10*%
X200000000Y-51425000D03*
X200000000Y-53075000D03*
%TD*%
%TO.C,R34*%
X131500000Y-59000000D03*
X131500000Y-60650000D03*
%TD*%
D15*
%TO.C,R42*%
X84175000Y-74500000D03*
X85825000Y-74500000D03*
%TD*%
D16*
%TO.C,Y1*%
X177900000Y-92850000D03*
X180100000Y-92850000D03*
X180100000Y-91150000D03*
X177900000Y-91150000D03*
%TD*%
D17*
%TO.C,RV1*%
X83500000Y-70650000D03*
D18*
X89000000Y-69500000D03*
D17*
X83500000Y-68350000D03*
%TD*%
D19*
%TO.C,Q5*%
X129500000Y-60900000D03*
X129500000Y-59000000D03*
X127625000Y-59950000D03*
%TD*%
D20*
%TO.C,R24*%
X88500000Y-87500000D03*
X88500000Y-84575000D03*
%TD*%
D15*
%TO.C,R33*%
X67850000Y-60000000D03*
X69500000Y-60000000D03*
%TD*%
D21*
%TO.C,C17*%
X91655000Y-39450000D03*
X91655000Y-41000000D03*
%TD*%
D22*
%TO.C,U12*%
X147350000Y-37250000D03*
X147350000Y-37900000D03*
X147350000Y-38550000D03*
X149250000Y-38550000D03*
X149250000Y-37250000D03*
%TD*%
D14*
%TO.C,R51*%
X186500000Y-39175000D03*
X186500000Y-40825000D03*
%TD*%
D12*
%TO.C,R46*%
X116000000Y-46825000D03*
X116000000Y-45175000D03*
%TD*%
D15*
%TO.C,R53*%
X203925000Y-68250000D03*
X205575000Y-68250000D03*
%TD*%
D20*
%TO.C,R19*%
X85750000Y-82000000D03*
X85750000Y-79075000D03*
%TD*%
D23*
%TO.C,D1*%
X204825000Y-95787500D03*
X204825000Y-94212500D03*
%TD*%
D11*
%TO.C,R40*%
X135705000Y-90230000D03*
X134055000Y-90230000D03*
%TD*%
D19*
%TO.C,Q6*%
X129625000Y-66075000D03*
X129625000Y-64175000D03*
X127750000Y-65125000D03*
%TD*%
D15*
%TO.C,R43*%
X72400000Y-60000000D03*
X74050000Y-60000000D03*
%TD*%
D14*
%TO.C,R14*%
X178250000Y-70175000D03*
X178250000Y-71825000D03*
%TD*%
D22*
%TO.C,U9*%
X147350000Y-64750000D03*
X147350000Y-65400000D03*
X147350000Y-66050000D03*
X149250000Y-66050000D03*
X149250000Y-64750000D03*
%TD*%
D11*
%TO.C,R47*%
X108075000Y-78750000D03*
X106425000Y-78750000D03*
%TD*%
D15*
%TO.C,R9*%
X174850000Y-56500000D03*
X176500000Y-56500000D03*
%TD*%
D21*
%TO.C,C2*%
X186600000Y-77225000D03*
X186600000Y-78775000D03*
%TD*%
D14*
%TO.C,R31*%
X131500000Y-53850000D03*
X131500000Y-55500000D03*
%TD*%
D24*
%TO.C,C27*%
X80600000Y-55860000D03*
X80600000Y-54310000D03*
%TD*%
D14*
%TO.C,R32*%
X125500000Y-54850000D03*
X125500000Y-56500000D03*
%TD*%
D20*
%TO.C,R23*%
X85750000Y-87537500D03*
X85750000Y-84612500D03*
%TD*%
D14*
%TO.C,R52*%
X199500000Y-39675000D03*
X199500000Y-41325000D03*
%TD*%
D11*
%TO.C,R55*%
X213075000Y-74500000D03*
X211425000Y-74500000D03*
%TD*%
D14*
%TO.C,R26*%
X125500000Y-39250000D03*
X125500000Y-40900000D03*
%TD*%
%TO.C,R12*%
X107000000Y-50900000D03*
X107000000Y-52550000D03*
%TD*%
%TO.C,R30*%
X125500000Y-49500000D03*
X125500000Y-51150000D03*
%TD*%
D12*
%TO.C,R17*%
X103310000Y-42825000D03*
X103310000Y-41175000D03*
%TD*%
D11*
%TO.C,R11*%
X206325000Y-55250000D03*
X204675000Y-55250000D03*
%TD*%
D24*
%TO.C,C23*%
X100310000Y-41000000D03*
X100310000Y-39450000D03*
%TD*%
%TO.C,C28*%
X79250000Y-95750000D03*
X79250000Y-94200000D03*
%TD*%
D15*
%TO.C,R56*%
X211425000Y-70675000D03*
X213075000Y-70675000D03*
%TD*%
D22*
%TO.C,U14*%
X147350000Y-42750000D03*
X147350000Y-43400000D03*
X147350000Y-44050000D03*
X149250000Y-44050000D03*
X149250000Y-42750000D03*
%TD*%
D21*
%TO.C,C30*%
X182250000Y-90900000D03*
X182250000Y-92450000D03*
%TD*%
D25*
%TO.C,D3*%
X93000000Y-48000000D03*
X89000000Y-48000000D03*
%TD*%
D13*
%TO.C,C35*%
X204000000Y-65250000D03*
X205550000Y-65250000D03*
%TD*%
D22*
%TO.C,U11*%
X147350000Y-53750000D03*
X147350000Y-54400000D03*
X147350000Y-55050000D03*
X149250000Y-55050000D03*
X149250000Y-53750000D03*
%TD*%
D14*
%TO.C,R13*%
X176250000Y-70175000D03*
X176250000Y-71825000D03*
%TD*%
D26*
%TO.C,L2*%
X117925000Y-43000000D03*
X120075000Y-43000000D03*
%TD*%
D15*
%TO.C,R18*%
X99675000Y-35000000D03*
X101325000Y-35000000D03*
%TD*%
D11*
%TO.C,R2*%
X112075000Y-70250000D03*
X110425000Y-70250000D03*
%TD*%
D27*
%TO.C,C20*%
X95205000Y-35095000D03*
X97105000Y-35095000D03*
%TD*%
D13*
%TO.C,C13*%
X179450000Y-52500000D03*
X181000000Y-52500000D03*
%TD*%
D14*
%TO.C,R35*%
X125500000Y-60175000D03*
X125500000Y-61825000D03*
%TD*%
%TO.C,R29*%
X131425000Y-48425000D03*
X131425000Y-50075000D03*
%TD*%
D13*
%TO.C,C6*%
X183950000Y-89000000D03*
X185500000Y-89000000D03*
%TD*%
D11*
%TO.C,R41*%
X75650000Y-63200000D03*
X74000000Y-63200000D03*
%TD*%
D15*
%TO.C,R4*%
X109675000Y-89250000D03*
X111325000Y-89250000D03*
%TD*%
D28*
%TO.C,C5*%
X172950000Y-70500000D03*
X171050000Y-70500000D03*
%TD*%
D29*
%TO.C,U2*%
X96155000Y-39955000D03*
X94655000Y-39955000D03*
X96155000Y-41095000D03*
X94655000Y-41095000D03*
D30*
X97310000Y-38050000D03*
X96040000Y-38050000D03*
X94770000Y-38050000D03*
X93500000Y-38050000D03*
X93500000Y-43000000D03*
X94770000Y-43000000D03*
X96040000Y-43000000D03*
X97310000Y-43000000D03*
%TD*%
D31*
%TO.C,FB1*%
X187962500Y-91500000D03*
X189537500Y-91500000D03*
%TD*%
D21*
%TO.C,C14*%
X202000000Y-51525000D03*
X202000000Y-53075000D03*
%TD*%
D32*
%TO.C,C7*%
X186025000Y-91500000D03*
X184475000Y-91500000D03*
%TD*%
D13*
%TO.C,C4*%
X173475000Y-73500000D03*
X175025000Y-73500000D03*
%TD*%
D11*
%TO.C,R48*%
X108075000Y-83000000D03*
X106425000Y-83000000D03*
%TD*%
D24*
%TO.C,C1*%
X170500000Y-85775000D03*
X170500000Y-84225000D03*
%TD*%
D12*
%TO.C,R39*%
X81250000Y-60135000D03*
X81250000Y-58485000D03*
%TD*%
D20*
%TO.C,R21*%
X83000000Y-82000000D03*
X83000000Y-79075000D03*
%TD*%
D24*
%TO.C,C25*%
X79000000Y-71000000D03*
X79000000Y-69450000D03*
%TD*%
D33*
%TO.C,U8*%
X113000000Y-41500000D03*
X113000000Y-42000000D03*
X113000000Y-42500000D03*
X113000000Y-43000000D03*
X114450000Y-43000000D03*
X114450000Y-42500000D03*
X114450000Y-42000000D03*
X114450000Y-41500000D03*
%TD*%
D13*
%TO.C,C9*%
X178250000Y-89000000D03*
X179800000Y-89000000D03*
%TD*%
D34*
%TO.C,U7*%
X68830000Y-56012500D03*
X70100000Y-56012500D03*
X71370000Y-56012500D03*
X72640000Y-56012500D03*
X73910000Y-56012500D03*
X75180000Y-56012500D03*
X76450000Y-56012500D03*
X76450000Y-51062500D03*
X75180000Y-51062500D03*
X73910000Y-51062500D03*
X72640000Y-51062500D03*
X71370000Y-51062500D03*
X70100000Y-51062500D03*
X68830000Y-51062500D03*
%TD*%
D12*
%TO.C,R38*%
X92000000Y-104325000D03*
X92000000Y-102675000D03*
%TD*%
D15*
%TO.C,R50*%
X197500000Y-47250000D03*
X199150000Y-47250000D03*
%TD*%
%TO.C,R1*%
X168850000Y-82500000D03*
X170500000Y-82500000D03*
%TD*%
D32*
%TO.C,C12*%
X206525000Y-79250000D03*
X204975000Y-79250000D03*
%TD*%
D35*
%TO.C,C18*%
X88550000Y-42000000D03*
X83450000Y-42000000D03*
%TD*%
D36*
%TO.C,C24*%
X72450000Y-46250000D03*
X72450000Y-35250000D03*
%TD*%
D21*
%TO.C,C3*%
X186250000Y-84250000D03*
X186250000Y-85800000D03*
%TD*%
D32*
%TO.C,C26*%
X94975000Y-106250000D03*
X93425000Y-106250000D03*
%TD*%
D13*
%TO.C,C34*%
X197550000Y-44250000D03*
X199100000Y-44250000D03*
%TD*%
D15*
%TO.C,R45*%
X203000000Y-99000000D03*
X204650000Y-99000000D03*
%TD*%
D32*
%TO.C,C36*%
X213025000Y-72750000D03*
X211475000Y-72750000D03*
%TD*%
D19*
%TO.C,Q2*%
X129437500Y-50200000D03*
X129437500Y-48300000D03*
X127562500Y-49250000D03*
%TD*%
D14*
%TO.C,R36*%
X131625000Y-64350000D03*
X131625000Y-66000000D03*
%TD*%
D37*
%TO.C,U5*%
X92850000Y-60810000D03*
X92850000Y-58270000D03*
X92850000Y-55730000D03*
X92850000Y-53190000D03*
X84150000Y-53190000D03*
X84150000Y-55730000D03*
X84150000Y-58270000D03*
X84150000Y-60810000D03*
%TD*%
D15*
%TO.C,R49*%
X184925000Y-47000000D03*
X186575000Y-47000000D03*
%TD*%
D35*
%TO.C,C19*%
X88550000Y-35000000D03*
X83450000Y-35000000D03*
%TD*%
D13*
%TO.C,C8*%
X191500000Y-91500000D03*
X193050000Y-91500000D03*
%TD*%
%TO.C,C11*%
X109725000Y-87250000D03*
X111275000Y-87250000D03*
%TD*%
D38*
%TO.C,U1*%
X174500000Y-87000000D03*
X175000000Y-87000000D03*
X175500000Y-87000000D03*
X176000000Y-87000000D03*
X176500000Y-87000000D03*
X177000000Y-87000000D03*
X177500000Y-87000000D03*
X178000000Y-87000000D03*
X178500000Y-87000000D03*
X179000000Y-87000000D03*
X179500000Y-87000000D03*
X180000000Y-87000000D03*
X180500000Y-87000000D03*
X181000000Y-87000000D03*
X181500000Y-87000000D03*
X182000000Y-87000000D03*
D39*
X183925000Y-85075000D03*
X183925000Y-84575000D03*
X183925000Y-84075000D03*
X183925000Y-83575000D03*
X183925000Y-83075000D03*
X183925000Y-82575000D03*
X183925000Y-82075000D03*
X183925000Y-81575000D03*
X183925000Y-81075000D03*
X183925000Y-80575000D03*
X183925000Y-80075000D03*
X183925000Y-79575000D03*
X183925000Y-79075000D03*
X183925000Y-78575000D03*
X183925000Y-78075000D03*
X183925000Y-77575000D03*
D38*
X182000000Y-75650000D03*
X181500000Y-75650000D03*
X181000000Y-75650000D03*
X180500000Y-75650000D03*
X180000000Y-75650000D03*
X179500000Y-75650000D03*
X179000000Y-75650000D03*
X178500000Y-75650000D03*
X178000000Y-75650000D03*
X177500000Y-75650000D03*
X177000000Y-75650000D03*
X176500000Y-75650000D03*
X176000000Y-75650000D03*
X175500000Y-75650000D03*
X175000000Y-75650000D03*
X174500000Y-75650000D03*
D39*
X172575000Y-77575000D03*
X172575000Y-78075000D03*
X172575000Y-78575000D03*
X172575000Y-79075000D03*
X172575000Y-79575000D03*
X172575000Y-80075000D03*
X172575000Y-80575000D03*
X172575000Y-81075000D03*
X172575000Y-81575000D03*
X172575000Y-82075000D03*
X172575000Y-82575000D03*
X172575000Y-83075000D03*
X172575000Y-83575000D03*
X172575000Y-84075000D03*
X172575000Y-84575000D03*
X172575000Y-85075000D03*
%TD*%
D22*
%TO.C,U10*%
X147350000Y-59250000D03*
X147350000Y-59900000D03*
X147350000Y-60550000D03*
X149250000Y-60550000D03*
X149250000Y-59250000D03*
%TD*%
D32*
%TO.C,C10*%
X112025000Y-72250000D03*
X110475000Y-72250000D03*
%TD*%
D40*
%TO.C,D4*%
X65587500Y-96900000D03*
X64012500Y-96900000D03*
%TD*%
D15*
%TO.C,R54*%
X206175000Y-62250000D03*
X207825000Y-62250000D03*
%TD*%
D20*
%TO.C,R22*%
X83000000Y-87500000D03*
X83000000Y-84575000D03*
%TD*%
D41*
%TO.C,C22*%
X99500000Y-56800000D03*
X99500000Y-62200000D03*
%TD*%
D32*
%TO.C,C32*%
X120050000Y-45500000D03*
X118500000Y-45500000D03*
%TD*%
D11*
%TO.C,R6*%
X206575000Y-77250000D03*
X204925000Y-77250000D03*
%TD*%
D24*
%TO.C,C29*%
X175750000Y-92425000D03*
X175750000Y-90875000D03*
%TD*%
D21*
%TO.C,C21*%
X105000000Y-50950000D03*
X105000000Y-52500000D03*
%TD*%
D42*
%TO.C,L1*%
X99500000Y-46475000D03*
X99500000Y-52525000D03*
%TD*%
D14*
%TO.C,R28*%
X125500000Y-44175000D03*
X125500000Y-45825000D03*
%TD*%
D22*
%TO.C,U13*%
X147350000Y-48250000D03*
X147350000Y-48900000D03*
X147350000Y-49550000D03*
X149250000Y-49550000D03*
X149250000Y-48250000D03*
%TD*%
D21*
%TO.C,C31*%
X109400000Y-41225000D03*
X109400000Y-42775000D03*
%TD*%
D20*
%TO.C,R20*%
X88500000Y-82000000D03*
X88500000Y-79075000D03*
%TD*%
D43*
%TO.C,U6*%
X121555000Y-90730000D03*
X121555000Y-93270000D03*
X130445000Y-93270000D03*
X130445000Y-90730000D03*
%TD*%
D12*
%TO.C,R8*%
X205000000Y-83750000D03*
X205000000Y-82100000D03*
%TD*%
D31*
%TO.C,D5*%
X75612500Y-60000000D03*
X77187500Y-60000000D03*
%TD*%
D19*
%TO.C,Q1*%
X129437500Y-39850000D03*
X129437500Y-37950000D03*
X127562500Y-38900000D03*
%TD*%
D15*
%TO.C,R7*%
X179400000Y-54500000D03*
X181050000Y-54500000D03*
%TD*%
D11*
%TO.C,R16*%
X71225000Y-97000000D03*
X69575000Y-97000000D03*
%TD*%
D14*
%TO.C,R37*%
X125625000Y-65350000D03*
X125625000Y-67000000D03*
%TD*%
D37*
%TO.C,U3*%
X104200000Y-103870000D03*
X104200000Y-101330000D03*
X104200000Y-98790000D03*
X104200000Y-96250000D03*
X95500000Y-96250000D03*
X95500000Y-98790000D03*
X95500000Y-101330000D03*
X95500000Y-103870000D03*
%TD*%
D14*
%TO.C,R15*%
X180250000Y-70175000D03*
X180250000Y-71825000D03*
%TD*%
D19*
%TO.C,Q3*%
X129437500Y-55625000D03*
X129437500Y-53725000D03*
X127562500Y-54675000D03*
%TD*%
%TO.C,Q4*%
X129437500Y-44950000D03*
X129437500Y-43050000D03*
X127562500Y-44000000D03*
%TD*%
D14*
%TO.C,R27*%
X131500000Y-43175000D03*
X131500000Y-44825000D03*
%TD*%
D15*
%TO.C,R5*%
X106175000Y-86750000D03*
X107825000Y-86750000D03*
%TD*%
M02*
